<svg version="1.1" xmlns="http://www.w3.org/2000/svg" xmlns:xlink="http://www.w3.org/1999/xlink" width="732" height="356"><defs/><g><text fill="#eeeeee" stroke="none" font-family="Arial" font-size="24px" font-style="normal" font-weight="normal" text-decoration="none" x="0" y="0">UNREGISTERED</text><text fill="#eeeeee" stroke="none" font-family="Arial" font-size="24px" font-style="normal" font-weight="normal" text-decoration="none" x="0" y="30">UNREGISTERED</text><text fill="#eeeeee" stroke="none" font-family="Arial" font-size="24px" font-style="normal" font-weight="normal" text-decoration="none" x="0" y="60">UNREGISTERED</text><text fill="#eeeeee" stroke="none" font-family="Arial" font-size="24px" font-style="normal" font-weight="normal" text-decoration="none" x="0" y="90">UNREGISTERED</text><text fill="#eeeeee" stroke="none" font-family="Arial" font-size="24px" font-style="normal" font-weight="normal" text-decoration="none" x="0" y="120">UNREGISTERED</text><text fill="#eeeeee" stroke="none" font-family="Arial" font-size="24px" font-style="normal" font-weight="normal" text-decoration="none" x="0" y="150">UNREGISTERED</text><text fill="#eeeeee" stroke="none" font-family="Arial" font-size="24px" font-style="normal" font-weight="normal" text-decoration="none" x="0" y="180">UNREGISTERED</text><text fill="#eeeeee" stroke="none" font-family="Arial" font-size="24px" font-style="normal" font-weight="normal" text-decoration="none" x="0" y="210">UNREGISTERED</text><text fill="#eeeeee" stroke="none" font-family="Arial" font-size="24px" font-style="normal" font-weight="normal" text-decoration="none" x="0" y="240">UNREGISTERED</text><text fill="#eeeeee" stroke="none" font-family="Arial" font-size="24px" font-style="normal" font-weight="normal" text-decoration="none" x="0" y="270">UNREGISTERED</text><text fill="#eeeeee" stroke="none" font-family="Arial" font-size="24px" font-style="normal" font-weight="normal" text-decoration="none" x="0" y="300">UNREGISTERED</text><text fill="#eeeeee" stroke="none" font-family="Arial" font-size="24px" font-style="normal" font-weight="normal" text-decoration="none" x="0" y="330">UNREGISTERED</text><text fill="#eeeeee" stroke="none" font-family="Arial" font-size="24px" font-style="normal" font-weight="normal" text-decoration="none" x="200" y="0">UNREGISTERED</text><text fill="#eeeeee" stroke="none" font-family="Arial" font-size="24px" font-style="normal" font-weight="normal" text-decoration="none" x="200" y="30">UNREGISTERED</text><text fill="#eeeeee" stroke="none" font-family="Arial" font-size="24px" font-style="normal" font-weight="normal" text-decoration="none" x="200" y="60">UNREGISTERED</text><text fill="#eeeeee" stroke="none" font-family="Arial" font-size="24px" font-style="normal" font-weight="normal" text-decoration="none" x="200" y="90">UNREGISTERED</text><text fill="#eeeeee" stroke="none" font-family="Arial" font-size="24px" font-style="normal" font-weight="normal" text-decoration="none" x="200" y="120">UNREGISTERED</text><text fill="#eeeeee" stroke="none" font-family="Arial" font-size="24px" font-style="normal" font-weight="normal" text-decoration="none" x="200" y="150">UNREGISTERED</text><text fill="#eeeeee" stroke="none" font-family="Arial" font-size="24px" font-style="normal" font-weight="normal" text-decoration="none" x="200" y="180">UNREGISTERED</text><text fill="#eeeeee" stroke="none" font-family="Arial" font-size="24px" font-style="normal" font-weight="normal" text-decoration="none" x="200" y="210">UNREGISTERED</text><text fill="#eeeeee" stroke="none" font-family="Arial" font-size="24px" font-style="normal" font-weight="normal" text-decoration="none" x="200" y="240">UNREGISTERED</text><text fill="#eeeeee" stroke="none" font-family="Arial" font-size="24px" font-style="normal" font-weight="normal" text-decoration="none" x="200" y="270">UNREGISTERED</text><text fill="#eeeeee" stroke="none" font-family="Arial" font-size="24px" font-style="normal" font-weight="normal" text-decoration="none" x="200" y="300">UNREGISTERED</text><text fill="#eeeeee" stroke="none" font-family="Arial" font-size="24px" font-style="normal" font-weight="normal" text-decoration="none" x="200" y="330">UNREGISTERED</text><text fill="#eeeeee" stroke="none" font-family="Arial" font-size="24px" font-style="normal" font-weight="normal" text-decoration="none" x="400" y="0">UNREGISTERED</text><text fill="#eeeeee" stroke="none" font-family="Arial" font-size="24px" font-style="normal" font-weight="normal" text-decoration="none" x="400" y="30">UNREGISTERED</text><text fill="#eeeeee" stroke="none" font-family="Arial" font-size="24px" font-style="normal" font-weight="normal" text-decoration="none" x="400" y="60">UNREGISTERED</text><text fill="#eeeeee" stroke="none" font-family="Arial" font-size="24px" font-style="normal" font-weight="normal" text-decoration="none" x="400" y="90">UNREGISTERED</text><text fill="#eeeeee" stroke="none" font-family="Arial" font-size="24px" font-style="normal" font-weight="normal" text-decoration="none" x="400" y="120">UNREGISTERED</text><text fill="#eeeeee" stroke="none" font-family="Arial" font-size="24px" font-style="normal" font-weight="normal" text-decoration="none" x="400" y="150">UNREGISTERED</text><text fill="#eeeeee" stroke="none" font-family="Arial" font-size="24px" font-style="normal" font-weight="normal" text-decoration="none" x="400" y="180">UNREGISTERED</text><text fill="#eeeeee" stroke="none" font-family="Arial" font-size="24px" font-style="normal" font-weight="normal" text-decoration="none" x="400" y="210">UNREGISTERED</text><text fill="#eeeeee" stroke="none" font-family="Arial" font-size="24px" font-style="normal" font-weight="normal" text-decoration="none" x="400" y="240">UNREGISTERED</text><text fill="#eeeeee" stroke="none" font-family="Arial" font-size="24px" font-style="normal" font-weight="normal" text-decoration="none" x="400" y="270">UNREGISTERED</text><text fill="#eeeeee" stroke="none" font-family="Arial" font-size="24px" font-style="normal" font-weight="normal" text-decoration="none" x="400" y="300">UNREGISTERED</text><text fill="#eeeeee" stroke="none" font-family="Arial" font-size="24px" font-style="normal" font-weight="normal" text-decoration="none" x="400" y="330">UNREGISTERED</text><text fill="#eeeeee" stroke="none" font-family="Arial" font-size="24px" font-style="normal" font-weight="normal" text-decoration="none" x="600" y="0">UNREGISTERED</text><text fill="#eeeeee" stroke="none" font-family="Arial" font-size="24px" font-style="normal" font-weight="normal" text-decoration="none" x="600" y="30">UNREGISTERED</text><text fill="#eeeeee" stroke="none" font-family="Arial" font-size="24px" font-style="normal" font-weight="normal" text-decoration="none" x="600" y="60">UNREGISTERED</text><text fill="#eeeeee" stroke="none" font-family="Arial" font-size="24px" font-style="normal" font-weight="normal" text-decoration="none" x="600" y="90">UNREGISTERED</text><text fill="#eeeeee" stroke="none" font-family="Arial" font-size="24px" font-style="normal" font-weight="normal" text-decoration="none" x="600" y="120">UNREGISTERED</text><text fill="#eeeeee" stroke="none" font-family="Arial" font-size="24px" font-style="normal" font-weight="normal" text-decoration="none" x="600" y="150">UNREGISTERED</text><text fill="#eeeeee" stroke="none" font-family="Arial" font-size="24px" font-style="normal" font-weight="normal" text-decoration="none" x="600" y="180">UNREGISTERED</text><text fill="#eeeeee" stroke="none" font-family="Arial" font-size="24px" font-style="normal" font-weight="normal" text-decoration="none" x="600" y="210">UNREGISTERED</text><text fill="#eeeeee" stroke="none" font-family="Arial" font-size="24px" font-style="normal" font-weight="normal" text-decoration="none" x="600" y="240">UNREGISTERED</text><text fill="#eeeeee" stroke="none" font-family="Arial" font-size="24px" font-style="normal" font-weight="normal" text-decoration="none" x="600" y="270">UNREGISTERED</text><text fill="#eeeeee" stroke="none" font-family="Arial" font-size="24px" font-style="normal" font-weight="normal" text-decoration="none" x="600" y="300">UNREGISTERED</text><text fill="#eeeeee" stroke="none" font-family="Arial" font-size="24px" font-style="normal" font-weight="normal" text-decoration="none" x="600" y="330">UNREGISTERED</text><g transform="translate(-118,-54) scale(1,1)"><rect fill="#ffffff" stroke="none" x="128" y="64" width="712" height="336"/></g><g transform="translate(-118,-54) scale(1,1)"><path fill="none" stroke="#000000" d="M 128 64 L 840 64 L 840 400 L 128 400 L 128 64 Z Z" stroke-miterlimit="10"/></g><g transform="translate(-118,-54) scale(1,1)"><rect fill="#C0C0C0" stroke="none" x="143" y="167" width="307.76513671875" height="85" opacity="0.2"/></g><g transform="translate(-118,-54) scale(1,1)"><rect fill="#ffffff" stroke="none" x="136" y="160" width="307.76513671875" height="85"/></g><g transform="translate(-118,-54) scale(1,1)"><path fill="none" stroke="#000000" d="M 136 160 L 443.76513671875 160 L 443.76513671875 245 L 136 245 L 136 160 Z Z" stroke-miterlimit="10"/></g><g transform="translate(-118,-54) scale(1,1)"><path fill="none" stroke="#000000" d="M 136 185 L 443.76513671875 185" stroke-miterlimit="10"/></g><g transform="translate(-118,-54) scale(1,1)"><path fill="none" stroke="#000000" d="M 136 208 L 443.76513671875 208" stroke-miterlimit="10"/></g><g transform="translate(-118,-54) scale(1,1)"><g><path fill="none" stroke="none"/><text fill="#000000" stroke="none" font-family="Arial" font-size="13px" font-style="normal" font-weight="bold" text-decoration="none" x="195.59130859375" y="179.5">CityStatisticsNotFoundException</text></g></g><g transform="translate(-118,-54) scale(1,1)"><g><path fill="none" stroke="none"/><text fill="#000000" stroke="none" font-family="Arial" font-size="13px" font-style="normal" font-weight="normal" text-decoration="none" x="141" y="202.5">-message: String</text></g></g><g transform="translate(-118,-54) scale(1,1)"><g><path fill="none" stroke="none"/><text fill="#000000" stroke="none" font-family="Arial" font-size="13px" font-style="normal" font-weight="normal" text-decoration="none" x="141" y="225.5">+CityStatisticsNotFoundException(message: String)</text></g></g><g transform="translate(-118,-54) scale(1,1)"><g><path fill="none" stroke="none"/><text fill="#000000" stroke="none" font-family="Arial" font-size="13px" font-style="normal" font-weight="normal" text-decoration="none" x="141" y="240.5">+getMessage(): String</text></g></g><g transform="translate(-118,-54) scale(1,1)"><rect fill="#C0C0C0" stroke="none" x="143" y="87" width="278.4" height="15" opacity="0.2"/></g><g transform="translate(-118,-54) scale(1,1)"><rect fill="#C0C0C0" stroke="none" x="143" y="101" width="696" height="25" opacity="0.2"/></g><g transform="translate(-118,-54) scale(1,1)"><rect fill="#ffffff" stroke="none" x="136" y="95" width="696" height="24"/></g><g transform="translate(-118,-54) scale(1,1)"><path fill="none" stroke="#000000" d="M 136 95 L 832 95 L 832 119 L 136 119 L 136 95 Z Z" stroke-miterlimit="10"/></g><g transform="translate(-118,-54) scale(1,1)"><rect fill="#ffffff" stroke="none" x="136" y="80" width="278.4" height="15"/></g><g transform="translate(-118,-54) scale(1,1)"><path fill="none" stroke="#000000" d="M 136 80 L 414.4 80 L 414.4 95 L 136 95 L 136 80 Z Z" stroke-miterlimit="10"/></g><g transform="translate(-118,-54) scale(1,1)"><rect fill="#ffffff" stroke="none" x="136" y="94" width="696" height="25"/></g><g transform="translate(-118,-54) scale(1,1)"><path fill="none" stroke="#000000" d="M 136 94 L 832 94 L 832 119 L 136 119 L 136 94 Z Z" stroke-miterlimit="10"/></g><g transform="translate(-118,-54) scale(1,1)"><g><path fill="none" stroke="none"/><text fill="#000000" stroke="none" font-family="Arial" font-size="13px" font-style="normal" font-weight="bold" text-decoration="none" x="387.537841796875" y="114.5">it.univpm.pressurestats.exception</text></g></g><g transform="translate(-118,-54) scale(1,1)"><rect fill="#C0C0C0" stroke="none" x="575" y="167" width="256.482421875" height="85" opacity="0.2"/></g><g transform="translate(-118,-54) scale(1,1)"><rect fill="#ffffff" stroke="none" x="568" y="160" width="256.482421875" height="85"/></g><g transform="translate(-118,-54) scale(1,1)"><path fill="none" stroke="#000000" d="M 568 160 L 824.482421875 160 L 824.482421875 245 L 568 245 L 568 160 Z Z" stroke-miterlimit="10"/></g><g transform="translate(-118,-54) scale(1,1)"><path fill="none" stroke="#000000" d="M 568 185 L 824.482421875 185" stroke-miterlimit="10"/></g><g transform="translate(-118,-54) scale(1,1)"><path fill="none" stroke="#000000" d="M 568 208 L 824.482421875 208" stroke-miterlimit="10"/></g><g transform="translate(-118,-54) scale(1,1)"><g><path fill="none" stroke="none"/><text fill="#000000" stroke="none" font-family="Arial" font-size="13px" font-style="normal" font-weight="bold" text-decoration="none" x="627.59130859375" y="179.5">DayNotFoundException</text></g></g><g transform="translate(-118,-54) scale(1,1)"><g><path fill="none" stroke="none"/><text fill="#000000" stroke="none" font-family="Arial" font-size="13px" font-style="normal" font-weight="normal" text-decoration="none" x="573" y="202.5">-message: String</text></g></g><g transform="translate(-118,-54) scale(1,1)"><g><path fill="none" stroke="none"/><text fill="#000000" stroke="none" font-family="Arial" font-size="13px" font-style="normal" font-weight="normal" text-decoration="none" x="573" y="225.5">+DayNotFoundException(message: String)</text></g></g><g transform="translate(-118,-54) scale(1,1)"><g><path fill="none" stroke="none"/><text fill="#000000" stroke="none" font-family="Arial" font-size="13px" font-style="normal" font-weight="normal" text-decoration="none" x="573" y="240.5">+getMessage(): String</text></g></g><g transform="translate(-118,-54) scale(1,1)"><rect fill="#C0C0C0" stroke="none" x="143" y="303" width="290.4423828125" height="85" opacity="0.2"/></g><g transform="translate(-118,-54) scale(1,1)"><rect fill="#ffffff" stroke="none" x="136" y="296" width="290.4423828125" height="85"/></g><g transform="translate(-118,-54) scale(1,1)"><path fill="none" stroke="#000000" d="M 136 296 L 426.4423828125 296 L 426.4423828125 381 L 136 381 L 136 296 Z Z" stroke-miterlimit="10"/></g><g transform="translate(-118,-54) scale(1,1)"><path fill="none" stroke="#000000" d="M 136 321 L 426.4423828125 321" stroke-miterlimit="10"/></g><g transform="translate(-118,-54) scale(1,1)"><path fill="none" stroke="#000000" d="M 136 344 L 426.4423828125 344" stroke-miterlimit="10"/></g><g transform="translate(-118,-54) scale(1,1)"><g><path fill="none" stroke="none"/><text fill="#000000" stroke="none" font-family="Arial" font-size="13px" font-style="normal" font-weight="bold" text-decoration="none" x="195.59130859375" y="315.5">ItalianCityNotFoundException</text></g></g><g transform="translate(-118,-54) scale(1,1)"><g><path fill="none" stroke="none"/><text fill="#000000" stroke="none" font-family="Arial" font-size="13px" font-style="normal" font-weight="normal" text-decoration="none" x="141" y="338.5">-message: String</text></g></g><g transform="translate(-118,-54) scale(1,1)"><g><path fill="none" stroke="none"/><text fill="#000000" stroke="none" font-family="Arial" font-size="13px" font-style="normal" font-weight="normal" text-decoration="none" x="141" y="361.5">+ItalianCityNotFoundException(message: String)</text></g></g><g transform="translate(-118,-54) scale(1,1)"><g><path fill="none" stroke="none"/><text fill="#000000" stroke="none" font-family="Arial" font-size="13px" font-style="normal" font-weight="normal" text-decoration="none" x="141" y="376.5">+getMessage(): String</text></g></g><g transform="translate(-118,-54) scale(1,1)"><rect fill="#C0C0C0" stroke="none" x="551" y="303" width="286.5830078125" height="85" opacity="0.2"/></g><g transform="translate(-118,-54) scale(1,1)"><rect fill="#ffffff" stroke="none" x="544" y="296" width="286.5830078125" height="85"/></g><g transform="translate(-118,-54) scale(1,1)"><path fill="none" stroke="#000000" d="M 544 296 L 830.5830078125 296 L 830.5830078125 381 L 544 381 L 544 296 Z Z" stroke-miterlimit="10"/></g><g transform="translate(-118,-54) scale(1,1)"><path fill="none" stroke="#000000" d="M 544 321 L 830.5830078125 321" stroke-miterlimit="10"/></g><g transform="translate(-118,-54) scale(1,1)"><path fill="none" stroke="#000000" d="M 544 344 L 830.5830078125 344" stroke-miterlimit="10"/></g><g transform="translate(-118,-54) scale(1,1)"><g><path fill="none" stroke="none"/><text fill="#000000" stroke="none" font-family="Arial" font-size="13px" font-style="normal" font-weight="bold" text-decoration="none" x="603.59130859375" y="315.5">WrongHoursPeriodException</text></g></g><g transform="translate(-118,-54) scale(1,1)"><g><path fill="none" stroke="none"/><text fill="#000000" stroke="none" font-family="Arial" font-size="13px" font-style="normal" font-weight="normal" text-decoration="none" x="549" y="338.5">-message: String</text></g></g><g transform="translate(-118,-54) scale(1,1)"><g><path fill="none" stroke="none"/><text fill="#000000" stroke="none" font-family="Arial" font-size="13px" font-style="normal" font-weight="normal" text-decoration="none" x="549" y="361.5">+WrongHoursPeriodException(message: String)</text></g></g><g transform="translate(-118,-54) scale(1,1)"><g><path fill="none" stroke="none"/><text fill="#000000" stroke="none" font-family="Arial" font-size="13px" font-style="normal" font-weight="normal" text-decoration="none" x="549" y="376.5">+getMessage(): String</text></g></g></g></svg>