<svg version="1.1" xmlns="http://www.w3.org/2000/svg" xmlns:xlink="http://www.w3.org/1999/xlink" width="409.40869140625" height="244"><defs/><g><text fill="#eeeeee" stroke="none" font-family="Arial" font-size="24px" font-style="normal" font-weight="normal" text-decoration="none" x="0" y="0">UNREGISTERED</text><text fill="#eeeeee" stroke="none" font-family="Arial" font-size="24px" font-style="normal" font-weight="normal" text-decoration="none" x="0" y="30">UNREGISTERED</text><text fill="#eeeeee" stroke="none" font-family="Arial" font-size="24px" font-style="normal" font-weight="normal" text-decoration="none" x="0" y="60">UNREGISTERED</text><text fill="#eeeeee" stroke="none" font-family="Arial" font-size="24px" font-style="normal" font-weight="normal" text-decoration="none" x="0" y="90">UNREGISTERED</text><text fill="#eeeeee" stroke="none" font-family="Arial" font-size="24px" font-style="normal" font-weight="normal" text-decoration="none" x="0" y="120">UNREGISTERED</text><text fill="#eeeeee" stroke="none" font-family="Arial" font-size="24px" font-style="normal" font-weight="normal" text-decoration="none" x="0" y="150">UNREGISTERED</text><text fill="#eeeeee" stroke="none" font-family="Arial" font-size="24px" font-style="normal" font-weight="normal" text-decoration="none" x="0" y="180">UNREGISTERED</text><text fill="#eeeeee" stroke="none" font-family="Arial" font-size="24px" font-style="normal" font-weight="normal" text-decoration="none" x="0" y="210">UNREGISTERED</text><text fill="#eeeeee" stroke="none" font-family="Arial" font-size="24px" font-style="normal" font-weight="normal" text-decoration="none" x="0" y="240">UNREGISTERED</text><text fill="#eeeeee" stroke="none" font-family="Arial" font-size="24px" font-style="normal" font-weight="normal" text-decoration="none" x="200" y="0">UNREGISTERED</text><text fill="#eeeeee" stroke="none" font-family="Arial" font-size="24px" font-style="normal" font-weight="normal" text-decoration="none" x="200" y="30">UNREGISTERED</text><text fill="#eeeeee" stroke="none" font-family="Arial" font-size="24px" font-style="normal" font-weight="normal" text-decoration="none" x="200" y="60">UNREGISTERED</text><text fill="#eeeeee" stroke="none" font-family="Arial" font-size="24px" font-style="normal" font-weight="normal" text-decoration="none" x="200" y="90">UNREGISTERED</text><text fill="#eeeeee" stroke="none" font-family="Arial" font-size="24px" font-style="normal" font-weight="normal" text-decoration="none" x="200" y="120">UNREGISTERED</text><text fill="#eeeeee" stroke="none" font-family="Arial" font-size="24px" font-style="normal" font-weight="normal" text-decoration="none" x="200" y="150">UNREGISTERED</text><text fill="#eeeeee" stroke="none" font-family="Arial" font-size="24px" font-style="normal" font-weight="normal" text-decoration="none" x="200" y="180">UNREGISTERED</text><text fill="#eeeeee" stroke="none" font-family="Arial" font-size="24px" font-style="normal" font-weight="normal" text-decoration="none" x="200" y="210">UNREGISTERED</text><text fill="#eeeeee" stroke="none" font-family="Arial" font-size="24px" font-style="normal" font-weight="normal" text-decoration="none" x="200" y="240">UNREGISTERED</text><text fill="#eeeeee" stroke="none" font-family="Arial" font-size="24px" font-style="normal" font-weight="normal" text-decoration="none" x="400" y="0">UNREGISTERED</text><text fill="#eeeeee" stroke="none" font-family="Arial" font-size="24px" font-style="normal" font-weight="normal" text-decoration="none" x="400" y="30">UNREGISTERED</text><text fill="#eeeeee" stroke="none" font-family="Arial" font-size="24px" font-style="normal" font-weight="normal" text-decoration="none" x="400" y="60">UNREGISTERED</text><text fill="#eeeeee" stroke="none" font-family="Arial" font-size="24px" font-style="normal" font-weight="normal" text-decoration="none" x="400" y="90">UNREGISTERED</text><text fill="#eeeeee" stroke="none" font-family="Arial" font-size="24px" font-style="normal" font-weight="normal" text-decoration="none" x="400" y="120">UNREGISTERED</text><text fill="#eeeeee" stroke="none" font-family="Arial" font-size="24px" font-style="normal" font-weight="normal" text-decoration="none" x="400" y="150">UNREGISTERED</text><text fill="#eeeeee" stroke="none" font-family="Arial" font-size="24px" font-style="normal" font-weight="normal" text-decoration="none" x="400" y="180">UNREGISTERED</text><text fill="#eeeeee" stroke="none" font-family="Arial" font-size="24px" font-style="normal" font-weight="normal" text-decoration="none" x="400" y="210">UNREGISTERED</text><text fill="#eeeeee" stroke="none" font-family="Arial" font-size="24px" font-style="normal" font-weight="normal" text-decoration="none" x="400" y="240">UNREGISTERED</text><g transform="translate(-10,-10) scale(1,1)"><rect fill="#C0C0C0" stroke="none" x="27" y="106" width="389.40869140625" height="145" opacity="0.2"/></g><g transform="translate(-10,-10) scale(1,1)"><rect fill="#ffffff" stroke="none" x="20" y="99" width="389.40869140625" height="145"/></g><g transform="translate(-10,-10) scale(1,1)"><path fill="none" stroke="#000000" d="M 20 99 L 409.40869140625 99 L 409.40869140625 244 L 20 244 L 20 99 Z Z" stroke-miterlimit="10"/></g><g transform="translate(-10,-10) scale(1,1)"><path fill="none" stroke="#000000" d="M 20 124 L 409.40869140625 124" stroke-miterlimit="10"/></g><g transform="translate(-10,-10) scale(1,1)"><path fill="none" stroke="#000000" d="M 20 162 L 409.40869140625 162" stroke-miterlimit="10"/></g><g transform="translate(-10,-10) scale(1,1)"><g><path fill="none" stroke="none"/><text fill="#000000" stroke="none" font-family="Arial" font-size="13px" font-style="normal" font-weight="bold" text-decoration="none" x="180.750732421875" y="118.5">ServiceImpl</text></g></g><g transform="translate(-10,-10) scale(1,1)"><g><path fill="none" stroke="none"/><text fill="#000000" stroke="none" font-family="Arial" font-size="13px" font-style="normal" font-weight="normal" text-decoration="none" x="25" y="141.5">-apikey: String</text></g></g><g transform="translate(-10,-10) scale(1,1)"><g><path fill="none" stroke="none"/><text fill="#000000" stroke="none" font-family="Arial" font-size="13px" font-style="normal" font-weight="normal" text-decoration="none" x="25" y="156.5">-forecast: JSONObject</text></g></g><g transform="translate(-10,-10) scale(1,1)"><g><path fill="none" stroke="none"/><text fill="#000000" stroke="none" font-family="Arial" font-size="13px" font-style="normal" font-weight="normal" text-decoration="none" x="25" y="179.5">+toJSON(city: City): JSONObject</text></g></g><g transform="translate(-10,-10) scale(1,1)"><g><path fill="none" stroke="none"/><text fill="#000000" stroke="none" font-family="Arial" font-size="13px" font-style="normal" font-weight="normal" text-decoration="none" x="25" y="194.5">+getJSONForecast(name: String, isObject: boolean): JSONObject</text></g></g><g transform="translate(-10,-10) scale(1,1)"><g><path fill="none" stroke="none"/><text fill="#000000" stroke="none" font-family="Arial" font-size="13px" font-style="normal" font-weight="normal" text-decoration="none" x="25" y="209.5">+getForecast(forecast: JSONObject): City</text></g></g><g transform="translate(-10,-10) scale(1,1)"><g><path fill="none" stroke="none"/><text fill="#000000" stroke="none" font-family="Arial" font-size="13px" font-style="normal" font-weight="normal" text-decoration="none" x="25" y="224.5">+saveToFile(obj: JSONObject): void</text></g></g><g transform="translate(-10,-10) scale(1,1)"><g><path fill="none" stroke="none"/><text fill="#000000" stroke="none" font-family="Arial" font-size="13px" font-style="normal" font-weight="normal" text-decoration="none" x="25" y="239.5">+saveToFileHourly(id: String): void</text></g></g><g transform="translate(-10,-10) scale(1,1)"><path fill="#C0C0C0" stroke="none" d="M 149.857177734375 38.5 C 149.857177734375 32.1487248 155.005902534375 27 161.357177734375 27 C 167.708452934375 27 172.857177734375 32.1487248 172.857177734375 38.5 C 172.857177734375 44.8512752 167.708452934375 50 161.357177734375 50 C 155.005902534375 50 149.857177734375 44.8512752 149.857177734375 38.5 Z" opacity="0.2"/></g><g transform="translate(-10,-10) scale(1,1)"><path fill="#ffffff" stroke="none" d="M 142.857177734375 31.5 C 142.857177734375 25.1487248 148.005902534375 20 154.357177734375 20 C 160.708452934375 20 165.857177734375 25.1487248 165.857177734375 31.5 C 165.857177734375 37.8512752 160.708452934375 43 154.357177734375 43 C 148.005902534375 43 142.857177734375 37.8512752 142.857177734375 31.5 Z"/></g><g transform="translate(-10,-10) scale(1,1)"><path fill="none" stroke="#000000" d="M 142.857177734375 31.5 C 142.857177734375 25.1487248 148.005902534375 20 154.357177734375 20 C 160.708452934375 20 165.857177734375 25.1487248 165.857177734375 31.5 C 165.857177734375 37.8512752 160.708452934375 43 154.357177734375 43 C 148.005902534375 43 142.857177734375 37.8512752 142.857177734375 31.5 Z" stroke-miterlimit="10"/></g><g transform="translate(-10,-10) scale(1,1)"><g><path fill="none" stroke="none"/><text fill="#000000" stroke="none" font-family="Arial" font-size="13px" font-style="normal" font-weight="bold" text-decoration="none" x="132.68310546875" y="62.5">Service</text></g></g><g transform="translate(-10,-10) scale(1,1)"><path fill="none" stroke="#000000" d="M 164 98 Q 155 84 154.31578947368422 43" stroke-miterlimit="10"/></g></g></svg>