<svg version="1.1" xmlns="http://www.w3.org/2000/svg" xmlns:xlink="http://www.w3.org/1999/xlink" width="643" height="803"><defs/><g><text fill="#eeeeee" stroke="none" font-family="Arial" font-size="24px" font-style="normal" font-weight="normal" text-decoration="none" x="0" y="0">UNREGISTERED</text><text fill="#eeeeee" stroke="none" font-family="Arial" font-size="24px" font-style="normal" font-weight="normal" text-decoration="none" x="0" y="30">UNREGISTERED</text><text fill="#eeeeee" stroke="none" font-family="Arial" font-size="24px" font-style="normal" font-weight="normal" text-decoration="none" x="0" y="60">UNREGISTERED</text><text fill="#eeeeee" stroke="none" font-family="Arial" font-size="24px" font-style="normal" font-weight="normal" text-decoration="none" x="0" y="90">UNREGISTERED</text><text fill="#eeeeee" stroke="none" font-family="Arial" font-size="24px" font-style="normal" font-weight="normal" text-decoration="none" x="0" y="120">UNREGISTERED</text><text fill="#eeeeee" stroke="none" font-family="Arial" font-size="24px" font-style="normal" font-weight="normal" text-decoration="none" x="0" y="150">UNREGISTERED</text><text fill="#eeeeee" stroke="none" font-family="Arial" font-size="24px" font-style="normal" font-weight="normal" text-decoration="none" x="0" y="180">UNREGISTERED</text><text fill="#eeeeee" stroke="none" font-family="Arial" font-size="24px" font-style="normal" font-weight="normal" text-decoration="none" x="0" y="210">UNREGISTERED</text><text fill="#eeeeee" stroke="none" font-family="Arial" font-size="24px" font-style="normal" font-weight="normal" text-decoration="none" x="0" y="240">UNREGISTERED</text><text fill="#eeeeee" stroke="none" font-family="Arial" font-size="24px" font-style="normal" font-weight="normal" text-decoration="none" x="0" y="270">UNREGISTERED</text><text fill="#eeeeee" stroke="none" font-family="Arial" font-size="24px" font-style="normal" font-weight="normal" text-decoration="none" x="0" y="300">UNREGISTERED</text><text fill="#eeeeee" stroke="none" font-family="Arial" font-size="24px" font-style="normal" font-weight="normal" text-decoration="none" x="0" y="330">UNREGISTERED</text><text fill="#eeeeee" stroke="none" font-family="Arial" font-size="24px" font-style="normal" font-weight="normal" text-decoration="none" x="0" y="360">UNREGISTERED</text><text fill="#eeeeee" stroke="none" font-family="Arial" font-size="24px" font-style="normal" font-weight="normal" text-decoration="none" x="0" y="390">UNREGISTERED</text><text fill="#eeeeee" stroke="none" font-family="Arial" font-size="24px" font-style="normal" font-weight="normal" text-decoration="none" x="0" y="420">UNREGISTERED</text><text fill="#eeeeee" stroke="none" font-family="Arial" font-size="24px" font-style="normal" font-weight="normal" text-decoration="none" x="0" y="450">UNREGISTERED</text><text fill="#eeeeee" stroke="none" font-family="Arial" font-size="24px" font-style="normal" font-weight="normal" text-decoration="none" x="0" y="480">UNREGISTERED</text><text fill="#eeeeee" stroke="none" font-family="Arial" font-size="24px" font-style="normal" font-weight="normal" text-decoration="none" x="0" y="510">UNREGISTERED</text><text fill="#eeeeee" stroke="none" font-family="Arial" font-size="24px" font-style="normal" font-weight="normal" text-decoration="none" x="0" y="540">UNREGISTERED</text><text fill="#eeeeee" stroke="none" font-family="Arial" font-size="24px" font-style="normal" font-weight="normal" text-decoration="none" x="0" y="570">UNREGISTERED</text><text fill="#eeeeee" stroke="none" font-family="Arial" font-size="24px" font-style="normal" font-weight="normal" text-decoration="none" x="0" y="600">UNREGISTERED</text><text fill="#eeeeee" stroke="none" font-family="Arial" font-size="24px" font-style="normal" font-weight="normal" text-decoration="none" x="0" y="630">UNREGISTERED</text><text fill="#eeeeee" stroke="none" font-family="Arial" font-size="24px" font-style="normal" font-weight="normal" text-decoration="none" x="0" y="660">UNREGISTERED</text><text fill="#eeeeee" stroke="none" font-family="Arial" font-size="24px" font-style="normal" font-weight="normal" text-decoration="none" x="0" y="690">UNREGISTERED</text><text fill="#eeeeee" stroke="none" font-family="Arial" font-size="24px" font-style="normal" font-weight="normal" text-decoration="none" x="0" y="720">UNREGISTERED</text><text fill="#eeeeee" stroke="none" font-family="Arial" font-size="24px" font-style="normal" font-weight="normal" text-decoration="none" x="0" y="750">UNREGISTERED</text><text fill="#eeeeee" stroke="none" font-family="Arial" font-size="24px" font-style="normal" font-weight="normal" text-decoration="none" x="0" y="780">UNREGISTERED</text><text fill="#eeeeee" stroke="none" font-family="Arial" font-size="24px" font-style="normal" font-weight="normal" text-decoration="none" x="200" y="0">UNREGISTERED</text><text fill="#eeeeee" stroke="none" font-family="Arial" font-size="24px" font-style="normal" font-weight="normal" text-decoration="none" x="200" y="30">UNREGISTERED</text><text fill="#eeeeee" stroke="none" font-family="Arial" font-size="24px" font-style="normal" font-weight="normal" text-decoration="none" x="200" y="60">UNREGISTERED</text><text fill="#eeeeee" stroke="none" font-family="Arial" font-size="24px" font-style="normal" font-weight="normal" text-decoration="none" x="200" y="90">UNREGISTERED</text><text fill="#eeeeee" stroke="none" font-family="Arial" font-size="24px" font-style="normal" font-weight="normal" text-decoration="none" x="200" y="120">UNREGISTERED</text><text fill="#eeeeee" stroke="none" font-family="Arial" font-size="24px" font-style="normal" font-weight="normal" text-decoration="none" x="200" y="150">UNREGISTERED</text><text fill="#eeeeee" stroke="none" font-family="Arial" font-size="24px" font-style="normal" font-weight="normal" text-decoration="none" x="200" y="180">UNREGISTERED</text><text fill="#eeeeee" stroke="none" font-family="Arial" font-size="24px" font-style="normal" font-weight="normal" text-decoration="none" x="200" y="210">UNREGISTERED</text><text fill="#eeeeee" stroke="none" font-family="Arial" font-size="24px" font-style="normal" font-weight="normal" text-decoration="none" x="200" y="240">UNREGISTERED</text><text fill="#eeeeee" stroke="none" font-family="Arial" font-size="24px" font-style="normal" font-weight="normal" text-decoration="none" x="200" y="270">UNREGISTERED</text><text fill="#eeeeee" stroke="none" font-family="Arial" font-size="24px" font-style="normal" font-weight="normal" text-decoration="none" x="200" y="300">UNREGISTERED</text><text fill="#eeeeee" stroke="none" font-family="Arial" font-size="24px" font-style="normal" font-weight="normal" text-decoration="none" x="200" y="330">UNREGISTERED</text><text fill="#eeeeee" stroke="none" font-family="Arial" font-size="24px" font-style="normal" font-weight="normal" text-decoration="none" x="200" y="360">UNREGISTERED</text><text fill="#eeeeee" stroke="none" font-family="Arial" font-size="24px" font-style="normal" font-weight="normal" text-decoration="none" x="200" y="390">UNREGISTERED</text><text fill="#eeeeee" stroke="none" font-family="Arial" font-size="24px" font-style="normal" font-weight="normal" text-decoration="none" x="200" y="420">UNREGISTERED</text><text fill="#eeeeee" stroke="none" font-family="Arial" font-size="24px" font-style="normal" font-weight="normal" text-decoration="none" x="200" y="450">UNREGISTERED</text><text fill="#eeeeee" stroke="none" font-family="Arial" font-size="24px" font-style="normal" font-weight="normal" text-decoration="none" x="200" y="480">UNREGISTERED</text><text fill="#eeeeee" stroke="none" font-family="Arial" font-size="24px" font-style="normal" font-weight="normal" text-decoration="none" x="200" y="510">UNREGISTERED</text><text fill="#eeeeee" stroke="none" font-family="Arial" font-size="24px" font-style="normal" font-weight="normal" text-decoration="none" x="200" y="540">UNREGISTERED</text><text fill="#eeeeee" stroke="none" font-family="Arial" font-size="24px" font-style="normal" font-weight="normal" text-decoration="none" x="200" y="570">UNREGISTERED</text><text fill="#eeeeee" stroke="none" font-family="Arial" font-size="24px" font-style="normal" font-weight="normal" text-decoration="none" x="200" y="600">UNREGISTERED</text><text fill="#eeeeee" stroke="none" font-family="Arial" font-size="24px" font-style="normal" font-weight="normal" text-decoration="none" x="200" y="630">UNREGISTERED</text><text fill="#eeeeee" stroke="none" font-family="Arial" font-size="24px" font-style="normal" font-weight="normal" text-decoration="none" x="200" y="660">UNREGISTERED</text><text fill="#eeeeee" stroke="none" font-family="Arial" font-size="24px" font-style="normal" font-weight="normal" text-decoration="none" x="200" y="690">UNREGISTERED</text><text fill="#eeeeee" stroke="none" font-family="Arial" font-size="24px" font-style="normal" font-weight="normal" text-decoration="none" x="200" y="720">UNREGISTERED</text><text fill="#eeeeee" stroke="none" font-family="Arial" font-size="24px" font-style="normal" font-weight="normal" text-decoration="none" x="200" y="750">UNREGISTERED</text><text fill="#eeeeee" stroke="none" font-family="Arial" font-size="24px" font-style="normal" font-weight="normal" text-decoration="none" x="200" y="780">UNREGISTERED</text><text fill="#eeeeee" stroke="none" font-family="Arial" font-size="24px" font-style="normal" font-weight="normal" text-decoration="none" x="400" y="0">UNREGISTERED</text><text fill="#eeeeee" stroke="none" font-family="Arial" font-size="24px" font-style="normal" font-weight="normal" text-decoration="none" x="400" y="30">UNREGISTERED</text><text fill="#eeeeee" stroke="none" font-family="Arial" font-size="24px" font-style="normal" font-weight="normal" text-decoration="none" x="400" y="60">UNREGISTERED</text><text fill="#eeeeee" stroke="none" font-family="Arial" font-size="24px" font-style="normal" font-weight="normal" text-decoration="none" x="400" y="90">UNREGISTERED</text><text fill="#eeeeee" stroke="none" font-family="Arial" font-size="24px" font-style="normal" font-weight="normal" text-decoration="none" x="400" y="120">UNREGISTERED</text><text fill="#eeeeee" stroke="none" font-family="Arial" font-size="24px" font-style="normal" font-weight="normal" text-decoration="none" x="400" y="150">UNREGISTERED</text><text fill="#eeeeee" stroke="none" font-family="Arial" font-size="24px" font-style="normal" font-weight="normal" text-decoration="none" x="400" y="180">UNREGISTERED</text><text fill="#eeeeee" stroke="none" font-family="Arial" font-size="24px" font-style="normal" font-weight="normal" text-decoration="none" x="400" y="210">UNREGISTERED</text><text fill="#eeeeee" stroke="none" font-family="Arial" font-size="24px" font-style="normal" font-weight="normal" text-decoration="none" x="400" y="240">UNREGISTERED</text><text fill="#eeeeee" stroke="none" font-family="Arial" font-size="24px" font-style="normal" font-weight="normal" text-decoration="none" x="400" y="270">UNREGISTERED</text><text fill="#eeeeee" stroke="none" font-family="Arial" font-size="24px" font-style="normal" font-weight="normal" text-decoration="none" x="400" y="300">UNREGISTERED</text><text fill="#eeeeee" stroke="none" font-family="Arial" font-size="24px" font-style="normal" font-weight="normal" text-decoration="none" x="400" y="330">UNREGISTERED</text><text fill="#eeeeee" stroke="none" font-family="Arial" font-size="24px" font-style="normal" font-weight="normal" text-decoration="none" x="400" y="360">UNREGISTERED</text><text fill="#eeeeee" stroke="none" font-family="Arial" font-size="24px" font-style="normal" font-weight="normal" text-decoration="none" x="400" y="390">UNREGISTERED</text><text fill="#eeeeee" stroke="none" font-family="Arial" font-size="24px" font-style="normal" font-weight="normal" text-decoration="none" x="400" y="420">UNREGISTERED</text><text fill="#eeeeee" stroke="none" font-family="Arial" font-size="24px" font-style="normal" font-weight="normal" text-decoration="none" x="400" y="450">UNREGISTERED</text><text fill="#eeeeee" stroke="none" font-family="Arial" font-size="24px" font-style="normal" font-weight="normal" text-decoration="none" x="400" y="480">UNREGISTERED</text><text fill="#eeeeee" stroke="none" font-family="Arial" font-size="24px" font-style="normal" font-weight="normal" text-decoration="none" x="400" y="510">UNREGISTERED</text><text fill="#eeeeee" stroke="none" font-family="Arial" font-size="24px" font-style="normal" font-weight="normal" text-decoration="none" x="400" y="540">UNREGISTERED</text><text fill="#eeeeee" stroke="none" font-family="Arial" font-size="24px" font-style="normal" font-weight="normal" text-decoration="none" x="400" y="570">UNREGISTERED</text><text fill="#eeeeee" stroke="none" font-family="Arial" font-size="24px" font-style="normal" font-weight="normal" text-decoration="none" x="400" y="600">UNREGISTERED</text><text fill="#eeeeee" stroke="none" font-family="Arial" font-size="24px" font-style="normal" font-weight="normal" text-decoration="none" x="400" y="630">UNREGISTERED</text><text fill="#eeeeee" stroke="none" font-family="Arial" font-size="24px" font-style="normal" font-weight="normal" text-decoration="none" x="400" y="660">UNREGISTERED</text><text fill="#eeeeee" stroke="none" font-family="Arial" font-size="24px" font-style="normal" font-weight="normal" text-decoration="none" x="400" y="690">UNREGISTERED</text><text fill="#eeeeee" stroke="none" font-family="Arial" font-size="24px" font-style="normal" font-weight="normal" text-decoration="none" x="400" y="720">UNREGISTERED</text><text fill="#eeeeee" stroke="none" font-family="Arial" font-size="24px" font-style="normal" font-weight="normal" text-decoration="none" x="400" y="750">UNREGISTERED</text><text fill="#eeeeee" stroke="none" font-family="Arial" font-size="24px" font-style="normal" font-weight="normal" text-decoration="none" x="400" y="780">UNREGISTERED</text><text fill="#eeeeee" stroke="none" font-family="Arial" font-size="24px" font-style="normal" font-weight="normal" text-decoration="none" x="600" y="0">UNREGISTERED</text><text fill="#eeeeee" stroke="none" font-family="Arial" font-size="24px" font-style="normal" font-weight="normal" text-decoration="none" x="600" y="30">UNREGISTERED</text><text fill="#eeeeee" stroke="none" font-family="Arial" font-size="24px" font-style="normal" font-weight="normal" text-decoration="none" x="600" y="60">UNREGISTERED</text><text fill="#eeeeee" stroke="none" font-family="Arial" font-size="24px" font-style="normal" font-weight="normal" text-decoration="none" x="600" y="90">UNREGISTERED</text><text fill="#eeeeee" stroke="none" font-family="Arial" font-size="24px" font-style="normal" font-weight="normal" text-decoration="none" x="600" y="120">UNREGISTERED</text><text fill="#eeeeee" stroke="none" font-family="Arial" font-size="24px" font-style="normal" font-weight="normal" text-decoration="none" x="600" y="150">UNREGISTERED</text><text fill="#eeeeee" stroke="none" font-family="Arial" font-size="24px" font-style="normal" font-weight="normal" text-decoration="none" x="600" y="180">UNREGISTERED</text><text fill="#eeeeee" stroke="none" font-family="Arial" font-size="24px" font-style="normal" font-weight="normal" text-decoration="none" x="600" y="210">UNREGISTERED</text><text fill="#eeeeee" stroke="none" font-family="Arial" font-size="24px" font-style="normal" font-weight="normal" text-decoration="none" x="600" y="240">UNREGISTERED</text><text fill="#eeeeee" stroke="none" font-family="Arial" font-size="24px" font-style="normal" font-weight="normal" text-decoration="none" x="600" y="270">UNREGISTERED</text><text fill="#eeeeee" stroke="none" font-family="Arial" font-size="24px" font-style="normal" font-weight="normal" text-decoration="none" x="600" y="300">UNREGISTERED</text><text fill="#eeeeee" stroke="none" font-family="Arial" font-size="24px" font-style="normal" font-weight="normal" text-decoration="none" x="600" y="330">UNREGISTERED</text><text fill="#eeeeee" stroke="none" font-family="Arial" font-size="24px" font-style="normal" font-weight="normal" text-decoration="none" x="600" y="360">UNREGISTERED</text><text fill="#eeeeee" stroke="none" font-family="Arial" font-size="24px" font-style="normal" font-weight="normal" text-decoration="none" x="600" y="390">UNREGISTERED</text><text fill="#eeeeee" stroke="none" font-family="Arial" font-size="24px" font-style="normal" font-weight="normal" text-decoration="none" x="600" y="420">UNREGISTERED</text><text fill="#eeeeee" stroke="none" font-family="Arial" font-size="24px" font-style="normal" font-weight="normal" text-decoration="none" x="600" y="450">UNREGISTERED</text><text fill="#eeeeee" stroke="none" font-family="Arial" font-size="24px" font-style="normal" font-weight="normal" text-decoration="none" x="600" y="480">UNREGISTERED</text><text fill="#eeeeee" stroke="none" font-family="Arial" font-size="24px" font-style="normal" font-weight="normal" text-decoration="none" x="600" y="510">UNREGISTERED</text><text fill="#eeeeee" stroke="none" font-family="Arial" font-size="24px" font-style="normal" font-weight="normal" text-decoration="none" x="600" y="540">UNREGISTERED</text><text fill="#eeeeee" stroke="none" font-family="Arial" font-size="24px" font-style="normal" font-weight="normal" text-decoration="none" x="600" y="570">UNREGISTERED</text><text fill="#eeeeee" stroke="none" font-family="Arial" font-size="24px" font-style="normal" font-weight="normal" text-decoration="none" x="600" y="600">UNREGISTERED</text><text fill="#eeeeee" stroke="none" font-family="Arial" font-size="24px" font-style="normal" font-weight="normal" text-decoration="none" x="600" y="630">UNREGISTERED</text><text fill="#eeeeee" stroke="none" font-family="Arial" font-size="24px" font-style="normal" font-weight="normal" text-decoration="none" x="600" y="660">UNREGISTERED</text><text fill="#eeeeee" stroke="none" font-family="Arial" font-size="24px" font-style="normal" font-weight="normal" text-decoration="none" x="600" y="690">UNREGISTERED</text><text fill="#eeeeee" stroke="none" font-family="Arial" font-size="24px" font-style="normal" font-weight="normal" text-decoration="none" x="600" y="720">UNREGISTERED</text><text fill="#eeeeee" stroke="none" font-family="Arial" font-size="24px" font-style="normal" font-weight="normal" text-decoration="none" x="600" y="750">UNREGISTERED</text><text fill="#eeeeee" stroke="none" font-family="Arial" font-size="24px" font-style="normal" font-weight="normal" text-decoration="none" x="600" y="780">UNREGISTERED</text><g transform="translate(-342,-46) scale(1,1)"><rect fill="#ffffff" stroke="none" x="352" y="56" width="623" height="783"/></g><g transform="translate(-342,-46) scale(1,1)"><path fill="none" stroke="#000000" d="M 352 56 L 975 56 L 975 839 L 352 839 L 352 56 Z Z" stroke-miterlimit="10"/></g><g transform="translate(-342,-46) scale(1,1)"><rect fill="#C0C0C0" stroke="none" x="498.331298828125" y="99" width="71.11181640625" height="24" opacity="0.2"/></g><g transform="translate(-342,-46) scale(1,1)"><rect fill="#ffffff" stroke="none" x="491.331298828125" y="92" width="71.11181640625" height="24"/></g><g transform="translate(-342,-46) scale(1,1)"><path fill="none" stroke="#000000" d="M 491.331298828125 92 L 562.443115234375 92 L 562.443115234375 116 L 491.331298828125 116 L 491.331298828125 92 Z Z" stroke-miterlimit="10"/></g><g transform="translate(-342,-46) scale(1,1)"><g><path fill="none" stroke="none"/><text fill="#000000" stroke="none" font-family="Arial" font-size="13px" font-style="normal" font-weight="bold" text-decoration="none" x="498.7099609375" y="111.5">Controller</text></g></g><g transform="translate(-342,-46) scale(1,1)"><rect fill="#C0C0C0" stroke="none" x="747.03076171875" y="362" width="156.33544921875" height="24" opacity="0.2"/></g><g transform="translate(-342,-46) scale(1,1)"><rect fill="#ffffff" stroke="none" x="740.03076171875" y="355" width="156.33544921875" height="24"/></g><g transform="translate(-342,-46) scale(1,1)"><path fill="none" stroke="#000000" d="M 740.03076171875 355 L 896.3662109375 355 L 896.3662109375 379 L 740.03076171875 379 L 740.03076171875 355 Z Z" stroke-miterlimit="10"/></g><g transform="translate(-342,-46) scale(1,1)"><g><path fill="none" stroke="none"/><text fill="#000000" stroke="none" font-family="Arial" font-size="13px" font-style="normal" font-weight="bold" text-decoration="none" x="749.548583984375" y="374.5">DayNotFoundException</text></g></g><g transform="translate(-342,-46) scale(1,1)"><rect fill="#C0C0C0" stroke="none" x="717.7744140625" y="397" width="214.84814453125" height="24" opacity="0.2"/></g><g transform="translate(-342,-46) scale(1,1)"><rect fill="#ffffff" stroke="none" x="710.7744140625" y="390" width="214.84814453125" height="24"/></g><g transform="translate(-342,-46) scale(1,1)"><path fill="none" stroke="#000000" d="M 710.7744140625 390 L 925.62255859375 390 L 925.62255859375 414 L 710.7744140625 414 L 710.7744140625 390 Z Z" stroke-miterlimit="10"/></g><g transform="translate(-342,-46) scale(1,1)"><g><path fill="none" stroke="none"/><text fill="#000000" stroke="none" font-family="Arial" font-size="13px" font-style="normal" font-weight="bold" text-decoration="none" x="723.9072265625" y="409.5">CityStatisticsNotFoundException</text></g></g><g transform="translate(-342,-46) scale(1,1)"><rect fill="#C0C0C0" stroke="none" x="753.178466796875" y="432" width="144.0400390625" height="24" opacity="0.2"/></g><g transform="translate(-342,-46) scale(1,1)"><rect fill="#ffffff" stroke="none" x="746.178466796875" y="425" width="144.0400390625" height="24"/></g><g transform="translate(-342,-46) scale(1,1)"><path fill="none" stroke="#000000" d="M 746.178466796875 425 L 890.218505859375 425 L 890.218505859375 449 L 746.178466796875 449 L 746.178466796875 425 Z Z" stroke-miterlimit="10"/></g><g transform="translate(-342,-46) scale(1,1)"><g><path fill="none" stroke="none"/><text fill="#000000" stroke="none" font-family="Arial" font-size="13px" font-style="normal" font-weight="bold" text-decoration="none" x="755.686767578125" y="444.5">IdNotFoundException</text></g></g><g transform="translate(-342,-46) scale(1,1)"><rect fill="#C0C0C0" stroke="none" x="727.892578125" y="543" width="194.61181640625" height="24" opacity="0.2"/></g><g transform="translate(-342,-46) scale(1,1)"><rect fill="#ffffff" stroke="none" x="720.892578125" y="536" width="194.61181640625" height="24"/></g><g transform="translate(-342,-46) scale(1,1)"><path fill="none" stroke="#000000" d="M 720.892578125 536 L 915.50439453125 536 L 915.50439453125 560 L 720.892578125 560 L 720.892578125 536 Z Z" stroke-miterlimit="10"/></g><g transform="translate(-342,-46) scale(1,1)"><g><path fill="none" stroke="none"/><text fill="#000000" stroke="none" font-family="Arial" font-size="13px" font-style="normal" font-weight="bold" text-decoration="none" x="732.568603515625" y="555.5">ItalianCityNotFoundException</text></g></g><g transform="translate(-342,-46) scale(1,1)"><rect fill="#C0C0C0" stroke="none" x="747.732177734375" y="578" width="154.9326171875" height="24" opacity="0.2"/></g><g transform="translate(-342,-46) scale(1,1)"><rect fill="#ffffff" stroke="none" x="740.732177734375" y="571" width="154.9326171875" height="24"/></g><g transform="translate(-342,-46) scale(1,1)"><path fill="none" stroke="#000000" d="M 740.732177734375 571 L 895.664794921875 571 L 895.664794921875 595 L 740.732177734375 595 L 740.732177734375 571 Z Z" stroke-miterlimit="10"/></g><g transform="translate(-342,-46) scale(1,1)"><g><path fill="none" stroke="none"/><text fill="#000000" stroke="none" font-family="Arial" font-size="13px" font-style="normal" font-weight="bold" text-decoration="none" x="750.272216796875" y="590.5">NegativeStartException</text></g></g><g transform="translate(-342,-46) scale(1,1)"><rect fill="#C0C0C0" stroke="none" x="730.17138671875" y="613" width="190.05419921875" height="24" opacity="0.2"/></g><g transform="translate(-342,-46) scale(1,1)"><rect fill="#ffffff" stroke="none" x="723.17138671875" y="606" width="190.05419921875" height="24"/></g><g transform="translate(-342,-46) scale(1,1)"><path fill="none" stroke="#000000" d="M 723.17138671875 606 L 913.2255859375 606 L 913.2255859375 630 L 723.17138671875 630 L 723.17138671875 606 Z Z" stroke-miterlimit="10"/></g><g transform="translate(-342,-46) scale(1,1)"><g><path fill="none" stroke="none"/><text fill="#000000" stroke="none" font-family="Arial" font-size="13px" font-style="normal" font-weight="bold" text-decoration="none" x="734.498291015625" y="625.5">WrongHoursPeriodException</text></g></g><g transform="translate(-342,-46) scale(1,1)"><rect fill="#C0C0C0" stroke="none" x="744.625" y="648" width="161.14697265625" height="24" opacity="0.2"/></g><g transform="translate(-342,-46) scale(1,1)"><rect fill="#ffffff" stroke="none" x="737.625" y="641" width="161.14697265625" height="24"/></g><g transform="translate(-342,-46) scale(1,1)"><path fill="none" stroke="#000000" d="M 737.625 641 L 898.77197265625 641 L 898.77197265625 665 L 737.625 665 L 737.625 641 Z Z" stroke-miterlimit="10"/></g><g transform="translate(-342,-46) scale(1,1)"><g><path fill="none" stroke="none"/><text fill="#000000" stroke="none" font-family="Arial" font-size="13px" font-style="normal" font-weight="bold" text-decoration="none" x="748.59326171875" y="660.5">WrongMultiplyException</text></g></g><g transform="translate(-342,-46) scale(1,1)"><rect fill="#C0C0C0" stroke="none" x="517.107666015625" y="134" width="33.55908203125" height="24" opacity="0.2"/></g><g transform="translate(-342,-46) scale(1,1)"><rect fill="#ffffff" stroke="none" x="510.107666015625" y="127" width="33.55908203125" height="24"/></g><g transform="translate(-342,-46) scale(1,1)"><path fill="none" stroke="#000000" d="M 510.107666015625 127 L 543.666748046875 127 L 543.666748046875 151 L 510.107666015625 151 L 510.107666015625 127 Z Z" stroke-miterlimit="10"/></g><g transform="translate(-342,-46) scale(1,1)"><g><path fill="none" stroke="none"/><text fill="#000000" stroke="none" font-family="Arial" font-size="13px" font-style="normal" font-weight="bold" text-decoration="none" x="515.693115234375" y="146.5">City</text></g></g><g transform="translate(-342,-46) scale(1,1)"><rect fill="#C0C0C0" stroke="none" x="502.292236328125" y="169" width="63.18994140625" height="24" opacity="0.2"/></g><g transform="translate(-342,-46) scale(1,1)"><rect fill="#ffffff" stroke="none" x="495.292236328125" y="162" width="63.18994140625" height="24"/></g><g transform="translate(-342,-46) scale(1,1)"><path fill="none" stroke="#000000" d="M 495.292236328125 162 L 558.482177734375 162 L 558.482177734375 186 L 495.292236328125 186 L 495.292236328125 162 Z Z" stroke-miterlimit="10"/></g><g transform="translate(-342,-46) scale(1,1)"><g><path fill="none" stroke="none"/><text fill="#000000" stroke="none" font-family="Arial" font-size="13px" font-style="normal" font-weight="bold" text-decoration="none" x="501.601318359375" y="181.5">Forecast</text></g></g><g transform="translate(-342,-46) scale(1,1)"><rect fill="#C0C0C0" stroke="none" x="451" y="204" width="165.7744140625" height="24" opacity="0.2"/></g><g transform="translate(-342,-46) scale(1,1)"><rect fill="#ffffff" stroke="none" x="444" y="197" width="165.7744140625" height="24"/></g><g transform="translate(-342,-46) scale(1,1)"><path fill="none" stroke="#000000" d="M 444 197 L 609.7744140625 197 L 609.7744140625 221 L 444 221 L 444 197 Z Z" stroke-miterlimit="10"/></g><g transform="translate(-342,-46) scale(1,1)"><g><path fill="none" stroke="none"/><text fill="#000000" stroke="none" font-family="Arial" font-size="13px" font-style="normal" font-weight="bold" text-decoration="none" x="455.352294921875" y="216.5">PressurestatsApplication</text></g></g><g transform="translate(-342,-46) scale(1,1)"><path fill="#C0C0C0" stroke="none" d="M 522.38720703125 250.5 C 522.38720703125 244.1487248 527.53593183125 239 533.88720703125 239 C 540.23848223125 239 545.38720703125 244.1487248 545.38720703125 250.5 C 545.38720703125 256.8512752 540.23848223125 262 533.88720703125 262 C 527.53593183125 262 522.38720703125 256.8512752 522.38720703125 250.5 Z" opacity="0.2"/></g><g transform="translate(-342,-46) scale(1,1)"><path fill="#ffffff" stroke="none" d="M 515.38720703125 243.5 C 515.38720703125 237.1487248 520.53593183125 232 526.88720703125 232 C 533.23848223125 232 538.38720703125 237.1487248 538.38720703125 243.5 C 538.38720703125 249.8512752 533.23848223125 255 526.88720703125 255 C 520.53593183125 255 515.38720703125 249.8512752 515.38720703125 243.5 Z"/></g><g transform="translate(-342,-46) scale(1,1)"><path fill="none" stroke="#000000" d="M 515.38720703125 243.5 C 515.38720703125 237.1487248 520.53593183125 232 526.88720703125 232 C 533.23848223125 232 538.38720703125 237.1487248 538.38720703125 243.5 C 538.38720703125 249.8512752 533.23848223125 255 526.88720703125 255 C 520.53593183125 255 515.38720703125 249.8512752 515.38720703125 243.5 Z" stroke-miterlimit="10"/></g><g transform="translate(-342,-46) scale(1,1)"><g><path fill="none" stroke="none"/><text fill="#000000" stroke="none" font-family="Arial" font-size="13px" font-style="normal" font-weight="bold" text-decoration="none" x="505.213134765625" y="274.5">Service</text></g></g><g transform="translate(-342,-46) scale(1,1)"><rect fill="#C0C0C0" stroke="none" x="784.205810546875" y="251" width="81.9853515625" height="24" opacity="0.2"/></g><g transform="translate(-342,-46) scale(1,1)"><rect fill="#ffffff" stroke="none" x="777.205810546875" y="244" width="81.9853515625" height="24"/></g><g transform="translate(-342,-46) scale(1,1)"><path fill="none" stroke="#000000" d="M 777.205810546875 244 L 859.191162109375 244 L 859.191162109375 268 L 777.205810546875 268 L 777.205810546875 244 Z Z" stroke-miterlimit="10"/></g><g transform="translate(-342,-46) scale(1,1)"><g><path fill="none" stroke="none"/><text fill="#000000" stroke="none" font-family="Arial" font-size="13px" font-style="normal" font-weight="bold" text-decoration="none" x="784.244873046875" y="263.5">ServiceImpl</text></g></g><g transform="translate(-342,-46) scale(1,1)"><rect fill="#C0C0C0" stroke="none" x="509.880859375" y="298" width="48.0126953125" height="24" opacity="0.2"/></g><g transform="translate(-342,-46) scale(1,1)"><rect fill="#ffffff" stroke="none" x="502.880859375" y="291" width="48.0126953125" height="24"/></g><g transform="translate(-342,-46) scale(1,1)"><path fill="none" stroke="#000000" d="M 502.880859375 291 L 550.8935546875 291 L 550.8935546875 315 L 502.880859375 315 L 502.880859375 291 Z Z" stroke-miterlimit="10"/></g><g transform="translate(-342,-46) scale(1,1)"><g><path fill="none" stroke="none"/><text fill="#000000" stroke="none" font-family="Arial" font-size="13px" font-style="normal" font-weight="bold" text-decoration="none" x="509.193115234375" y="310.5">Filters</text></g></g><g transform="translate(-342,-46) scale(1,1)"><rect fill="#C0C0C0" stroke="none" x="500.486328125" y="333" width="66.8017578125" height="24" opacity="0.2"/></g><g transform="translate(-342,-46) scale(1,1)"><rect fill="#ffffff" stroke="none" x="493.486328125" y="326" width="66.8017578125" height="24"/></g><g transform="translate(-342,-46) scale(1,1)"><path fill="none" stroke="#000000" d="M 493.486328125 326 L 560.2880859375 326 L 560.2880859375 350 L 493.486328125 350 L 493.486328125 326 Z Z" stroke-miterlimit="10"/></g><g transform="translate(-342,-46) scale(1,1)"><g><path fill="none" stroke="none"/><text fill="#000000" stroke="none" font-family="Arial" font-size="13px" font-style="normal" font-weight="bold" text-decoration="none" x="500.880859375" y="345.5">Statistics</text></g></g><g transform="translate(-342,-46) scale(1,1)"><rect fill="#C0C0C0" stroke="none" x="485.44873046875" y="368" width="96.876953125" height="24" opacity="0.2"/></g><g transform="translate(-342,-46) scale(1,1)"><rect fill="#ffffff" stroke="none" x="478.44873046875" y="361" width="96.876953125" height="24"/></g><g transform="translate(-342,-46) scale(1,1)"><path fill="none" stroke="#000000" d="M 478.44873046875 361 L 575.32568359375 361 L 575.32568359375 385 L 478.44873046875 385 L 478.44873046875 361 Z Z" stroke-miterlimit="10"/></g><g transform="translate(-342,-46) scale(1,1)"><g><path fill="none" stroke="none"/><text fill="#000000" stroke="none" font-family="Arial" font-size="13px" font-style="normal" font-weight="bold" text-decoration="none" x="486.7890625" y="380.5">TestController</text></g></g><g transform="translate(-342,-46) scale(1,1)"><rect fill="#C0C0C0" stroke="none" x="497.728271484375" y="403" width="72.31787109375" height="24" opacity="0.2"/></g><g transform="translate(-342,-46) scale(1,1)"><rect fill="#ffffff" stroke="none" x="490.728271484375" y="396" width="72.31787109375" height="24"/></g><g transform="translate(-342,-46) scale(1,1)"><path fill="none" stroke="#000000" d="M 490.728271484375 396 L 563.046142578125 396 L 563.046142578125 420 L 490.728271484375 420 L 490.728271484375 396 Z Z" stroke-miterlimit="10"/></g><g transform="translate(-342,-46) scale(1,1)"><g><path fill="none" stroke="none"/><text fill="#000000" stroke="none" font-family="Arial" font-size="13px" font-style="normal" font-weight="bold" text-decoration="none" x="497.2626953125" y="415.5">TestModel</text></g></g><g transform="translate(-342,-46) scale(1,1)"><rect fill="#C0C0C0" stroke="none" x="493.373779296875" y="438" width="81.02685546875" height="24" opacity="0.2"/></g><g transform="translate(-342,-46) scale(1,1)"><rect fill="#ffffff" stroke="none" x="486.373779296875" y="431" width="81.02685546875" height="24"/></g><g transform="translate(-342,-46) scale(1,1)"><path fill="none" stroke="#000000" d="M 486.373779296875 431 L 567.400634765625 431 L 567.400634765625 455 L 486.373779296875 455 L 486.373779296875 431 Z Z" stroke-miterlimit="10"/></g><g transform="translate(-342,-46) scale(1,1)"><g><path fill="none" stroke="none"/><text fill="#000000" stroke="none" font-family="Arial" font-size="13px" font-style="normal" font-weight="bold" text-decoration="none" x="493.292236328125" y="450.5">TestService</text></g></g><g transform="translate(-342,-46) scale(1,1)"><rect fill="#C0C0C0" stroke="none" x="487.603759765625" y="473" width="92.56689453125" height="24" opacity="0.2"/></g><g transform="translate(-342,-46) scale(1,1)"><rect fill="#ffffff" stroke="none" x="480.603759765625" y="466" width="92.56689453125" height="24"/></g><g transform="translate(-342,-46) scale(1,1)"><path fill="none" stroke="#000000" d="M 480.603759765625 466 L 573.170654296875 466 L 573.170654296875 490 L 480.603759765625 490 L 480.603759765625 466 Z Z" stroke-miterlimit="10"/></g><g transform="translate(-342,-46) scale(1,1)"><g><path fill="none" stroke="none"/><text fill="#000000" stroke="none" font-family="Arial" font-size="13px" font-style="normal" font-weight="bold" text-decoration="none" x="488.9599609375" y="485.5">TestStatistics</text></g></g><g transform="translate(-342,-46) scale(1,1)"><rect fill="#C0C0C0" stroke="none" x="493.392822265625" y="508" width="80.98876953125" height="24" opacity="0.2"/></g><g transform="translate(-342,-46) scale(1,1)"><rect fill="#ffffff" stroke="none" x="486.392822265625" y="501" width="80.98876953125" height="24"/></g><g transform="translate(-342,-46) scale(1,1)"><path fill="none" stroke="#000000" d="M 486.392822265625 501 L 567.381591796875 501 L 567.381591796875 525 L 486.392822265625 525 L 486.392822265625 501 Z Z" stroke-miterlimit="10"/></g><g transform="translate(-342,-46) scale(1,1)"><g><path fill="none" stroke="none"/><text fill="#000000" stroke="none" font-family="Arial" font-size="13px" font-style="normal" font-weight="bold" text-decoration="none" x="493.6572265625" y="520.5">TestThrows</text></g></g><g transform="translate(-342,-46) scale(1,1)"><rect fill="#C0C0C0" stroke="none" x="498.324951171875" y="543" width="71.12451171875" height="24" opacity="0.2"/></g><g transform="translate(-342,-46) scale(1,1)"><rect fill="#ffffff" stroke="none" x="491.324951171875" y="536" width="71.12451171875" height="24"/></g><g transform="translate(-342,-46) scale(1,1)"><path fill="none" stroke="#000000" d="M 491.324951171875 536 L 562.449462890625 536 L 562.449462890625 560 L 491.324951171875 560 L 491.324951171875 536 Z Z" stroke-miterlimit="10"/></g><g transform="translate(-342,-46) scale(1,1)"><g><path fill="none" stroke="none"/><text fill="#000000" stroke="none" font-family="Arial" font-size="13px" font-style="normal" font-weight="bold" text-decoration="none" x="498.341796875" y="555.5">Exception</text></g></g><g transform="translate(-342,-46) scale(1,1)"><rect fill="#C0C0C0" stroke="none" x="480.265869140625" y="578" width="107.24267578125" height="24" opacity="0.2"/></g><g transform="translate(-342,-46) scale(1,1)"><rect fill="#ffffff" stroke="none" x="473.265869140625" y="571" width="107.24267578125" height="24"/></g><g transform="translate(-342,-46) scale(1,1)"><path fill="none" stroke="#000000" d="M 473.265869140625 571 L 580.508544921875 571 L 580.508544921875 595 L 473.265869140625 595 L 473.265869140625 571 Z Z" stroke-miterlimit="10"/></g><g transform="translate(-342,-46) scale(1,1)"><g><path fill="none" stroke="none"/><text fill="#000000" stroke="none" font-family="Arial" font-size="13px" font-style="normal" font-weight="bold" text-decoration="none" x="481.36181640625" y="590.5">ResponseEntity</text></g></g><g transform="translate(-342,-46) scale(1,1)"><rect fill="#C0C0C0" stroke="none" x="509.515869140625" y="613" width="48.74267578125" height="24" opacity="0.2"/></g><g transform="translate(-342,-46) scale(1,1)"><rect fill="#ffffff" stroke="none" x="502.515869140625" y="606" width="48.74267578125" height="24"/></g><g transform="translate(-342,-46) scale(1,1)"><path fill="none" stroke="#000000" d="M 502.515869140625 606 L 551.258544921875 606 L 551.258544921875 630 L 502.515869140625 630 L 502.515869140625 606 Z Z" stroke-miterlimit="10"/></g><g transform="translate(-342,-46) scale(1,1)"><g><path fill="none" stroke="none"/><text fill="#000000" stroke="none" font-family="Arial" font-size="13px" font-style="normal" font-weight="bold" text-decoration="none" x="508.4599609375" y="625.5">Vector</text></g></g><g transform="translate(-342,-46) scale(1,1)"><rect fill="#C0C0C0" stroke="none" x="509.160400390625" y="648" width="49.45361328125" height="24" opacity="0.2"/></g><g transform="translate(-342,-46) scale(1,1)"><rect fill="#ffffff" stroke="none" x="502.160400390625" y="641" width="49.45361328125" height="24"/></g><g transform="translate(-342,-46) scale(1,1)"><path fill="none" stroke="#000000" d="M 502.160400390625 641 L 551.614013671875 641 L 551.614013671875 665 L 502.160400390625 665 L 502.160400390625 641 Z Z" stroke-miterlimit="10"/></g><g transform="translate(-342,-46) scale(1,1)"><g><path fill="none" stroke="none"/><text fill="#000000" stroke="none" font-family="Arial" font-size="13px" font-style="normal" font-weight="bold" text-decoration="none" x="508.101318359375" y="660.5">Object</text></g></g><g transform="translate(-342,-46) scale(1,1)"><rect fill="#C0C0C0" stroke="none" x="491.4599609375" y="683" width="84.8544921875" height="24" opacity="0.2"/></g><g transform="translate(-342,-46) scale(1,1)"><rect fill="#ffffff" stroke="none" x="484.4599609375" y="676" width="84.8544921875" height="24"/></g><g transform="translate(-342,-46) scale(1,1)"><path fill="none" stroke="#000000" d="M 484.4599609375 676 L 569.314453125 676 L 569.314453125 700 L 484.4599609375 700 L 484.4599609375 676 Z Z" stroke-miterlimit="10"/></g><g transform="translate(-342,-46) scale(1,1)"><g><path fill="none" stroke="none"/><text fill="#000000" stroke="none" font-family="Arial" font-size="13px" font-style="normal" font-weight="bold" text-decoration="none" x="490.765869140625" y="695.5">JSONObject</text></g></g><g transform="translate(-342,-46) scale(1,1)"><rect fill="#C0C0C0" stroke="none" x="494.70361328125" y="718" width="78.3671875" height="24" opacity="0.2"/></g><g transform="translate(-342,-46) scale(1,1)"><rect fill="#ffffff" stroke="none" x="487.70361328125" y="711" width="78.3671875" height="24"/></g><g transform="translate(-342,-46) scale(1,1)"><path fill="none" stroke="#000000" d="M 487.70361328125 711 L 566.07080078125 711 L 566.07080078125 735 L 487.70361328125 735 L 487.70361328125 711 Z Z" stroke-miterlimit="10"/></g><g transform="translate(-342,-46) scale(1,1)"><g><path fill="none" stroke="none"/><text fill="#000000" stroke="none" font-family="Arial" font-size="13px" font-style="normal" font-weight="bold" text-decoration="none" x="494.022216796875" y="730.5">JSONArray</text></g></g><g transform="translate(-342,-46) scale(1,1)"><rect fill="#C0C0C0" stroke="none" x="456.201904296875" y="753" width="155.37060546875" height="24" opacity="0.2"/></g><g transform="translate(-342,-46) scale(1,1)"><rect fill="#ffffff" stroke="none" x="449.201904296875" y="746" width="155.37060546875" height="24"/></g><g transform="translate(-342,-46) scale(1,1)"><path fill="none" stroke="#000000" d="M 449.201904296875 746 L 604.572509765625 746 L 604.572509765625 770 L 449.201904296875 770 L 449.201904296875 746 Z Z" stroke-miterlimit="10"/></g><g transform="translate(-342,-46) scale(1,1)"><g><path fill="none" stroke="none"/><text fill="#000000" stroke="none" font-family="Arial" font-size="13px" font-style="normal" font-weight="bold" text-decoration="none" x="459.440185546875" y="765.5">WebApplicationContext</text></g></g><g transform="translate(-342,-46) scale(1,1)"><rect fill="#C0C0C0" stroke="none" x="500.127685546875" y="788" width="67.51904296875" height="24" opacity="0.2"/></g><g transform="translate(-342,-46) scale(1,1)"><rect fill="#ffffff" stroke="none" x="493.127685546875" y="781" width="67.51904296875" height="24"/></g><g transform="translate(-342,-46) scale(1,1)"><path fill="none" stroke="#000000" d="M 493.127685546875 781 L 560.646728515625 781 L 560.646728515625 805 L 493.127685546875 805 L 493.127685546875 781 Z Z" stroke-miterlimit="10"/></g><g transform="translate(-342,-46) scale(1,1)"><g><path fill="none" stroke="none"/><text fill="#000000" stroke="none" font-family="Arial" font-size="13px" font-style="normal" font-weight="bold" text-decoration="none" x="499.443115234375" y="800.5">MockMvc</text></g></g><g transform="translate(-342,-46) scale(1,1)"><path fill="none" stroke="#000000" d="M 739 368 Q 661 368 536 535" stroke-miterlimit="10"/></g><g transform="translate(-342,-46) scale(1,1)"><path fill="#FFFFFF" stroke="none" d="M 541.4395458406902 513.6830738368068 L 536 535 L 554.919682794574 523.7729967064803"/></g><g transform="translate(-342,-46) scale(1,1)"><path fill="none" stroke="#000000" d="M 541.4395458406902 513.6830738368068 L 536 535 L 554.919682794574 523.7729967064803 L 541.4395458406902 513.6830738368068" stroke-miterlimit="10"/></g><g transform="translate(-342,-46) scale(1,1)"><path fill="none" stroke="#000000" d="M 710 403 Q 661 403 538 535" stroke-miterlimit="10"/></g><g transform="translate(-342,-46) scale(1,1)"><path fill="#FFFFFF" stroke="none" d="M 545.6968778168078 514.3903403261206 L 538 535 L 558.0157446115762 525.869284384882"/></g><g transform="translate(-342,-46) scale(1,1)"><path fill="none" stroke="#000000" d="M 545.6968778168078 514.3903403261206 L 538 535 L 558.0157446115762 525.869284384882 L 545.6968778168078 514.3903403261206" stroke-miterlimit="10"/></g><g transform="translate(-342,-46) scale(1,1)"><path fill="none" stroke="#000000" d="M 745 437 Q 661 438 542 535" stroke-miterlimit="10"/></g><g transform="translate(-342,-46) scale(1,1)"><path fill="#FFFFFF" stroke="none" d="M 552.4352232130522 515.6323435466813 L 542 535 L 563.0738183109775 528.6838158833114"/></g><g transform="translate(-342,-46) scale(1,1)"><path fill="none" stroke="#000000" d="M 552.4352232130522 515.6323435466813 L 542 535 L 563.0738183109775 528.6838158833114 L 552.4352232130522 515.6323435466813" stroke-miterlimit="10"/></g><g transform="translate(-342,-46) scale(1,1)"><path fill="none" stroke="#000000" d="M 720 549 Q 661 549 563 548" stroke-miterlimit="10"/></g><g transform="translate(-342,-46) scale(1,1)"><path fill="#FFFFFF" stroke="none" d="M 583.41019568026 539.7887934934325 L 563 548 L 583.2383875733732 556.6259879683392"/></g><g transform="translate(-342,-46) scale(1,1)"><path fill="none" stroke="#000000" d="M 583.41019568026 539.7887934934325 L 563 548 L 583.2383875733732 556.6259879683392 L 583.41019568026 539.7887934934325" stroke-miterlimit="10"/></g><g transform="translate(-342,-46) scale(1,1)"><path fill="none" stroke="#000000" d="M 740 583 Q 661 584 563 558" stroke-miterlimit="10"/></g><g transform="translate(-342,-46) scale(1,1)"><path fill="#FFFFFF" stroke="none" d="M 584.8046345224608 555.0746088565952 L 563 558 L 580.4867688472509 571.3496410170018"/></g><g transform="translate(-342,-46) scale(1,1)"><path fill="none" stroke="#000000" d="M 584.8046345224608 555.0746088565952 L 563 558 L 580.4867688472509 571.3496410170018 L 584.8046345224608 555.0746088565952" stroke-miterlimit="10"/></g><g transform="translate(-342,-46) scale(1,1)"><path fill="none" stroke="#000000" d="M 722 619 Q 661 619 551 561" stroke-miterlimit="10"/></g><g transform="translate(-342,-46) scale(1,1)"><path fill="#FFFFFF" stroke="none" d="M 572.9058916133049 563.0327106597194 L 551 561 L 565.0524610160277 577.9271479993832"/></g><g transform="translate(-342,-46) scale(1,1)"><path fill="none" stroke="#000000" d="M 572.9058916133049 563.0327106597194 L 551 561 L 565.0524610160277 577.9271479993832 L 572.9058916133049 563.0327106597194" stroke-miterlimit="10"/></g><g transform="translate(-342,-46) scale(1,1)"><path fill="none" stroke="#000000" d="M 737 654 Q 661 654 543 561" stroke-miterlimit="10"/></g><g transform="translate(-342,-46) scale(1,1)"><path fill="#FFFFFF" stroke="none" d="M 564.174754785713 566.9690669090672 L 543 561 L 553.7520450101823 580.1935803876977"/></g><g transform="translate(-342,-46) scale(1,1)"><path fill="none" stroke="#000000" d="M 564.174754785713 566.9690669090672 L 543 561 L 553.7520450101823 580.1935803876977 L 564.174754785713 566.9690669090672" stroke-miterlimit="10"/></g><g transform="translate(-342,-46) scale(1,1)"><path fill="none" stroke="#000000" d="M 776 256 Q 661 257 538.38720703125 248.36778971354167" stroke-miterlimit="10"/></g></g></svg>