<svg version="1.1" xmlns="http://www.w3.org/2000/svg" xmlns:xlink="http://www.w3.org/1999/xlink" width="932" height="532"><defs/><g><text fill="#eeeeee" stroke="none" font-family="Arial" font-size="24px" font-style="normal" font-weight="normal" text-decoration="none" x="0" y="0">UNREGISTERED</text><text fill="#eeeeee" stroke="none" font-family="Arial" font-size="24px" font-style="normal" font-weight="normal" text-decoration="none" x="0" y="30">UNREGISTERED</text><text fill="#eeeeee" stroke="none" font-family="Arial" font-size="24px" font-style="normal" font-weight="normal" text-decoration="none" x="0" y="60">UNREGISTERED</text><text fill="#eeeeee" stroke="none" font-family="Arial" font-size="24px" font-style="normal" font-weight="normal" text-decoration="none" x="0" y="90">UNREGISTERED</text><text fill="#eeeeee" stroke="none" font-family="Arial" font-size="24px" font-style="normal" font-weight="normal" text-decoration="none" x="0" y="120">UNREGISTERED</text><text fill="#eeeeee" stroke="none" font-family="Arial" font-size="24px" font-style="normal" font-weight="normal" text-decoration="none" x="0" y="150">UNREGISTERED</text><text fill="#eeeeee" stroke="none" font-family="Arial" font-size="24px" font-style="normal" font-weight="normal" text-decoration="none" x="0" y="180">UNREGISTERED</text><text fill="#eeeeee" stroke="none" font-family="Arial" font-size="24px" font-style="normal" font-weight="normal" text-decoration="none" x="0" y="210">UNREGISTERED</text><text fill="#eeeeee" stroke="none" font-family="Arial" font-size="24px" font-style="normal" font-weight="normal" text-decoration="none" x="0" y="240">UNREGISTERED</text><text fill="#eeeeee" stroke="none" font-family="Arial" font-size="24px" font-style="normal" font-weight="normal" text-decoration="none" x="0" y="270">UNREGISTERED</text><text fill="#eeeeee" stroke="none" font-family="Arial" font-size="24px" font-style="normal" font-weight="normal" text-decoration="none" x="0" y="300">UNREGISTERED</text><text fill="#eeeeee" stroke="none" font-family="Arial" font-size="24px" font-style="normal" font-weight="normal" text-decoration="none" x="0" y="330">UNREGISTERED</text><text fill="#eeeeee" stroke="none" font-family="Arial" font-size="24px" font-style="normal" font-weight="normal" text-decoration="none" x="0" y="360">UNREGISTERED</text><text fill="#eeeeee" stroke="none" font-family="Arial" font-size="24px" font-style="normal" font-weight="normal" text-decoration="none" x="0" y="390">UNREGISTERED</text><text fill="#eeeeee" stroke="none" font-family="Arial" font-size="24px" font-style="normal" font-weight="normal" text-decoration="none" x="0" y="420">UNREGISTERED</text><text fill="#eeeeee" stroke="none" font-family="Arial" font-size="24px" font-style="normal" font-weight="normal" text-decoration="none" x="0" y="450">UNREGISTERED</text><text fill="#eeeeee" stroke="none" font-family="Arial" font-size="24px" font-style="normal" font-weight="normal" text-decoration="none" x="0" y="480">UNREGISTERED</text><text fill="#eeeeee" stroke="none" font-family="Arial" font-size="24px" font-style="normal" font-weight="normal" text-decoration="none" x="0" y="510">UNREGISTERED</text><text fill="#eeeeee" stroke="none" font-family="Arial" font-size="24px" font-style="normal" font-weight="normal" text-decoration="none" x="200" y="0">UNREGISTERED</text><text fill="#eeeeee" stroke="none" font-family="Arial" font-size="24px" font-style="normal" font-weight="normal" text-decoration="none" x="200" y="30">UNREGISTERED</text><text fill="#eeeeee" stroke="none" font-family="Arial" font-size="24px" font-style="normal" font-weight="normal" text-decoration="none" x="200" y="60">UNREGISTERED</text><text fill="#eeeeee" stroke="none" font-family="Arial" font-size="24px" font-style="normal" font-weight="normal" text-decoration="none" x="200" y="90">UNREGISTERED</text><text fill="#eeeeee" stroke="none" font-family="Arial" font-size="24px" font-style="normal" font-weight="normal" text-decoration="none" x="200" y="120">UNREGISTERED</text><text fill="#eeeeee" stroke="none" font-family="Arial" font-size="24px" font-style="normal" font-weight="normal" text-decoration="none" x="200" y="150">UNREGISTERED</text><text fill="#eeeeee" stroke="none" font-family="Arial" font-size="24px" font-style="normal" font-weight="normal" text-decoration="none" x="200" y="180">UNREGISTERED</text><text fill="#eeeeee" stroke="none" font-family="Arial" font-size="24px" font-style="normal" font-weight="normal" text-decoration="none" x="200" y="210">UNREGISTERED</text><text fill="#eeeeee" stroke="none" font-family="Arial" font-size="24px" font-style="normal" font-weight="normal" text-decoration="none" x="200" y="240">UNREGISTERED</text><text fill="#eeeeee" stroke="none" font-family="Arial" font-size="24px" font-style="normal" font-weight="normal" text-decoration="none" x="200" y="270">UNREGISTERED</text><text fill="#eeeeee" stroke="none" font-family="Arial" font-size="24px" font-style="normal" font-weight="normal" text-decoration="none" x="200" y="300">UNREGISTERED</text><text fill="#eeeeee" stroke="none" font-family="Arial" font-size="24px" font-style="normal" font-weight="normal" text-decoration="none" x="200" y="330">UNREGISTERED</text><text fill="#eeeeee" stroke="none" font-family="Arial" font-size="24px" font-style="normal" font-weight="normal" text-decoration="none" x="200" y="360">UNREGISTERED</text><text fill="#eeeeee" stroke="none" font-family="Arial" font-size="24px" font-style="normal" font-weight="normal" text-decoration="none" x="200" y="390">UNREGISTERED</text><text fill="#eeeeee" stroke="none" font-family="Arial" font-size="24px" font-style="normal" font-weight="normal" text-decoration="none" x="200" y="420">UNREGISTERED</text><text fill="#eeeeee" stroke="none" font-family="Arial" font-size="24px" font-style="normal" font-weight="normal" text-decoration="none" x="200" y="450">UNREGISTERED</text><text fill="#eeeeee" stroke="none" font-family="Arial" font-size="24px" font-style="normal" font-weight="normal" text-decoration="none" x="200" y="480">UNREGISTERED</text><text fill="#eeeeee" stroke="none" font-family="Arial" font-size="24px" font-style="normal" font-weight="normal" text-decoration="none" x="200" y="510">UNREGISTERED</text><text fill="#eeeeee" stroke="none" font-family="Arial" font-size="24px" font-style="normal" font-weight="normal" text-decoration="none" x="400" y="0">UNREGISTERED</text><text fill="#eeeeee" stroke="none" font-family="Arial" font-size="24px" font-style="normal" font-weight="normal" text-decoration="none" x="400" y="30">UNREGISTERED</text><text fill="#eeeeee" stroke="none" font-family="Arial" font-size="24px" font-style="normal" font-weight="normal" text-decoration="none" x="400" y="60">UNREGISTERED</text><text fill="#eeeeee" stroke="none" font-family="Arial" font-size="24px" font-style="normal" font-weight="normal" text-decoration="none" x="400" y="90">UNREGISTERED</text><text fill="#eeeeee" stroke="none" font-family="Arial" font-size="24px" font-style="normal" font-weight="normal" text-decoration="none" x="400" y="120">UNREGISTERED</text><text fill="#eeeeee" stroke="none" font-family="Arial" font-size="24px" font-style="normal" font-weight="normal" text-decoration="none" x="400" y="150">UNREGISTERED</text><text fill="#eeeeee" stroke="none" font-family="Arial" font-size="24px" font-style="normal" font-weight="normal" text-decoration="none" x="400" y="180">UNREGISTERED</text><text fill="#eeeeee" stroke="none" font-family="Arial" font-size="24px" font-style="normal" font-weight="normal" text-decoration="none" x="400" y="210">UNREGISTERED</text><text fill="#eeeeee" stroke="none" font-family="Arial" font-size="24px" font-style="normal" font-weight="normal" text-decoration="none" x="400" y="240">UNREGISTERED</text><text fill="#eeeeee" stroke="none" font-family="Arial" font-size="24px" font-style="normal" font-weight="normal" text-decoration="none" x="400" y="270">UNREGISTERED</text><text fill="#eeeeee" stroke="none" font-family="Arial" font-size="24px" font-style="normal" font-weight="normal" text-decoration="none" x="400" y="300">UNREGISTERED</text><text fill="#eeeeee" stroke="none" font-family="Arial" font-size="24px" font-style="normal" font-weight="normal" text-decoration="none" x="400" y="330">UNREGISTERED</text><text fill="#eeeeee" stroke="none" font-family="Arial" font-size="24px" font-style="normal" font-weight="normal" text-decoration="none" x="400" y="360">UNREGISTERED</text><text fill="#eeeeee" stroke="none" font-family="Arial" font-size="24px" font-style="normal" font-weight="normal" text-decoration="none" x="400" y="390">UNREGISTERED</text><text fill="#eeeeee" stroke="none" font-family="Arial" font-size="24px" font-style="normal" font-weight="normal" text-decoration="none" x="400" y="420">UNREGISTERED</text><text fill="#eeeeee" stroke="none" font-family="Arial" font-size="24px" font-style="normal" font-weight="normal" text-decoration="none" x="400" y="450">UNREGISTERED</text><text fill="#eeeeee" stroke="none" font-family="Arial" font-size="24px" font-style="normal" font-weight="normal" text-decoration="none" x="400" y="480">UNREGISTERED</text><text fill="#eeeeee" stroke="none" font-family="Arial" font-size="24px" font-style="normal" font-weight="normal" text-decoration="none" x="400" y="510">UNREGISTERED</text><text fill="#eeeeee" stroke="none" font-family="Arial" font-size="24px" font-style="normal" font-weight="normal" text-decoration="none" x="600" y="0">UNREGISTERED</text><text fill="#eeeeee" stroke="none" font-family="Arial" font-size="24px" font-style="normal" font-weight="normal" text-decoration="none" x="600" y="30">UNREGISTERED</text><text fill="#eeeeee" stroke="none" font-family="Arial" font-size="24px" font-style="normal" font-weight="normal" text-decoration="none" x="600" y="60">UNREGISTERED</text><text fill="#eeeeee" stroke="none" font-family="Arial" font-size="24px" font-style="normal" font-weight="normal" text-decoration="none" x="600" y="90">UNREGISTERED</text><text fill="#eeeeee" stroke="none" font-family="Arial" font-size="24px" font-style="normal" font-weight="normal" text-decoration="none" x="600" y="120">UNREGISTERED</text><text fill="#eeeeee" stroke="none" font-family="Arial" font-size="24px" font-style="normal" font-weight="normal" text-decoration="none" x="600" y="150">UNREGISTERED</text><text fill="#eeeeee" stroke="none" font-family="Arial" font-size="24px" font-style="normal" font-weight="normal" text-decoration="none" x="600" y="180">UNREGISTERED</text><text fill="#eeeeee" stroke="none" font-family="Arial" font-size="24px" font-style="normal" font-weight="normal" text-decoration="none" x="600" y="210">UNREGISTERED</text><text fill="#eeeeee" stroke="none" font-family="Arial" font-size="24px" font-style="normal" font-weight="normal" text-decoration="none" x="600" y="240">UNREGISTERED</text><text fill="#eeeeee" stroke="none" font-family="Arial" font-size="24px" font-style="normal" font-weight="normal" text-decoration="none" x="600" y="270">UNREGISTERED</text><text fill="#eeeeee" stroke="none" font-family="Arial" font-size="24px" font-style="normal" font-weight="normal" text-decoration="none" x="600" y="300">UNREGISTERED</text><text fill="#eeeeee" stroke="none" font-family="Arial" font-size="24px" font-style="normal" font-weight="normal" text-decoration="none" x="600" y="330">UNREGISTERED</text><text fill="#eeeeee" stroke="none" font-family="Arial" font-size="24px" font-style="normal" font-weight="normal" text-decoration="none" x="600" y="360">UNREGISTERED</text><text fill="#eeeeee" stroke="none" font-family="Arial" font-size="24px" font-style="normal" font-weight="normal" text-decoration="none" x="600" y="390">UNREGISTERED</text><text fill="#eeeeee" stroke="none" font-family="Arial" font-size="24px" font-style="normal" font-weight="normal" text-decoration="none" x="600" y="420">UNREGISTERED</text><text fill="#eeeeee" stroke="none" font-family="Arial" font-size="24px" font-style="normal" font-weight="normal" text-decoration="none" x="600" y="450">UNREGISTERED</text><text fill="#eeeeee" stroke="none" font-family="Arial" font-size="24px" font-style="normal" font-weight="normal" text-decoration="none" x="600" y="480">UNREGISTERED</text><text fill="#eeeeee" stroke="none" font-family="Arial" font-size="24px" font-style="normal" font-weight="normal" text-decoration="none" x="600" y="510">UNREGISTERED</text><text fill="#eeeeee" stroke="none" font-family="Arial" font-size="24px" font-style="normal" font-weight="normal" text-decoration="none" x="800" y="0">UNREGISTERED</text><text fill="#eeeeee" stroke="none" font-family="Arial" font-size="24px" font-style="normal" font-weight="normal" text-decoration="none" x="800" y="30">UNREGISTERED</text><text fill="#eeeeee" stroke="none" font-family="Arial" font-size="24px" font-style="normal" font-weight="normal" text-decoration="none" x="800" y="60">UNREGISTERED</text><text fill="#eeeeee" stroke="none" font-family="Arial" font-size="24px" font-style="normal" font-weight="normal" text-decoration="none" x="800" y="90">UNREGISTERED</text><text fill="#eeeeee" stroke="none" font-family="Arial" font-size="24px" font-style="normal" font-weight="normal" text-decoration="none" x="800" y="120">UNREGISTERED</text><text fill="#eeeeee" stroke="none" font-family="Arial" font-size="24px" font-style="normal" font-weight="normal" text-decoration="none" x="800" y="150">UNREGISTERED</text><text fill="#eeeeee" stroke="none" font-family="Arial" font-size="24px" font-style="normal" font-weight="normal" text-decoration="none" x="800" y="180">UNREGISTERED</text><text fill="#eeeeee" stroke="none" font-family="Arial" font-size="24px" font-style="normal" font-weight="normal" text-decoration="none" x="800" y="210">UNREGISTERED</text><text fill="#eeeeee" stroke="none" font-family="Arial" font-size="24px" font-style="normal" font-weight="normal" text-decoration="none" x="800" y="240">UNREGISTERED</text><text fill="#eeeeee" stroke="none" font-family="Arial" font-size="24px" font-style="normal" font-weight="normal" text-decoration="none" x="800" y="270">UNREGISTERED</text><text fill="#eeeeee" stroke="none" font-family="Arial" font-size="24px" font-style="normal" font-weight="normal" text-decoration="none" x="800" y="300">UNREGISTERED</text><text fill="#eeeeee" stroke="none" font-family="Arial" font-size="24px" font-style="normal" font-weight="normal" text-decoration="none" x="800" y="330">UNREGISTERED</text><text fill="#eeeeee" stroke="none" font-family="Arial" font-size="24px" font-style="normal" font-weight="normal" text-decoration="none" x="800" y="360">UNREGISTERED</text><text fill="#eeeeee" stroke="none" font-family="Arial" font-size="24px" font-style="normal" font-weight="normal" text-decoration="none" x="800" y="390">UNREGISTERED</text><text fill="#eeeeee" stroke="none" font-family="Arial" font-size="24px" font-style="normal" font-weight="normal" text-decoration="none" x="800" y="420">UNREGISTERED</text><text fill="#eeeeee" stroke="none" font-family="Arial" font-size="24px" font-style="normal" font-weight="normal" text-decoration="none" x="800" y="450">UNREGISTERED</text><text fill="#eeeeee" stroke="none" font-family="Arial" font-size="24px" font-style="normal" font-weight="normal" text-decoration="none" x="800" y="480">UNREGISTERED</text><text fill="#eeeeee" stroke="none" font-family="Arial" font-size="24px" font-style="normal" font-weight="normal" text-decoration="none" x="800" y="510">UNREGISTERED</text><g transform="translate(-126,-102) scale(1,1)"><rect fill="#ffffff" stroke="none" x="136" y="112" width="912" height="512"/></g><g transform="translate(-126,-102) scale(1,1)"><path fill="none" stroke="#000000" d="M 136 112 L 1048 112 L 1048 624 L 136 624 L 136 112 Z Z" stroke-miterlimit="10"/></g><g transform="translate(-126,-102) scale(1,1)"><path fill="#ffffff" stroke="none" d="M 203.85978977272728 505.68 C 203.85978977272728 500.886167936 207.74563209767274 497 212.5390625 497 C 217.33249290232726 497 221.21833522727272 500.886167936 221.21833522727272 505.68 C 221.21833522727272 510.473832064 217.33249290232726 514.36 212.5390625 514.36 C 207.74563209767274 514.36 203.85978977272728 510.473832064 203.85978977272728 505.68 Z"/></g><g transform="translate(-126,-102) scale(1,1)"><path fill="none" stroke="#000000" d="M 203.85978977272728 505.68 C 203.85978977272728 500.886167936 207.74563209767274 497 212.5390625 497 C 217.33249290232726 497 221.21833522727272 500.886167936 221.21833522727272 505.68 C 221.21833522727272 510.473832064 217.33249290232726 514.36 212.5390625 514.36 C 207.74563209767274 514.36 203.85978977272728 510.473832064 203.85978977272728 505.68 Z" stroke-miterlimit="10"/></g><g transform="translate(-126,-102) scale(1,1)"><path fill="none" stroke="#000000" d="M 212.5390625 514.36 L 212.5390625 531.64" stroke-miterlimit="10"/></g><g transform="translate(-126,-102) scale(1,1)"><path fill="none" stroke="#000000" d="M 203.34924431818183 520.84 L 221.72888068181817 520.84" stroke-miterlimit="10"/></g><g transform="translate(-126,-102) scale(1,1)"><path fill="none" stroke="#000000" d="M 212.5390625 531.64 L 199.77542613636365 549" stroke-miterlimit="10"/></g><g transform="translate(-126,-102) scale(1,1)"><path fill="none" stroke="#000000" d="M 212.5390625 531.64 L 225.30269886363635 549" stroke-miterlimit="10"/></g><g transform="translate(-126,-102) scale(1,1)"><g><path fill="none" stroke="none"/><text fill="#000000" stroke="none" font-family="Arial" font-size="13px" font-style="normal" font-weight="bold" text-decoration="none" x="168.83544921875" y="569.5">Amministratore</text></g></g><g transform="translate(-126,-102) scale(1,1)"><path fill="#ffffff" stroke="none" d="M 200.04436008522728 137.68 C 200.04436008522728 132.886167936 203.93020241017274 129 208.7236328125 129 C 213.51706321482726 129 217.40290553977272 132.886167936 217.40290553977272 137.68 C 217.40290553977272 142.47383206400002 213.51706321482726 146.36 208.7236328125 146.36 C 203.93020241017274 146.36 200.04436008522728 142.47383206400002 200.04436008522728 137.68 Z"/></g><g transform="translate(-126,-102) scale(1,1)"><path fill="none" stroke="#000000" d="M 200.04436008522728 137.68 C 200.04436008522728 132.886167936 203.93020241017274 129 208.7236328125 129 C 213.51706321482726 129 217.40290553977272 132.886167936 217.40290553977272 137.68 C 217.40290553977272 142.47383206400002 213.51706321482726 146.36 208.7236328125 146.36 C 203.93020241017274 146.36 200.04436008522728 142.47383206400002 200.04436008522728 137.68 Z" stroke-miterlimit="10"/></g><g transform="translate(-126,-102) scale(1,1)"><path fill="none" stroke="#000000" d="M 208.7236328125 146.36 L 208.7236328125 163.64" stroke-miterlimit="10"/></g><g transform="translate(-126,-102) scale(1,1)"><path fill="none" stroke="#000000" d="M 199.53381463068183 152.84 L 217.91345099431817 152.84" stroke-miterlimit="10"/></g><g transform="translate(-126,-102) scale(1,1)"><path fill="none" stroke="#000000" d="M 208.7236328125 163.64 L 195.95999644886365 181" stroke-miterlimit="10"/></g><g transform="translate(-126,-102) scale(1,1)"><path fill="none" stroke="#000000" d="M 208.7236328125 163.64 L 221.48726917613635 181" stroke-miterlimit="10"/></g><g transform="translate(-126,-102) scale(1,1)"><g><path fill="none" stroke="none"/><text fill="#000000" stroke="none" font-family="Arial" font-size="13px" font-style="normal" font-weight="bold" text-decoration="none" x="189.57275390625" y="201.5">Utente</text></g></g><g transform="translate(-126,-102) scale(1,1)"><path fill="#C0C0C0" stroke="none" d="M 335 160 C 335 150.6111584 362.9822 143 397.5 143 C 432.0178 143 460 150.6111584 460 160 C 460 169.3888416 432.0178 177 397.5 177 C 362.9822 177 335 169.3888416 335 160 Z" opacity="0.2"/></g><g transform="translate(-126,-102) scale(1,1)"><path fill="#ffffff" stroke="none" d="M 328 153 C 328 143.6111584 355.9822 136 390.5 136 C 425.0178 136 453 143.6111584 453 153 C 453 162.3888416 425.0178 170 390.5 170 C 355.9822 170 328 162.3888416 328 153 Z"/></g><g transform="translate(-126,-102) scale(1,1)"><path fill="none" stroke="#000000" d="M 328 153 C 328 143.6111584 355.9822 136 390.5 136 C 425.0178 136 453 143.6111584 453 153 C 453 162.3888416 425.0178 170 390.5 170 C 355.9822 170 328 162.3888416 328 153 Z" stroke-miterlimit="10"/></g><g transform="translate(-126,-102) scale(1,1)"><g><path fill="none" stroke="none"/><text fill="#000000" stroke="none" font-family="Arial" font-size="13px" font-style="normal" font-weight="bold" text-decoration="none" x="353.655029296875" y="160">Inserire Città</text></g></g><g transform="translate(-126,-102) scale(1,1)"><path fill="none" stroke="#000000" d="M 234 165 L 327 158" stroke-miterlimit="10"/></g><g transform="translate(-126,-102) scale(1,1)"><path fill="#C0C0C0" stroke="none" d="M 271 336 C 271 326.6111584 301.8923488 319 340 319 C 378.1076512 319 409 326.6111584 409 336 C 409 345.3888416 378.1076512 353 340 353 C 301.8923488 353 271 345.3888416 271 336 Z" opacity="0.2"/></g><g transform="translate(-126,-102) scale(1,1)"><path fill="#ffffff" stroke="none" d="M 264 329 C 264 319.6111584 294.8923488 312 333 312 C 371.1076512 312 402 319.6111584 402 329 C 402 338.3888416 371.1076512 346 333 346 C 294.8923488 346 264 338.3888416 264 329 Z"/></g><g transform="translate(-126,-102) scale(1,1)"><path fill="none" stroke="#000000" d="M 264 329 C 264 319.6111584 294.8923488 312 333 312 C 371.1076512 312 402 319.6111584 402 329 C 402 338.3888416 371.1076512 346 333 346 C 294.8923488 346 264 338.3888416 264 329 Z" stroke-miterlimit="10"/></g><g transform="translate(-126,-102) scale(1,1)"><g><path fill="none" stroke="none"/><text fill="#000000" stroke="none" font-family="Arial" font-size="13px" font-style="normal" font-weight="bold" text-decoration="none" x="292.181396484375" y="336">Inserire Giorni</text></g></g><g transform="translate(-126,-102) scale(1,1)"><path fill="none" stroke="#000000" d="M 384 171 L 339 311" stroke-miterlimit="10" stroke-dasharray="3"/></g><g transform="translate(-126,-102) scale(1,1)"><path fill="none" stroke="#000000" d="M 338.10229067102193 300.0366921980332 L 339 311 L 346.1174529369513 302.6129943549391" stroke-miterlimit="10"/></g><g transform="translate(-126,-102) scale(1,1)"><g><path fill="none" stroke="none"/><text fill="#000000" stroke="none" font-family="Arial" font-size="13px" font-style="normal" font-weight="normal" text-decoration="none" x="361.5" y="255.5">«include»</text></g></g><g transform="translate(-126,-102) scale(1,1)"><path fill="#C0C0C0" stroke="none" d="M 583 424 C 583 414.6111584 617.697928 407 660.5 407 C 703.302072 407 738 414.6111584 738 424 C 738 433.3888416 703.302072 441 660.5 441 C 617.697928 441 583 433.3888416 583 424 Z" opacity="0.2"/></g><g transform="translate(-126,-102) scale(1,1)"><path fill="#ffffff" stroke="none" d="M 576 417 C 576 407.6111584 610.697928 400 653.5 400 C 696.302072 400 731 407.6111584 731 417 C 731 426.3888416 696.302072 434 653.5 434 C 610.697928 434 576 426.3888416 576 417 Z"/></g><g transform="translate(-126,-102) scale(1,1)"><path fill="none" stroke="#000000" d="M 576 417 C 576 407.6111584 610.697928 400 653.5 400 C 696.302072 400 731 407.6111584 731 417 C 731 426.3888416 696.302072 434 653.5 434 C 610.697928 434 576 426.3888416 576 417 Z" stroke-miterlimit="10"/></g><g transform="translate(-126,-102) scale(1,1)"><g><path fill="none" stroke="none"/><text fill="#000000" stroke="none" font-family="Arial" font-size="13px" font-style="normal" font-weight="bold" text-decoration="none" x="606.289306640625" y="424">Visualizzare dati</text></g></g><g transform="translate(-126,-102) scale(1,1)"><path fill="none" stroke="#000000" d="M 398 347 L 588 399" stroke-miterlimit="10" stroke-dasharray="3"/></g><g transform="translate(-126,-102) scale(1,1)"><path fill="none" stroke="#000000" d="M 577.0865906306332 400.3774962564803 L 588 399 L 579.3090172850397 392.25709117307224" stroke-miterlimit="10"/></g><g transform="translate(-126,-102) scale(1,1)"><g><path fill="none" stroke="none"/><text fill="#000000" stroke="none" font-family="Arial" font-size="13px" font-style="normal" font-weight="normal" text-decoration="none" x="472.5" y="350.5">«include»</text></g></g><g transform="translate(-126,-102) scale(1,1)"><path fill="#C0C0C0" stroke="none" d="M 567 168 C 567 158.6111584 615.129384 151 674.5 151 C 733.870616 151 782 158.6111584 782 168 C 782 177.3888416 733.870616 185 674.5 185 C 615.129384 185 567 177.3888416 567 168 Z" opacity="0.2"/></g><g transform="translate(-126,-102) scale(1,1)"><path fill="#ffffff" stroke="none" d="M 560 161 C 560 151.6111584 608.129384 144 667.5 144 C 726.870616 144 775 151.6111584 775 161 C 775 170.3888416 726.870616 178 667.5 178 C 608.129384 178 560 170.3888416 560 161 Z"/></g><g transform="translate(-126,-102) scale(1,1)"><path fill="none" stroke="#000000" d="M 560 161 C 560 151.6111584 608.129384 144 667.5 144 C 726.870616 144 775 151.6111584 775 161 C 775 170.3888416 726.870616 178 667.5 178 C 608.129384 178 560 170.3888416 560 161 Z" stroke-miterlimit="10"/></g><g transform="translate(-126,-102) scale(1,1)"><g><path fill="none" stroke="none"/><text fill="#000000" stroke="none" font-family="Arial" font-size="13px" font-style="normal" font-weight="bold" text-decoration="none" x="602.1064453125" y="168">Inserire Giorno singolo</text></g></g><g transform="translate(-126,-102) scale(1,1)"><path fill="none" stroke="#000000" d="M 454 155 L 559 158" stroke-miterlimit="10" stroke-dasharray="3"/></g><g transform="translate(-126,-102) scale(1,1)"><path fill="none" stroke="#000000" d="M 548.7212477597106 161.91755694058782 L 559 158 L 548.961693510381 153.5019556671291" stroke-miterlimit="10"/></g><g transform="translate(-126,-102) scale(1,1)"><g><path fill="none" stroke="none"/><text fill="#000000" stroke="none" font-family="Arial" font-size="13px" font-style="normal" font-weight="normal" text-decoration="none" x="479.5" y="132.5">«include»</text></g></g><g transform="translate(-126,-102) scale(1,1)"><path fill="none" stroke="#000000" d="M 666 179 L 654 399" stroke-miterlimit="10" stroke-dasharray="3"/></g><g transform="translate(-126,-102) scale(1,1)"><path fill="none" stroke="#000000" d="M 650.3502353330729 388.6231402690385 L 654 399 L 658.7567745374653 389.0816787710963" stroke-miterlimit="10"/></g><g transform="translate(-126,-102) scale(1,1)"><g><path fill="none" stroke="none"/><text fill="#000000" stroke="none" font-family="Arial" font-size="13px" font-style="normal" font-weight="normal" text-decoration="none" x="661.5" y="296.5">«include»</text></g></g><g transform="translate(-126,-102) scale(1,1)"><path fill="#C0C0C0" stroke="none" d="M 391 584 C 391 574.6111584 425.4740704 567 468 567 C 510.5259296 567 545 574.6111584 545 584 C 545 593.3888416 510.5259296 601 468 601 C 425.4740704 601 391 593.3888416 391 584 Z" opacity="0.2"/></g><g transform="translate(-126,-102) scale(1,1)"><path fill="#ffffff" stroke="none" d="M 384 577 C 384 567.6111584 418.4740704 560 461 560 C 503.5259296 560 538 567.6111584 538 577 C 538 586.3888416 503.5259296 594 461 594 C 418.4740704 594 384 586.3888416 384 577 Z"/></g><g transform="translate(-126,-102) scale(1,1)"><path fill="none" stroke="#000000" d="M 384 577 C 384 567.6111584 418.4740704 560 461 560 C 503.5259296 560 538 567.6111584 538 577 C 538 586.3888416 503.5259296 594 461 594 C 418.4740704 594 384 586.3888416 384 577 Z" stroke-miterlimit="10"/></g><g transform="translate(-126,-102) scale(1,1)"><g><path fill="none" stroke="none"/><text fill="#000000" stroke="none" font-family="Arial" font-size="13px" font-style="normal" font-weight="bold" text-decoration="none" x="414.38916015625" y="584">Accedere ai dati</text></g></g><g transform="translate(-126,-102) scale(1,1)"><path fill="none" stroke="#000000" d="M 266 544 L 383 564" stroke-miterlimit="10"/></g><g transform="translate(-126,-102) scale(1,1)"><path fill="#C0C0C0" stroke="none" d="M 687 592 C 687 582.6111584 730.4283743999999 575 784 575 C 837.5716256000001 575 881 582.6111584 881 592 C 881 601.3888416 837.5716256000001 609 784 609 C 730.4283743999999 609 687 601.3888416 687 592 Z" opacity="0.2"/></g><g transform="translate(-126,-102) scale(1,1)"><path fill="#ffffff" stroke="none" d="M 680 585 C 680 575.6111584 723.4283743999999 568 777 568 C 830.5716256000001 568 874 575.6111584 874 585 C 874 594.3888416 830.5716256000001 602 777 602 C 723.4283743999999 602 680 594.3888416 680 585 Z"/></g><g transform="translate(-126,-102) scale(1,1)"><path fill="none" stroke="#000000" d="M 680 585 C 680 575.6111584 723.4283743999999 568 777 568 C 830.5716256000001 568 874 575.6111584 874 585 C 874 594.3888416 830.5716256000001 602 777 602 C 723.4283743999999 602 680 594.3888416 680 585 Z" stroke-miterlimit="10"/></g><g transform="translate(-126,-102) scale(1,1)"><g><path fill="none" stroke="none"/><text fill="#000000" stroke="none" font-family="Arial" font-size="13px" font-style="normal" font-weight="bold" text-decoration="none" x="717.7509765625" y="592">Calcolare Statistiche</text></g></g><g transform="translate(-126,-102) scale(1,1)"><path fill="none" stroke="#000000" d="M 539 579 L 679 583" stroke-miterlimit="10" stroke-dasharray="3"/></g><g transform="translate(-126,-102) scale(1,1)"><path fill="none" stroke="#000000" d="M 668.7212477597106 586.9175569405878 L 679 583 L 668.961693510381 578.5019556671291" stroke-miterlimit="10"/></g><g transform="translate(-126,-102) scale(1,1)"><g><path fill="none" stroke="none"/><text fill="#000000" stroke="none" font-family="Arial" font-size="13px" font-style="normal" font-weight="normal" text-decoration="none" x="581.5" y="557.5">«include»</text></g></g><g transform="translate(-126,-102) scale(1,1)"><path fill="none" stroke="#000000" d="M 764 567 L 666 435" stroke-miterlimit="10" stroke-dasharray="3"/></g><g transform="translate(-126,-102) scale(1,1)"><path fill="none" stroke="#000000" d="M 675.4378352157412 440.65042179315094 L 666 435 L 668.6781057142706 445.66900884727306" stroke-miterlimit="10"/></g><g transform="translate(-126,-102) scale(1,1)"><g><path fill="none" stroke="none"/><text fill="#000000" stroke="none" font-family="Arial" font-size="13px" font-style="normal" font-weight="normal" text-decoration="none" x="662.5" y="524.5">«include»</text></g></g><g transform="translate(-126,-102) scale(1,1)"><path fill="#C0C0C0" stroke="none" d="M 831 296 C 831 286.6111584 874.2045168 279 927.5 279 C 980.7954832 279 1024 286.6111584 1024 296 C 1024 305.3888416 980.7954832 313 927.5 313 C 874.2045168 313 831 305.3888416 831 296 Z" opacity="0.2"/></g><g transform="translate(-126,-102) scale(1,1)"><path fill="#ffffff" stroke="none" d="M 824 289 C 824 279.6111584 867.2045168 272 920.5 272 C 973.7954832 272 1017 279.6111584 1017 289 C 1017 298.3888416 973.7954832 306 920.5 306 C 867.2045168 306 824 298.3888416 824 289 Z"/></g><g transform="translate(-126,-102) scale(1,1)"><path fill="none" stroke="#000000" d="M 824 289 C 824 279.6111584 867.2045168 272 920.5 272 C 973.7954832 272 1017 279.6111584 1017 289 C 1017 298.3888416 973.7954832 306 920.5 306 C 867.2045168 306 824 298.3888416 824 289 Z" stroke-miterlimit="10"/></g><g transform="translate(-126,-102) scale(1,1)"><g><path fill="none" stroke="none"/><text fill="#000000" stroke="none" font-family="Arial" font-size="13px" font-style="normal" font-weight="bold" text-decoration="none" x="861.615966796875" y="296">Inserire fascia oraria</text></g></g><g transform="translate(-126,-102) scale(1,1)"><path fill="none" stroke="#000000" d="M 884 271 L 703 179" stroke-miterlimit="10" stroke-dasharray="3"/></g><g transform="translate(-126,-102) scale(1,1)"><path fill="none" stroke="#000000" d="M 713.9669341393001 179.85226497302992 L 703 179 L 710.1521511569282 187.35743584052258" stroke-miterlimit="10"/></g><g transform="translate(-126,-102) scale(1,1)"><g><path fill="none" stroke="none"/><text fill="#000000" stroke="none" font-family="Arial" font-size="13px" font-style="normal" font-weight="normal" text-decoration="none" x="752.5" y="257.5">«extend»</text></g></g><g transform="translate(-126,-102) scale(1,1)"><path fill="none" stroke="#000000" d="M 882 307 L 691 399" stroke-miterlimit="10" stroke-dasharray="3"/></g><g transform="translate(-126,-102) scale(1,1)"><path fill="none" stroke="#000000" d="M 698.3291414086699 390.79733663913237 L 691 399 L 701.9826444766055 398.3823267040857" stroke-miterlimit="10"/></g><g transform="translate(-126,-102) scale(1,1)"><g><path fill="none" stroke="none"/><text fill="#000000" stroke="none" font-family="Arial" font-size="13px" font-style="normal" font-weight="normal" text-decoration="none" x="771.5" y="386.5">«include»</text></g></g></g></svg>