<svg version="1.1" xmlns="http://www.w3.org/2000/svg" xmlns:xlink="http://www.w3.org/1999/xlink" width="499" height="331"><defs/><g><text fill="#eeeeee" stroke="none" font-family="Arial" font-size="24px" font-style="normal" font-weight="normal" text-decoration="none" x="0" y="0">UNREGISTERED</text><text fill="#eeeeee" stroke="none" font-family="Arial" font-size="24px" font-style="normal" font-weight="normal" text-decoration="none" x="0" y="30">UNREGISTERED</text><text fill="#eeeeee" stroke="none" font-family="Arial" font-size="24px" font-style="normal" font-weight="normal" text-decoration="none" x="0" y="60">UNREGISTERED</text><text fill="#eeeeee" stroke="none" font-family="Arial" font-size="24px" font-style="normal" font-weight="normal" text-decoration="none" x="0" y="90">UNREGISTERED</text><text fill="#eeeeee" stroke="none" font-family="Arial" font-size="24px" font-style="normal" font-weight="normal" text-decoration="none" x="0" y="120">UNREGISTERED</text><text fill="#eeeeee" stroke="none" font-family="Arial" font-size="24px" font-style="normal" font-weight="normal" text-decoration="none" x="0" y="150">UNREGISTERED</text><text fill="#eeeeee" stroke="none" font-family="Arial" font-size="24px" font-style="normal" font-weight="normal" text-decoration="none" x="0" y="180">UNREGISTERED</text><text fill="#eeeeee" stroke="none" font-family="Arial" font-size="24px" font-style="normal" font-weight="normal" text-decoration="none" x="0" y="210">UNREGISTERED</text><text fill="#eeeeee" stroke="none" font-family="Arial" font-size="24px" font-style="normal" font-weight="normal" text-decoration="none" x="0" y="240">UNREGISTERED</text><text fill="#eeeeee" stroke="none" font-family="Arial" font-size="24px" font-style="normal" font-weight="normal" text-decoration="none" x="0" y="270">UNREGISTERED</text><text fill="#eeeeee" stroke="none" font-family="Arial" font-size="24px" font-style="normal" font-weight="normal" text-decoration="none" x="0" y="300">UNREGISTERED</text><text fill="#eeeeee" stroke="none" font-family="Arial" font-size="24px" font-style="normal" font-weight="normal" text-decoration="none" x="0" y="330">UNREGISTERED</text><text fill="#eeeeee" stroke="none" font-family="Arial" font-size="24px" font-style="normal" font-weight="normal" text-decoration="none" x="200" y="0">UNREGISTERED</text><text fill="#eeeeee" stroke="none" font-family="Arial" font-size="24px" font-style="normal" font-weight="normal" text-decoration="none" x="200" y="30">UNREGISTERED</text><text fill="#eeeeee" stroke="none" font-family="Arial" font-size="24px" font-style="normal" font-weight="normal" text-decoration="none" x="200" y="60">UNREGISTERED</text><text fill="#eeeeee" stroke="none" font-family="Arial" font-size="24px" font-style="normal" font-weight="normal" text-decoration="none" x="200" y="90">UNREGISTERED</text><text fill="#eeeeee" stroke="none" font-family="Arial" font-size="24px" font-style="normal" font-weight="normal" text-decoration="none" x="200" y="120">UNREGISTERED</text><text fill="#eeeeee" stroke="none" font-family="Arial" font-size="24px" font-style="normal" font-weight="normal" text-decoration="none" x="200" y="150">UNREGISTERED</text><text fill="#eeeeee" stroke="none" font-family="Arial" font-size="24px" font-style="normal" font-weight="normal" text-decoration="none" x="200" y="180">UNREGISTERED</text><text fill="#eeeeee" stroke="none" font-family="Arial" font-size="24px" font-style="normal" font-weight="normal" text-decoration="none" x="200" y="210">UNREGISTERED</text><text fill="#eeeeee" stroke="none" font-family="Arial" font-size="24px" font-style="normal" font-weight="normal" text-decoration="none" x="200" y="240">UNREGISTERED</text><text fill="#eeeeee" stroke="none" font-family="Arial" font-size="24px" font-style="normal" font-weight="normal" text-decoration="none" x="200" y="270">UNREGISTERED</text><text fill="#eeeeee" stroke="none" font-family="Arial" font-size="24px" font-style="normal" font-weight="normal" text-decoration="none" x="200" y="300">UNREGISTERED</text><text fill="#eeeeee" stroke="none" font-family="Arial" font-size="24px" font-style="normal" font-weight="normal" text-decoration="none" x="200" y="330">UNREGISTERED</text><text fill="#eeeeee" stroke="none" font-family="Arial" font-size="24px" font-style="normal" font-weight="normal" text-decoration="none" x="400" y="0">UNREGISTERED</text><text fill="#eeeeee" stroke="none" font-family="Arial" font-size="24px" font-style="normal" font-weight="normal" text-decoration="none" x="400" y="30">UNREGISTERED</text><text fill="#eeeeee" stroke="none" font-family="Arial" font-size="24px" font-style="normal" font-weight="normal" text-decoration="none" x="400" y="60">UNREGISTERED</text><text fill="#eeeeee" stroke="none" font-family="Arial" font-size="24px" font-style="normal" font-weight="normal" text-decoration="none" x="400" y="90">UNREGISTERED</text><text fill="#eeeeee" stroke="none" font-family="Arial" font-size="24px" font-style="normal" font-weight="normal" text-decoration="none" x="400" y="120">UNREGISTERED</text><text fill="#eeeeee" stroke="none" font-family="Arial" font-size="24px" font-style="normal" font-weight="normal" text-decoration="none" x="400" y="150">UNREGISTERED</text><text fill="#eeeeee" stroke="none" font-family="Arial" font-size="24px" font-style="normal" font-weight="normal" text-decoration="none" x="400" y="180">UNREGISTERED</text><text fill="#eeeeee" stroke="none" font-family="Arial" font-size="24px" font-style="normal" font-weight="normal" text-decoration="none" x="400" y="210">UNREGISTERED</text><text fill="#eeeeee" stroke="none" font-family="Arial" font-size="24px" font-style="normal" font-weight="normal" text-decoration="none" x="400" y="240">UNREGISTERED</text><text fill="#eeeeee" stroke="none" font-family="Arial" font-size="24px" font-style="normal" font-weight="normal" text-decoration="none" x="400" y="270">UNREGISTERED</text><text fill="#eeeeee" stroke="none" font-family="Arial" font-size="24px" font-style="normal" font-weight="normal" text-decoration="none" x="400" y="300">UNREGISTERED</text><text fill="#eeeeee" stroke="none" font-family="Arial" font-size="24px" font-style="normal" font-weight="normal" text-decoration="none" x="400" y="330">UNREGISTERED</text><g transform="translate(-190,-150) scale(1,1)"><rect fill="#ffffff" stroke="none" x="200" y="160" width="479" height="311"/></g><g transform="translate(-190,-150) scale(1,1)"><path fill="none" stroke="#000000" d="M 200 160 L 679 160 L 679 471 L 200 471 L 200 160 Z Z" stroke-miterlimit="10"/></g><g transform="translate(-190,-150) scale(1,1)"><rect fill="#C0C0C0" stroke="none" x="419.63720703125" y="179" width="19.600000000000023" height="15" opacity="0.2"/></g><g transform="translate(-190,-150) scale(1,1)"><rect fill="#C0C0C0" stroke="none" x="419.63720703125" y="193" width="49" height="25" opacity="0.2"/></g><g transform="translate(-190,-150) scale(1,1)"><rect fill="#ffffff" stroke="none" x="412.63720703125" y="187" width="49" height="24"/></g><g transform="translate(-190,-150) scale(1,1)"><path fill="none" stroke="#000000" d="M 412.63720703125 187 L 461.63720703125 187 L 461.63720703125 211 L 412.63720703125 211 L 412.63720703125 187 Z Z" stroke-miterlimit="10"/></g><g transform="translate(-190,-150) scale(1,1)"><rect fill="#ffffff" stroke="none" x="412.63720703125" y="172" width="19.600000000000023" height="15"/></g><g transform="translate(-190,-150) scale(1,1)"><path fill="none" stroke="#000000" d="M 412.63720703125 172 L 432.23720703125 172 L 432.23720703125 187 L 412.63720703125 187 L 412.63720703125 172 Z Z" stroke-miterlimit="10"/></g><g transform="translate(-190,-150) scale(1,1)"><rect fill="#ffffff" stroke="none" x="412.63720703125" y="186" width="49" height="25"/></g><g transform="translate(-190,-150) scale(1,1)"><path fill="none" stroke="#000000" d="M 412.63720703125 186 L 461.63720703125 186 L 461.63720703125 211 L 412.63720703125 211 L 412.63720703125 186 Z Z" stroke-miterlimit="10"/></g><g transform="translate(-190,-150) scale(1,1)"><g><path fill="none" stroke="none"/><text fill="#000000" stroke="none" font-family="Arial" font-size="13px" font-style="normal" font-weight="bold" text-decoration="none" x="433.88720703125" y="206.5">it</text></g></g><g transform="translate(-190,-150) scale(1,1)"><rect fill="#C0C0C0" stroke="none" x="416.525390625" y="249" width="22.089453124999977" height="15" opacity="0.2"/></g><g transform="translate(-190,-150) scale(1,1)"><rect fill="#C0C0C0" stroke="none" x="416.525390625" y="263" width="55.2236328125" height="25" opacity="0.2"/></g><g transform="translate(-190,-150) scale(1,1)"><rect fill="#ffffff" stroke="none" x="409.525390625" y="257" width="55.2236328125" height="24"/></g><g transform="translate(-190,-150) scale(1,1)"><path fill="none" stroke="#000000" d="M 409.525390625 257 L 464.7490234375 257 L 464.7490234375 281 L 409.525390625 281 L 409.525390625 257 Z Z" stroke-miterlimit="10"/></g><g transform="translate(-190,-150) scale(1,1)"><rect fill="#ffffff" stroke="none" x="409.525390625" y="242" width="22.089453124999977" height="15"/></g><g transform="translate(-190,-150) scale(1,1)"><path fill="none" stroke="#000000" d="M 409.525390625 242 L 431.61484375 242 L 431.61484375 257 L 409.525390625 257 L 409.525390625 242 Z Z" stroke-miterlimit="10"/></g><g transform="translate(-190,-150) scale(1,1)"><rect fill="#ffffff" stroke="none" x="409.525390625" y="256" width="55.2236328125" height="25"/></g><g transform="translate(-190,-150) scale(1,1)"><path fill="none" stroke="#000000" d="M 409.525390625 256 L 464.7490234375 256 L 464.7490234375 281 L 409.525390625 281 L 409.525390625 256 Z Z" stroke-miterlimit="10"/></g><g transform="translate(-190,-150) scale(1,1)"><g><path fill="none" stroke="none"/><text fill="#000000" stroke="none" font-family="Arial" font-size="13px" font-style="normal" font-weight="bold" text-decoration="none" x="416.18359375" y="276.5">univpm</text></g></g><g transform="translate(-190,-150) scale(1,1)"><rect fill="#C0C0C0" stroke="none" x="397.003173828125" y="319" width="37.70722656250001" height="15" opacity="0.2"/></g><g transform="translate(-190,-150) scale(1,1)"><rect fill="#C0C0C0" stroke="none" x="397.003173828125" y="333" width="94.26806640625" height="25" opacity="0.2"/></g><g transform="translate(-190,-150) scale(1,1)"><rect fill="#ffffff" stroke="none" x="390.003173828125" y="327" width="94.26806640625" height="24"/></g><g transform="translate(-190,-150) scale(1,1)"><path fill="none" stroke="#000000" d="M 390.003173828125 327 L 484.271240234375 327 L 484.271240234375 351 L 390.003173828125 351 L 390.003173828125 327 Z Z" stroke-miterlimit="10"/></g><g transform="translate(-190,-150) scale(1,1)"><rect fill="#ffffff" stroke="none" x="390.003173828125" y="312" width="37.70722656250001" height="15"/></g><g transform="translate(-190,-150) scale(1,1)"><path fill="none" stroke="#000000" d="M 390.003173828125 312 L 427.710400390625 312 L 427.710400390625 327 L 390.003173828125 327 L 390.003173828125 312 Z Z" stroke-miterlimit="10"/></g><g transform="translate(-190,-150) scale(1,1)"><rect fill="#ffffff" stroke="none" x="390.003173828125" y="326" width="94.26806640625" height="25"/></g><g transform="translate(-190,-150) scale(1,1)"><path fill="none" stroke="#000000" d="M 390.003173828125 326 L 484.271240234375 326 L 484.271240234375 351 L 390.003173828125 351 L 390.003173828125 326 Z Z" stroke-miterlimit="10"/></g><g transform="translate(-190,-150) scale(1,1)"><g><path fill="none" stroke="none"/><text fill="#000000" stroke="none" font-family="Arial" font-size="13px" font-style="normal" font-weight="bold" text-decoration="none" x="398.121337890625" y="346.5">pressurestats</text></g></g><g transform="translate(-190,-150) scale(1,1)"><rect fill="#C0C0C0" stroke="none" x="219" y="389" width="27.581445312499994" height="15" opacity="0.2"/></g><g transform="translate(-190,-150) scale(1,1)"><rect fill="#C0C0C0" stroke="none" x="219" y="403" width="68.95361328125" height="25" opacity="0.2"/></g><g transform="translate(-190,-150) scale(1,1)"><rect fill="#ffffff" stroke="none" x="212" y="397" width="68.95361328125" height="24"/></g><g transform="translate(-190,-150) scale(1,1)"><path fill="none" stroke="#000000" d="M 212 397 L 280.95361328125 397 L 280.95361328125 421 L 212 421 L 212 397 Z Z" stroke-miterlimit="10"/></g><g transform="translate(-190,-150) scale(1,1)"><rect fill="#ffffff" stroke="none" x="212" y="382" width="27.581445312499994" height="15"/></g><g transform="translate(-190,-150) scale(1,1)"><path fill="none" stroke="#000000" d="M 212 382 L 239.5814453125 382 L 239.5814453125 397 L 212 397 L 212 382 Z Z" stroke-miterlimit="10"/></g><g transform="translate(-190,-150) scale(1,1)"><rect fill="#ffffff" stroke="none" x="212" y="396" width="68.95361328125" height="25"/></g><g transform="translate(-190,-150) scale(1,1)"><path fill="none" stroke="#000000" d="M 212 396 L 280.95361328125 396 L 280.95361328125 421 L 212 421 L 212 396 Z Z" stroke-miterlimit="10"/></g><g transform="translate(-190,-150) scale(1,1)"><g><path fill="none" stroke="none"/><text fill="#000000" stroke="none" font-family="Arial" font-size="13px" font-style="normal" font-weight="bold" text-decoration="none" x="219.74365234375" y="416.5">controller</text></g></g><g transform="translate(-190,-150) scale(1,1)"><rect fill="#C0C0C0" stroke="none" x="318.95361328125" y="389" width="27.873437500000023" height="15" opacity="0.2"/></g><g transform="translate(-190,-150) scale(1,1)"><rect fill="#C0C0C0" stroke="none" x="318.95361328125" y="403" width="69.68359375" height="25" opacity="0.2"/></g><g transform="translate(-190,-150) scale(1,1)"><rect fill="#ffffff" stroke="none" x="311.95361328125" y="397" width="69.68359375" height="24"/></g><g transform="translate(-190,-150) scale(1,1)"><path fill="none" stroke="#000000" d="M 311.95361328125 397 L 381.63720703125 397 L 381.63720703125 421 L 311.95361328125 421 L 311.95361328125 397 Z Z" stroke-miterlimit="10"/></g><g transform="translate(-190,-150) scale(1,1)"><rect fill="#ffffff" stroke="none" x="311.95361328125" y="382" width="27.873437500000023" height="15"/></g><g transform="translate(-190,-150) scale(1,1)"><path fill="none" stroke="#000000" d="M 311.95361328125 382 L 339.82705078125 382 L 339.82705078125 397 L 311.95361328125 397 L 311.95361328125 382 Z Z" stroke-miterlimit="10"/></g><g transform="translate(-190,-150) scale(1,1)"><rect fill="#ffffff" stroke="none" x="311.95361328125" y="396" width="69.68359375" height="25"/></g><g transform="translate(-190,-150) scale(1,1)"><path fill="none" stroke="#000000" d="M 311.95361328125 396 L 381.63720703125 396 L 381.63720703125 421 L 311.95361328125 421 L 311.95361328125 396 Z Z" stroke-miterlimit="10"/></g><g transform="translate(-190,-150) scale(1,1)"><g><path fill="none" stroke="none"/><text fill="#000000" stroke="none" font-family="Arial" font-size="13px" font-style="normal" font-weight="bold" text-decoration="none" x="318.970458984375" y="416.5">exception</text></g></g><g transform="translate(-190,-150) scale(1,1)"><rect fill="#C0C0C0" stroke="none" x="419.63720703125" y="389" width="19.600000000000023" height="15" opacity="0.2"/></g><g transform="translate(-190,-150) scale(1,1)"><rect fill="#C0C0C0" stroke="none" x="419.63720703125" y="403" width="49" height="25" opacity="0.2"/></g><g transform="translate(-190,-150) scale(1,1)"><rect fill="#ffffff" stroke="none" x="412.63720703125" y="397" width="49" height="24"/></g><g transform="translate(-190,-150) scale(1,1)"><path fill="none" stroke="#000000" d="M 412.63720703125 397 L 461.63720703125 397 L 461.63720703125 421 L 412.63720703125 421 L 412.63720703125 397 Z Z" stroke-miterlimit="10"/></g><g transform="translate(-190,-150) scale(1,1)"><rect fill="#ffffff" stroke="none" x="412.63720703125" y="382" width="19.600000000000023" height="15"/></g><g transform="translate(-190,-150) scale(1,1)"><path fill="none" stroke="#000000" d="M 412.63720703125 382 L 432.23720703125 382 L 432.23720703125 397 L 412.63720703125 397 L 412.63720703125 382 Z Z" stroke-miterlimit="10"/></g><g transform="translate(-190,-150) scale(1,1)"><rect fill="#ffffff" stroke="none" x="412.63720703125" y="396" width="49" height="25"/></g><g transform="translate(-190,-150) scale(1,1)"><path fill="none" stroke="#000000" d="M 412.63720703125 396 L 461.63720703125 396 L 461.63720703125 421 L 412.63720703125 421 L 412.63720703125 396 Z Z" stroke-miterlimit="10"/></g><g transform="translate(-190,-150) scale(1,1)"><g><path fill="none" stroke="none"/><text fill="#000000" stroke="none" font-family="Arial" font-size="13px" font-style="normal" font-weight="bold" text-decoration="none" x="419.43359375" y="416.5">model</text></g></g><g transform="translate(-190,-150) scale(1,1)"><rect fill="#C0C0C0" stroke="none" x="499.63720703125" y="389" width="21.5283203125" height="15" opacity="0.2"/></g><g transform="translate(-190,-150) scale(1,1)"><rect fill="#C0C0C0" stroke="none" x="499.63720703125" y="403" width="53.82080078125" height="25" opacity="0.2"/></g><g transform="translate(-190,-150) scale(1,1)"><rect fill="#ffffff" stroke="none" x="492.63720703125" y="397" width="53.82080078125" height="24"/></g><g transform="translate(-190,-150) scale(1,1)"><path fill="none" stroke="#000000" d="M 492.63720703125 397 L 546.4580078125 397 L 546.4580078125 421 L 492.63720703125 421 L 492.63720703125 397 Z Z" stroke-miterlimit="10"/></g><g transform="translate(-190,-150) scale(1,1)"><rect fill="#ffffff" stroke="none" x="492.63720703125" y="382" width="21.5283203125" height="15"/></g><g transform="translate(-190,-150) scale(1,1)"><path fill="none" stroke="#000000" d="M 492.63720703125 382 L 514.16552734375 382 L 514.16552734375 397 L 492.63720703125 397 L 492.63720703125 382 Z Z" stroke-miterlimit="10"/></g><g transform="translate(-190,-150) scale(1,1)"><rect fill="#ffffff" stroke="none" x="492.63720703125" y="396" width="53.82080078125" height="25"/></g><g transform="translate(-190,-150) scale(1,1)"><path fill="none" stroke="#000000" d="M 492.63720703125 396 L 546.4580078125 396 L 546.4580078125 421 L 492.63720703125 421 L 492.63720703125 396 Z Z" stroke-miterlimit="10"/></g><g transform="translate(-190,-150) scale(1,1)"><g><path fill="none" stroke="none"/><text fill="#000000" stroke="none" font-family="Arial" font-size="13px" font-style="normal" font-weight="bold" text-decoration="none" x="498.958984375" y="416.5">service</text></g></g><g transform="translate(-190,-150) scale(1,1)"><rect fill="#C0C0C0" stroke="none" x="584.4580078125" y="389" width="26.144335937500045" height="15" opacity="0.2"/></g><g transform="translate(-190,-150) scale(1,1)"><rect fill="#C0C0C0" stroke="none" x="584.4580078125" y="403" width="65.36083984375" height="25" opacity="0.2"/></g><g transform="translate(-190,-150) scale(1,1)"><rect fill="#ffffff" stroke="none" x="577.4580078125" y="397" width="65.36083984375" height="24"/></g><g transform="translate(-190,-150) scale(1,1)"><path fill="none" stroke="#000000" d="M 577.4580078125 397 L 642.81884765625 397 L 642.81884765625 421 L 577.4580078125 421 L 577.4580078125 397 Z Z" stroke-miterlimit="10"/></g><g transform="translate(-190,-150) scale(1,1)"><rect fill="#ffffff" stroke="none" x="577.4580078125" y="382" width="26.144335937500045" height="15"/></g><g transform="translate(-190,-150) scale(1,1)"><path fill="none" stroke="#000000" d="M 577.4580078125 382 L 603.60234375 382 L 603.60234375 397 L 577.4580078125 397 L 577.4580078125 382 Z Z" stroke-miterlimit="10"/></g><g transform="translate(-190,-150) scale(1,1)"><rect fill="#ffffff" stroke="none" x="577.4580078125" y="396" width="65.36083984375" height="25"/></g><g transform="translate(-190,-150) scale(1,1)"><path fill="none" stroke="#000000" d="M 577.4580078125 396 L 642.81884765625 396 L 642.81884765625 421 L 577.4580078125 421 L 577.4580078125 396 Z Z" stroke-miterlimit="10"/></g><g transform="translate(-190,-150) scale(1,1)"><g><path fill="none" stroke="none"/><text fill="#000000" stroke="none" font-family="Arial" font-size="13px" font-style="normal" font-weight="bold" text-decoration="none" x="585.217529296875" y="416.5">statistics</text></g></g><g transform="translate(-190,-150) scale(1,1)"><path fill="none" stroke="#000000" d="M 438 241 Q 438 227 438 212" stroke-miterlimit="10"/></g><g transform="translate(-190,-150) scale(1,1)"><path fill="#FFFFFF" stroke="none" d="M 431 219 C 431 215.1340064 434.1340064 212 438 212 C 441.8659936 212 445 215.1340064 445 219 C 445 222.8659936 441.8659936 226 438 226 C 434.1340064 226 431 222.8659936 431 219 Z"/></g><g transform="translate(-190,-150) scale(1,1)"><path fill="none" stroke="#000000" d="M 431 219 C 431 215.1340064 434.1340064 212 438 212 C 441.8659936 212 445 215.1340064 445 219 C 445 222.8659936 441.8659936 226 438 226 C 434.1340064 226 431 222.8659936 431 219 Z" stroke-miterlimit="10"/></g><g transform="translate(-190,-150) scale(1,1)"><path fill="none" stroke="#000000" d="M 438 226 L 438 212" stroke-miterlimit="10"/></g><g transform="translate(-190,-150) scale(1,1)"><path fill="none" stroke="#000000" d="M 445 219 L 431 219" stroke-miterlimit="10"/></g><g transform="translate(-190,-150) scale(1,1)"><path fill="none" stroke="#000000" d="M 438 311 Q 438 297 438 282" stroke-miterlimit="10"/></g><g transform="translate(-190,-150) scale(1,1)"><path fill="#FFFFFF" stroke="none" d="M 431 289 C 431 285.1340064 434.1340064 282 438 282 C 441.8659936 282 445 285.1340064 445 289 C 445 292.8659936 441.8659936 296 438 296 C 434.1340064 296 431 292.8659936 431 289 Z"/></g><g transform="translate(-190,-150) scale(1,1)"><path fill="none" stroke="#000000" d="M 431 289 C 431 285.1340064 434.1340064 282 438 282 C 441.8659936 282 445 285.1340064 445 289 C 445 292.8659936 441.8659936 296 438 296 C 434.1340064 296 431 292.8659936 431 289 Z" stroke-miterlimit="10"/></g><g transform="translate(-190,-150) scale(1,1)"><path fill="none" stroke="#000000" d="M 438 296 L 438 282" stroke-miterlimit="10"/></g><g transform="translate(-190,-150) scale(1,1)"><path fill="none" stroke="#000000" d="M 445 289 L 431 289" stroke-miterlimit="10"/></g><g transform="translate(-190,-150) scale(1,1)"><path fill="none" stroke="#000000" d="M 247 381 Q 247 367 389 340" stroke-miterlimit="10"/></g><g transform="translate(-190,-150) scale(1,1)"><path fill="#FFFFFF" stroke="none" d="M 375.1232065165943 341.3075593243095 C 375.1232065165943 337.4415657243095 378.25721291659426 334.3075593243095 382.1232065165943 334.3075593243095 C 385.9892001165943 334.3075593243095 389.1232065165943 337.4415657243095 389.1232065165943 341.3075593243095 C 389.1232065165943 345.17355292430955 385.9892001165943 348.3075593243095 382.1232065165943 348.3075593243095 C 378.25721291659426 348.3075593243095 375.1232065165943 345.17355292430955 375.1232065165943 341.3075593243095 Z"/></g><g transform="translate(-190,-150) scale(1,1)"><path fill="none" stroke="#000000" d="M 375.1232065165943 341.3075593243095 C 375.1232065165943 337.4415657243095 378.25721291659426 334.3075593243095 382.1232065165943 334.3075593243095 C 385.9892001165943 334.3075593243095 389.1232065165943 337.4415657243095 389.1232065165943 341.3075593243095 C 389.1232065165943 345.17355292430955 385.9892001165943 348.3075593243095 382.1232065165943 348.3075593243095 C 378.25721291659426 348.3075593243095 375.1232065165943 345.17355292430955 375.1232065165943 341.3075593243095 Z" stroke-miterlimit="10"/></g><g transform="translate(-190,-150) scale(1,1)"><path fill="none" stroke="#000000" d="M 375.24641303318856 342.61511864861905 L 389 340" stroke-miterlimit="10"/></g><g transform="translate(-190,-150) scale(1,1)"><path fill="none" stroke="#000000" d="M 383.4307658409038 348.18435280771524 L 380.81564719228476 334.4307658409038" stroke-miterlimit="10"/></g><g transform="translate(-190,-150) scale(1,1)"><path fill="none" stroke="#000000" d="M 347 381 Q 347 367 389 350" stroke-miterlimit="10"/></g><g transform="translate(-190,-150) scale(1,1)"><path fill="#FFFFFF" stroke="none" d="M 375.5113723074379 352.6263493041323 C 375.5113723074379 348.7603557041323 378.6453787074379 345.6263493041323 382.5113723074379 345.6263493041323 C 386.37736590743793 345.6263493041323 389.5113723074379 348.7603557041323 389.5113723074379 352.6263493041323 C 389.5113723074379 356.49234290413233 386.37736590743793 359.6263493041323 382.5113723074379 359.6263493041323 C 378.6453787074379 359.6263493041323 375.5113723074379 356.49234290413233 375.5113723074379 352.6263493041323 Z"/></g><g transform="translate(-190,-150) scale(1,1)"><path fill="none" stroke="#000000" d="M 375.5113723074379 352.6263493041323 C 375.5113723074379 348.7603557041323 378.6453787074379 345.6263493041323 382.5113723074379 345.6263493041323 C 386.37736590743793 345.6263493041323 389.5113723074379 348.7603557041323 389.5113723074379 352.6263493041323 C 389.5113723074379 356.49234290413233 386.37736590743793 359.6263493041323 382.5113723074379 359.6263493041323 C 378.6453787074379 359.6263493041323 375.5113723074379 356.49234290413233 375.5113723074379 352.6263493041323 Z" stroke-miterlimit="10"/></g><g transform="translate(-190,-150) scale(1,1)"><path fill="none" stroke="#000000" d="M 376.02274461487576 355.25269860826455 L 389 350" stroke-miterlimit="10"/></g><g transform="translate(-190,-150) scale(1,1)"><path fill="none" stroke="#000000" d="M 385.1377216115702 359.1149769966944 L 379.8850230033056 346.1377216115702" stroke-miterlimit="10"/></g><g transform="translate(-190,-150) scale(1,1)"><path fill="none" stroke="#000000" d="M 438 381 Q 438 367 438 352" stroke-miterlimit="10"/></g><g transform="translate(-190,-150) scale(1,1)"><path fill="#FFFFFF" stroke="none" d="M 431 359 C 431 355.1340064 434.1340064 352 438 352 C 441.8659936 352 445 355.1340064 445 359 C 445 362.8659936 441.8659936 366 438 366 C 434.1340064 366 431 362.8659936 431 359 Z"/></g><g transform="translate(-190,-150) scale(1,1)"><path fill="none" stroke="#000000" d="M 431 359 C 431 355.1340064 434.1340064 352 438 352 C 441.8659936 352 445 355.1340064 445 359 C 445 362.8659936 441.8659936 366 438 366 C 434.1340064 366 431 362.8659936 431 359 Z" stroke-miterlimit="10"/></g><g transform="translate(-190,-150) scale(1,1)"><path fill="none" stroke="#000000" d="M 438 366 L 438 352" stroke-miterlimit="10"/></g><g transform="translate(-190,-150) scale(1,1)"><path fill="none" stroke="#000000" d="M 445 359 L 431 359" stroke-miterlimit="10"/></g><g transform="translate(-190,-150) scale(1,1)"><path fill="none" stroke="#000000" d="M 520 381 Q 520 367 485 352" stroke-miterlimit="10"/></g><g transform="translate(-190,-150) scale(1,1)"><path fill="#FFFFFF" stroke="none" d="M 484.4340152101264 354.7574350900542 C 484.4340152101264 350.89144149005415 487.5680216101264 347.7574350900542 491.4340152101264 347.7574350900542 C 495.3000088101264 347.7574350900542 498.4340152101264 350.89144149005415 498.4340152101264 354.7574350900542 C 498.4340152101264 358.6234286900542 495.3000088101264 361.7574350900542 491.4340152101264 361.7574350900542 C 487.5680216101264 361.7574350900542 484.4340152101264 358.6234286900542 484.4340152101264 354.7574350900542 Z"/></g><g transform="translate(-190,-150) scale(1,1)"><path fill="none" stroke="#000000" d="M 484.4340152101264 354.7574350900542 C 484.4340152101264 350.89144149005415 487.5680216101264 347.7574350900542 491.4340152101264 347.7574350900542 C 495.3000088101264 347.7574350900542 498.4340152101264 350.89144149005415 498.4340152101264 354.7574350900542 C 498.4340152101264 358.6234286900542 495.3000088101264 361.7574350900542 491.4340152101264 361.7574350900542 C 487.5680216101264 361.7574350900542 484.4340152101264 358.6234286900542 484.4340152101264 354.7574350900542 Z" stroke-miterlimit="10"/></g><g transform="translate(-190,-150) scale(1,1)"><path fill="none" stroke="#000000" d="M 497.8680304202528 357.51487018010835 L 485 352" stroke-miterlimit="10"/></g><g transform="translate(-190,-150) scale(1,1)"><path fill="none" stroke="#000000" d="M 494.1914503001806 348.32341987992777 L 488.67658012007223 361.1914503001806" stroke-miterlimit="10"/></g><g transform="translate(-190,-150) scale(1,1)"><path fill="none" stroke="#000000" d="M 611 381 Q 611 367 485 341" stroke-miterlimit="10"/></g><g transform="translate(-190,-150) scale(1,1)"><path fill="#FFFFFF" stroke="none" d="M 484.8555664745377 342.4146407010951 C 484.8555664745377 338.54864710109507 487.98957287453766 335.4146407010951 491.8555664745377 335.4146407010951 C 495.7215600745377 335.4146407010951 498.8555664745377 338.54864710109507 498.8555664745377 342.4146407010951 C 498.8555664745377 346.2806343010951 495.7215600745377 349.4146407010951 491.8555664745377 349.4146407010951 C 487.98957287453766 349.4146407010951 484.8555664745377 346.2806343010951 484.8555664745377 342.4146407010951 Z"/></g><g transform="translate(-190,-150) scale(1,1)"><path fill="none" stroke="#000000" d="M 484.8555664745377 342.4146407010951 C 484.8555664745377 338.54864710109507 487.98957287453766 335.4146407010951 491.8555664745377 335.4146407010951 C 495.7215600745377 335.4146407010951 498.8555664745377 338.54864710109507 498.8555664745377 342.4146407010951 C 498.8555664745377 346.2806343010951 495.7215600745377 349.4146407010951 491.8555664745377 349.4146407010951 C 487.98957287453766 349.4146407010951 484.8555664745377 346.2806343010951 484.8555664745377 342.4146407010951 Z" stroke-miterlimit="10"/></g><g transform="translate(-190,-150) scale(1,1)"><path fill="none" stroke="#000000" d="M 498.7111329490754 343.82928140219013 L 485 341" stroke-miterlimit="10"/></g><g transform="translate(-190,-150) scale(1,1)"><path fill="none" stroke="#000000" d="M 493.2702071756328 335.5590742265574 L 490.4409257734426 349.2702071756328" stroke-miterlimit="10"/></g></g></svg>