<svg version="1.1" xmlns="http://www.w3.org/2000/svg" xmlns:xlink="http://www.w3.org/1999/xlink" width="851" height="507"><defs/><g><text fill="#eeeeee" stroke="none" font-family="Arial" font-size="24px" font-style="normal" font-weight="normal" text-decoration="none" x="0" y="0">UNREGISTERED</text><text fill="#eeeeee" stroke="none" font-family="Arial" font-size="24px" font-style="normal" font-weight="normal" text-decoration="none" x="0" y="30">UNREGISTERED</text><text fill="#eeeeee" stroke="none" font-family="Arial" font-size="24px" font-style="normal" font-weight="normal" text-decoration="none" x="0" y="60">UNREGISTERED</text><text fill="#eeeeee" stroke="none" font-family="Arial" font-size="24px" font-style="normal" font-weight="normal" text-decoration="none" x="0" y="90">UNREGISTERED</text><text fill="#eeeeee" stroke="none" font-family="Arial" font-size="24px" font-style="normal" font-weight="normal" text-decoration="none" x="0" y="120">UNREGISTERED</text><text fill="#eeeeee" stroke="none" font-family="Arial" font-size="24px" font-style="normal" font-weight="normal" text-decoration="none" x="0" y="150">UNREGISTERED</text><text fill="#eeeeee" stroke="none" font-family="Arial" font-size="24px" font-style="normal" font-weight="normal" text-decoration="none" x="0" y="180">UNREGISTERED</text><text fill="#eeeeee" stroke="none" font-family="Arial" font-size="24px" font-style="normal" font-weight="normal" text-decoration="none" x="0" y="210">UNREGISTERED</text><text fill="#eeeeee" stroke="none" font-family="Arial" font-size="24px" font-style="normal" font-weight="normal" text-decoration="none" x="0" y="240">UNREGISTERED</text><text fill="#eeeeee" stroke="none" font-family="Arial" font-size="24px" font-style="normal" font-weight="normal" text-decoration="none" x="0" y="270">UNREGISTERED</text><text fill="#eeeeee" stroke="none" font-family="Arial" font-size="24px" font-style="normal" font-weight="normal" text-decoration="none" x="0" y="300">UNREGISTERED</text><text fill="#eeeeee" stroke="none" font-family="Arial" font-size="24px" font-style="normal" font-weight="normal" text-decoration="none" x="0" y="330">UNREGISTERED</text><text fill="#eeeeee" stroke="none" font-family="Arial" font-size="24px" font-style="normal" font-weight="normal" text-decoration="none" x="0" y="360">UNREGISTERED</text><text fill="#eeeeee" stroke="none" font-family="Arial" font-size="24px" font-style="normal" font-weight="normal" text-decoration="none" x="0" y="390">UNREGISTERED</text><text fill="#eeeeee" stroke="none" font-family="Arial" font-size="24px" font-style="normal" font-weight="normal" text-decoration="none" x="0" y="420">UNREGISTERED</text><text fill="#eeeeee" stroke="none" font-family="Arial" font-size="24px" font-style="normal" font-weight="normal" text-decoration="none" x="0" y="450">UNREGISTERED</text><text fill="#eeeeee" stroke="none" font-family="Arial" font-size="24px" font-style="normal" font-weight="normal" text-decoration="none" x="0" y="480">UNREGISTERED</text><text fill="#eeeeee" stroke="none" font-family="Arial" font-size="24px" font-style="normal" font-weight="normal" text-decoration="none" x="200" y="0">UNREGISTERED</text><text fill="#eeeeee" stroke="none" font-family="Arial" font-size="24px" font-style="normal" font-weight="normal" text-decoration="none" x="200" y="30">UNREGISTERED</text><text fill="#eeeeee" stroke="none" font-family="Arial" font-size="24px" font-style="normal" font-weight="normal" text-decoration="none" x="200" y="60">UNREGISTERED</text><text fill="#eeeeee" stroke="none" font-family="Arial" font-size="24px" font-style="normal" font-weight="normal" text-decoration="none" x="200" y="90">UNREGISTERED</text><text fill="#eeeeee" stroke="none" font-family="Arial" font-size="24px" font-style="normal" font-weight="normal" text-decoration="none" x="200" y="120">UNREGISTERED</text><text fill="#eeeeee" stroke="none" font-family="Arial" font-size="24px" font-style="normal" font-weight="normal" text-decoration="none" x="200" y="150">UNREGISTERED</text><text fill="#eeeeee" stroke="none" font-family="Arial" font-size="24px" font-style="normal" font-weight="normal" text-decoration="none" x="200" y="180">UNREGISTERED</text><text fill="#eeeeee" stroke="none" font-family="Arial" font-size="24px" font-style="normal" font-weight="normal" text-decoration="none" x="200" y="210">UNREGISTERED</text><text fill="#eeeeee" stroke="none" font-family="Arial" font-size="24px" font-style="normal" font-weight="normal" text-decoration="none" x="200" y="240">UNREGISTERED</text><text fill="#eeeeee" stroke="none" font-family="Arial" font-size="24px" font-style="normal" font-weight="normal" text-decoration="none" x="200" y="270">UNREGISTERED</text><text fill="#eeeeee" stroke="none" font-family="Arial" font-size="24px" font-style="normal" font-weight="normal" text-decoration="none" x="200" y="300">UNREGISTERED</text><text fill="#eeeeee" stroke="none" font-family="Arial" font-size="24px" font-style="normal" font-weight="normal" text-decoration="none" x="200" y="330">UNREGISTERED</text><text fill="#eeeeee" stroke="none" font-family="Arial" font-size="24px" font-style="normal" font-weight="normal" text-decoration="none" x="200" y="360">UNREGISTERED</text><text fill="#eeeeee" stroke="none" font-family="Arial" font-size="24px" font-style="normal" font-weight="normal" text-decoration="none" x="200" y="390">UNREGISTERED</text><text fill="#eeeeee" stroke="none" font-family="Arial" font-size="24px" font-style="normal" font-weight="normal" text-decoration="none" x="200" y="420">UNREGISTERED</text><text fill="#eeeeee" stroke="none" font-family="Arial" font-size="24px" font-style="normal" font-weight="normal" text-decoration="none" x="200" y="450">UNREGISTERED</text><text fill="#eeeeee" stroke="none" font-family="Arial" font-size="24px" font-style="normal" font-weight="normal" text-decoration="none" x="200" y="480">UNREGISTERED</text><text fill="#eeeeee" stroke="none" font-family="Arial" font-size="24px" font-style="normal" font-weight="normal" text-decoration="none" x="400" y="0">UNREGISTERED</text><text fill="#eeeeee" stroke="none" font-family="Arial" font-size="24px" font-style="normal" font-weight="normal" text-decoration="none" x="400" y="30">UNREGISTERED</text><text fill="#eeeeee" stroke="none" font-family="Arial" font-size="24px" font-style="normal" font-weight="normal" text-decoration="none" x="400" y="60">UNREGISTERED</text><text fill="#eeeeee" stroke="none" font-family="Arial" font-size="24px" font-style="normal" font-weight="normal" text-decoration="none" x="400" y="90">UNREGISTERED</text><text fill="#eeeeee" stroke="none" font-family="Arial" font-size="24px" font-style="normal" font-weight="normal" text-decoration="none" x="400" y="120">UNREGISTERED</text><text fill="#eeeeee" stroke="none" font-family="Arial" font-size="24px" font-style="normal" font-weight="normal" text-decoration="none" x="400" y="150">UNREGISTERED</text><text fill="#eeeeee" stroke="none" font-family="Arial" font-size="24px" font-style="normal" font-weight="normal" text-decoration="none" x="400" y="180">UNREGISTERED</text><text fill="#eeeeee" stroke="none" font-family="Arial" font-size="24px" font-style="normal" font-weight="normal" text-decoration="none" x="400" y="210">UNREGISTERED</text><text fill="#eeeeee" stroke="none" font-family="Arial" font-size="24px" font-style="normal" font-weight="normal" text-decoration="none" x="400" y="240">UNREGISTERED</text><text fill="#eeeeee" stroke="none" font-family="Arial" font-size="24px" font-style="normal" font-weight="normal" text-decoration="none" x="400" y="270">UNREGISTERED</text><text fill="#eeeeee" stroke="none" font-family="Arial" font-size="24px" font-style="normal" font-weight="normal" text-decoration="none" x="400" y="300">UNREGISTERED</text><text fill="#eeeeee" stroke="none" font-family="Arial" font-size="24px" font-style="normal" font-weight="normal" text-decoration="none" x="400" y="330">UNREGISTERED</text><text fill="#eeeeee" stroke="none" font-family="Arial" font-size="24px" font-style="normal" font-weight="normal" text-decoration="none" x="400" y="360">UNREGISTERED</text><text fill="#eeeeee" stroke="none" font-family="Arial" font-size="24px" font-style="normal" font-weight="normal" text-decoration="none" x="400" y="390">UNREGISTERED</text><text fill="#eeeeee" stroke="none" font-family="Arial" font-size="24px" font-style="normal" font-weight="normal" text-decoration="none" x="400" y="420">UNREGISTERED</text><text fill="#eeeeee" stroke="none" font-family="Arial" font-size="24px" font-style="normal" font-weight="normal" text-decoration="none" x="400" y="450">UNREGISTERED</text><text fill="#eeeeee" stroke="none" font-family="Arial" font-size="24px" font-style="normal" font-weight="normal" text-decoration="none" x="400" y="480">UNREGISTERED</text><text fill="#eeeeee" stroke="none" font-family="Arial" font-size="24px" font-style="normal" font-weight="normal" text-decoration="none" x="600" y="0">UNREGISTERED</text><text fill="#eeeeee" stroke="none" font-family="Arial" font-size="24px" font-style="normal" font-weight="normal" text-decoration="none" x="600" y="30">UNREGISTERED</text><text fill="#eeeeee" stroke="none" font-family="Arial" font-size="24px" font-style="normal" font-weight="normal" text-decoration="none" x="600" y="60">UNREGISTERED</text><text fill="#eeeeee" stroke="none" font-family="Arial" font-size="24px" font-style="normal" font-weight="normal" text-decoration="none" x="600" y="90">UNREGISTERED</text><text fill="#eeeeee" stroke="none" font-family="Arial" font-size="24px" font-style="normal" font-weight="normal" text-decoration="none" x="600" y="120">UNREGISTERED</text><text fill="#eeeeee" stroke="none" font-family="Arial" font-size="24px" font-style="normal" font-weight="normal" text-decoration="none" x="600" y="150">UNREGISTERED</text><text fill="#eeeeee" stroke="none" font-family="Arial" font-size="24px" font-style="normal" font-weight="normal" text-decoration="none" x="600" y="180">UNREGISTERED</text><text fill="#eeeeee" stroke="none" font-family="Arial" font-size="24px" font-style="normal" font-weight="normal" text-decoration="none" x="600" y="210">UNREGISTERED</text><text fill="#eeeeee" stroke="none" font-family="Arial" font-size="24px" font-style="normal" font-weight="normal" text-decoration="none" x="600" y="240">UNREGISTERED</text><text fill="#eeeeee" stroke="none" font-family="Arial" font-size="24px" font-style="normal" font-weight="normal" text-decoration="none" x="600" y="270">UNREGISTERED</text><text fill="#eeeeee" stroke="none" font-family="Arial" font-size="24px" font-style="normal" font-weight="normal" text-decoration="none" x="600" y="300">UNREGISTERED</text><text fill="#eeeeee" stroke="none" font-family="Arial" font-size="24px" font-style="normal" font-weight="normal" text-decoration="none" x="600" y="330">UNREGISTERED</text><text fill="#eeeeee" stroke="none" font-family="Arial" font-size="24px" font-style="normal" font-weight="normal" text-decoration="none" x="600" y="360">UNREGISTERED</text><text fill="#eeeeee" stroke="none" font-family="Arial" font-size="24px" font-style="normal" font-weight="normal" text-decoration="none" x="600" y="390">UNREGISTERED</text><text fill="#eeeeee" stroke="none" font-family="Arial" font-size="24px" font-style="normal" font-weight="normal" text-decoration="none" x="600" y="420">UNREGISTERED</text><text fill="#eeeeee" stroke="none" font-family="Arial" font-size="24px" font-style="normal" font-weight="normal" text-decoration="none" x="600" y="450">UNREGISTERED</text><text fill="#eeeeee" stroke="none" font-family="Arial" font-size="24px" font-style="normal" font-weight="normal" text-decoration="none" x="600" y="480">UNREGISTERED</text><text fill="#eeeeee" stroke="none" font-family="Arial" font-size="24px" font-style="normal" font-weight="normal" text-decoration="none" x="800" y="0">UNREGISTERED</text><text fill="#eeeeee" stroke="none" font-family="Arial" font-size="24px" font-style="normal" font-weight="normal" text-decoration="none" x="800" y="30">UNREGISTERED</text><text fill="#eeeeee" stroke="none" font-family="Arial" font-size="24px" font-style="normal" font-weight="normal" text-decoration="none" x="800" y="60">UNREGISTERED</text><text fill="#eeeeee" stroke="none" font-family="Arial" font-size="24px" font-style="normal" font-weight="normal" text-decoration="none" x="800" y="90">UNREGISTERED</text><text fill="#eeeeee" stroke="none" font-family="Arial" font-size="24px" font-style="normal" font-weight="normal" text-decoration="none" x="800" y="120">UNREGISTERED</text><text fill="#eeeeee" stroke="none" font-family="Arial" font-size="24px" font-style="normal" font-weight="normal" text-decoration="none" x="800" y="150">UNREGISTERED</text><text fill="#eeeeee" stroke="none" font-family="Arial" font-size="24px" font-style="normal" font-weight="normal" text-decoration="none" x="800" y="180">UNREGISTERED</text><text fill="#eeeeee" stroke="none" font-family="Arial" font-size="24px" font-style="normal" font-weight="normal" text-decoration="none" x="800" y="210">UNREGISTERED</text><text fill="#eeeeee" stroke="none" font-family="Arial" font-size="24px" font-style="normal" font-weight="normal" text-decoration="none" x="800" y="240">UNREGISTERED</text><text fill="#eeeeee" stroke="none" font-family="Arial" font-size="24px" font-style="normal" font-weight="normal" text-decoration="none" x="800" y="270">UNREGISTERED</text><text fill="#eeeeee" stroke="none" font-family="Arial" font-size="24px" font-style="normal" font-weight="normal" text-decoration="none" x="800" y="300">UNREGISTERED</text><text fill="#eeeeee" stroke="none" font-family="Arial" font-size="24px" font-style="normal" font-weight="normal" text-decoration="none" x="800" y="330">UNREGISTERED</text><text fill="#eeeeee" stroke="none" font-family="Arial" font-size="24px" font-style="normal" font-weight="normal" text-decoration="none" x="800" y="360">UNREGISTERED</text><text fill="#eeeeee" stroke="none" font-family="Arial" font-size="24px" font-style="normal" font-weight="normal" text-decoration="none" x="800" y="390">UNREGISTERED</text><text fill="#eeeeee" stroke="none" font-family="Arial" font-size="24px" font-style="normal" font-weight="normal" text-decoration="none" x="800" y="420">UNREGISTERED</text><text fill="#eeeeee" stroke="none" font-family="Arial" font-size="24px" font-style="normal" font-weight="normal" text-decoration="none" x="800" y="450">UNREGISTERED</text><text fill="#eeeeee" stroke="none" font-family="Arial" font-size="24px" font-style="normal" font-weight="normal" text-decoration="none" x="800" y="480">UNREGISTERED</text><g transform="translate(-86,-222) scale(1,1)"><rect fill="#ffffff" stroke="none" x="96" y="232" width="831" height="487"/></g><g transform="translate(-86,-222) scale(1,1)"><path fill="none" stroke="#000000" d="M 96 232 L 927 232 L 927 719 L 96 719 L 96 232 Z Z" stroke-miterlimit="10"/></g><g transform="translate(-86,-222) scale(1,1)"><rect fill="#C0C0C0" stroke="none" x="131" y="271.5" width="27.581445312499994" height="15" opacity="0.2"/></g><g transform="translate(-86,-222) scale(1,1)"><rect fill="#C0C0C0" stroke="none" x="131" y="285.5" width="68.95361328125" height="25" opacity="0.2"/></g><g transform="translate(-86,-222) scale(1,1)"><rect fill="#ffffff" stroke="none" x="124" y="279.5" width="68.95361328125" height="24"/></g><g transform="translate(-86,-222) scale(1,1)"><path fill="none" stroke="#000000" d="M 124 279.5 L 192.95361328125 279.5 L 192.95361328125 303.5 L 124 303.5 L 124 279.5 Z Z" stroke-miterlimit="10"/></g><g transform="translate(-86,-222) scale(1,1)"><rect fill="#ffffff" stroke="none" x="124" y="264.5" width="27.581445312499994" height="15"/></g><g transform="translate(-86,-222) scale(1,1)"><path fill="none" stroke="#000000" d="M 124 264.5 L 151.5814453125 264.5 L 151.5814453125 279.5 L 124 279.5 L 124 264.5 Z Z" stroke-miterlimit="10"/></g><g transform="translate(-86,-222) scale(1,1)"><rect fill="#ffffff" stroke="none" x="124" y="278.5" width="68.95361328125" height="25"/></g><g transform="translate(-86,-222) scale(1,1)"><path fill="none" stroke="#000000" d="M 124 278.5 L 192.95361328125 278.5 L 192.95361328125 303.5 L 124 303.5 L 124 278.5 Z Z" stroke-miterlimit="10"/></g><g transform="translate(-86,-222) scale(1,1)"><g><path fill="none" stroke="none"/><text fill="#000000" stroke="none" font-family="Arial" font-size="13px" font-style="normal" font-weight="bold" text-decoration="none" x="131.74365234375" y="299">controller</text></g></g><g transform="translate(-86,-222) scale(1,1)"><rect fill="#C0C0C0" stroke="none" x="230.95361328125" y="271.5" width="27.873437500000023" height="15" opacity="0.2"/></g><g transform="translate(-86,-222) scale(1,1)"><rect fill="#C0C0C0" stroke="none" x="230.95361328125" y="285.5" width="69.68359375" height="25" opacity="0.2"/></g><g transform="translate(-86,-222) scale(1,1)"><rect fill="#ffffff" stroke="none" x="223.95361328125" y="279.5" width="69.68359375" height="24"/></g><g transform="translate(-86,-222) scale(1,1)"><path fill="none" stroke="#000000" d="M 223.95361328125 279.5 L 293.63720703125 279.5 L 293.63720703125 303.5 L 223.95361328125 303.5 L 223.95361328125 279.5 Z Z" stroke-miterlimit="10"/></g><g transform="translate(-86,-222) scale(1,1)"><rect fill="#ffffff" stroke="none" x="223.95361328125" y="264.5" width="27.873437499999994" height="15"/></g><g transform="translate(-86,-222) scale(1,1)"><path fill="none" stroke="#000000" d="M 223.95361328125 264.5 L 251.82705078125 264.5 L 251.82705078125 279.5 L 223.95361328125 279.5 L 223.95361328125 264.5 Z Z" stroke-miterlimit="10"/></g><g transform="translate(-86,-222) scale(1,1)"><rect fill="#ffffff" stroke="none" x="223.95361328125" y="278.5" width="69.68359375" height="25"/></g><g transform="translate(-86,-222) scale(1,1)"><path fill="none" stroke="#000000" d="M 223.95361328125 278.5 L 293.63720703125 278.5 L 293.63720703125 303.5 L 223.95361328125 303.5 L 223.95361328125 278.5 Z Z" stroke-miterlimit="10"/></g><g transform="translate(-86,-222) scale(1,1)"><g><path fill="none" stroke="none"/><text fill="#000000" stroke="none" font-family="Arial" font-size="13px" font-style="normal" font-weight="bold" text-decoration="none" x="230.970458984375" y="299">exception</text></g></g><g transform="translate(-86,-222) scale(1,1)"><rect fill="#C0C0C0" stroke="none" x="331.63720703125" y="271.5" width="19.600000000000023" height="15" opacity="0.2"/></g><g transform="translate(-86,-222) scale(1,1)"><rect fill="#C0C0C0" stroke="none" x="331.63720703125" y="285.5" width="49" height="25" opacity="0.2"/></g><g transform="translate(-86,-222) scale(1,1)"><rect fill="#ffffff" stroke="none" x="324.63720703125" y="279.5" width="49" height="24"/></g><g transform="translate(-86,-222) scale(1,1)"><path fill="none" stroke="#000000" d="M 324.63720703125 279.5 L 373.63720703125 279.5 L 373.63720703125 303.5 L 324.63720703125 303.5 L 324.63720703125 279.5 Z Z" stroke-miterlimit="10"/></g><g transform="translate(-86,-222) scale(1,1)"><rect fill="#ffffff" stroke="none" x="324.63720703125" y="264.5" width="19.600000000000023" height="15"/></g><g transform="translate(-86,-222) scale(1,1)"><path fill="none" stroke="#000000" d="M 324.63720703125 264.5 L 344.23720703125 264.5 L 344.23720703125 279.5 L 324.63720703125 279.5 L 324.63720703125 264.5 Z Z" stroke-miterlimit="10"/></g><g transform="translate(-86,-222) scale(1,1)"><rect fill="#ffffff" stroke="none" x="324.63720703125" y="278.5" width="49" height="25"/></g><g transform="translate(-86,-222) scale(1,1)"><path fill="none" stroke="#000000" d="M 324.63720703125 278.5 L 373.63720703125 278.5 L 373.63720703125 303.5 L 324.63720703125 303.5 L 324.63720703125 278.5 Z Z" stroke-miterlimit="10"/></g><g transform="translate(-86,-222) scale(1,1)"><g><path fill="none" stroke="none"/><text fill="#000000" stroke="none" font-family="Arial" font-size="13px" font-style="normal" font-weight="bold" text-decoration="none" x="331.43359375" y="299">model</text></g></g><g transform="translate(-86,-222) scale(1,1)"><rect fill="#C0C0C0" stroke="none" x="655" y="255" width="247.08154296875" height="72" opacity="0.2"/></g><g transform="translate(-86,-222) scale(1,1)"><rect fill="#ffffff" stroke="none" x="648" y="248" width="247.08154296875" height="72"/></g><g transform="translate(-86,-222) scale(1,1)"><path fill="none" stroke="#000000" d="M 648 248 L 895.08154296875 248 L 895.08154296875 320 L 648 320 L 648 248 Z Z" stroke-miterlimit="10"/></g><g transform="translate(-86,-222) scale(1,1)"><path fill="none" stroke="#000000" d="M 648 273 L 895.08154296875 273" stroke-miterlimit="10"/></g><g transform="translate(-86,-222) scale(1,1)"><path fill="none" stroke="#000000" d="M 648 283 L 895.08154296875 283" stroke-miterlimit="10"/></g><g transform="translate(-86,-222) scale(1,1)"><g><path fill="none" stroke="none"/><text fill="#000000" stroke="none" font-family="Arial" font-size="13px" font-style="normal" font-weight="bold" text-decoration="none" x="700.005859375" y="267.5">PressurestatsApplication</text></g></g><g transform="translate(-86,-222) scale(1,1)"><g><path fill="none" stroke="none"/><text fill="#000000" stroke="none" font-family="Arial" font-size="13px" font-style="normal" font-weight="normal" text-decoration="none" x="653" y="300.5">«constructor»+PressurestatsApplication()</text></g></g><g transform="translate(-86,-222) scale(1,1)"><g><path fill="none" stroke="none"/><text fill="#000000" stroke="none" font-family="Arial" font-size="13px" font-style="normal" font-weight="normal" text-decoration="none" x="653" y="315.5">+main(args: String[*]): void</text><path fill="none" stroke="#000000" d="M 653 315.5 L 807.25439453125 315.5" stroke-miterlimit="10"/></g></g><g transform="translate(-86,-222) scale(1,1)"><rect fill="#C0C0C0" stroke="none" x="407" y="271.5" width="21.5283203125" height="15" opacity="0.2"/></g><g transform="translate(-86,-222) scale(1,1)"><rect fill="#C0C0C0" stroke="none" x="407" y="285.5" width="53.82080078125" height="25" opacity="0.2"/></g><g transform="translate(-86,-222) scale(1,1)"><rect fill="#ffffff" stroke="none" x="400" y="279.5" width="53.82080078125" height="24"/></g><g transform="translate(-86,-222) scale(1,1)"><path fill="none" stroke="#000000" d="M 400 279.5 L 453.82080078125 279.5 L 453.82080078125 303.5 L 400 303.5 L 400 279.5 Z Z" stroke-miterlimit="10"/></g><g transform="translate(-86,-222) scale(1,1)"><rect fill="#ffffff" stroke="none" x="400" y="264.5" width="21.5283203125" height="15"/></g><g transform="translate(-86,-222) scale(1,1)"><path fill="none" stroke="#000000" d="M 400 264.5 L 421.5283203125 264.5 L 421.5283203125 279.5 L 400 279.5 L 400 264.5 Z Z" stroke-miterlimit="10"/></g><g transform="translate(-86,-222) scale(1,1)"><rect fill="#ffffff" stroke="none" x="400" y="278.5" width="53.82080078125" height="25"/></g><g transform="translate(-86,-222) scale(1,1)"><path fill="none" stroke="#000000" d="M 400 278.5 L 453.82080078125 278.5 L 453.82080078125 303.5 L 400 303.5 L 400 278.5 Z Z" stroke-miterlimit="10"/></g><g transform="translate(-86,-222) scale(1,1)"><g><path fill="none" stroke="none"/><text fill="#000000" stroke="none" font-family="Arial" font-size="13px" font-style="normal" font-weight="bold" text-decoration="none" x="406.32177734375" y="299">service</text></g></g><g transform="translate(-86,-222) scale(1,1)"><rect fill="#C0C0C0" stroke="none" x="495" y="271.5" width="26.144335937500045" height="15" opacity="0.2"/></g><g transform="translate(-86,-222) scale(1,1)"><rect fill="#C0C0C0" stroke="none" x="495" y="285.5" width="65.36083984375" height="25" opacity="0.2"/></g><g transform="translate(-86,-222) scale(1,1)"><rect fill="#ffffff" stroke="none" x="488" y="279.5" width="65.36083984375" height="24"/></g><g transform="translate(-86,-222) scale(1,1)"><path fill="none" stroke="#000000" d="M 488 279.5 L 553.36083984375 279.5 L 553.36083984375 303.5 L 488 303.5 L 488 279.5 Z Z" stroke-miterlimit="10"/></g><g transform="translate(-86,-222) scale(1,1)"><rect fill="#ffffff" stroke="none" x="488" y="264.5" width="26.144335937500045" height="15"/></g><g transform="translate(-86,-222) scale(1,1)"><path fill="none" stroke="#000000" d="M 488 264.5 L 514.1443359375 264.5 L 514.1443359375 279.5 L 488 279.5 L 488 264.5 Z Z" stroke-miterlimit="10"/></g><g transform="translate(-86,-222) scale(1,1)"><rect fill="#ffffff" stroke="none" x="488" y="278.5" width="65.36083984375" height="25"/></g><g transform="translate(-86,-222) scale(1,1)"><path fill="none" stroke="#000000" d="M 488 278.5 L 553.36083984375 278.5 L 553.36083984375 303.5 L 488 303.5 L 488 278.5 Z Z" stroke-miterlimit="10"/></g><g transform="translate(-86,-222) scale(1,1)"><g><path fill="none" stroke="none"/><text fill="#000000" stroke="none" font-family="Arial" font-size="13px" font-style="normal" font-weight="bold" text-decoration="none" x="495.759521484375" y="299">statistics</text></g></g><g transform="translate(-86,-222) scale(1,1)"><rect fill="#C0C0C0" stroke="none" x="207" y="375" width="184.2080078125" height="130" opacity="0.2"/></g><g transform="translate(-86,-222) scale(1,1)"><rect fill="#ffffff" stroke="none" x="200" y="368" width="184.2080078125" height="130"/></g><g transform="translate(-86,-222) scale(1,1)"><path fill="none" stroke="#000000" d="M 200 368 L 384.2080078125 368 L 384.2080078125 498 L 200 498 L 200 368 Z Z" stroke-miterlimit="10"/></g><g transform="translate(-86,-222) scale(1,1)"><path fill="none" stroke="#000000" d="M 200 393 L 384.2080078125 393" stroke-miterlimit="10"/></g><g transform="translate(-86,-222) scale(1,1)"><path fill="none" stroke="#000000" d="M 200 431 L 384.2080078125 431" stroke-miterlimit="10"/></g><g transform="translate(-86,-222) scale(1,1)"><g><path fill="none" stroke="none"/><text fill="#000000" stroke="none" font-family="Arial" font-size="13px" font-style="normal" font-weight="bold" text-decoration="none" x="252.005859375" y="387.5">TestController</text></g></g><g transform="translate(-86,-222) scale(1,1)"><g><path fill="none" stroke="none"/><text fill="#000000" stroke="none" font-family="Arial" font-size="13px" font-style="normal" font-weight="normal" text-decoration="none" x="205" y="410.5">-context</text></g></g><g transform="translate(-86,-222) scale(1,1)"><g><path fill="none" stroke="none"/><text fill="#000000" stroke="none" font-family="Arial" font-size="13px" font-style="normal" font-weight="normal" text-decoration="none" x="205" y="425.5">-mockMvc</text></g></g><g transform="translate(-86,-222) scale(1,1)"><g><path fill="none" stroke="none"/><text fill="#000000" stroke="none" font-family="Arial" font-size="13px" font-style="normal" font-weight="normal" text-decoration="none" x="205" y="448.5">«constructor»+TestController()</text></g></g><g transform="translate(-86,-222) scale(1,1)"><g><path fill="none" stroke="none"/><text fill="#000000" stroke="none" font-family="Arial" font-size="13px" font-style="normal" font-weight="normal" text-decoration="none" x="205" y="463.5">~setUp(): void</text></g></g><g transform="translate(-86,-222) scale(1,1)"><g><path fill="none" stroke="none"/><text fill="#000000" stroke="none" font-family="Arial" font-size="13px" font-style="normal" font-weight="normal" text-decoration="none" x="205" y="478.5">~tearDown(): void</text></g></g><g transform="translate(-86,-222) scale(1,1)"><g><path fill="none" stroke="none"/><text fill="#000000" stroke="none" font-family="Arial" font-size="13px" font-style="normal" font-weight="normal" text-decoration="none" x="205" y="493.5">~testController(): void</text></g></g><g transform="translate(-86,-222) scale(1,1)"><rect fill="#C0C0C0" stroke="none" x="447" y="535" width="163.2607421875" height="160" opacity="0.2"/></g><g transform="translate(-86,-222) scale(1,1)"><rect fill="#ffffff" stroke="none" x="440" y="528" width="163.2607421875" height="160"/></g><g transform="translate(-86,-222) scale(1,1)"><path fill="none" stroke="#000000" d="M 440 528 L 603.2607421875 528 L 603.2607421875 688 L 440 688 L 440 528 Z Z" stroke-miterlimit="10"/></g><g transform="translate(-86,-222) scale(1,1)"><path fill="none" stroke="#000000" d="M 440 553 L 603.2607421875 553" stroke-miterlimit="10"/></g><g transform="translate(-86,-222) scale(1,1)"><path fill="none" stroke="#000000" d="M 440 606 L 603.2607421875 606" stroke-miterlimit="10"/></g><g transform="translate(-86,-222) scale(1,1)"><g><path fill="none" stroke="none"/><text fill="#000000" stroke="none" font-family="Arial" font-size="13px" font-style="normal" font-weight="bold" text-decoration="none" x="492.005859375" y="547.5">TestModel</text></g></g><g transform="translate(-86,-222) scale(1,1)"><g><path fill="none" stroke="none"/><text fill="#000000" stroke="none" font-family="Arial" font-size="13px" font-style="normal" font-weight="normal" text-decoration="none" x="445" y="570.5">-f = null</text></g></g><g transform="translate(-86,-222) scale(1,1)"><g><path fill="none" stroke="none"/><text fill="#000000" stroke="none" font-family="Arial" font-size="13px" font-style="normal" font-weight="normal" text-decoration="none" x="445" y="585.5">-c = null</text></g></g><g transform="translate(-86,-222) scale(1,1)"><g><path fill="none" stroke="none"/><text fill="#000000" stroke="none" font-family="Arial" font-size="13px" font-style="normal" font-weight="normal" text-decoration="none" x="445" y="600.5">-s = null</text></g></g><g transform="translate(-86,-222) scale(1,1)"><g><path fill="none" stroke="none"/><text fill="#000000" stroke="none" font-family="Arial" font-size="13px" font-style="normal" font-weight="normal" text-decoration="none" x="445" y="623.5">«constructor»+TestModel()</text></g></g><g transform="translate(-86,-222) scale(1,1)"><g><path fill="none" stroke="none"/><text fill="#000000" stroke="none" font-family="Arial" font-size="13px" font-style="normal" font-weight="normal" text-decoration="none" x="445" y="638.5">~setUp(): void</text></g></g><g transform="translate(-86,-222) scale(1,1)"><g><path fill="none" stroke="none"/><text fill="#000000" stroke="none" font-family="Arial" font-size="13px" font-style="normal" font-weight="normal" text-decoration="none" x="445" y="653.5">~tearDown(): void</text></g></g><g transform="translate(-86,-222) scale(1,1)"><g><path fill="none" stroke="none"/><text fill="#000000" stroke="none" font-family="Arial" font-size="13px" font-style="normal" font-weight="normal" text-decoration="none" x="445" y="668.5">~testCity(): void</text></g></g><g transform="translate(-86,-222) scale(1,1)"><g><path fill="none" stroke="none"/><text fill="#000000" stroke="none" font-family="Arial" font-size="13px" font-style="normal" font-weight="normal" text-decoration="none" x="445" y="683.5">~testForecast(): void</text></g></g><g transform="translate(-86,-222) scale(1,1)"><rect fill="#C0C0C0" stroke="none" x="207" y="535" width="171.20166015625" height="130" opacity="0.2"/></g><g transform="translate(-86,-222) scale(1,1)"><rect fill="#ffffff" stroke="none" x="200" y="528" width="171.20166015625" height="130"/></g><g transform="translate(-86,-222) scale(1,1)"><path fill="none" stroke="#000000" d="M 200 528 L 371.20166015625 528 L 371.20166015625 658 L 200 658 L 200 528 Z Z" stroke-miterlimit="10"/></g><g transform="translate(-86,-222) scale(1,1)"><path fill="none" stroke="#000000" d="M 200 553 L 371.20166015625 553" stroke-miterlimit="10"/></g><g transform="translate(-86,-222) scale(1,1)"><path fill="none" stroke="#000000" d="M 200 591 L 371.20166015625 591" stroke-miterlimit="10"/></g><g transform="translate(-86,-222) scale(1,1)"><g><path fill="none" stroke="none"/><text fill="#000000" stroke="none" font-family="Arial" font-size="13px" font-style="normal" font-weight="bold" text-decoration="none" x="252.005859375" y="547.5">TestService</text></g></g><g transform="translate(-86,-222) scale(1,1)"><g><path fill="none" stroke="none"/><text fill="#000000" stroke="none" font-family="Arial" font-size="13px" font-style="normal" font-weight="normal" text-decoration="none" x="205" y="570.5">~s = null</text></g></g><g transform="translate(-86,-222) scale(1,1)"><g><path fill="none" stroke="none"/><text fill="#000000" stroke="none" font-family="Arial" font-size="13px" font-style="normal" font-weight="normal" text-decoration="none" x="205" y="585.5">~city = null</text></g></g><g transform="translate(-86,-222) scale(1,1)"><g><path fill="none" stroke="none"/><text fill="#000000" stroke="none" font-family="Arial" font-size="13px" font-style="normal" font-weight="normal" text-decoration="none" x="205" y="608.5">«constructor»+TestService()</text></g></g><g transform="translate(-86,-222) scale(1,1)"><g><path fill="none" stroke="none"/><text fill="#000000" stroke="none" font-family="Arial" font-size="13px" font-style="normal" font-weight="normal" text-decoration="none" x="205" y="623.5">~setUp(): void</text></g></g><g transform="translate(-86,-222) scale(1,1)"><g><path fill="none" stroke="none"/><text fill="#000000" stroke="none" font-family="Arial" font-size="13px" font-style="normal" font-weight="normal" text-decoration="none" x="205" y="638.5">~tearDown(): void</text></g></g><g transform="translate(-86,-222) scale(1,1)"><g><path fill="none" stroke="none"/><text fill="#000000" stroke="none" font-family="Arial" font-size="13px" font-style="normal" font-weight="normal" text-decoration="none" x="205" y="653.5">~testService(): void</text></g></g><g transform="translate(-86,-222) scale(1,1)"><rect fill="#C0C0C0" stroke="none" x="663" y="383" width="179.8662109375" height="115" opacity="0.2"/></g><g transform="translate(-86,-222) scale(1,1)"><rect fill="#ffffff" stroke="none" x="656" y="376" width="179.8662109375" height="115"/></g><g transform="translate(-86,-222) scale(1,1)"><path fill="none" stroke="#000000" d="M 656 376 L 835.8662109375 376 L 835.8662109375 491 L 656 491 L 656 376 Z Z" stroke-miterlimit="10"/></g><g transform="translate(-86,-222) scale(1,1)"><path fill="none" stroke="#000000" d="M 656 401 L 835.8662109375 401" stroke-miterlimit="10"/></g><g transform="translate(-86,-222) scale(1,1)"><path fill="none" stroke="#000000" d="M 656 424 L 835.8662109375 424" stroke-miterlimit="10"/></g><g transform="translate(-86,-222) scale(1,1)"><g><path fill="none" stroke="none"/><text fill="#000000" stroke="none" font-family="Arial" font-size="13px" font-style="normal" font-weight="bold" text-decoration="none" x="708.005859375" y="395.5">TestStatistics</text></g></g><g transform="translate(-86,-222) scale(1,1)"><g><path fill="none" stroke="none"/><text fill="#000000" stroke="none" font-family="Arial" font-size="13px" font-style="normal" font-weight="normal" text-decoration="none" x="661" y="418.5">-f = null</text></g></g><g transform="translate(-86,-222) scale(1,1)"><g><path fill="none" stroke="none"/><text fill="#000000" stroke="none" font-family="Arial" font-size="13px" font-style="normal" font-weight="normal" text-decoration="none" x="661" y="441.5">«constructor»+TestStatistics()</text></g></g><g transform="translate(-86,-222) scale(1,1)"><g><path fill="none" stroke="none"/><text fill="#000000" stroke="none" font-family="Arial" font-size="13px" font-style="normal" font-weight="normal" text-decoration="none" x="661" y="456.5">~setUp(): void</text></g></g><g transform="translate(-86,-222) scale(1,1)"><g><path fill="none" stroke="none"/><text fill="#000000" stroke="none" font-family="Arial" font-size="13px" font-style="normal" font-weight="normal" text-decoration="none" x="661" y="471.5">~tearDown(): void</text></g></g><g transform="translate(-86,-222) scale(1,1)"><g><path fill="none" stroke="none"/><text fill="#000000" stroke="none" font-family="Arial" font-size="13px" font-style="normal" font-weight="normal" text-decoration="none" x="661" y="486.5">~testFilters(): void</text></g></g><g transform="translate(-86,-222) scale(1,1)"><rect fill="#C0C0C0" stroke="none" x="447" y="375" width="170.4716796875" height="130" opacity="0.2"/></g><g transform="translate(-86,-222) scale(1,1)"><rect fill="#ffffff" stroke="none" x="440" y="368" width="170.4716796875" height="130"/></g><g transform="translate(-86,-222) scale(1,1)"><path fill="none" stroke="#000000" d="M 440 368 L 610.4716796875 368 L 610.4716796875 498 L 440 498 L 440 368 Z Z" stroke-miterlimit="10"/></g><g transform="translate(-86,-222) scale(1,1)"><path fill="none" stroke="#000000" d="M 440 393 L 610.4716796875 393" stroke-miterlimit="10"/></g><g transform="translate(-86,-222) scale(1,1)"><path fill="none" stroke="#000000" d="M 440 431 L 610.4716796875 431" stroke-miterlimit="10"/></g><g transform="translate(-86,-222) scale(1,1)"><g><path fill="none" stroke="none"/><text fill="#000000" stroke="none" font-family="Arial" font-size="13px" font-style="normal" font-weight="bold" text-decoration="none" x="492.005859375" y="387.5">TestThrows</text></g></g><g transform="translate(-86,-222) scale(1,1)"><g><path fill="none" stroke="none"/><text fill="#000000" stroke="none" font-family="Arial" font-size="13px" font-style="normal" font-weight="normal" text-decoration="none" x="445" y="410.5">-f = null</text></g></g><g transform="translate(-86,-222) scale(1,1)"><g><path fill="none" stroke="none"/><text fill="#000000" stroke="none" font-family="Arial" font-size="13px" font-style="normal" font-weight="normal" text-decoration="none" x="445" y="425.5">-c = null</text></g></g><g transform="translate(-86,-222) scale(1,1)"><g><path fill="none" stroke="none"/><text fill="#000000" stroke="none" font-family="Arial" font-size="13px" font-style="normal" font-weight="normal" text-decoration="none" x="445" y="448.5">«constructor»+TestThrows()</text></g></g><g transform="translate(-86,-222) scale(1,1)"><g><path fill="none" stroke="none"/><text fill="#000000" stroke="none" font-family="Arial" font-size="13px" font-style="normal" font-weight="normal" text-decoration="none" x="445" y="463.5">~setUp(): void</text></g></g><g transform="translate(-86,-222) scale(1,1)"><g><path fill="none" stroke="none"/><text fill="#000000" stroke="none" font-family="Arial" font-size="13px" font-style="normal" font-weight="normal" text-decoration="none" x="445" y="478.5">~tearDown(): void</text></g></g><g transform="translate(-86,-222) scale(1,1)"><g><path fill="none" stroke="none"/><text fill="#000000" stroke="none" font-family="Arial" font-size="13px" font-style="normal" font-weight="normal" text-decoration="none" x="445" y="493.5">~testFilters(): void</text></g></g></g></svg>