<svg version="1.1" xmlns="http://www.w3.org/2000/svg" xmlns:xlink="http://www.w3.org/1999/xlink" width="539" height="547"><defs/><g><text fill="#eeeeee" stroke="none" font-family="Arial" font-size="24px" font-style="normal" font-weight="normal" text-decoration="none" x="0" y="0">UNREGISTERED</text><text fill="#eeeeee" stroke="none" font-family="Arial" font-size="24px" font-style="normal" font-weight="normal" text-decoration="none" x="0" y="30">UNREGISTERED</text><text fill="#eeeeee" stroke="none" font-family="Arial" font-size="24px" font-style="normal" font-weight="normal" text-decoration="none" x="0" y="60">UNREGISTERED</text><text fill="#eeeeee" stroke="none" font-family="Arial" font-size="24px" font-style="normal" font-weight="normal" text-decoration="none" x="0" y="90">UNREGISTERED</text><text fill="#eeeeee" stroke="none" font-family="Arial" font-size="24px" font-style="normal" font-weight="normal" text-decoration="none" x="0" y="120">UNREGISTERED</text><text fill="#eeeeee" stroke="none" font-family="Arial" font-size="24px" font-style="normal" font-weight="normal" text-decoration="none" x="0" y="150">UNREGISTERED</text><text fill="#eeeeee" stroke="none" font-family="Arial" font-size="24px" font-style="normal" font-weight="normal" text-decoration="none" x="0" y="180">UNREGISTERED</text><text fill="#eeeeee" stroke="none" font-family="Arial" font-size="24px" font-style="normal" font-weight="normal" text-decoration="none" x="0" y="210">UNREGISTERED</text><text fill="#eeeeee" stroke="none" font-family="Arial" font-size="24px" font-style="normal" font-weight="normal" text-decoration="none" x="0" y="240">UNREGISTERED</text><text fill="#eeeeee" stroke="none" font-family="Arial" font-size="24px" font-style="normal" font-weight="normal" text-decoration="none" x="0" y="270">UNREGISTERED</text><text fill="#eeeeee" stroke="none" font-family="Arial" font-size="24px" font-style="normal" font-weight="normal" text-decoration="none" x="0" y="300">UNREGISTERED</text><text fill="#eeeeee" stroke="none" font-family="Arial" font-size="24px" font-style="normal" font-weight="normal" text-decoration="none" x="0" y="330">UNREGISTERED</text><text fill="#eeeeee" stroke="none" font-family="Arial" font-size="24px" font-style="normal" font-weight="normal" text-decoration="none" x="0" y="360">UNREGISTERED</text><text fill="#eeeeee" stroke="none" font-family="Arial" font-size="24px" font-style="normal" font-weight="normal" text-decoration="none" x="0" y="390">UNREGISTERED</text><text fill="#eeeeee" stroke="none" font-family="Arial" font-size="24px" font-style="normal" font-weight="normal" text-decoration="none" x="0" y="420">UNREGISTERED</text><text fill="#eeeeee" stroke="none" font-family="Arial" font-size="24px" font-style="normal" font-weight="normal" text-decoration="none" x="0" y="450">UNREGISTERED</text><text fill="#eeeeee" stroke="none" font-family="Arial" font-size="24px" font-style="normal" font-weight="normal" text-decoration="none" x="0" y="480">UNREGISTERED</text><text fill="#eeeeee" stroke="none" font-family="Arial" font-size="24px" font-style="normal" font-weight="normal" text-decoration="none" x="0" y="510">UNREGISTERED</text><text fill="#eeeeee" stroke="none" font-family="Arial" font-size="24px" font-style="normal" font-weight="normal" text-decoration="none" x="0" y="540">UNREGISTERED</text><text fill="#eeeeee" stroke="none" font-family="Arial" font-size="24px" font-style="normal" font-weight="normal" text-decoration="none" x="200" y="0">UNREGISTERED</text><text fill="#eeeeee" stroke="none" font-family="Arial" font-size="24px" font-style="normal" font-weight="normal" text-decoration="none" x="200" y="30">UNREGISTERED</text><text fill="#eeeeee" stroke="none" font-family="Arial" font-size="24px" font-style="normal" font-weight="normal" text-decoration="none" x="200" y="60">UNREGISTERED</text><text fill="#eeeeee" stroke="none" font-family="Arial" font-size="24px" font-style="normal" font-weight="normal" text-decoration="none" x="200" y="90">UNREGISTERED</text><text fill="#eeeeee" stroke="none" font-family="Arial" font-size="24px" font-style="normal" font-weight="normal" text-decoration="none" x="200" y="120">UNREGISTERED</text><text fill="#eeeeee" stroke="none" font-family="Arial" font-size="24px" font-style="normal" font-weight="normal" text-decoration="none" x="200" y="150">UNREGISTERED</text><text fill="#eeeeee" stroke="none" font-family="Arial" font-size="24px" font-style="normal" font-weight="normal" text-decoration="none" x="200" y="180">UNREGISTERED</text><text fill="#eeeeee" stroke="none" font-family="Arial" font-size="24px" font-style="normal" font-weight="normal" text-decoration="none" x="200" y="210">UNREGISTERED</text><text fill="#eeeeee" stroke="none" font-family="Arial" font-size="24px" font-style="normal" font-weight="normal" text-decoration="none" x="200" y="240">UNREGISTERED</text><text fill="#eeeeee" stroke="none" font-family="Arial" font-size="24px" font-style="normal" font-weight="normal" text-decoration="none" x="200" y="270">UNREGISTERED</text><text fill="#eeeeee" stroke="none" font-family="Arial" font-size="24px" font-style="normal" font-weight="normal" text-decoration="none" x="200" y="300">UNREGISTERED</text><text fill="#eeeeee" stroke="none" font-family="Arial" font-size="24px" font-style="normal" font-weight="normal" text-decoration="none" x="200" y="330">UNREGISTERED</text><text fill="#eeeeee" stroke="none" font-family="Arial" font-size="24px" font-style="normal" font-weight="normal" text-decoration="none" x="200" y="360">UNREGISTERED</text><text fill="#eeeeee" stroke="none" font-family="Arial" font-size="24px" font-style="normal" font-weight="normal" text-decoration="none" x="200" y="390">UNREGISTERED</text><text fill="#eeeeee" stroke="none" font-family="Arial" font-size="24px" font-style="normal" font-weight="normal" text-decoration="none" x="200" y="420">UNREGISTERED</text><text fill="#eeeeee" stroke="none" font-family="Arial" font-size="24px" font-style="normal" font-weight="normal" text-decoration="none" x="200" y="450">UNREGISTERED</text><text fill="#eeeeee" stroke="none" font-family="Arial" font-size="24px" font-style="normal" font-weight="normal" text-decoration="none" x="200" y="480">UNREGISTERED</text><text fill="#eeeeee" stroke="none" font-family="Arial" font-size="24px" font-style="normal" font-weight="normal" text-decoration="none" x="200" y="510">UNREGISTERED</text><text fill="#eeeeee" stroke="none" font-family="Arial" font-size="24px" font-style="normal" font-weight="normal" text-decoration="none" x="200" y="540">UNREGISTERED</text><text fill="#eeeeee" stroke="none" font-family="Arial" font-size="24px" font-style="normal" font-weight="normal" text-decoration="none" x="400" y="0">UNREGISTERED</text><text fill="#eeeeee" stroke="none" font-family="Arial" font-size="24px" font-style="normal" font-weight="normal" text-decoration="none" x="400" y="30">UNREGISTERED</text><text fill="#eeeeee" stroke="none" font-family="Arial" font-size="24px" font-style="normal" font-weight="normal" text-decoration="none" x="400" y="60">UNREGISTERED</text><text fill="#eeeeee" stroke="none" font-family="Arial" font-size="24px" font-style="normal" font-weight="normal" text-decoration="none" x="400" y="90">UNREGISTERED</text><text fill="#eeeeee" stroke="none" font-family="Arial" font-size="24px" font-style="normal" font-weight="normal" text-decoration="none" x="400" y="120">UNREGISTERED</text><text fill="#eeeeee" stroke="none" font-family="Arial" font-size="24px" font-style="normal" font-weight="normal" text-decoration="none" x="400" y="150">UNREGISTERED</text><text fill="#eeeeee" stroke="none" font-family="Arial" font-size="24px" font-style="normal" font-weight="normal" text-decoration="none" x="400" y="180">UNREGISTERED</text><text fill="#eeeeee" stroke="none" font-family="Arial" font-size="24px" font-style="normal" font-weight="normal" text-decoration="none" x="400" y="210">UNREGISTERED</text><text fill="#eeeeee" stroke="none" font-family="Arial" font-size="24px" font-style="normal" font-weight="normal" text-decoration="none" x="400" y="240">UNREGISTERED</text><text fill="#eeeeee" stroke="none" font-family="Arial" font-size="24px" font-style="normal" font-weight="normal" text-decoration="none" x="400" y="270">UNREGISTERED</text><text fill="#eeeeee" stroke="none" font-family="Arial" font-size="24px" font-style="normal" font-weight="normal" text-decoration="none" x="400" y="300">UNREGISTERED</text><text fill="#eeeeee" stroke="none" font-family="Arial" font-size="24px" font-style="normal" font-weight="normal" text-decoration="none" x="400" y="330">UNREGISTERED</text><text fill="#eeeeee" stroke="none" font-family="Arial" font-size="24px" font-style="normal" font-weight="normal" text-decoration="none" x="400" y="360">UNREGISTERED</text><text fill="#eeeeee" stroke="none" font-family="Arial" font-size="24px" font-style="normal" font-weight="normal" text-decoration="none" x="400" y="390">UNREGISTERED</text><text fill="#eeeeee" stroke="none" font-family="Arial" font-size="24px" font-style="normal" font-weight="normal" text-decoration="none" x="400" y="420">UNREGISTERED</text><text fill="#eeeeee" stroke="none" font-family="Arial" font-size="24px" font-style="normal" font-weight="normal" text-decoration="none" x="400" y="450">UNREGISTERED</text><text fill="#eeeeee" stroke="none" font-family="Arial" font-size="24px" font-style="normal" font-weight="normal" text-decoration="none" x="400" y="480">UNREGISTERED</text><text fill="#eeeeee" stroke="none" font-family="Arial" font-size="24px" font-style="normal" font-weight="normal" text-decoration="none" x="400" y="510">UNREGISTERED</text><text fill="#eeeeee" stroke="none" font-family="Arial" font-size="24px" font-style="normal" font-weight="normal" text-decoration="none" x="400" y="540">UNREGISTERED</text><g transform="translate(-166,-150) scale(1,1)"><rect fill="#ffffff" stroke="none" x="176" y="160" width="519" height="527"/></g><g transform="translate(-166,-150) scale(1,1)"><path fill="none" stroke="#000000" d="M 176 160 L 695 160 L 695 687 L 176 687 L 176 160 Z Z" stroke-miterlimit="10"/></g><g transform="translate(-166,-150) scale(1,1)"><rect fill="#C0C0C0" stroke="none" x="234.331298828125" y="179" width="71.11181640625" height="24" opacity="0.2"/></g><g transform="translate(-166,-150) scale(1,1)"><rect fill="#ffffff" stroke="none" x="227.331298828125" y="172" width="71.11181640625" height="24"/></g><g transform="translate(-166,-150) scale(1,1)"><path fill="none" stroke="#000000" d="M 227.331298828125 172 L 298.443115234375 172 L 298.443115234375 196 L 227.331298828125 196 L 227.331298828125 172 Z Z" stroke-miterlimit="10"/></g><g transform="translate(-166,-150) scale(1,1)"><g><path fill="none" stroke="none"/><text fill="#000000" stroke="none" font-family="Arial" font-size="13px" font-style="normal" font-weight="bold" text-decoration="none" x="234.7099609375" y="191.5">Controller</text></g></g><g transform="translate(-166,-150) scale(1,1)"><rect fill="#C0C0C0" stroke="none" x="483.03076171875" y="424.5" width="156.33544921875" height="24" opacity="0.2"/></g><g transform="translate(-166,-150) scale(1,1)"><rect fill="#ffffff" stroke="none" x="476.03076171875" y="417.5" width="156.33544921875" height="24"/></g><g transform="translate(-166,-150) scale(1,1)"><path fill="none" stroke="#000000" d="M 476.03076171875 417.5 L 632.3662109375 417.5 L 632.3662109375 441.5 L 476.03076171875 441.5 L 476.03076171875 417.5 Z Z" stroke-miterlimit="10"/></g><g transform="translate(-166,-150) scale(1,1)"><g><path fill="none" stroke="none"/><text fill="#000000" stroke="none" font-family="Arial" font-size="13px" font-style="normal" font-weight="bold" text-decoration="none" x="485.548583984375" y="437">DayNotFoundException</text></g></g><g transform="translate(-166,-150) scale(1,1)"><rect fill="#C0C0C0" stroke="none" x="453.7744140625" y="459.5" width="214.84814453125" height="24" opacity="0.2"/></g><g transform="translate(-166,-150) scale(1,1)"><rect fill="#ffffff" stroke="none" x="446.7744140625" y="452.5" width="214.84814453125" height="24"/></g><g transform="translate(-166,-150) scale(1,1)"><path fill="none" stroke="#000000" d="M 446.7744140625 452.5 L 661.62255859375 452.5 L 661.62255859375 476.5 L 446.7744140625 476.5 L 446.7744140625 452.5 Z Z" stroke-miterlimit="10"/></g><g transform="translate(-166,-150) scale(1,1)"><g><path fill="none" stroke="none"/><text fill="#000000" stroke="none" font-family="Arial" font-size="13px" font-style="normal" font-weight="bold" text-decoration="none" x="459.9072265625" y="472">CityStatisticsNotFoundException</text></g></g><g transform="translate(-166,-150) scale(1,1)"><rect fill="#C0C0C0" stroke="none" x="489.178466796875" y="494.5" width="144.0400390625" height="24" opacity="0.2"/></g><g transform="translate(-166,-150) scale(1,1)"><rect fill="#ffffff" stroke="none" x="482.178466796875" y="487.5" width="144.0400390625" height="24"/></g><g transform="translate(-166,-150) scale(1,1)"><path fill="none" stroke="#000000" d="M 482.178466796875 487.5 L 626.218505859375 487.5 L 626.218505859375 511.5 L 482.178466796875 511.5 L 482.178466796875 487.5 Z Z" stroke-miterlimit="10"/></g><g transform="translate(-166,-150) scale(1,1)"><g><path fill="none" stroke="none"/><text fill="#000000" stroke="none" font-family="Arial" font-size="13px" font-style="normal" font-weight="bold" text-decoration="none" x="491.686767578125" y="507">IdNotFoundException</text></g></g><g transform="translate(-166,-150) scale(1,1)"><rect fill="#C0C0C0" stroke="none" x="463.892578125" y="535.5" width="194.61181640625" height="24" opacity="0.2"/></g><g transform="translate(-166,-150) scale(1,1)"><rect fill="#ffffff" stroke="none" x="456.892578125" y="528.5" width="194.61181640625" height="24"/></g><g transform="translate(-166,-150) scale(1,1)"><path fill="none" stroke="#000000" d="M 456.892578125 528.5 L 651.50439453125 528.5 L 651.50439453125 552.5 L 456.892578125 552.5 L 456.892578125 528.5 Z Z" stroke-miterlimit="10"/></g><g transform="translate(-166,-150) scale(1,1)"><g><path fill="none" stroke="none"/><text fill="#000000" stroke="none" font-family="Arial" font-size="13px" font-style="normal" font-weight="bold" text-decoration="none" x="468.568603515625" y="548">ItalianCityNotFoundException</text></g></g><g transform="translate(-166,-150) scale(1,1)"><rect fill="#C0C0C0" stroke="none" x="483.732177734375" y="570.5" width="154.9326171875" height="24" opacity="0.2"/></g><g transform="translate(-166,-150) scale(1,1)"><rect fill="#ffffff" stroke="none" x="476.732177734375" y="563.5" width="154.9326171875" height="24"/></g><g transform="translate(-166,-150) scale(1,1)"><path fill="none" stroke="#000000" d="M 476.732177734375 563.5 L 631.664794921875 563.5 L 631.664794921875 587.5 L 476.732177734375 587.5 L 476.732177734375 563.5 Z Z" stroke-miterlimit="10"/></g><g transform="translate(-166,-150) scale(1,1)"><g><path fill="none" stroke="none"/><text fill="#000000" stroke="none" font-family="Arial" font-size="13px" font-style="normal" font-weight="bold" text-decoration="none" x="486.272216796875" y="583">NegativeStartException</text></g></g><g transform="translate(-166,-150) scale(1,1)"><rect fill="#C0C0C0" stroke="none" x="466.17138671875" y="605.5" width="190.05419921875" height="24" opacity="0.2"/></g><g transform="translate(-166,-150) scale(1,1)"><rect fill="#ffffff" stroke="none" x="459.17138671875" y="598.5" width="190.05419921875" height="24"/></g><g transform="translate(-166,-150) scale(1,1)"><path fill="none" stroke="#000000" d="M 459.17138671875 598.5 L 649.2255859375 598.5 L 649.2255859375 622.5 L 459.17138671875 622.5 L 459.17138671875 598.5 Z Z" stroke-miterlimit="10"/></g><g transform="translate(-166,-150) scale(1,1)"><g><path fill="none" stroke="none"/><text fill="#000000" stroke="none" font-family="Arial" font-size="13px" font-style="normal" font-weight="bold" text-decoration="none" x="470.498291015625" y="618">WrongHoursPeriodException</text></g></g><g transform="translate(-166,-150) scale(1,1)"><rect fill="#C0C0C0" stroke="none" x="480.625" y="640.5" width="161.14697265625" height="24" opacity="0.2"/></g><g transform="translate(-166,-150) scale(1,1)"><rect fill="#ffffff" stroke="none" x="473.625" y="633.5" width="161.14697265625" height="24"/></g><g transform="translate(-166,-150) scale(1,1)"><path fill="none" stroke="#000000" d="M 473.625 633.5 L 634.77197265625 633.5 L 634.77197265625 657.5 L 473.625 657.5 L 473.625 633.5 Z Z" stroke-miterlimit="10"/></g><g transform="translate(-166,-150) scale(1,1)"><g><path fill="none" stroke="none"/><text fill="#000000" stroke="none" font-family="Arial" font-size="13px" font-style="normal" font-weight="bold" text-decoration="none" x="484.59326171875" y="653">WrongMultiplyException</text></g></g><g transform="translate(-166,-150) scale(1,1)"><rect fill="#C0C0C0" stroke="none" x="253.107666015625" y="214" width="33.55908203125" height="24" opacity="0.2"/></g><g transform="translate(-166,-150) scale(1,1)"><rect fill="#ffffff" stroke="none" x="246.107666015625" y="207" width="33.55908203125" height="24"/></g><g transform="translate(-166,-150) scale(1,1)"><path fill="none" stroke="#000000" d="M 246.107666015625 207 L 279.666748046875 207 L 279.666748046875 231 L 246.107666015625 231 L 246.107666015625 207 Z Z" stroke-miterlimit="10"/></g><g transform="translate(-166,-150) scale(1,1)"><g><path fill="none" stroke="none"/><text fill="#000000" stroke="none" font-family="Arial" font-size="13px" font-style="normal" font-weight="bold" text-decoration="none" x="251.693115234375" y="226.5">City</text></g></g><g transform="translate(-166,-150) scale(1,1)"><rect fill="#C0C0C0" stroke="none" x="238.292236328125" y="249" width="63.18994140625" height="24" opacity="0.2"/></g><g transform="translate(-166,-150) scale(1,1)"><rect fill="#ffffff" stroke="none" x="231.292236328125" y="242" width="63.18994140625" height="24"/></g><g transform="translate(-166,-150) scale(1,1)"><path fill="none" stroke="#000000" d="M 231.292236328125 242 L 294.482177734375 242 L 294.482177734375 266 L 231.292236328125 266 L 231.292236328125 242 Z Z" stroke-miterlimit="10"/></g><g transform="translate(-166,-150) scale(1,1)"><g><path fill="none" stroke="none"/><text fill="#000000" stroke="none" font-family="Arial" font-size="13px" font-style="normal" font-weight="bold" text-decoration="none" x="237.601318359375" y="261.5">Forecast</text></g></g><g transform="translate(-166,-150) scale(1,1)"><rect fill="#C0C0C0" stroke="none" x="187" y="284" width="165.7744140625" height="24" opacity="0.2"/></g><g transform="translate(-166,-150) scale(1,1)"><rect fill="#ffffff" stroke="none" x="180" y="277" width="165.7744140625" height="24"/></g><g transform="translate(-166,-150) scale(1,1)"><path fill="none" stroke="#000000" d="M 180 277 L 345.7744140625 277 L 345.7744140625 301 L 180 301 L 180 277 Z Z" stroke-miterlimit="10"/></g><g transform="translate(-166,-150) scale(1,1)"><g><path fill="none" stroke="none"/><text fill="#000000" stroke="none" font-family="Arial" font-size="13px" font-style="normal" font-weight="bold" text-decoration="none" x="191.352294921875" y="296.5">PressurestatsApplication</text></g></g><g transform="translate(-166,-150) scale(1,1)"><path fill="#C0C0C0" stroke="none" d="M 258.38720703125 330.5 C 258.38720703125 324.1487248 263.53593183125 319 269.88720703125 319 C 276.23848223125 319 281.38720703125 324.1487248 281.38720703125 330.5 C 281.38720703125 336.8512752 276.23848223125 342 269.88720703125 342 C 263.53593183125 342 258.38720703125 336.8512752 258.38720703125 330.5 Z" opacity="0.2"/></g><g transform="translate(-166,-150) scale(1,1)"><path fill="#ffffff" stroke="none" d="M 251.38720703125 323.5 C 251.38720703125 317.1487248 256.53593183125 312 262.88720703125 312 C 269.23848223125 312 274.38720703125 317.1487248 274.38720703125 323.5 C 274.38720703125 329.8512752 269.23848223125 335 262.88720703125 335 C 256.53593183125 335 251.38720703125 329.8512752 251.38720703125 323.5 Z"/></g><g transform="translate(-166,-150) scale(1,1)"><path fill="none" stroke="#000000" d="M 251.38720703125 323.5 C 251.38720703125 317.1487248 256.53593183125 312 262.88720703125 312 C 269.23848223125 312 274.38720703125 317.1487248 274.38720703125 323.5 C 274.38720703125 329.8512752 269.23848223125 335 262.88720703125 335 C 256.53593183125 335 251.38720703125 329.8512752 251.38720703125 323.5 Z" stroke-miterlimit="10"/></g><g transform="translate(-166,-150) scale(1,1)"><g><path fill="none" stroke="none"/><text fill="#000000" stroke="none" font-family="Arial" font-size="13px" font-style="normal" font-weight="bold" text-decoration="none" x="241.213134765625" y="354.5">Service</text></g></g><g transform="translate(-166,-150) scale(1,1)"><rect fill="#C0C0C0" stroke="none" x="520.205810546875" y="331" width="81.9853515625" height="24" opacity="0.2"/></g><g transform="translate(-166,-150) scale(1,1)"><rect fill="#ffffff" stroke="none" x="513.205810546875" y="324" width="81.9853515625" height="24"/></g><g transform="translate(-166,-150) scale(1,1)"><path fill="none" stroke="#000000" d="M 513.205810546875 324 L 595.191162109375 324 L 595.191162109375 348 L 513.205810546875 348 L 513.205810546875 324 Z Z" stroke-miterlimit="10"/></g><g transform="translate(-166,-150) scale(1,1)"><g><path fill="none" stroke="none"/><text fill="#000000" stroke="none" font-family="Arial" font-size="13px" font-style="normal" font-weight="bold" text-decoration="none" x="520.244873046875" y="343.5">ServiceImpl</text></g></g><g transform="translate(-166,-150) scale(1,1)"><rect fill="#C0C0C0" stroke="none" x="245.880859375" y="378" width="48.0126953125" height="24" opacity="0.2"/></g><g transform="translate(-166,-150) scale(1,1)"><rect fill="#ffffff" stroke="none" x="238.880859375" y="371" width="48.0126953125" height="24"/></g><g transform="translate(-166,-150) scale(1,1)"><path fill="none" stroke="#000000" d="M 238.880859375 371 L 286.8935546875 371 L 286.8935546875 395 L 238.880859375 395 L 238.880859375 371 Z Z" stroke-miterlimit="10"/></g><g transform="translate(-166,-150) scale(1,1)"><g><path fill="none" stroke="none"/><text fill="#000000" stroke="none" font-family="Arial" font-size="13px" font-style="normal" font-weight="bold" text-decoration="none" x="245.193115234375" y="390.5">Filters</text></g></g><g transform="translate(-166,-150) scale(1,1)"><rect fill="#C0C0C0" stroke="none" x="236.486328125" y="413" width="66.8017578125" height="24" opacity="0.2"/></g><g transform="translate(-166,-150) scale(1,1)"><rect fill="#ffffff" stroke="none" x="229.486328125" y="406" width="66.8017578125" height="24"/></g><g transform="translate(-166,-150) scale(1,1)"><path fill="none" stroke="#000000" d="M 229.486328125 406 L 296.2880859375 406 L 296.2880859375 430 L 229.486328125 430 L 229.486328125 406 Z Z" stroke-miterlimit="10"/></g><g transform="translate(-166,-150) scale(1,1)"><g><path fill="none" stroke="none"/><text fill="#000000" stroke="none" font-family="Arial" font-size="13px" font-style="normal" font-weight="bold" text-decoration="none" x="236.880859375" y="425.5">Statistics</text></g></g><g transform="translate(-166,-150) scale(1,1)"><rect fill="#C0C0C0" stroke="none" x="221.44873046875" y="448" width="96.876953125" height="24" opacity="0.2"/></g><g transform="translate(-166,-150) scale(1,1)"><rect fill="#ffffff" stroke="none" x="214.44873046875" y="441" width="96.876953125" height="24"/></g><g transform="translate(-166,-150) scale(1,1)"><path fill="none" stroke="#000000" d="M 214.44873046875 441 L 311.32568359375 441 L 311.32568359375 465 L 214.44873046875 465 L 214.44873046875 441 Z Z" stroke-miterlimit="10"/></g><g transform="translate(-166,-150) scale(1,1)"><g><path fill="none" stroke="none"/><text fill="#000000" stroke="none" font-family="Arial" font-size="13px" font-style="normal" font-weight="bold" text-decoration="none" x="222.7890625" y="460.5">TestController</text></g></g><g transform="translate(-166,-150) scale(1,1)"><rect fill="#C0C0C0" stroke="none" x="233.728271484375" y="483" width="72.31787109375" height="24" opacity="0.2"/></g><g transform="translate(-166,-150) scale(1,1)"><rect fill="#ffffff" stroke="none" x="226.728271484375" y="476" width="72.31787109375" height="24"/></g><g transform="translate(-166,-150) scale(1,1)"><path fill="none" stroke="#000000" d="M 226.728271484375 476 L 299.046142578125 476 L 299.046142578125 500 L 226.728271484375 500 L 226.728271484375 476 Z Z" stroke-miterlimit="10"/></g><g transform="translate(-166,-150) scale(1,1)"><g><path fill="none" stroke="none"/><text fill="#000000" stroke="none" font-family="Arial" font-size="13px" font-style="normal" font-weight="bold" text-decoration="none" x="233.2626953125" y="495.5">TestModel</text></g></g><g transform="translate(-166,-150) scale(1,1)"><rect fill="#C0C0C0" stroke="none" x="229.373779296875" y="518" width="81.02685546875" height="24" opacity="0.2"/></g><g transform="translate(-166,-150) scale(1,1)"><rect fill="#ffffff" stroke="none" x="222.373779296875" y="511" width="81.02685546875" height="24"/></g><g transform="translate(-166,-150) scale(1,1)"><path fill="none" stroke="#000000" d="M 222.373779296875 511 L 303.400634765625 511 L 303.400634765625 535 L 222.373779296875 535 L 222.373779296875 511 Z Z" stroke-miterlimit="10"/></g><g transform="translate(-166,-150) scale(1,1)"><g><path fill="none" stroke="none"/><text fill="#000000" stroke="none" font-family="Arial" font-size="13px" font-style="normal" font-weight="bold" text-decoration="none" x="229.292236328125" y="530.5">TestService</text></g></g><g transform="translate(-166,-150) scale(1,1)"><rect fill="#C0C0C0" stroke="none" x="223.603759765625" y="553" width="92.56689453125" height="24" opacity="0.2"/></g><g transform="translate(-166,-150) scale(1,1)"><rect fill="#ffffff" stroke="none" x="216.603759765625" y="546" width="92.56689453125" height="24"/></g><g transform="translate(-166,-150) scale(1,1)"><path fill="none" stroke="#000000" d="M 216.603759765625 546 L 309.170654296875 546 L 309.170654296875 570 L 216.603759765625 570 L 216.603759765625 546 Z Z" stroke-miterlimit="10"/></g><g transform="translate(-166,-150) scale(1,1)"><g><path fill="none" stroke="none"/><text fill="#000000" stroke="none" font-family="Arial" font-size="13px" font-style="normal" font-weight="bold" text-decoration="none" x="224.9599609375" y="565.5">TestStatistics</text></g></g><g transform="translate(-166,-150) scale(1,1)"><rect fill="#C0C0C0" stroke="none" x="234.324951171875" y="588" width="71.12451171875" height="24" opacity="0.2"/></g><g transform="translate(-166,-150) scale(1,1)"><rect fill="#ffffff" stroke="none" x="227.324951171875" y="581" width="71.12451171875" height="24"/></g><g transform="translate(-166,-150) scale(1,1)"><path fill="none" stroke="#000000" d="M 227.324951171875 581 L 298.449462890625 581 L 298.449462890625 605 L 227.324951171875 605 L 227.324951171875 581 Z Z" stroke-miterlimit="10"/></g><g transform="translate(-166,-150) scale(1,1)"><g><path fill="none" stroke="none"/><text fill="#000000" stroke="none" font-family="Arial" font-size="13px" font-style="normal" font-weight="bold" text-decoration="none" x="234.341796875" y="600.5">Exception</text></g></g><g transform="translate(-166,-150) scale(1,1)"><path fill="none" stroke="#000000" d="M 475 430 Q 397 430 273 580" stroke-miterlimit="10"/></g><g transform="translate(-166,-150) scale(1,1)"><path fill="#FFFFFF" stroke="none" d="M 279.46132830587084 558.970229755802 L 273 580 L 292.4391422070213 569.6985559140865"/></g><g transform="translate(-166,-150) scale(1,1)"><path fill="none" stroke="#000000" d="M 279.46132830587084 558.970229755802 L 273 580 L 292.4391422070213 569.6985559140865 L 279.46132830587084 558.970229755802" stroke-miterlimit="10"/></g><g transform="translate(-166,-150) scale(1,1)"><path fill="none" stroke="#000000" d="M 446 465 Q 397 465 276 580" stroke-miterlimit="10"/></g><g transform="translate(-166,-150) scale(1,1)"><path fill="#FFFFFF" stroke="none" d="M 284.93289519778097 559.8951900435378 L 276 580 L 296.53275822466094 572.1002633152984"/></g><g transform="translate(-166,-150) scale(1,1)"><path fill="none" stroke="#000000" d="M 284.93289519778097 559.8951900435378 L 276 580 L 296.53275822466094 572.1002633152984 L 284.93289519778097 559.8951900435378" stroke-miterlimit="10"/></g><g transform="translate(-166,-150) scale(1,1)"><path fill="none" stroke="#000000" d="M 481 499 Q 397 500 281 580" stroke-miterlimit="10"/></g><g transform="translate(-166,-150) scale(1,1)"><path fill="#FFFFFF" stroke="none" d="M 292.9523238475305 561.5299714498393 L 281 580 L 302.51185168005435 575.3912868069988"/></g><g transform="translate(-166,-150) scale(1,1)"><path fill="none" stroke="#000000" d="M 292.9523238475305 561.5299714498393 L 281 580 L 302.51185168005435 575.3912868069988 L 292.9523238475305 561.5299714498393" stroke-miterlimit="10"/></g><g transform="translate(-166,-150) scale(1,1)"><path fill="none" stroke="#000000" d="M 456 541 Q 397 541 296 580" stroke-miterlimit="10"/></g><g transform="translate(-166,-150) scale(1,1)"><path fill="#FFFFFF" stroke="none" d="M 311.92820575757054 564.8246165997529 L 296 580 L 317.9935588127333 580.5323257938923"/></g><g transform="translate(-166,-150) scale(1,1)"><path fill="none" stroke="#000000" d="M 311.92820575757054 564.8246165997529 L 296 580 L 317.9935588127333 580.5323257938923 L 311.92820575757054 564.8246165997529" stroke-miterlimit="10"/></g><g transform="translate(-166,-150) scale(1,1)"><path fill="none" stroke="#000000" d="M 476 575 Q 397 576 299 588" stroke-miterlimit="10"/></g><g transform="translate(-166,-150) scale(1,1)"><path fill="#FFFFFF" stroke="none" d="M 318.1514058742353 577.1730127440592 L 299 588 L 320.19792507142375 593.8862528544315"/></g><g transform="translate(-166,-150) scale(1,1)"><path fill="none" stroke="#000000" d="M 318.1514058742353 577.1730127440592 L 299 588 L 320.19792507142375 593.8862528544315 L 318.1514058742353 577.1730127440592" stroke-miterlimit="10"/></g><g transform="translate(-166,-150) scale(1,1)"><path fill="none" stroke="#000000" d="M 458 611 Q 397 611 299 598" stroke-miterlimit="10"/></g><g transform="translate(-166,-150) scale(1,1)"><path fill="#FFFFFF" stroke="none" d="M 320.25595733966975 592.3268811422516 L 299 598 L 318.0417323902836 609.0187307607014"/></g><g transform="translate(-166,-150) scale(1,1)"><path fill="none" stroke="#000000" d="M 320.25595733966975 592.3268811422516 L 299 598 L 318.0417323902836 609.0187307607014 L 320.25595733966975 592.3268811422516" stroke-miterlimit="10"/></g><g transform="translate(-166,-150) scale(1,1)"><path fill="none" stroke="#000000" d="M 473 646 Q 397 646 295 606" stroke-miterlimit="10"/></g><g transform="translate(-166,-150) scale(1,1)"><path fill="#FFFFFF" stroke="none" d="M 316.9960407048954 605.5826352810983 L 295 606 L 310.84867096465024 621.2584281187235"/></g><g transform="translate(-166,-150) scale(1,1)"><path fill="none" stroke="#000000" d="M 316.9960407048954 605.5826352810983 L 295 606 L 310.84867096465024 621.2584281187235 L 316.9960407048954 605.5826352810983" stroke-miterlimit="10"/></g><g transform="translate(-166,-150) scale(1,1)"><path fill="none" stroke="#000000" d="M 512 336 Q 397 337 274.38720703125 328.36778971354164" stroke-miterlimit="10"/></g></g></svg>