<svg version="1.1" xmlns="http://www.w3.org/2000/svg" xmlns:xlink="http://www.w3.org/1999/xlink" width="860" height="396"><defs/><g><text fill="#eeeeee" stroke="none" font-family="Arial" font-size="24px" font-style="normal" font-weight="normal" text-decoration="none" x="0" y="0">UNREGISTERED</text><text fill="#eeeeee" stroke="none" font-family="Arial" font-size="24px" font-style="normal" font-weight="normal" text-decoration="none" x="0" y="30">UNREGISTERED</text><text fill="#eeeeee" stroke="none" font-family="Arial" font-size="24px" font-style="normal" font-weight="normal" text-decoration="none" x="0" y="60">UNREGISTERED</text><text fill="#eeeeee" stroke="none" font-family="Arial" font-size="24px" font-style="normal" font-weight="normal" text-decoration="none" x="0" y="90">UNREGISTERED</text><text fill="#eeeeee" stroke="none" font-family="Arial" font-size="24px" font-style="normal" font-weight="normal" text-decoration="none" x="0" y="120">UNREGISTERED</text><text fill="#eeeeee" stroke="none" font-family="Arial" font-size="24px" font-style="normal" font-weight="normal" text-decoration="none" x="0" y="150">UNREGISTERED</text><text fill="#eeeeee" stroke="none" font-family="Arial" font-size="24px" font-style="normal" font-weight="normal" text-decoration="none" x="0" y="180">UNREGISTERED</text><text fill="#eeeeee" stroke="none" font-family="Arial" font-size="24px" font-style="normal" font-weight="normal" text-decoration="none" x="0" y="210">UNREGISTERED</text><text fill="#eeeeee" stroke="none" font-family="Arial" font-size="24px" font-style="normal" font-weight="normal" text-decoration="none" x="0" y="240">UNREGISTERED</text><text fill="#eeeeee" stroke="none" font-family="Arial" font-size="24px" font-style="normal" font-weight="normal" text-decoration="none" x="0" y="270">UNREGISTERED</text><text fill="#eeeeee" stroke="none" font-family="Arial" font-size="24px" font-style="normal" font-weight="normal" text-decoration="none" x="0" y="300">UNREGISTERED</text><text fill="#eeeeee" stroke="none" font-family="Arial" font-size="24px" font-style="normal" font-weight="normal" text-decoration="none" x="0" y="330">UNREGISTERED</text><text fill="#eeeeee" stroke="none" font-family="Arial" font-size="24px" font-style="normal" font-weight="normal" text-decoration="none" x="0" y="360">UNREGISTERED</text><text fill="#eeeeee" stroke="none" font-family="Arial" font-size="24px" font-style="normal" font-weight="normal" text-decoration="none" x="0" y="390">UNREGISTERED</text><text fill="#eeeeee" stroke="none" font-family="Arial" font-size="24px" font-style="normal" font-weight="normal" text-decoration="none" x="200" y="0">UNREGISTERED</text><text fill="#eeeeee" stroke="none" font-family="Arial" font-size="24px" font-style="normal" font-weight="normal" text-decoration="none" x="200" y="30">UNREGISTERED</text><text fill="#eeeeee" stroke="none" font-family="Arial" font-size="24px" font-style="normal" font-weight="normal" text-decoration="none" x="200" y="60">UNREGISTERED</text><text fill="#eeeeee" stroke="none" font-family="Arial" font-size="24px" font-style="normal" font-weight="normal" text-decoration="none" x="200" y="90">UNREGISTERED</text><text fill="#eeeeee" stroke="none" font-family="Arial" font-size="24px" font-style="normal" font-weight="normal" text-decoration="none" x="200" y="120">UNREGISTERED</text><text fill="#eeeeee" stroke="none" font-family="Arial" font-size="24px" font-style="normal" font-weight="normal" text-decoration="none" x="200" y="150">UNREGISTERED</text><text fill="#eeeeee" stroke="none" font-family="Arial" font-size="24px" font-style="normal" font-weight="normal" text-decoration="none" x="200" y="180">UNREGISTERED</text><text fill="#eeeeee" stroke="none" font-family="Arial" font-size="24px" font-style="normal" font-weight="normal" text-decoration="none" x="200" y="210">UNREGISTERED</text><text fill="#eeeeee" stroke="none" font-family="Arial" font-size="24px" font-style="normal" font-weight="normal" text-decoration="none" x="200" y="240">UNREGISTERED</text><text fill="#eeeeee" stroke="none" font-family="Arial" font-size="24px" font-style="normal" font-weight="normal" text-decoration="none" x="200" y="270">UNREGISTERED</text><text fill="#eeeeee" stroke="none" font-family="Arial" font-size="24px" font-style="normal" font-weight="normal" text-decoration="none" x="200" y="300">UNREGISTERED</text><text fill="#eeeeee" stroke="none" font-family="Arial" font-size="24px" font-style="normal" font-weight="normal" text-decoration="none" x="200" y="330">UNREGISTERED</text><text fill="#eeeeee" stroke="none" font-family="Arial" font-size="24px" font-style="normal" font-weight="normal" text-decoration="none" x="200" y="360">UNREGISTERED</text><text fill="#eeeeee" stroke="none" font-family="Arial" font-size="24px" font-style="normal" font-weight="normal" text-decoration="none" x="200" y="390">UNREGISTERED</text><text fill="#eeeeee" stroke="none" font-family="Arial" font-size="24px" font-style="normal" font-weight="normal" text-decoration="none" x="400" y="0">UNREGISTERED</text><text fill="#eeeeee" stroke="none" font-family="Arial" font-size="24px" font-style="normal" font-weight="normal" text-decoration="none" x="400" y="30">UNREGISTERED</text><text fill="#eeeeee" stroke="none" font-family="Arial" font-size="24px" font-style="normal" font-weight="normal" text-decoration="none" x="400" y="60">UNREGISTERED</text><text fill="#eeeeee" stroke="none" font-family="Arial" font-size="24px" font-style="normal" font-weight="normal" text-decoration="none" x="400" y="90">UNREGISTERED</text><text fill="#eeeeee" stroke="none" font-family="Arial" font-size="24px" font-style="normal" font-weight="normal" text-decoration="none" x="400" y="120">UNREGISTERED</text><text fill="#eeeeee" stroke="none" font-family="Arial" font-size="24px" font-style="normal" font-weight="normal" text-decoration="none" x="400" y="150">UNREGISTERED</text><text fill="#eeeeee" stroke="none" font-family="Arial" font-size="24px" font-style="normal" font-weight="normal" text-decoration="none" x="400" y="180">UNREGISTERED</text><text fill="#eeeeee" stroke="none" font-family="Arial" font-size="24px" font-style="normal" font-weight="normal" text-decoration="none" x="400" y="210">UNREGISTERED</text><text fill="#eeeeee" stroke="none" font-family="Arial" font-size="24px" font-style="normal" font-weight="normal" text-decoration="none" x="400" y="240">UNREGISTERED</text><text fill="#eeeeee" stroke="none" font-family="Arial" font-size="24px" font-style="normal" font-weight="normal" text-decoration="none" x="400" y="270">UNREGISTERED</text><text fill="#eeeeee" stroke="none" font-family="Arial" font-size="24px" font-style="normal" font-weight="normal" text-decoration="none" x="400" y="300">UNREGISTERED</text><text fill="#eeeeee" stroke="none" font-family="Arial" font-size="24px" font-style="normal" font-weight="normal" text-decoration="none" x="400" y="330">UNREGISTERED</text><text fill="#eeeeee" stroke="none" font-family="Arial" font-size="24px" font-style="normal" font-weight="normal" text-decoration="none" x="400" y="360">UNREGISTERED</text><text fill="#eeeeee" stroke="none" font-family="Arial" font-size="24px" font-style="normal" font-weight="normal" text-decoration="none" x="400" y="390">UNREGISTERED</text><text fill="#eeeeee" stroke="none" font-family="Arial" font-size="24px" font-style="normal" font-weight="normal" text-decoration="none" x="600" y="0">UNREGISTERED</text><text fill="#eeeeee" stroke="none" font-family="Arial" font-size="24px" font-style="normal" font-weight="normal" text-decoration="none" x="600" y="30">UNREGISTERED</text><text fill="#eeeeee" stroke="none" font-family="Arial" font-size="24px" font-style="normal" font-weight="normal" text-decoration="none" x="600" y="60">UNREGISTERED</text><text fill="#eeeeee" stroke="none" font-family="Arial" font-size="24px" font-style="normal" font-weight="normal" text-decoration="none" x="600" y="90">UNREGISTERED</text><text fill="#eeeeee" stroke="none" font-family="Arial" font-size="24px" font-style="normal" font-weight="normal" text-decoration="none" x="600" y="120">UNREGISTERED</text><text fill="#eeeeee" stroke="none" font-family="Arial" font-size="24px" font-style="normal" font-weight="normal" text-decoration="none" x="600" y="150">UNREGISTERED</text><text fill="#eeeeee" stroke="none" font-family="Arial" font-size="24px" font-style="normal" font-weight="normal" text-decoration="none" x="600" y="180">UNREGISTERED</text><text fill="#eeeeee" stroke="none" font-family="Arial" font-size="24px" font-style="normal" font-weight="normal" text-decoration="none" x="600" y="210">UNREGISTERED</text><text fill="#eeeeee" stroke="none" font-family="Arial" font-size="24px" font-style="normal" font-weight="normal" text-decoration="none" x="600" y="240">UNREGISTERED</text><text fill="#eeeeee" stroke="none" font-family="Arial" font-size="24px" font-style="normal" font-weight="normal" text-decoration="none" x="600" y="270">UNREGISTERED</text><text fill="#eeeeee" stroke="none" font-family="Arial" font-size="24px" font-style="normal" font-weight="normal" text-decoration="none" x="600" y="300">UNREGISTERED</text><text fill="#eeeeee" stroke="none" font-family="Arial" font-size="24px" font-style="normal" font-weight="normal" text-decoration="none" x="600" y="330">UNREGISTERED</text><text fill="#eeeeee" stroke="none" font-family="Arial" font-size="24px" font-style="normal" font-weight="normal" text-decoration="none" x="600" y="360">UNREGISTERED</text><text fill="#eeeeee" stroke="none" font-family="Arial" font-size="24px" font-style="normal" font-weight="normal" text-decoration="none" x="600" y="390">UNREGISTERED</text><text fill="#eeeeee" stroke="none" font-family="Arial" font-size="24px" font-style="normal" font-weight="normal" text-decoration="none" x="800" y="0">UNREGISTERED</text><text fill="#eeeeee" stroke="none" font-family="Arial" font-size="24px" font-style="normal" font-weight="normal" text-decoration="none" x="800" y="30">UNREGISTERED</text><text fill="#eeeeee" stroke="none" font-family="Arial" font-size="24px" font-style="normal" font-weight="normal" text-decoration="none" x="800" y="60">UNREGISTERED</text><text fill="#eeeeee" stroke="none" font-family="Arial" font-size="24px" font-style="normal" font-weight="normal" text-decoration="none" x="800" y="90">UNREGISTERED</text><text fill="#eeeeee" stroke="none" font-family="Arial" font-size="24px" font-style="normal" font-weight="normal" text-decoration="none" x="800" y="120">UNREGISTERED</text><text fill="#eeeeee" stroke="none" font-family="Arial" font-size="24px" font-style="normal" font-weight="normal" text-decoration="none" x="800" y="150">UNREGISTERED</text><text fill="#eeeeee" stroke="none" font-family="Arial" font-size="24px" font-style="normal" font-weight="normal" text-decoration="none" x="800" y="180">UNREGISTERED</text><text fill="#eeeeee" stroke="none" font-family="Arial" font-size="24px" font-style="normal" font-weight="normal" text-decoration="none" x="800" y="210">UNREGISTERED</text><text fill="#eeeeee" stroke="none" font-family="Arial" font-size="24px" font-style="normal" font-weight="normal" text-decoration="none" x="800" y="240">UNREGISTERED</text><text fill="#eeeeee" stroke="none" font-family="Arial" font-size="24px" font-style="normal" font-weight="normal" text-decoration="none" x="800" y="270">UNREGISTERED</text><text fill="#eeeeee" stroke="none" font-family="Arial" font-size="24px" font-style="normal" font-weight="normal" text-decoration="none" x="800" y="300">UNREGISTERED</text><text fill="#eeeeee" stroke="none" font-family="Arial" font-size="24px" font-style="normal" font-weight="normal" text-decoration="none" x="800" y="330">UNREGISTERED</text><text fill="#eeeeee" stroke="none" font-family="Arial" font-size="24px" font-style="normal" font-weight="normal" text-decoration="none" x="800" y="360">UNREGISTERED</text><text fill="#eeeeee" stroke="none" font-family="Arial" font-size="24px" font-style="normal" font-weight="normal" text-decoration="none" x="800" y="390">UNREGISTERED</text><g transform="translate(-542,-470) scale(1,1)"><rect fill="#ffffff" stroke="none" x="552" y="480" width="840" height="376"/></g><g transform="translate(-542,-470) scale(1,1)"><path fill="none" stroke="#000000" d="M 552 480 L 1392 480 L 1392 856 L 552 856 L 552 480 Z Z" stroke-miterlimit="10"/></g><g transform="translate(-542,-470) scale(1,1)"><rect fill="#C0C0C0" stroke="none" x="579" y="567.5" width="27.581445312500023" height="15" opacity="0.2"/></g><g transform="translate(-542,-470) scale(1,1)"><rect fill="#C0C0C0" stroke="none" x="579" y="581.5" width="68.95361328125" height="25" opacity="0.2"/></g><g transform="translate(-542,-470) scale(1,1)"><rect fill="#ffffff" stroke="none" x="572" y="575.5" width="68.95361328125" height="24"/></g><g transform="translate(-542,-470) scale(1,1)"><path fill="none" stroke="#000000" d="M 572 575.5 L 640.95361328125 575.5 L 640.95361328125 599.5 L 572 599.5 L 572 575.5 Z Z" stroke-miterlimit="10"/></g><g transform="translate(-542,-470) scale(1,1)"><rect fill="#ffffff" stroke="none" x="572" y="560.5" width="27.581445312500023" height="15"/></g><g transform="translate(-542,-470) scale(1,1)"><path fill="none" stroke="#000000" d="M 572 560.5 L 599.5814453125 560.5 L 599.5814453125 575.5 L 572 575.5 L 572 560.5 Z Z" stroke-miterlimit="10"/></g><g transform="translate(-542,-470) scale(1,1)"><rect fill="#ffffff" stroke="none" x="572" y="574.5" width="68.95361328125" height="25"/></g><g transform="translate(-542,-470) scale(1,1)"><path fill="none" stroke="#000000" d="M 572 574.5 L 640.95361328125 574.5 L 640.95361328125 599.5 L 572 599.5 L 572 574.5 Z Z" stroke-miterlimit="10"/></g><g transform="translate(-542,-470) scale(1,1)"><g><path fill="none" stroke="none"/><text fill="#000000" stroke="none" font-family="Arial" font-size="13px" font-style="normal" font-weight="bold" text-decoration="none" x="579.74365234375" y="595">controller</text></g></g><g transform="translate(-542,-470) scale(1,1)"><rect fill="#C0C0C0" stroke="none" x="678.95361328125" y="567.5" width="27.873437500000023" height="15" opacity="0.2"/></g><g transform="translate(-542,-470) scale(1,1)"><rect fill="#C0C0C0" stroke="none" x="678.95361328125" y="581.5" width="69.68359375" height="25" opacity="0.2"/></g><g transform="translate(-542,-470) scale(1,1)"><rect fill="#ffffff" stroke="none" x="671.95361328125" y="575.5" width="69.68359375" height="24"/></g><g transform="translate(-542,-470) scale(1,1)"><path fill="none" stroke="#000000" d="M 671.95361328125 575.5 L 741.63720703125 575.5 L 741.63720703125 599.5 L 671.95361328125 599.5 L 671.95361328125 575.5 Z Z" stroke-miterlimit="10"/></g><g transform="translate(-542,-470) scale(1,1)"><rect fill="#ffffff" stroke="none" x="671.95361328125" y="560.5" width="27.873437500000023" height="15"/></g><g transform="translate(-542,-470) scale(1,1)"><path fill="none" stroke="#000000" d="M 671.95361328125 560.5 L 699.82705078125 560.5 L 699.82705078125 575.5 L 671.95361328125 575.5 L 671.95361328125 560.5 Z Z" stroke-miterlimit="10"/></g><g transform="translate(-542,-470) scale(1,1)"><rect fill="#ffffff" stroke="none" x="671.95361328125" y="574.5" width="69.68359375" height="25"/></g><g transform="translate(-542,-470) scale(1,1)"><path fill="none" stroke="#000000" d="M 671.95361328125 574.5 L 741.63720703125 574.5 L 741.63720703125 599.5 L 671.95361328125 599.5 L 671.95361328125 574.5 Z Z" stroke-miterlimit="10"/></g><g transform="translate(-542,-470) scale(1,1)"><g><path fill="none" stroke="none"/><text fill="#000000" stroke="none" font-family="Arial" font-size="13px" font-style="normal" font-weight="bold" text-decoration="none" x="678.970458984375" y="595">exception</text></g></g><g transform="translate(-542,-470) scale(1,1)"><rect fill="#C0C0C0" stroke="none" x="779.63720703125" y="567.5" width="19.600000000000023" height="15" opacity="0.2"/></g><g transform="translate(-542,-470) scale(1,1)"><rect fill="#C0C0C0" stroke="none" x="779.63720703125" y="581.5" width="49" height="25" opacity="0.2"/></g><g transform="translate(-542,-470) scale(1,1)"><rect fill="#ffffff" stroke="none" x="772.63720703125" y="575.5" width="49" height="24"/></g><g transform="translate(-542,-470) scale(1,1)"><path fill="none" stroke="#000000" d="M 772.63720703125 575.5 L 821.63720703125 575.5 L 821.63720703125 599.5 L 772.63720703125 599.5 L 772.63720703125 575.5 Z Z" stroke-miterlimit="10"/></g><g transform="translate(-542,-470) scale(1,1)"><rect fill="#ffffff" stroke="none" x="772.63720703125" y="560.5" width="19.600000000000023" height="15"/></g><g transform="translate(-542,-470) scale(1,1)"><path fill="none" stroke="#000000" d="M 772.63720703125 560.5 L 792.23720703125 560.5 L 792.23720703125 575.5 L 772.63720703125 575.5 L 772.63720703125 560.5 Z Z" stroke-miterlimit="10"/></g><g transform="translate(-542,-470) scale(1,1)"><rect fill="#ffffff" stroke="none" x="772.63720703125" y="574.5" width="49" height="25"/></g><g transform="translate(-542,-470) scale(1,1)"><path fill="none" stroke="#000000" d="M 772.63720703125 574.5 L 821.63720703125 574.5 L 821.63720703125 599.5 L 772.63720703125 599.5 L 772.63720703125 574.5 Z Z" stroke-miterlimit="10"/></g><g transform="translate(-542,-470) scale(1,1)"><g><path fill="none" stroke="none"/><text fill="#000000" stroke="none" font-family="Arial" font-size="13px" font-style="normal" font-weight="bold" text-decoration="none" x="779.43359375" y="595">model</text></g></g><g transform="translate(-542,-470) scale(1,1)"><rect fill="#C0C0C0" stroke="none" x="859.63720703125" y="551" width="247.08154296875" height="72" opacity="0.2"/></g><g transform="translate(-542,-470) scale(1,1)"><rect fill="#ffffff" stroke="none" x="852.63720703125" y="544" width="247.08154296875" height="72"/></g><g transform="translate(-542,-470) scale(1,1)"><path fill="none" stroke="#000000" d="M 852.63720703125 544 L 1099.71875 544 L 1099.71875 616 L 852.63720703125 616 L 852.63720703125 544 Z Z" stroke-miterlimit="10"/></g><g transform="translate(-542,-470) scale(1,1)"><path fill="none" stroke="#000000" d="M 852.63720703125 569 L 1099.71875 569" stroke-miterlimit="10"/></g><g transform="translate(-542,-470) scale(1,1)"><path fill="none" stroke="#000000" d="M 852.63720703125 579 L 1099.71875 579" stroke-miterlimit="10"/></g><g transform="translate(-542,-470) scale(1,1)"><g><path fill="none" stroke="none"/><text fill="#000000" stroke="none" font-family="Arial" font-size="13px" font-style="normal" font-weight="bold" text-decoration="none" x="904.64306640625" y="563.5">PressurestatsApplication</text></g></g><g transform="translate(-542,-470) scale(1,1)"><g><path fill="none" stroke="none"/><text fill="#000000" stroke="none" font-family="Arial" font-size="13px" font-style="normal" font-weight="normal" text-decoration="none" x="857.63720703125" y="596.5">«constructor»+PressurestatsApplication()</text></g></g><g transform="translate(-542,-470) scale(1,1)"><g><path fill="none" stroke="none"/><text fill="#000000" stroke="none" font-family="Arial" font-size="13px" font-style="normal" font-weight="normal" text-decoration="none" x="857.63720703125" y="611.5">+main(args: String[*]): void</text><path fill="none" stroke="#000000" d="M 857.63720703125 611.5 L 1011.8916015625 611.5" stroke-miterlimit="10"/></g></g><g transform="translate(-542,-470) scale(1,1)"><rect fill="#C0C0C0" stroke="none" x="575" y="631" width="21.5283203125" height="15" opacity="0.2"/></g><g transform="translate(-542,-470) scale(1,1)"><rect fill="#C0C0C0" stroke="none" x="575" y="645" width="53.82080078125" height="25" opacity="0.2"/></g><g transform="translate(-542,-470) scale(1,1)"><rect fill="#ffffff" stroke="none" x="568" y="639" width="53.82080078125" height="24"/></g><g transform="translate(-542,-470) scale(1,1)"><path fill="none" stroke="#000000" d="M 568 639 L 621.82080078125 639 L 621.82080078125 663 L 568 663 L 568 639 Z Z" stroke-miterlimit="10"/></g><g transform="translate(-542,-470) scale(1,1)"><rect fill="#ffffff" stroke="none" x="568" y="624" width="21.5283203125" height="15"/></g><g transform="translate(-542,-470) scale(1,1)"><path fill="none" stroke="#000000" d="M 568 624 L 589.5283203125 624 L 589.5283203125 639 L 568 639 L 568 624 Z Z" stroke-miterlimit="10"/></g><g transform="translate(-542,-470) scale(1,1)"><rect fill="#ffffff" stroke="none" x="568" y="638" width="53.82080078125" height="25"/></g><g transform="translate(-542,-470) scale(1,1)"><path fill="none" stroke="#000000" d="M 568 638 L 621.82080078125 638 L 621.82080078125 663 L 568 663 L 568 638 Z Z" stroke-miterlimit="10"/></g><g transform="translate(-542,-470) scale(1,1)"><g><path fill="none" stroke="none"/><text fill="#000000" stroke="none" font-family="Arial" font-size="13px" font-style="normal" font-weight="bold" text-decoration="none" x="574.32177734375" y="658.5">service</text></g></g><g transform="translate(-542,-470) scale(1,1)"><rect fill="#C0C0C0" stroke="none" x="679" y="631" width="26.144335937500045" height="15" opacity="0.2"/></g><g transform="translate(-542,-470) scale(1,1)"><rect fill="#C0C0C0" stroke="none" x="679" y="645" width="65.36083984375" height="25" opacity="0.2"/></g><g transform="translate(-542,-470) scale(1,1)"><rect fill="#ffffff" stroke="none" x="672" y="639" width="65.36083984375" height="24"/></g><g transform="translate(-542,-470) scale(1,1)"><path fill="none" stroke="#000000" d="M 672 639 L 737.36083984375 639 L 737.36083984375 663 L 672 663 L 672 639 Z Z" stroke-miterlimit="10"/></g><g transform="translate(-542,-470) scale(1,1)"><rect fill="#ffffff" stroke="none" x="672" y="624" width="26.144335937500045" height="15"/></g><g transform="translate(-542,-470) scale(1,1)"><path fill="none" stroke="#000000" d="M 672 624 L 698.1443359375 624 L 698.1443359375 639 L 672 639 L 672 624 Z Z" stroke-miterlimit="10"/></g><g transform="translate(-542,-470) scale(1,1)"><rect fill="#ffffff" stroke="none" x="672" y="638" width="65.36083984375" height="25"/></g><g transform="translate(-542,-470) scale(1,1)"><path fill="none" stroke="#000000" d="M 672 638 L 737.36083984375 638 L 737.36083984375 663 L 672 663 L 672 638 Z Z" stroke-miterlimit="10"/></g><g transform="translate(-542,-470) scale(1,1)"><g><path fill="none" stroke="none"/><text fill="#000000" stroke="none" font-family="Arial" font-size="13px" font-style="normal" font-weight="bold" text-decoration="none" x="679.759521484375" y="658.5">statistics</text></g></g><g transform="translate(-542,-470) scale(1,1)"><rect fill="#C0C0C0" stroke="none" x="1159" y="527" width="197.3603515625" height="130" opacity="0.2"/></g><g transform="translate(-542,-470) scale(1,1)"><rect fill="#ffffff" stroke="none" x="1152" y="520" width="197.3603515625" height="130"/></g><g transform="translate(-542,-470) scale(1,1)"><path fill="none" stroke="#000000" d="M 1152 520 L 1349.3603515625 520 L 1349.3603515625 650 L 1152 650 L 1152 520 Z Z" stroke-miterlimit="10"/></g><g transform="translate(-542,-470) scale(1,1)"><path fill="none" stroke="#000000" d="M 1152 545 L 1349.3603515625 545" stroke-miterlimit="10"/></g><g transform="translate(-542,-470) scale(1,1)"><path fill="none" stroke="#000000" d="M 1152 583 L 1349.3603515625 583" stroke-miterlimit="10"/></g><g transform="translate(-542,-470) scale(1,1)"><g><path fill="none" stroke="none"/><text fill="#000000" stroke="none" font-family="Arial" font-size="13px" font-style="normal" font-weight="bold" text-decoration="none" x="1210.58203125" y="539.5">TestController</text></g></g><g transform="translate(-542,-470) scale(1,1)"><g><path fill="none" stroke="none"/><text fill="#000000" stroke="none" font-family="Arial" font-size="13px" font-style="normal" font-weight="normal" text-decoration="none" x="1157" y="562.5">-context: WebApplicationContext</text></g></g><g transform="translate(-542,-470) scale(1,1)"><g><path fill="none" stroke="none"/><text fill="#000000" stroke="none" font-family="Arial" font-size="13px" font-style="normal" font-weight="normal" text-decoration="none" x="1157" y="577.5">-mockMvc: MockMvc</text></g></g><g transform="translate(-542,-470) scale(1,1)"><g><path fill="none" stroke="none"/><text fill="#000000" stroke="none" font-family="Arial" font-size="13px" font-style="normal" font-weight="normal" text-decoration="none" x="1157" y="600.5">«constructor»+TestController()</text></g></g><g transform="translate(-542,-470) scale(1,1)"><g><path fill="none" stroke="none"/><text fill="#000000" stroke="none" font-family="Arial" font-size="13px" font-style="normal" font-weight="normal" text-decoration="none" x="1157" y="615.5">~setUp(): void</text></g></g><g transform="translate(-542,-470) scale(1,1)"><g><path fill="none" stroke="none"/><text fill="#000000" stroke="none" font-family="Arial" font-size="13px" font-style="normal" font-weight="normal" text-decoration="none" x="1157" y="630.5">~tearDown(): void</text></g></g><g transform="translate(-542,-470) scale(1,1)"><g><path fill="none" stroke="none"/><text fill="#000000" stroke="none" font-family="Arial" font-size="13px" font-style="normal" font-weight="normal" text-decoration="none" x="1157" y="645.5">~testController(): void</text></g></g><g transform="translate(-542,-470) scale(1,1)"><rect fill="#C0C0C0" stroke="none" x="1191" y="679" width="163.2607421875" height="160" opacity="0.2"/></g><g transform="translate(-542,-470) scale(1,1)"><rect fill="#ffffff" stroke="none" x="1184" y="672" width="163.2607421875" height="160"/></g><g transform="translate(-542,-470) scale(1,1)"><path fill="none" stroke="#000000" d="M 1184 672 L 1347.2607421875 672 L 1347.2607421875 832 L 1184 832 L 1184 672 Z Z" stroke-miterlimit="10"/></g><g transform="translate(-542,-470) scale(1,1)"><path fill="none" stroke="#000000" d="M 1184 697 L 1347.2607421875 697" stroke-miterlimit="10"/></g><g transform="translate(-542,-470) scale(1,1)"><path fill="none" stroke="#000000" d="M 1184 750 L 1347.2607421875 750" stroke-miterlimit="10"/></g><g transform="translate(-542,-470) scale(1,1)"><g><path fill="none" stroke="none"/><text fill="#000000" stroke="none" font-family="Arial" font-size="13px" font-style="normal" font-weight="bold" text-decoration="none" x="1236.005859375" y="691.5">TestModel</text></g></g><g transform="translate(-542,-470) scale(1,1)"><g><path fill="none" stroke="none"/><text fill="#000000" stroke="none" font-family="Arial" font-size="13px" font-style="normal" font-weight="normal" text-decoration="none" x="1189" y="714.5">-f: Vector = null</text></g></g><g transform="translate(-542,-470) scale(1,1)"><g><path fill="none" stroke="none"/><text fill="#000000" stroke="none" font-family="Arial" font-size="13px" font-style="normal" font-weight="normal" text-decoration="none" x="1189" y="729.5">-c: City = null</text></g></g><g transform="translate(-542,-470) scale(1,1)"><g><path fill="none" stroke="none"/><text fill="#000000" stroke="none" font-family="Arial" font-size="13px" font-style="normal" font-weight="normal" text-decoration="none" x="1189" y="744.5">-s: ServiceImpl = null</text></g></g><g transform="translate(-542,-470) scale(1,1)"><g><path fill="none" stroke="none"/><text fill="#000000" stroke="none" font-family="Arial" font-size="13px" font-style="normal" font-weight="normal" text-decoration="none" x="1189" y="767.5">«constructor»+TestModel()</text></g></g><g transform="translate(-542,-470) scale(1,1)"><g><path fill="none" stroke="none"/><text fill="#000000" stroke="none" font-family="Arial" font-size="13px" font-style="normal" font-weight="normal" text-decoration="none" x="1189" y="782.5">~setUp(): void</text></g></g><g transform="translate(-542,-470) scale(1,1)"><g><path fill="none" stroke="none"/><text fill="#000000" stroke="none" font-family="Arial" font-size="13px" font-style="normal" font-weight="normal" text-decoration="none" x="1189" y="797.5">~tearDown(): void</text></g></g><g transform="translate(-542,-470) scale(1,1)"><g><path fill="none" stroke="none"/><text fill="#000000" stroke="none" font-family="Arial" font-size="13px" font-style="normal" font-weight="normal" text-decoration="none" x="1189" y="812.5">~testCity(): void</text></g></g><g transform="translate(-542,-470) scale(1,1)"><g><path fill="none" stroke="none"/><text fill="#000000" stroke="none" font-family="Arial" font-size="13px" font-style="normal" font-weight="normal" text-decoration="none" x="1189" y="827.5">~testForecast(): void</text></g></g><g transform="translate(-542,-470) scale(1,1)"><rect fill="#C0C0C0" stroke="none" x="991" y="703" width="171.20166015625" height="130" opacity="0.2"/></g><g transform="translate(-542,-470) scale(1,1)"><rect fill="#ffffff" stroke="none" x="984" y="696" width="171.20166015625" height="130"/></g><g transform="translate(-542,-470) scale(1,1)"><path fill="none" stroke="#000000" d="M 984 696 L 1155.20166015625 696 L 1155.20166015625 826 L 984 826 L 984 696 Z Z" stroke-miterlimit="10"/></g><g transform="translate(-542,-470) scale(1,1)"><path fill="none" stroke="#000000" d="M 984 721 L 1155.20166015625 721" stroke-miterlimit="10"/></g><g transform="translate(-542,-470) scale(1,1)"><path fill="none" stroke="#000000" d="M 984 759 L 1155.20166015625 759" stroke-miterlimit="10"/></g><g transform="translate(-542,-470) scale(1,1)"><g><path fill="none" stroke="none"/><text fill="#000000" stroke="none" font-family="Arial" font-size="13px" font-style="normal" font-weight="bold" text-decoration="none" x="1036.005859375" y="715.5">TestService</text></g></g><g transform="translate(-542,-470) scale(1,1)"><g><path fill="none" stroke="none"/><text fill="#000000" stroke="none" font-family="Arial" font-size="13px" font-style="normal" font-weight="normal" text-decoration="none" x="989" y="738.5">~s: ServiceImpl</text></g></g><g transform="translate(-542,-470) scale(1,1)"><g><path fill="none" stroke="none"/><text fill="#000000" stroke="none" font-family="Arial" font-size="13px" font-style="normal" font-weight="normal" text-decoration="none" x="989" y="753.5">~city: City</text></g></g><g transform="translate(-542,-470) scale(1,1)"><g><path fill="none" stroke="none"/><text fill="#000000" stroke="none" font-family="Arial" font-size="13px" font-style="normal" font-weight="normal" text-decoration="none" x="989" y="776.5">«constructor»+TestService()</text></g></g><g transform="translate(-542,-470) scale(1,1)"><g><path fill="none" stroke="none"/><text fill="#000000" stroke="none" font-family="Arial" font-size="13px" font-style="normal" font-weight="normal" text-decoration="none" x="989" y="791.5">~setUp(): void</text></g></g><g transform="translate(-542,-470) scale(1,1)"><g><path fill="none" stroke="none"/><text fill="#000000" stroke="none" font-family="Arial" font-size="13px" font-style="normal" font-weight="normal" text-decoration="none" x="989" y="806.5">~tearDown(): void</text></g></g><g transform="translate(-542,-470) scale(1,1)"><g><path fill="none" stroke="none"/><text fill="#000000" stroke="none" font-family="Arial" font-size="13px" font-style="normal" font-weight="normal" text-decoration="none" x="989" y="821.5">~testService(): void</text></g></g><g transform="translate(-542,-470) scale(1,1)"><rect fill="#C0C0C0" stroke="none" x="775" y="711" width="179.8662109375" height="115" opacity="0.2"/></g><g transform="translate(-542,-470) scale(1,1)"><rect fill="#ffffff" stroke="none" x="768" y="704" width="179.8662109375" height="115"/></g><g transform="translate(-542,-470) scale(1,1)"><path fill="none" stroke="#000000" d="M 768 704 L 947.8662109375 704 L 947.8662109375 819 L 768 819 L 768 704 Z Z" stroke-miterlimit="10"/></g><g transform="translate(-542,-470) scale(1,1)"><path fill="none" stroke="#000000" d="M 768 729 L 947.8662109375 729" stroke-miterlimit="10"/></g><g transform="translate(-542,-470) scale(1,1)"><path fill="none" stroke="#000000" d="M 768 752 L 947.8662109375 752" stroke-miterlimit="10"/></g><g transform="translate(-542,-470) scale(1,1)"><g><path fill="none" stroke="none"/><text fill="#000000" stroke="none" font-family="Arial" font-size="13px" font-style="normal" font-weight="bold" text-decoration="none" x="820.005859375" y="723.5">TestStatistics</text></g></g><g transform="translate(-542,-470) scale(1,1)"><g><path fill="none" stroke="none"/><text fill="#000000" stroke="none" font-family="Arial" font-size="13px" font-style="normal" font-weight="normal" text-decoration="none" x="773" y="746.5">-f: Filters</text></g></g><g transform="translate(-542,-470) scale(1,1)"><g><path fill="none" stroke="none"/><text fill="#000000" stroke="none" font-family="Arial" font-size="13px" font-style="normal" font-weight="normal" text-decoration="none" x="773" y="769.5">«constructor»+TestStatistics()</text></g></g><g transform="translate(-542,-470) scale(1,1)"><g><path fill="none" stroke="none"/><text fill="#000000" stroke="none" font-family="Arial" font-size="13px" font-style="normal" font-weight="normal" text-decoration="none" x="773" y="784.5">~setUp(): void</text></g></g><g transform="translate(-542,-470) scale(1,1)"><g><path fill="none" stroke="none"/><text fill="#000000" stroke="none" font-family="Arial" font-size="13px" font-style="normal" font-weight="normal" text-decoration="none" x="773" y="799.5">~tearDown(): void</text></g></g><g transform="translate(-542,-470) scale(1,1)"><g><path fill="none" stroke="none"/><text fill="#000000" stroke="none" font-family="Arial" font-size="13px" font-style="normal" font-weight="normal" text-decoration="none" x="773" y="814.5">~testFilters(): void</text></g></g></g></svg>