<svg version="1.1" xmlns="http://www.w3.org/2000/svg" xmlns:xlink="http://www.w3.org/1999/xlink" width="1019" height="99"><defs/><g><text fill="#eeeeee" stroke="none" font-family="Arial" font-size="24px" font-style="normal" font-weight="normal" text-decoration="none" x="0" y="0">UNREGISTERED</text><text fill="#eeeeee" stroke="none" font-family="Arial" font-size="24px" font-style="normal" font-weight="normal" text-decoration="none" x="0" y="30">UNREGISTERED</text><text fill="#eeeeee" stroke="none" font-family="Arial" font-size="24px" font-style="normal" font-weight="normal" text-decoration="none" x="0" y="60">UNREGISTERED</text><text fill="#eeeeee" stroke="none" font-family="Arial" font-size="24px" font-style="normal" font-weight="normal" text-decoration="none" x="0" y="90">UNREGISTERED</text><text fill="#eeeeee" stroke="none" font-family="Arial" font-size="24px" font-style="normal" font-weight="normal" text-decoration="none" x="200" y="0">UNREGISTERED</text><text fill="#eeeeee" stroke="none" font-family="Arial" font-size="24px" font-style="normal" font-weight="normal" text-decoration="none" x="200" y="30">UNREGISTERED</text><text fill="#eeeeee" stroke="none" font-family="Arial" font-size="24px" font-style="normal" font-weight="normal" text-decoration="none" x="200" y="60">UNREGISTERED</text><text fill="#eeeeee" stroke="none" font-family="Arial" font-size="24px" font-style="normal" font-weight="normal" text-decoration="none" x="200" y="90">UNREGISTERED</text><text fill="#eeeeee" stroke="none" font-family="Arial" font-size="24px" font-style="normal" font-weight="normal" text-decoration="none" x="400" y="0">UNREGISTERED</text><text fill="#eeeeee" stroke="none" font-family="Arial" font-size="24px" font-style="normal" font-weight="normal" text-decoration="none" x="400" y="30">UNREGISTERED</text><text fill="#eeeeee" stroke="none" font-family="Arial" font-size="24px" font-style="normal" font-weight="normal" text-decoration="none" x="400" y="60">UNREGISTERED</text><text fill="#eeeeee" stroke="none" font-family="Arial" font-size="24px" font-style="normal" font-weight="normal" text-decoration="none" x="400" y="90">UNREGISTERED</text><text fill="#eeeeee" stroke="none" font-family="Arial" font-size="24px" font-style="normal" font-weight="normal" text-decoration="none" x="600" y="0">UNREGISTERED</text><text fill="#eeeeee" stroke="none" font-family="Arial" font-size="24px" font-style="normal" font-weight="normal" text-decoration="none" x="600" y="30">UNREGISTERED</text><text fill="#eeeeee" stroke="none" font-family="Arial" font-size="24px" font-style="normal" font-weight="normal" text-decoration="none" x="600" y="60">UNREGISTERED</text><text fill="#eeeeee" stroke="none" font-family="Arial" font-size="24px" font-style="normal" font-weight="normal" text-decoration="none" x="600" y="90">UNREGISTERED</text><text fill="#eeeeee" stroke="none" font-family="Arial" font-size="24px" font-style="normal" font-weight="normal" text-decoration="none" x="800" y="0">UNREGISTERED</text><text fill="#eeeeee" stroke="none" font-family="Arial" font-size="24px" font-style="normal" font-weight="normal" text-decoration="none" x="800" y="30">UNREGISTERED</text><text fill="#eeeeee" stroke="none" font-family="Arial" font-size="24px" font-style="normal" font-weight="normal" text-decoration="none" x="800" y="60">UNREGISTERED</text><text fill="#eeeeee" stroke="none" font-family="Arial" font-size="24px" font-style="normal" font-weight="normal" text-decoration="none" x="800" y="90">UNREGISTERED</text><text fill="#eeeeee" stroke="none" font-family="Arial" font-size="24px" font-style="normal" font-weight="normal" text-decoration="none" x="1000" y="0">UNREGISTERED</text><text fill="#eeeeee" stroke="none" font-family="Arial" font-size="24px" font-style="normal" font-weight="normal" text-decoration="none" x="1000" y="30">UNREGISTERED</text><text fill="#eeeeee" stroke="none" font-family="Arial" font-size="24px" font-style="normal" font-weight="normal" text-decoration="none" x="1000" y="60">UNREGISTERED</text><text fill="#eeeeee" stroke="none" font-family="Arial" font-size="24px" font-style="normal" font-weight="normal" text-decoration="none" x="1000" y="90">UNREGISTERED</text><g transform="translate(2,10) scale(1,1)"><rect fill="#ffffff" stroke="none" x="8" y="0" width="999" height="79"/></g><g transform="translate(2,10) scale(1,1)"><path fill="none" stroke="#000000" d="M 8 0 L 1007 0 L 1007 79 L 8 79 L 8 0 Z Z" stroke-miterlimit="10"/></g><g transform="translate(2,10) scale(1,1)"><rect fill="#C0C0C0" stroke="none" x="27" y="29.5" width="19.6" height="15" opacity="0.2"/></g><g transform="translate(2,10) scale(1,1)"><rect fill="#C0C0C0" stroke="none" x="27" y="43.5" width="49" height="25" opacity="0.2"/></g><g transform="translate(2,10) scale(1,1)"><rect fill="#ffffff" stroke="none" x="20" y="37.5" width="49" height="24"/></g><g transform="translate(2,10) scale(1,1)"><path fill="none" stroke="#000000" d="M 20 37.5 L 69 37.5 L 69 61.5 L 20 61.5 L 20 37.5 Z Z" stroke-miterlimit="10"/></g><g transform="translate(2,10) scale(1,1)"><rect fill="#ffffff" stroke="none" x="20" y="22.5" width="19.6" height="15"/></g><g transform="translate(2,10) scale(1,1)"><path fill="none" stroke="#000000" d="M 20 22.5 L 39.6 22.5 L 39.6 37.5 L 20 37.5 L 20 22.5 Z Z" stroke-miterlimit="10"/></g><g transform="translate(2,10) scale(1,1)"><rect fill="#ffffff" stroke="none" x="20" y="36.5" width="49" height="25"/></g><g transform="translate(2,10) scale(1,1)"><path fill="none" stroke="#000000" d="M 20 36.5 L 69 36.5 L 69 61.5 L 20 61.5 L 20 36.5 Z Z" stroke-miterlimit="10"/></g><g transform="translate(2,10) scale(1,1)"><g><path fill="none" stroke="none"/><text fill="#000000" stroke="none" font-family="Arial" font-size="13px" font-style="normal" font-weight="bold" text-decoration="none" x="41.25" y="57">it</text></g></g><g transform="translate(2,10) scale(1,1)"><rect fill="#C0C0C0" stroke="none" x="107" y="27" width="71.12451171875" height="44" opacity="0.2"/></g><g transform="translate(2,10) scale(1,1)"><rect fill="#ffffff" stroke="none" x="100" y="20" width="71.12451171875" height="44"/></g><g transform="translate(2,10) scale(1,1)"><path fill="none" stroke="#000000" d="M 100 20 L 171.12451171875 20 L 171.12451171875 64 L 100 64 L 100 20 Z Z" stroke-miterlimit="10"/></g><g transform="translate(2,10) scale(1,1)"><path fill="none" stroke="#000000" d="M 100 45 L 171.12451171875 45" stroke-miterlimit="10"/></g><g transform="translate(2,10) scale(1,1)"><path fill="none" stroke="#000000" d="M 100 55 L 171.12451171875 55" stroke-miterlimit="10"/></g><g transform="translate(2,10) scale(1,1)"><g><path fill="none" stroke="none"/><text fill="#000000" stroke="none" font-family="Arial" font-size="13px" font-style="normal" font-weight="bold" text-decoration="none" x="107.016845703125" y="39.5">Exception</text></g></g><g transform="translate(2,10) scale(1,1)"><rect fill="#C0C0C0" stroke="none" x="209.12451171875" y="27" width="107.24267578125" height="44" opacity="0.2"/></g><g transform="translate(2,10) scale(1,1)"><rect fill="#ffffff" stroke="none" x="202.12451171875" y="20" width="107.24267578125" height="44"/></g><g transform="translate(2,10) scale(1,1)"><path fill="none" stroke="#000000" d="M 202.12451171875 20 L 309.3671875 20 L 309.3671875 64 L 202.12451171875 64 L 202.12451171875 20 Z Z" stroke-miterlimit="10"/></g><g transform="translate(2,10) scale(1,1)"><path fill="none" stroke="#000000" d="M 202.12451171875 45 L 309.3671875 45" stroke-miterlimit="10"/></g><g transform="translate(2,10) scale(1,1)"><path fill="none" stroke="#000000" d="M 202.12451171875 55 L 309.3671875 55" stroke-miterlimit="10"/></g><g transform="translate(2,10) scale(1,1)"><g><path fill="none" stroke="none"/><text fill="#000000" stroke="none" font-family="Arial" font-size="13px" font-style="normal" font-weight="bold" text-decoration="none" x="210.220458984375" y="39.5">ResponseEntity</text></g></g><g transform="translate(2,10) scale(1,1)"><rect fill="#C0C0C0" stroke="none" x="347.3671875" y="27" width="48.74267578125" height="44" opacity="0.2"/></g><g transform="translate(2,10) scale(1,1)"><rect fill="#ffffff" stroke="none" x="340.3671875" y="20" width="48.74267578125" height="44"/></g><g transform="translate(2,10) scale(1,1)"><path fill="none" stroke="#000000" d="M 340.3671875 20 L 389.10986328125 20 L 389.10986328125 64 L 340.3671875 64 L 340.3671875 20 Z Z" stroke-miterlimit="10"/></g><g transform="translate(2,10) scale(1,1)"><path fill="none" stroke="#000000" d="M 340.3671875 45 L 389.10986328125 45" stroke-miterlimit="10"/></g><g transform="translate(2,10) scale(1,1)"><path fill="none" stroke="#000000" d="M 340.3671875 55 L 389.10986328125 55" stroke-miterlimit="10"/></g><g transform="translate(2,10) scale(1,1)"><g><path fill="none" stroke="none"/><text fill="#000000" stroke="none" font-family="Arial" font-size="13px" font-style="normal" font-weight="bold" text-decoration="none" x="346.311279296875" y="39.5">Vector</text></g></g><g transform="translate(2,10) scale(1,1)"><rect fill="#C0C0C0" stroke="none" x="427.10986328125" y="27" width="49.45361328125" height="44" opacity="0.2"/></g><g transform="translate(2,10) scale(1,1)"><rect fill="#ffffff" stroke="none" x="420.10986328125" y="20" width="49.45361328125" height="44"/></g><g transform="translate(2,10) scale(1,1)"><path fill="none" stroke="#000000" d="M 420.10986328125 20 L 469.5634765625 20 L 469.5634765625 64 L 420.10986328125 64 L 420.10986328125 20 Z Z" stroke-miterlimit="10"/></g><g transform="translate(2,10) scale(1,1)"><path fill="none" stroke="#000000" d="M 420.10986328125 45 L 469.5634765625 45" stroke-miterlimit="10"/></g><g transform="translate(2,10) scale(1,1)"><path fill="none" stroke="#000000" d="M 420.10986328125 55 L 469.5634765625 55" stroke-miterlimit="10"/></g><g transform="translate(2,10) scale(1,1)"><g><path fill="none" stroke="none"/><text fill="#000000" stroke="none" font-family="Arial" font-size="13px" font-style="normal" font-weight="bold" text-decoration="none" x="426.05078125" y="39.5">Object</text></g></g><g transform="translate(2,10) scale(1,1)"><rect fill="#C0C0C0" stroke="none" x="507.5634765625" y="27" width="84.8544921875" height="44" opacity="0.2"/></g><g transform="translate(2,10) scale(1,1)"><rect fill="#ffffff" stroke="none" x="500.5634765625" y="20" width="84.8544921875" height="44"/></g><g transform="translate(2,10) scale(1,1)"><path fill="none" stroke="#000000" d="M 500.5634765625 20 L 585.41796875 20 L 585.41796875 64 L 500.5634765625 64 L 500.5634765625 20 Z Z" stroke-miterlimit="10"/></g><g transform="translate(2,10) scale(1,1)"><path fill="none" stroke="#000000" d="M 500.5634765625 45 L 585.41796875 45" stroke-miterlimit="10"/></g><g transform="translate(2,10) scale(1,1)"><path fill="none" stroke="#000000" d="M 500.5634765625 55 L 585.41796875 55" stroke-miterlimit="10"/></g><g transform="translate(2,10) scale(1,1)"><g><path fill="none" stroke="none"/><text fill="#000000" stroke="none" font-family="Arial" font-size="13px" font-style="normal" font-weight="bold" text-decoration="none" x="506.869384765625" y="39.5">JSONObject</text></g></g><g transform="translate(2,10) scale(1,1)"><rect fill="#C0C0C0" stroke="none" x="623.41796875" y="27" width="78.3671875" height="44" opacity="0.2"/></g><g transform="translate(2,10) scale(1,1)"><rect fill="#ffffff" stroke="none" x="616.41796875" y="20" width="78.3671875" height="44"/></g><g transform="translate(2,10) scale(1,1)"><path fill="none" stroke="#000000" d="M 616.41796875 20 L 694.78515625 20 L 694.78515625 64 L 616.41796875 64 L 616.41796875 20 Z Z" stroke-miterlimit="10"/></g><g transform="translate(2,10) scale(1,1)"><path fill="none" stroke="#000000" d="M 616.41796875 45 L 694.78515625 45" stroke-miterlimit="10"/></g><g transform="translate(2,10) scale(1,1)"><path fill="none" stroke="#000000" d="M 616.41796875 55 L 694.78515625 55" stroke-miterlimit="10"/></g><g transform="translate(2,10) scale(1,1)"><g><path fill="none" stroke="none"/><text fill="#000000" stroke="none" font-family="Arial" font-size="13px" font-style="normal" font-weight="bold" text-decoration="none" x="622.736572265625" y="39.5">JSONArray</text></g></g><g transform="translate(2,10) scale(1,1)"><rect fill="#C0C0C0" stroke="none" x="732.78515625" y="27" width="155.37060546875" height="44" opacity="0.2"/></g><g transform="translate(2,10) scale(1,1)"><rect fill="#ffffff" stroke="none" x="725.78515625" y="20" width="155.37060546875" height="44"/></g><g transform="translate(2,10) scale(1,1)"><path fill="none" stroke="#000000" d="M 725.78515625 20 L 881.15576171875 20 L 881.15576171875 64 L 725.78515625 64 L 725.78515625 20 Z Z" stroke-miterlimit="10"/></g><g transform="translate(2,10) scale(1,1)"><path fill="none" stroke="#000000" d="M 725.78515625 45 L 881.15576171875 45" stroke-miterlimit="10"/></g><g transform="translate(2,10) scale(1,1)"><path fill="none" stroke="#000000" d="M 725.78515625 55 L 881.15576171875 55" stroke-miterlimit="10"/></g><g transform="translate(2,10) scale(1,1)"><g><path fill="none" stroke="none"/><text fill="#000000" stroke="none" font-family="Arial" font-size="13px" font-style="normal" font-weight="bold" text-decoration="none" x="736.0234375" y="39.5">WebApplicationContext</text></g></g><g transform="translate(2,10) scale(1,1)"><rect fill="#C0C0C0" stroke="none" x="919.15576171875" y="27" width="67.51904296875" height="44" opacity="0.2"/></g><g transform="translate(2,10) scale(1,1)"><rect fill="#ffffff" stroke="none" x="912.15576171875" y="20" width="67.51904296875" height="44"/></g><g transform="translate(2,10) scale(1,1)"><path fill="none" stroke="#000000" d="M 912.15576171875 20 L 979.6748046875 20 L 979.6748046875 64 L 912.15576171875 64 L 912.15576171875 20 Z Z" stroke-miterlimit="10"/></g><g transform="translate(2,10) scale(1,1)"><path fill="none" stroke="#000000" d="M 912.15576171875 45 L 979.6748046875 45" stroke-miterlimit="10"/></g><g transform="translate(2,10) scale(1,1)"><path fill="none" stroke="#000000" d="M 912.15576171875 55 L 979.6748046875 55" stroke-miterlimit="10"/></g><g transform="translate(2,10) scale(1,1)"><g><path fill="none" stroke="none"/><text fill="#000000" stroke="none" font-family="Arial" font-size="13px" font-style="normal" font-weight="bold" text-decoration="none" x="918.47119140625" y="39.5">MockMvc</text></g></g></g></svg>