<svg version="1.1" xmlns="http://www.w3.org/2000/svg" xmlns:xlink="http://www.w3.org/1999/xlink" width="203" height="99"><defs/><g><text fill="#eeeeee" stroke="none" font-family="Arial" font-size="24px" font-style="normal" font-weight="normal" text-decoration="none" x="0" y="0">UNREGISTERED</text><text fill="#eeeeee" stroke="none" font-family="Arial" font-size="24px" font-style="normal" font-weight="normal" text-decoration="none" x="0" y="30">UNREGISTERED</text><text fill="#eeeeee" stroke="none" font-family="Arial" font-size="24px" font-style="normal" font-weight="normal" text-decoration="none" x="0" y="60">UNREGISTERED</text><text fill="#eeeeee" stroke="none" font-family="Arial" font-size="24px" font-style="normal" font-weight="normal" text-decoration="none" x="0" y="90">UNREGISTERED</text><text fill="#eeeeee" stroke="none" font-family="Arial" font-size="24px" font-style="normal" font-weight="normal" text-decoration="none" x="200" y="0">UNREGISTERED</text><text fill="#eeeeee" stroke="none" font-family="Arial" font-size="24px" font-style="normal" font-weight="normal" text-decoration="none" x="200" y="30">UNREGISTERED</text><text fill="#eeeeee" stroke="none" font-family="Arial" font-size="24px" font-style="normal" font-weight="normal" text-decoration="none" x="200" y="60">UNREGISTERED</text><text fill="#eeeeee" stroke="none" font-family="Arial" font-size="24px" font-style="normal" font-weight="normal" text-decoration="none" x="200" y="90">UNREGISTERED</text><g transform="translate(-262,-262) scale(1,1)"><rect fill="#ffffff" stroke="none" x="272" y="272" width="183" height="79"/></g><g transform="translate(-262,-262) scale(1,1)"><path fill="none" stroke="#000000" d="M 272 272 L 455 272 L 455 351 L 272 351 L 272 272 Z Z" stroke-miterlimit="10"/></g><g transform="translate(-262,-262) scale(1,1)"><rect fill="#C0C0C0" stroke="none" x="291" y="293.5" width="19.600000000000023" height="15" opacity="0.2"/></g><g transform="translate(-262,-262) scale(1,1)"><rect fill="#C0C0C0" stroke="none" x="291" y="307.5" width="49" height="25" opacity="0.2"/></g><g transform="translate(-262,-262) scale(1,1)"><rect fill="#ffffff" stroke="none" x="284" y="301.5" width="49" height="24"/></g><g transform="translate(-262,-262) scale(1,1)"><path fill="none" stroke="#000000" d="M 284 301.5 L 333 301.5 L 333 325.5 L 284 325.5 L 284 301.5 Z Z" stroke-miterlimit="10"/></g><g transform="translate(-262,-262) scale(1,1)"><rect fill="#ffffff" stroke="none" x="284" y="286.5" width="19.600000000000023" height="15"/></g><g transform="translate(-262,-262) scale(1,1)"><path fill="none" stroke="#000000" d="M 284 286.5 L 303.6 286.5 L 303.6 301.5 L 284 301.5 L 284 286.5 Z Z" stroke-miterlimit="10"/></g><g transform="translate(-262,-262) scale(1,1)"><rect fill="#ffffff" stroke="none" x="284" y="300.5" width="49" height="25"/></g><g transform="translate(-262,-262) scale(1,1)"><path fill="none" stroke="#000000" d="M 284 300.5 L 333 300.5 L 333 325.5 L 284 325.5 L 284 300.5 Z Z" stroke-miterlimit="10"/></g><g transform="translate(-262,-262) scale(1,1)"><g><path fill="none" stroke="none"/><text fill="#000000" stroke="none" font-family="Arial" font-size="13px" font-style="normal" font-weight="bold" text-decoration="none" x="305.25" y="321">it</text></g></g><g transform="translate(-262,-262) scale(1,1)"><rect fill="#C0C0C0" stroke="none" x="371" y="291" width="71.12451171875" height="44" opacity="0.2"/></g><g transform="translate(-262,-262) scale(1,1)"><rect fill="#ffffff" stroke="none" x="364" y="284" width="71.12451171875" height="44"/></g><g transform="translate(-262,-262) scale(1,1)"><path fill="none" stroke="#000000" d="M 364 284 L 435.12451171875 284 L 435.12451171875 328 L 364 328 L 364 284 Z Z" stroke-miterlimit="10"/></g><g transform="translate(-262,-262) scale(1,1)"><path fill="none" stroke="#000000" d="M 364 309 L 435.12451171875 309" stroke-miterlimit="10"/></g><g transform="translate(-262,-262) scale(1,1)"><path fill="none" stroke="#000000" d="M 364 319 L 435.12451171875 319" stroke-miterlimit="10"/></g><g transform="translate(-262,-262) scale(1,1)"><g><path fill="none" stroke="none"/><text fill="#000000" stroke="none" font-family="Arial" font-size="13px" font-style="normal" font-weight="bold" text-decoration="none" x="371.016845703125" y="303.5">Exception</text></g></g></g></svg>