<svg version="1.1" xmlns="http://www.w3.org/2000/svg" xmlns:xlink="http://www.w3.org/1999/xlink" width="556" height="308"><defs/><g><text fill="#eeeeee" stroke="none" font-family="Arial" font-size="24px" font-style="normal" font-weight="normal" text-decoration="none" x="0" y="0">UNREGISTERED</text><text fill="#eeeeee" stroke="none" font-family="Arial" font-size="24px" font-style="normal" font-weight="normal" text-decoration="none" x="0" y="30">UNREGISTERED</text><text fill="#eeeeee" stroke="none" font-family="Arial" font-size="24px" font-style="normal" font-weight="normal" text-decoration="none" x="0" y="60">UNREGISTERED</text><text fill="#eeeeee" stroke="none" font-family="Arial" font-size="24px" font-style="normal" font-weight="normal" text-decoration="none" x="0" y="90">UNREGISTERED</text><text fill="#eeeeee" stroke="none" font-family="Arial" font-size="24px" font-style="normal" font-weight="normal" text-decoration="none" x="0" y="120">UNREGISTERED</text><text fill="#eeeeee" stroke="none" font-family="Arial" font-size="24px" font-style="normal" font-weight="normal" text-decoration="none" x="0" y="150">UNREGISTERED</text><text fill="#eeeeee" stroke="none" font-family="Arial" font-size="24px" font-style="normal" font-weight="normal" text-decoration="none" x="0" y="180">UNREGISTERED</text><text fill="#eeeeee" stroke="none" font-family="Arial" font-size="24px" font-style="normal" font-weight="normal" text-decoration="none" x="0" y="210">UNREGISTERED</text><text fill="#eeeeee" stroke="none" font-family="Arial" font-size="24px" font-style="normal" font-weight="normal" text-decoration="none" x="0" y="240">UNREGISTERED</text><text fill="#eeeeee" stroke="none" font-family="Arial" font-size="24px" font-style="normal" font-weight="normal" text-decoration="none" x="0" y="270">UNREGISTERED</text><text fill="#eeeeee" stroke="none" font-family="Arial" font-size="24px" font-style="normal" font-weight="normal" text-decoration="none" x="0" y="300">UNREGISTERED</text><text fill="#eeeeee" stroke="none" font-family="Arial" font-size="24px" font-style="normal" font-weight="normal" text-decoration="none" x="200" y="0">UNREGISTERED</text><text fill="#eeeeee" stroke="none" font-family="Arial" font-size="24px" font-style="normal" font-weight="normal" text-decoration="none" x="200" y="30">UNREGISTERED</text><text fill="#eeeeee" stroke="none" font-family="Arial" font-size="24px" font-style="normal" font-weight="normal" text-decoration="none" x="200" y="60">UNREGISTERED</text><text fill="#eeeeee" stroke="none" font-family="Arial" font-size="24px" font-style="normal" font-weight="normal" text-decoration="none" x="200" y="90">UNREGISTERED</text><text fill="#eeeeee" stroke="none" font-family="Arial" font-size="24px" font-style="normal" font-weight="normal" text-decoration="none" x="200" y="120">UNREGISTERED</text><text fill="#eeeeee" stroke="none" font-family="Arial" font-size="24px" font-style="normal" font-weight="normal" text-decoration="none" x="200" y="150">UNREGISTERED</text><text fill="#eeeeee" stroke="none" font-family="Arial" font-size="24px" font-style="normal" font-weight="normal" text-decoration="none" x="200" y="180">UNREGISTERED</text><text fill="#eeeeee" stroke="none" font-family="Arial" font-size="24px" font-style="normal" font-weight="normal" text-decoration="none" x="200" y="210">UNREGISTERED</text><text fill="#eeeeee" stroke="none" font-family="Arial" font-size="24px" font-style="normal" font-weight="normal" text-decoration="none" x="200" y="240">UNREGISTERED</text><text fill="#eeeeee" stroke="none" font-family="Arial" font-size="24px" font-style="normal" font-weight="normal" text-decoration="none" x="200" y="270">UNREGISTERED</text><text fill="#eeeeee" stroke="none" font-family="Arial" font-size="24px" font-style="normal" font-weight="normal" text-decoration="none" x="200" y="300">UNREGISTERED</text><text fill="#eeeeee" stroke="none" font-family="Arial" font-size="24px" font-style="normal" font-weight="normal" text-decoration="none" x="400" y="0">UNREGISTERED</text><text fill="#eeeeee" stroke="none" font-family="Arial" font-size="24px" font-style="normal" font-weight="normal" text-decoration="none" x="400" y="30">UNREGISTERED</text><text fill="#eeeeee" stroke="none" font-family="Arial" font-size="24px" font-style="normal" font-weight="normal" text-decoration="none" x="400" y="60">UNREGISTERED</text><text fill="#eeeeee" stroke="none" font-family="Arial" font-size="24px" font-style="normal" font-weight="normal" text-decoration="none" x="400" y="90">UNREGISTERED</text><text fill="#eeeeee" stroke="none" font-family="Arial" font-size="24px" font-style="normal" font-weight="normal" text-decoration="none" x="400" y="120">UNREGISTERED</text><text fill="#eeeeee" stroke="none" font-family="Arial" font-size="24px" font-style="normal" font-weight="normal" text-decoration="none" x="400" y="150">UNREGISTERED</text><text fill="#eeeeee" stroke="none" font-family="Arial" font-size="24px" font-style="normal" font-weight="normal" text-decoration="none" x="400" y="180">UNREGISTERED</text><text fill="#eeeeee" stroke="none" font-family="Arial" font-size="24px" font-style="normal" font-weight="normal" text-decoration="none" x="400" y="210">UNREGISTERED</text><text fill="#eeeeee" stroke="none" font-family="Arial" font-size="24px" font-style="normal" font-weight="normal" text-decoration="none" x="400" y="240">UNREGISTERED</text><text fill="#eeeeee" stroke="none" font-family="Arial" font-size="24px" font-style="normal" font-weight="normal" text-decoration="none" x="400" y="270">UNREGISTERED</text><text fill="#eeeeee" stroke="none" font-family="Arial" font-size="24px" font-style="normal" font-weight="normal" text-decoration="none" x="400" y="300">UNREGISTERED</text><g transform="translate(-78,-6) scale(1,1)"><rect fill="#ffffff" stroke="none" x="88" y="16" width="536" height="288"/></g><g transform="translate(-78,-6) scale(1,1)"><path fill="none" stroke="#000000" d="M 88 16 L 624 16 L 624 304 L 88 304 L 88 16 Z Z" stroke-miterlimit="10"/></g><g transform="translate(-78,-6) scale(1,1)"><rect fill="#C0C0C0" stroke="none" x="103" y="39" width="204.8" height="15" opacity="0.2"/></g><g transform="translate(-78,-6) scale(1,1)"><rect fill="#C0C0C0" stroke="none" x="103" y="53" width="512" height="25" opacity="0.2"/></g><g transform="translate(-78,-6) scale(1,1)"><rect fill="#ffffff" stroke="none" x="96" y="47" width="512" height="24"/></g><g transform="translate(-78,-6) scale(1,1)"><path fill="none" stroke="#000000" d="M 96 47 L 608 47 L 608 71 L 96 71 L 96 47 Z Z" stroke-miterlimit="10"/></g><g transform="translate(-78,-6) scale(1,1)"><rect fill="#ffffff" stroke="none" x="96" y="32" width="204.8" height="15"/></g><g transform="translate(-78,-6) scale(1,1)"><path fill="none" stroke="#000000" d="M 96 32 L 300.8 32 L 300.8 47 L 96 47 L 96 32 Z Z" stroke-miterlimit="10"/></g><g transform="translate(-78,-6) scale(1,1)"><rect fill="#ffffff" stroke="none" x="96" y="46" width="512" height="25"/></g><g transform="translate(-78,-6) scale(1,1)"><path fill="none" stroke="#000000" d="M 96 46 L 608 46 L 608 71 L 96 71 L 96 46 Z Z" stroke-miterlimit="10"/></g><g transform="translate(-78,-6) scale(1,1)"><g><path fill="none" stroke="none"/><text fill="#000000" stroke="none" font-family="Arial" font-size="13px" font-style="normal" font-weight="bold" text-decoration="none" x="256.629638671875" y="66.5">it.univpm.pressurestats.controller</text></g></g><g transform="translate(-78,-6) scale(1,1)"><rect fill="#C0C0C0" stroke="none" x="103" y="127" width="515.13037109375" height="160" opacity="0.2"/></g><g transform="translate(-78,-6) scale(1,1)"><rect fill="#ffffff" stroke="none" x="96" y="120" width="515.13037109375" height="160"/></g><g transform="translate(-78,-6) scale(1,1)"><path fill="none" stroke="#000000" d="M 96 120 L 611.13037109375 120 L 611.13037109375 280 L 96 280 L 96 120 Z Z" stroke-miterlimit="10"/></g><g transform="translate(-78,-6) scale(1,1)"><path fill="none" stroke="#000000" d="M 96 145 L 611.13037109375 145" stroke-miterlimit="10"/></g><g transform="translate(-78,-6) scale(1,1)"><path fill="none" stroke="#000000" d="M 96 183 L 611.13037109375 183" stroke-miterlimit="10"/></g><g transform="translate(-78,-6) scale(1,1)"><g><path fill="none" stroke="none"/><text fill="#000000" stroke="none" font-family="Arial" font-size="13px" font-style="normal" font-weight="bold" text-decoration="none" x="325.387939453125" y="139.5">Controller</text></g></g><g transform="translate(-78,-6) scale(1,1)"><g><path fill="none" stroke="none"/><text fill="#000000" stroke="none" font-family="Arial" font-size="13px" font-style="normal" font-weight="normal" text-decoration="none" x="101" y="162.5">-ws: Service</text></g></g><g transform="translate(-78,-6) scale(1,1)"><g><path fill="none" stroke="none"/><text fill="#000000" stroke="none" font-family="Arial" font-size="13px" font-style="normal" font-weight="normal" text-decoration="none" x="101" y="177.5">-statistics: Statistics</text></g></g><g transform="translate(-78,-6) scale(1,1)"><g><path fill="none" stroke="none"/><text fill="#000000" stroke="none" font-family="Arial" font-size="13px" font-style="normal" font-weight="normal" text-decoration="none" x="101" y="200.5">+getForecast(id: String): ResponseEntity &lt;Object&gt;</text></g></g><g transform="translate(-78,-6) scale(1,1)"><g><path fill="none" stroke="none"/><text fill="#000000" stroke="none" font-family="Arial" font-size="13px" font-style="normal" font-weight="normal" text-decoration="none" x="101" y="215.5">+getStatisticsHourly(city: String, date: String, from: int, to: int): ResponseEntity &lt;Object&gt;</text></g></g><g transform="translate(-78,-6) scale(1,1)"><g><path fill="none" stroke="none"/><text fill="#000000" stroke="none" font-family="Arial" font-size="13px" font-style="normal" font-weight="normal" text-decoration="none" x="101" y="230.5">+getStatisticsMoreDays(city: String, days: int): ResponseEntity &lt;Object&gt;</text></g></g><g transform="translate(-78,-6) scale(1,1)"><g><path fill="none" stroke="none"/><text fill="#000000" stroke="none" font-family="Arial" font-size="13px" font-style="normal" font-weight="normal" text-decoration="none" x="101" y="245.5">+getStatisticsOneDay(city: String, date: String): ResponseEntity &lt;Object&gt;</text></g></g><g transform="translate(-78,-6) scale(1,1)"><g><path fill="none" stroke="none"/><text fill="#000000" stroke="none" font-family="Arial" font-size="13px" font-style="normal" font-weight="normal" text-decoration="none" x="101" y="260.5">+saveToFileHourly(id: string): String</text></g></g><g transform="translate(-78,-6) scale(1,1)"><g><path fill="none" stroke="none"/><text fill="#000000" stroke="none" font-family="Arial" font-size="13px" font-style="normal" font-weight="normal" text-decoration="none" x="101" y="275.5">+saveToFileHourly(): String</text></g></g></g></svg>