<svg version="1.1" xmlns="http://www.w3.org/2000/svg" xmlns:xlink="http://www.w3.org/1999/xlink" width="732" height="292"><defs/><g><text fill="#eeeeee" stroke="none" font-family="Arial" font-size="24px" font-style="normal" font-weight="normal" text-decoration="none" x="0" y="0">UNREGISTERED</text><text fill="#eeeeee" stroke="none" font-family="Arial" font-size="24px" font-style="normal" font-weight="normal" text-decoration="none" x="0" y="30">UNREGISTERED</text><text fill="#eeeeee" stroke="none" font-family="Arial" font-size="24px" font-style="normal" font-weight="normal" text-decoration="none" x="0" y="60">UNREGISTERED</text><text fill="#eeeeee" stroke="none" font-family="Arial" font-size="24px" font-style="normal" font-weight="normal" text-decoration="none" x="0" y="90">UNREGISTERED</text><text fill="#eeeeee" stroke="none" font-family="Arial" font-size="24px" font-style="normal" font-weight="normal" text-decoration="none" x="0" y="120">UNREGISTERED</text><text fill="#eeeeee" stroke="none" font-family="Arial" font-size="24px" font-style="normal" font-weight="normal" text-decoration="none" x="0" y="150">UNREGISTERED</text><text fill="#eeeeee" stroke="none" font-family="Arial" font-size="24px" font-style="normal" font-weight="normal" text-decoration="none" x="0" y="180">UNREGISTERED</text><text fill="#eeeeee" stroke="none" font-family="Arial" font-size="24px" font-style="normal" font-weight="normal" text-decoration="none" x="0" y="210">UNREGISTERED</text><text fill="#eeeeee" stroke="none" font-family="Arial" font-size="24px" font-style="normal" font-weight="normal" text-decoration="none" x="0" y="240">UNREGISTERED</text><text fill="#eeeeee" stroke="none" font-family="Arial" font-size="24px" font-style="normal" font-weight="normal" text-decoration="none" x="0" y="270">UNREGISTERED</text><text fill="#eeeeee" stroke="none" font-family="Arial" font-size="24px" font-style="normal" font-weight="normal" text-decoration="none" x="200" y="0">UNREGISTERED</text><text fill="#eeeeee" stroke="none" font-family="Arial" font-size="24px" font-style="normal" font-weight="normal" text-decoration="none" x="200" y="30">UNREGISTERED</text><text fill="#eeeeee" stroke="none" font-family="Arial" font-size="24px" font-style="normal" font-weight="normal" text-decoration="none" x="200" y="60">UNREGISTERED</text><text fill="#eeeeee" stroke="none" font-family="Arial" font-size="24px" font-style="normal" font-weight="normal" text-decoration="none" x="200" y="90">UNREGISTERED</text><text fill="#eeeeee" stroke="none" font-family="Arial" font-size="24px" font-style="normal" font-weight="normal" text-decoration="none" x="200" y="120">UNREGISTERED</text><text fill="#eeeeee" stroke="none" font-family="Arial" font-size="24px" font-style="normal" font-weight="normal" text-decoration="none" x="200" y="150">UNREGISTERED</text><text fill="#eeeeee" stroke="none" font-family="Arial" font-size="24px" font-style="normal" font-weight="normal" text-decoration="none" x="200" y="180">UNREGISTERED</text><text fill="#eeeeee" stroke="none" font-family="Arial" font-size="24px" font-style="normal" font-weight="normal" text-decoration="none" x="200" y="210">UNREGISTERED</text><text fill="#eeeeee" stroke="none" font-family="Arial" font-size="24px" font-style="normal" font-weight="normal" text-decoration="none" x="200" y="240">UNREGISTERED</text><text fill="#eeeeee" stroke="none" font-family="Arial" font-size="24px" font-style="normal" font-weight="normal" text-decoration="none" x="200" y="270">UNREGISTERED</text><text fill="#eeeeee" stroke="none" font-family="Arial" font-size="24px" font-style="normal" font-weight="normal" text-decoration="none" x="400" y="0">UNREGISTERED</text><text fill="#eeeeee" stroke="none" font-family="Arial" font-size="24px" font-style="normal" font-weight="normal" text-decoration="none" x="400" y="30">UNREGISTERED</text><text fill="#eeeeee" stroke="none" font-family="Arial" font-size="24px" font-style="normal" font-weight="normal" text-decoration="none" x="400" y="60">UNREGISTERED</text><text fill="#eeeeee" stroke="none" font-family="Arial" font-size="24px" font-style="normal" font-weight="normal" text-decoration="none" x="400" y="90">UNREGISTERED</text><text fill="#eeeeee" stroke="none" font-family="Arial" font-size="24px" font-style="normal" font-weight="normal" text-decoration="none" x="400" y="120">UNREGISTERED</text><text fill="#eeeeee" stroke="none" font-family="Arial" font-size="24px" font-style="normal" font-weight="normal" text-decoration="none" x="400" y="150">UNREGISTERED</text><text fill="#eeeeee" stroke="none" font-family="Arial" font-size="24px" font-style="normal" font-weight="normal" text-decoration="none" x="400" y="180">UNREGISTERED</text><text fill="#eeeeee" stroke="none" font-family="Arial" font-size="24px" font-style="normal" font-weight="normal" text-decoration="none" x="400" y="210">UNREGISTERED</text><text fill="#eeeeee" stroke="none" font-family="Arial" font-size="24px" font-style="normal" font-weight="normal" text-decoration="none" x="400" y="240">UNREGISTERED</text><text fill="#eeeeee" stroke="none" font-family="Arial" font-size="24px" font-style="normal" font-weight="normal" text-decoration="none" x="400" y="270">UNREGISTERED</text><text fill="#eeeeee" stroke="none" font-family="Arial" font-size="24px" font-style="normal" font-weight="normal" text-decoration="none" x="600" y="0">UNREGISTERED</text><text fill="#eeeeee" stroke="none" font-family="Arial" font-size="24px" font-style="normal" font-weight="normal" text-decoration="none" x="600" y="30">UNREGISTERED</text><text fill="#eeeeee" stroke="none" font-family="Arial" font-size="24px" font-style="normal" font-weight="normal" text-decoration="none" x="600" y="60">UNREGISTERED</text><text fill="#eeeeee" stroke="none" font-family="Arial" font-size="24px" font-style="normal" font-weight="normal" text-decoration="none" x="600" y="90">UNREGISTERED</text><text fill="#eeeeee" stroke="none" font-family="Arial" font-size="24px" font-style="normal" font-weight="normal" text-decoration="none" x="600" y="120">UNREGISTERED</text><text fill="#eeeeee" stroke="none" font-family="Arial" font-size="24px" font-style="normal" font-weight="normal" text-decoration="none" x="600" y="150">UNREGISTERED</text><text fill="#eeeeee" stroke="none" font-family="Arial" font-size="24px" font-style="normal" font-weight="normal" text-decoration="none" x="600" y="180">UNREGISTERED</text><text fill="#eeeeee" stroke="none" font-family="Arial" font-size="24px" font-style="normal" font-weight="normal" text-decoration="none" x="600" y="210">UNREGISTERED</text><text fill="#eeeeee" stroke="none" font-family="Arial" font-size="24px" font-style="normal" font-weight="normal" text-decoration="none" x="600" y="240">UNREGISTERED</text><text fill="#eeeeee" stroke="none" font-family="Arial" font-size="24px" font-style="normal" font-weight="normal" text-decoration="none" x="600" y="270">UNREGISTERED</text><g transform="translate(-102,-198) scale(1,1)"><rect fill="#ffffff" stroke="none" x="112" y="208" width="712" height="272"/></g><g transform="translate(-102,-198) scale(1,1)"><path fill="none" stroke="#000000" d="M 112 208 L 824 208 L 824 480 L 112 480 L 112 208 Z Z" stroke-miterlimit="10"/></g><g transform="translate(-102,-198) scale(1,1)"><rect fill="#C0C0C0" stroke="none" x="135" y="311" width="300.509765625" height="175" opacity="0.2"/></g><g transform="translate(-102,-198) scale(1,1)"><rect fill="#ffffff" stroke="none" x="128" y="304" width="300.509765625" height="175"/></g><g transform="translate(-102,-198) scale(1,1)"><path fill="none" stroke="#000000" d="M 128 304 L 428.509765625 304 L 428.509765625 479 L 128 479 L 128 304 Z Z" stroke-miterlimit="10"/></g><g transform="translate(-102,-198) scale(1,1)"><path fill="none" stroke="#000000" d="M 128 329 L 428.509765625 329" stroke-miterlimit="10"/></g><g transform="translate(-102,-198) scale(1,1)"><path fill="none" stroke="#000000" d="M 128 397 L 428.509765625 397" stroke-miterlimit="10"/></g><g transform="translate(-102,-198) scale(1,1)"><g><path fill="none" stroke="none"/><text fill="#000000" stroke="none" font-family="Arial" font-size="13px" font-style="normal" font-weight="bold" text-decoration="none" x="252.24853515625" y="323.5">Statistics</text></g></g><g transform="translate(-102,-198) scale(1,1)"><g><path fill="none" stroke="none"/><text fill="#000000" stroke="none" font-family="Arial" font-size="13px" font-style="normal" font-weight="normal" text-decoration="none" x="133" y="346.5">-stats: JSONArray</text></g></g><g transform="translate(-102,-198) scale(1,1)"><g><path fill="none" stroke="none"/><text fill="#000000" stroke="none" font-family="Arial" font-size="13px" font-style="normal" font-weight="normal" text-decoration="none" x="133" y="361.5">-od: Filters</text></g></g><g transform="translate(-102,-198) scale(1,1)"><g><path fill="none" stroke="none"/><text fill="#000000" stroke="none" font-family="Arial" font-size="13px" font-style="normal" font-weight="normal" text-decoration="none" x="133" y="376.5">-city: String</text></g></g><g transform="translate(-102,-198) scale(1,1)"><g><path fill="none" stroke="none"/><text fill="#000000" stroke="none" font-family="Arial" font-size="13px" font-style="normal" font-weight="normal" text-decoration="none" x="133" y="391.5">-date: String</text></g></g><g transform="translate(-102,-198) scale(1,1)"><g><path fill="none" stroke="none"/><text fill="#000000" stroke="none" font-family="Arial" font-size="13px" font-style="normal" font-weight="normal" text-decoration="none" x="133" y="414.5">+Statistics(city: String, numDays: int)</text></g></g><g transform="translate(-102,-198) scale(1,1)"><g><path fill="none" stroke="none"/><text fill="#000000" stroke="none" font-family="Arial" font-size="13px" font-style="normal" font-weight="normal" text-decoration="none" x="133" y="429.5">+Statistics(city: String, day: String)</text></g></g><g transform="translate(-102,-198) scale(1,1)"><g><path fill="none" stroke="none"/><text fill="#000000" stroke="none" font-family="Arial" font-size="13px" font-style="normal" font-weight="normal" text-decoration="none" x="133" y="444.5">+Statistics(city: String, day: String, from: int, to: int)</text></g></g><g transform="translate(-102,-198) scale(1,1)"><g><path fill="none" stroke="none"/><text fill="#000000" stroke="none" font-family="Arial" font-size="13px" font-style="normal" font-weight="normal" text-decoration="none" x="133" y="459.5">+stats(): JSONObject</text></g></g><g transform="translate(-102,-198) scale(1,1)"><g><path fill="none" stroke="none"/><text fill="#000000" stroke="none" font-family="Arial" font-size="13px" font-style="normal" font-weight="normal" text-decoration="none" x="133" y="474.5">+saveToFile(object: JSONObject): void</text></g></g><g transform="translate(-102,-198) scale(1,1)"><rect fill="#C0C0C0" stroke="none" x="463" y="311" width="356.85791015625" height="87" opacity="0.2"/></g><g transform="translate(-102,-198) scale(1,1)"><rect fill="#ffffff" stroke="none" x="456" y="304" width="356.85791015625" height="87"/></g><g transform="translate(-102,-198) scale(1,1)"><path fill="none" stroke="#000000" d="M 456 304 L 812.85791015625 304 L 812.85791015625 391 L 456 391 L 456 304 Z Z" stroke-miterlimit="10"/></g><g transform="translate(-102,-198) scale(1,1)"><path fill="none" stroke="#000000" d="M 456 329 L 812.85791015625 329" stroke-miterlimit="10"/></g><g transform="translate(-102,-198) scale(1,1)"><path fill="none" stroke="#000000" d="M 456 339 L 812.85791015625 339" stroke-miterlimit="10"/></g><g transform="translate(-102,-198) scale(1,1)"><g><path fill="none" stroke="none"/><text fill="#000000" stroke="none" font-family="Arial" font-size="13px" font-style="normal" font-weight="bold" text-decoration="none" x="616.73486328125" y="323.5">Filters</text></g></g><g transform="translate(-102,-198) scale(1,1)"><g><path fill="none" stroke="none"/><text fill="#000000" stroke="none" font-family="Arial" font-size="13px" font-style="normal" font-weight="normal" text-decoration="none" x="461" y="356.5">+hourly(city: String, day: String, from: int, to: int): JSONArray</text></g></g><g transform="translate(-102,-198) scale(1,1)"><g><path fill="none" stroke="none"/><text fill="#000000" stroke="none" font-family="Arial" font-size="13px" font-style="normal" font-weight="normal" text-decoration="none" x="461" y="371.5">+moreDayWeather(city: String, numDays: int)</text></g></g><g transform="translate(-102,-198) scale(1,1)"><g><path fill="none" stroke="none"/><text fill="#000000" stroke="none" font-family="Arial" font-size="13px" font-style="normal" font-weight="normal" text-decoration="none" x="461" y="386.5">+oneDayWeather(city: String, day: String)</text></g></g><g transform="translate(-102,-198) scale(1,1)"><rect fill="#C0C0C0" stroke="none" x="135" y="223" width="272" height="15" opacity="0.2"/></g><g transform="translate(-102,-198) scale(1,1)"><rect fill="#C0C0C0" stroke="none" x="135" y="237" width="680" height="25" opacity="0.2"/></g><g transform="translate(-102,-198) scale(1,1)"><rect fill="#ffffff" stroke="none" x="128" y="231" width="680" height="24"/></g><g transform="translate(-102,-198) scale(1,1)"><path fill="none" stroke="#000000" d="M 128 231 L 808 231 L 808 255 L 128 255 L 128 231 Z Z" stroke-miterlimit="10"/></g><g transform="translate(-102,-198) scale(1,1)"><rect fill="#ffffff" stroke="none" x="128" y="216" width="272" height="15"/></g><g transform="translate(-102,-198) scale(1,1)"><path fill="none" stroke="#000000" d="M 128 216 L 400 216 L 400 231 L 128 231 L 128 216 Z Z" stroke-miterlimit="10"/></g><g transform="translate(-102,-198) scale(1,1)"><rect fill="#ffffff" stroke="none" x="128" y="230" width="680" height="25"/></g><g transform="translate(-102,-198) scale(1,1)"><path fill="none" stroke="#000000" d="M 128 230 L 808 230 L 808 255 L 128 255 L 128 230 Z Z" stroke-miterlimit="10"/></g><g transform="translate(-102,-198) scale(1,1)"><g><path fill="none" stroke="none"/><text fill="#000000" stroke="none" font-family="Arial" font-size="13px" font-style="normal" font-weight="bold" text-decoration="none" x="374.44189453125" y="250.5">it.univpm.pressurestats.statistics</text></g></g></g></svg>