<svg version="1.1" xmlns="http://www.w3.org/2000/svg" xmlns:xlink="http://www.w3.org/1999/xlink" width="819" height="467"><defs/><g><text fill="#eeeeee" stroke="none" font-family="Arial" font-size="24px" font-style="normal" font-weight="normal" text-decoration="none" x="0" y="0">UNREGISTERED</text><text fill="#eeeeee" stroke="none" font-family="Arial" font-size="24px" font-style="normal" font-weight="normal" text-decoration="none" x="0" y="30">UNREGISTERED</text><text fill="#eeeeee" stroke="none" font-family="Arial" font-size="24px" font-style="normal" font-weight="normal" text-decoration="none" x="0" y="60">UNREGISTERED</text><text fill="#eeeeee" stroke="none" font-family="Arial" font-size="24px" font-style="normal" font-weight="normal" text-decoration="none" x="0" y="90">UNREGISTERED</text><text fill="#eeeeee" stroke="none" font-family="Arial" font-size="24px" font-style="normal" font-weight="normal" text-decoration="none" x="0" y="120">UNREGISTERED</text><text fill="#eeeeee" stroke="none" font-family="Arial" font-size="24px" font-style="normal" font-weight="normal" text-decoration="none" x="0" y="150">UNREGISTERED</text><text fill="#eeeeee" stroke="none" font-family="Arial" font-size="24px" font-style="normal" font-weight="normal" text-decoration="none" x="0" y="180">UNREGISTERED</text><text fill="#eeeeee" stroke="none" font-family="Arial" font-size="24px" font-style="normal" font-weight="normal" text-decoration="none" x="0" y="210">UNREGISTERED</text><text fill="#eeeeee" stroke="none" font-family="Arial" font-size="24px" font-style="normal" font-weight="normal" text-decoration="none" x="0" y="240">UNREGISTERED</text><text fill="#eeeeee" stroke="none" font-family="Arial" font-size="24px" font-style="normal" font-weight="normal" text-decoration="none" x="0" y="270">UNREGISTERED</text><text fill="#eeeeee" stroke="none" font-family="Arial" font-size="24px" font-style="normal" font-weight="normal" text-decoration="none" x="0" y="300">UNREGISTERED</text><text fill="#eeeeee" stroke="none" font-family="Arial" font-size="24px" font-style="normal" font-weight="normal" text-decoration="none" x="0" y="330">UNREGISTERED</text><text fill="#eeeeee" stroke="none" font-family="Arial" font-size="24px" font-style="normal" font-weight="normal" text-decoration="none" x="0" y="360">UNREGISTERED</text><text fill="#eeeeee" stroke="none" font-family="Arial" font-size="24px" font-style="normal" font-weight="normal" text-decoration="none" x="0" y="390">UNREGISTERED</text><text fill="#eeeeee" stroke="none" font-family="Arial" font-size="24px" font-style="normal" font-weight="normal" text-decoration="none" x="0" y="420">UNREGISTERED</text><text fill="#eeeeee" stroke="none" font-family="Arial" font-size="24px" font-style="normal" font-weight="normal" text-decoration="none" x="0" y="450">UNREGISTERED</text><text fill="#eeeeee" stroke="none" font-family="Arial" font-size="24px" font-style="normal" font-weight="normal" text-decoration="none" x="200" y="0">UNREGISTERED</text><text fill="#eeeeee" stroke="none" font-family="Arial" font-size="24px" font-style="normal" font-weight="normal" text-decoration="none" x="200" y="30">UNREGISTERED</text><text fill="#eeeeee" stroke="none" font-family="Arial" font-size="24px" font-style="normal" font-weight="normal" text-decoration="none" x="200" y="60">UNREGISTERED</text><text fill="#eeeeee" stroke="none" font-family="Arial" font-size="24px" font-style="normal" font-weight="normal" text-decoration="none" x="200" y="90">UNREGISTERED</text><text fill="#eeeeee" stroke="none" font-family="Arial" font-size="24px" font-style="normal" font-weight="normal" text-decoration="none" x="200" y="120">UNREGISTERED</text><text fill="#eeeeee" stroke="none" font-family="Arial" font-size="24px" font-style="normal" font-weight="normal" text-decoration="none" x="200" y="150">UNREGISTERED</text><text fill="#eeeeee" stroke="none" font-family="Arial" font-size="24px" font-style="normal" font-weight="normal" text-decoration="none" x="200" y="180">UNREGISTERED</text><text fill="#eeeeee" stroke="none" font-family="Arial" font-size="24px" font-style="normal" font-weight="normal" text-decoration="none" x="200" y="210">UNREGISTERED</text><text fill="#eeeeee" stroke="none" font-family="Arial" font-size="24px" font-style="normal" font-weight="normal" text-decoration="none" x="200" y="240">UNREGISTERED</text><text fill="#eeeeee" stroke="none" font-family="Arial" font-size="24px" font-style="normal" font-weight="normal" text-decoration="none" x="200" y="270">UNREGISTERED</text><text fill="#eeeeee" stroke="none" font-family="Arial" font-size="24px" font-style="normal" font-weight="normal" text-decoration="none" x="200" y="300">UNREGISTERED</text><text fill="#eeeeee" stroke="none" font-family="Arial" font-size="24px" font-style="normal" font-weight="normal" text-decoration="none" x="200" y="330">UNREGISTERED</text><text fill="#eeeeee" stroke="none" font-family="Arial" font-size="24px" font-style="normal" font-weight="normal" text-decoration="none" x="200" y="360">UNREGISTERED</text><text fill="#eeeeee" stroke="none" font-family="Arial" font-size="24px" font-style="normal" font-weight="normal" text-decoration="none" x="200" y="390">UNREGISTERED</text><text fill="#eeeeee" stroke="none" font-family="Arial" font-size="24px" font-style="normal" font-weight="normal" text-decoration="none" x="200" y="420">UNREGISTERED</text><text fill="#eeeeee" stroke="none" font-family="Arial" font-size="24px" font-style="normal" font-weight="normal" text-decoration="none" x="200" y="450">UNREGISTERED</text><text fill="#eeeeee" stroke="none" font-family="Arial" font-size="24px" font-style="normal" font-weight="normal" text-decoration="none" x="400" y="0">UNREGISTERED</text><text fill="#eeeeee" stroke="none" font-family="Arial" font-size="24px" font-style="normal" font-weight="normal" text-decoration="none" x="400" y="30">UNREGISTERED</text><text fill="#eeeeee" stroke="none" font-family="Arial" font-size="24px" font-style="normal" font-weight="normal" text-decoration="none" x="400" y="60">UNREGISTERED</text><text fill="#eeeeee" stroke="none" font-family="Arial" font-size="24px" font-style="normal" font-weight="normal" text-decoration="none" x="400" y="90">UNREGISTERED</text><text fill="#eeeeee" stroke="none" font-family="Arial" font-size="24px" font-style="normal" font-weight="normal" text-decoration="none" x="400" y="120">UNREGISTERED</text><text fill="#eeeeee" stroke="none" font-family="Arial" font-size="24px" font-style="normal" font-weight="normal" text-decoration="none" x="400" y="150">UNREGISTERED</text><text fill="#eeeeee" stroke="none" font-family="Arial" font-size="24px" font-style="normal" font-weight="normal" text-decoration="none" x="400" y="180">UNREGISTERED</text><text fill="#eeeeee" stroke="none" font-family="Arial" font-size="24px" font-style="normal" font-weight="normal" text-decoration="none" x="400" y="210">UNREGISTERED</text><text fill="#eeeeee" stroke="none" font-family="Arial" font-size="24px" font-style="normal" font-weight="normal" text-decoration="none" x="400" y="240">UNREGISTERED</text><text fill="#eeeeee" stroke="none" font-family="Arial" font-size="24px" font-style="normal" font-weight="normal" text-decoration="none" x="400" y="270">UNREGISTERED</text><text fill="#eeeeee" stroke="none" font-family="Arial" font-size="24px" font-style="normal" font-weight="normal" text-decoration="none" x="400" y="300">UNREGISTERED</text><text fill="#eeeeee" stroke="none" font-family="Arial" font-size="24px" font-style="normal" font-weight="normal" text-decoration="none" x="400" y="330">UNREGISTERED</text><text fill="#eeeeee" stroke="none" font-family="Arial" font-size="24px" font-style="normal" font-weight="normal" text-decoration="none" x="400" y="360">UNREGISTERED</text><text fill="#eeeeee" stroke="none" font-family="Arial" font-size="24px" font-style="normal" font-weight="normal" text-decoration="none" x="400" y="390">UNREGISTERED</text><text fill="#eeeeee" stroke="none" font-family="Arial" font-size="24px" font-style="normal" font-weight="normal" text-decoration="none" x="400" y="420">UNREGISTERED</text><text fill="#eeeeee" stroke="none" font-family="Arial" font-size="24px" font-style="normal" font-weight="normal" text-decoration="none" x="400" y="450">UNREGISTERED</text><text fill="#eeeeee" stroke="none" font-family="Arial" font-size="24px" font-style="normal" font-weight="normal" text-decoration="none" x="600" y="0">UNREGISTERED</text><text fill="#eeeeee" stroke="none" font-family="Arial" font-size="24px" font-style="normal" font-weight="normal" text-decoration="none" x="600" y="30">UNREGISTERED</text><text fill="#eeeeee" stroke="none" font-family="Arial" font-size="24px" font-style="normal" font-weight="normal" text-decoration="none" x="600" y="60">UNREGISTERED</text><text fill="#eeeeee" stroke="none" font-family="Arial" font-size="24px" font-style="normal" font-weight="normal" text-decoration="none" x="600" y="90">UNREGISTERED</text><text fill="#eeeeee" stroke="none" font-family="Arial" font-size="24px" font-style="normal" font-weight="normal" text-decoration="none" x="600" y="120">UNREGISTERED</text><text fill="#eeeeee" stroke="none" font-family="Arial" font-size="24px" font-style="normal" font-weight="normal" text-decoration="none" x="600" y="150">UNREGISTERED</text><text fill="#eeeeee" stroke="none" font-family="Arial" font-size="24px" font-style="normal" font-weight="normal" text-decoration="none" x="600" y="180">UNREGISTERED</text><text fill="#eeeeee" stroke="none" font-family="Arial" font-size="24px" font-style="normal" font-weight="normal" text-decoration="none" x="600" y="210">UNREGISTERED</text><text fill="#eeeeee" stroke="none" font-family="Arial" font-size="24px" font-style="normal" font-weight="normal" text-decoration="none" x="600" y="240">UNREGISTERED</text><text fill="#eeeeee" stroke="none" font-family="Arial" font-size="24px" font-style="normal" font-weight="normal" text-decoration="none" x="600" y="270">UNREGISTERED</text><text fill="#eeeeee" stroke="none" font-family="Arial" font-size="24px" font-style="normal" font-weight="normal" text-decoration="none" x="600" y="300">UNREGISTERED</text><text fill="#eeeeee" stroke="none" font-family="Arial" font-size="24px" font-style="normal" font-weight="normal" text-decoration="none" x="600" y="330">UNREGISTERED</text><text fill="#eeeeee" stroke="none" font-family="Arial" font-size="24px" font-style="normal" font-weight="normal" text-decoration="none" x="600" y="360">UNREGISTERED</text><text fill="#eeeeee" stroke="none" font-family="Arial" font-size="24px" font-style="normal" font-weight="normal" text-decoration="none" x="600" y="390">UNREGISTERED</text><text fill="#eeeeee" stroke="none" font-family="Arial" font-size="24px" font-style="normal" font-weight="normal" text-decoration="none" x="600" y="420">UNREGISTERED</text><text fill="#eeeeee" stroke="none" font-family="Arial" font-size="24px" font-style="normal" font-weight="normal" text-decoration="none" x="600" y="450">UNREGISTERED</text><text fill="#eeeeee" stroke="none" font-family="Arial" font-size="24px" font-style="normal" font-weight="normal" text-decoration="none" x="800" y="0">UNREGISTERED</text><text fill="#eeeeee" stroke="none" font-family="Arial" font-size="24px" font-style="normal" font-weight="normal" text-decoration="none" x="800" y="30">UNREGISTERED</text><text fill="#eeeeee" stroke="none" font-family="Arial" font-size="24px" font-style="normal" font-weight="normal" text-decoration="none" x="800" y="60">UNREGISTERED</text><text fill="#eeeeee" stroke="none" font-family="Arial" font-size="24px" font-style="normal" font-weight="normal" text-decoration="none" x="800" y="90">UNREGISTERED</text><text fill="#eeeeee" stroke="none" font-family="Arial" font-size="24px" font-style="normal" font-weight="normal" text-decoration="none" x="800" y="120">UNREGISTERED</text><text fill="#eeeeee" stroke="none" font-family="Arial" font-size="24px" font-style="normal" font-weight="normal" text-decoration="none" x="800" y="150">UNREGISTERED</text><text fill="#eeeeee" stroke="none" font-family="Arial" font-size="24px" font-style="normal" font-weight="normal" text-decoration="none" x="800" y="180">UNREGISTERED</text><text fill="#eeeeee" stroke="none" font-family="Arial" font-size="24px" font-style="normal" font-weight="normal" text-decoration="none" x="800" y="210">UNREGISTERED</text><text fill="#eeeeee" stroke="none" font-family="Arial" font-size="24px" font-style="normal" font-weight="normal" text-decoration="none" x="800" y="240">UNREGISTERED</text><text fill="#eeeeee" stroke="none" font-family="Arial" font-size="24px" font-style="normal" font-weight="normal" text-decoration="none" x="800" y="270">UNREGISTERED</text><text fill="#eeeeee" stroke="none" font-family="Arial" font-size="24px" font-style="normal" font-weight="normal" text-decoration="none" x="800" y="300">UNREGISTERED</text><text fill="#eeeeee" stroke="none" font-family="Arial" font-size="24px" font-style="normal" font-weight="normal" text-decoration="none" x="800" y="330">UNREGISTERED</text><text fill="#eeeeee" stroke="none" font-family="Arial" font-size="24px" font-style="normal" font-weight="normal" text-decoration="none" x="800" y="360">UNREGISTERED</text><text fill="#eeeeee" stroke="none" font-family="Arial" font-size="24px" font-style="normal" font-weight="normal" text-decoration="none" x="800" y="390">UNREGISTERED</text><text fill="#eeeeee" stroke="none" font-family="Arial" font-size="24px" font-style="normal" font-weight="normal" text-decoration="none" x="800" y="420">UNREGISTERED</text><text fill="#eeeeee" stroke="none" font-family="Arial" font-size="24px" font-style="normal" font-weight="normal" text-decoration="none" x="800" y="450">UNREGISTERED</text><g transform="translate(-214,-166) scale(1,1)"><rect fill="#ffffff" stroke="none" x="224" y="176" width="799" height="447"/></g><g transform="translate(-214,-166) scale(1,1)"><path fill="none" stroke="#000000" d="M 224 176 L 1023 176 L 1023 623 L 224 623 L 224 176 Z Z" stroke-miterlimit="10"/></g><g transform="translate(-214,-166) scale(1,1)"><rect fill="#C0C0C0" stroke="none" x="319" y="191" width="27.581445312500023" height="15" opacity="0.2"/></g><g transform="translate(-214,-166) scale(1,1)"><rect fill="#C0C0C0" stroke="none" x="319" y="205" width="68.95361328125" height="25" opacity="0.2"/></g><g transform="translate(-214,-166) scale(1,1)"><rect fill="#ffffff" stroke="none" x="312" y="199" width="68.95361328125" height="24"/></g><g transform="translate(-214,-166) scale(1,1)"><path fill="none" stroke="#000000" d="M 312 199 L 380.95361328125 199 L 380.95361328125 223 L 312 223 L 312 199 Z Z" stroke-miterlimit="10"/></g><g transform="translate(-214,-166) scale(1,1)"><rect fill="#ffffff" stroke="none" x="312" y="184" width="27.581445312500023" height="15"/></g><g transform="translate(-214,-166) scale(1,1)"><path fill="none" stroke="#000000" d="M 312 184 L 339.5814453125 184 L 339.5814453125 199 L 312 199 L 312 184 Z Z" stroke-miterlimit="10"/></g><g transform="translate(-214,-166) scale(1,1)"><rect fill="#ffffff" stroke="none" x="312" y="198" width="68.95361328125" height="25"/></g><g transform="translate(-214,-166) scale(1,1)"><path fill="none" stroke="#000000" d="M 312 198 L 380.95361328125 198 L 380.95361328125 223 L 312 223 L 312 198 Z Z" stroke-miterlimit="10"/></g><g transform="translate(-214,-166) scale(1,1)"><g><path fill="none" stroke="none"/><text fill="#000000" stroke="none" font-family="Arial" font-size="13px" font-style="normal" font-weight="bold" text-decoration="none" x="319.74365234375" y="218.5">controller</text></g></g><g transform="translate(-214,-166) scale(1,1)"><rect fill="#C0C0C0" stroke="none" x="414.95361328125" y="191" width="27.873437500000023" height="15" opacity="0.2"/></g><g transform="translate(-214,-166) scale(1,1)"><rect fill="#C0C0C0" stroke="none" x="414.95361328125" y="205" width="69.68359375" height="25" opacity="0.2"/></g><g transform="translate(-214,-166) scale(1,1)"><rect fill="#ffffff" stroke="none" x="407.95361328125" y="199" width="69.68359375" height="24"/></g><g transform="translate(-214,-166) scale(1,1)"><path fill="none" stroke="#000000" d="M 407.95361328125 199 L 477.63720703125 199 L 477.63720703125 223 L 407.95361328125 223 L 407.95361328125 199 Z Z" stroke-miterlimit="10"/></g><g transform="translate(-214,-166) scale(1,1)"><rect fill="#ffffff" stroke="none" x="407.95361328125" y="184" width="27.873437500000023" height="15"/></g><g transform="translate(-214,-166) scale(1,1)"><path fill="none" stroke="#000000" d="M 407.95361328125 184 L 435.82705078125 184 L 435.82705078125 199 L 407.95361328125 199 L 407.95361328125 184 Z Z" stroke-miterlimit="10"/></g><g transform="translate(-214,-166) scale(1,1)"><rect fill="#ffffff" stroke="none" x="407.95361328125" y="198" width="69.68359375" height="25"/></g><g transform="translate(-214,-166) scale(1,1)"><path fill="none" stroke="#000000" d="M 407.95361328125 198 L 477.63720703125 198 L 477.63720703125 223 L 407.95361328125 223 L 407.95361328125 198 Z Z" stroke-miterlimit="10"/></g><g transform="translate(-214,-166) scale(1,1)"><g><path fill="none" stroke="none"/><text fill="#000000" stroke="none" font-family="Arial" font-size="13px" font-style="normal" font-weight="bold" text-decoration="none" x="414.970458984375" y="218.5">exception</text></g></g><g transform="translate(-214,-166) scale(1,1)"><rect fill="#C0C0C0" stroke="none" x="515.63720703125" y="191" width="19.600000000000023" height="15" opacity="0.2"/></g><g transform="translate(-214,-166) scale(1,1)"><rect fill="#C0C0C0" stroke="none" x="515.63720703125" y="205" width="49" height="25" opacity="0.2"/></g><g transform="translate(-214,-166) scale(1,1)"><rect fill="#ffffff" stroke="none" x="508.63720703125" y="199" width="49" height="24"/></g><g transform="translate(-214,-166) scale(1,1)"><path fill="none" stroke="#000000" d="M 508.63720703125 199 L 557.63720703125 199 L 557.63720703125 223 L 508.63720703125 223 L 508.63720703125 199 Z Z" stroke-miterlimit="10"/></g><g transform="translate(-214,-166) scale(1,1)"><rect fill="#ffffff" stroke="none" x="508.63720703125" y="184" width="19.600000000000023" height="15"/></g><g transform="translate(-214,-166) scale(1,1)"><path fill="none" stroke="#000000" d="M 508.63720703125 184 L 528.23720703125 184 L 528.23720703125 199 L 508.63720703125 199 L 508.63720703125 184 Z Z" stroke-miterlimit="10"/></g><g transform="translate(-214,-166) scale(1,1)"><rect fill="#ffffff" stroke="none" x="508.63720703125" y="198" width="49" height="25"/></g><g transform="translate(-214,-166) scale(1,1)"><path fill="none" stroke="#000000" d="M 508.63720703125 198 L 557.63720703125 198 L 557.63720703125 223 L 508.63720703125 223 L 508.63720703125 198 Z Z" stroke-miterlimit="10"/></g><g transform="translate(-214,-166) scale(1,1)"><g><path fill="none" stroke="none"/><text fill="#000000" stroke="none" font-family="Arial" font-size="13px" font-style="normal" font-weight="bold" text-decoration="none" x="515.43359375" y="218.5">model</text></g></g><g transform="translate(-214,-166) scale(1,1)"><rect fill="#C0C0C0" stroke="none" x="727" y="455" width="247.08154296875" height="72" opacity="0.2"/></g><g transform="translate(-214,-166) scale(1,1)"><rect fill="#ffffff" stroke="none" x="720" y="448" width="247.08154296875" height="72"/></g><g transform="translate(-214,-166) scale(1,1)"><path fill="none" stroke="#000000" d="M 720 448 L 967.08154296875 448 L 967.08154296875 520 L 720 520 L 720 448 Z Z" stroke-miterlimit="10"/></g><g transform="translate(-214,-166) scale(1,1)"><path fill="none" stroke="#000000" d="M 720 473 L 967.08154296875 473" stroke-miterlimit="10"/></g><g transform="translate(-214,-166) scale(1,1)"><path fill="none" stroke="#000000" d="M 720 483 L 967.08154296875 483" stroke-miterlimit="10"/></g><g transform="translate(-214,-166) scale(1,1)"><g><path fill="none" stroke="none"/><text fill="#000000" stroke="none" font-family="Arial" font-size="13px" font-style="normal" font-weight="bold" text-decoration="none" x="772.005859375" y="467.5">PressurestatsApplication</text></g></g><g transform="translate(-214,-166) scale(1,1)"><g><path fill="none" stroke="none"/><text fill="#000000" stroke="none" font-family="Arial" font-size="13px" font-style="normal" font-weight="normal" text-decoration="none" x="725" y="500.5">«constructor»+PressurestatsApplication()</text></g></g><g transform="translate(-214,-166) scale(1,1)"><g><path fill="none" stroke="none"/><text fill="#000000" stroke="none" font-family="Arial" font-size="13px" font-style="normal" font-weight="normal" text-decoration="none" x="725" y="515.5">+main(args: String[*]): void</text><path fill="none" stroke="#000000" d="M 725 515.5 L 879.25439453125 515.5" stroke-miterlimit="10"/></g></g><g transform="translate(-214,-166) scale(1,1)"><rect fill="#C0C0C0" stroke="none" x="591" y="191" width="21.5283203125" height="15" opacity="0.2"/></g><g transform="translate(-214,-166) scale(1,1)"><rect fill="#C0C0C0" stroke="none" x="591" y="205" width="53.82080078125" height="25" opacity="0.2"/></g><g transform="translate(-214,-166) scale(1,1)"><rect fill="#ffffff" stroke="none" x="584" y="199" width="53.82080078125" height="24"/></g><g transform="translate(-214,-166) scale(1,1)"><path fill="none" stroke="#000000" d="M 584 199 L 637.82080078125 199 L 637.82080078125 223 L 584 223 L 584 199 Z Z" stroke-miterlimit="10"/></g><g transform="translate(-214,-166) scale(1,1)"><rect fill="#ffffff" stroke="none" x="584" y="184" width="21.5283203125" height="15"/></g><g transform="translate(-214,-166) scale(1,1)"><path fill="none" stroke="#000000" d="M 584 184 L 605.5283203125 184 L 605.5283203125 199 L 584 199 L 584 184 Z Z" stroke-miterlimit="10"/></g><g transform="translate(-214,-166) scale(1,1)"><rect fill="#ffffff" stroke="none" x="584" y="198" width="53.82080078125" height="25"/></g><g transform="translate(-214,-166) scale(1,1)"><path fill="none" stroke="#000000" d="M 584 198 L 637.82080078125 198 L 637.82080078125 223 L 584 223 L 584 198 Z Z" stroke-miterlimit="10"/></g><g transform="translate(-214,-166) scale(1,1)"><g><path fill="none" stroke="none"/><text fill="#000000" stroke="none" font-family="Arial" font-size="13px" font-style="normal" font-weight="bold" text-decoration="none" x="590.32177734375" y="218.5">service</text></g></g><g transform="translate(-214,-166) scale(1,1)"><rect fill="#C0C0C0" stroke="none" x="679" y="191" width="26.144335937500045" height="15" opacity="0.2"/></g><g transform="translate(-214,-166) scale(1,1)"><rect fill="#C0C0C0" stroke="none" x="679" y="205" width="65.36083984375" height="25" opacity="0.2"/></g><g transform="translate(-214,-166) scale(1,1)"><rect fill="#ffffff" stroke="none" x="672" y="199" width="65.36083984375" height="24"/></g><g transform="translate(-214,-166) scale(1,1)"><path fill="none" stroke="#000000" d="M 672 199 L 737.36083984375 199 L 737.36083984375 223 L 672 223 L 672 199 Z Z" stroke-miterlimit="10"/></g><g transform="translate(-214,-166) scale(1,1)"><rect fill="#ffffff" stroke="none" x="672" y="184" width="26.144335937500045" height="15"/></g><g transform="translate(-214,-166) scale(1,1)"><path fill="none" stroke="#000000" d="M 672 184 L 698.1443359375 184 L 698.1443359375 199 L 672 199 L 672 184 Z Z" stroke-miterlimit="10"/></g><g transform="translate(-214,-166) scale(1,1)"><rect fill="#ffffff" stroke="none" x="672" y="198" width="65.36083984375" height="25"/></g><g transform="translate(-214,-166) scale(1,1)"><path fill="none" stroke="#000000" d="M 672 198 L 737.36083984375 198 L 737.36083984375 223 L 672 223 L 672 198 Z Z" stroke-miterlimit="10"/></g><g transform="translate(-214,-166) scale(1,1)"><g><path fill="none" stroke="none"/><text fill="#000000" stroke="none" font-family="Arial" font-size="13px" font-style="normal" font-weight="bold" text-decoration="none" x="679.759521484375" y="218.5">statistics</text></g></g><g transform="translate(-214,-166) scale(1,1)"><rect fill="#C0C0C0" stroke="none" x="311" y="263" width="197.3603515625" height="130" opacity="0.2"/></g><g transform="translate(-214,-166) scale(1,1)"><rect fill="#ffffff" stroke="none" x="304" y="256" width="197.3603515625" height="130"/></g><g transform="translate(-214,-166) scale(1,1)"><path fill="none" stroke="#000000" d="M 304 256 L 501.3603515625 256 L 501.3603515625 386 L 304 386 L 304 256 Z Z" stroke-miterlimit="10"/></g><g transform="translate(-214,-166) scale(1,1)"><path fill="none" stroke="#000000" d="M 304 281 L 501.3603515625 281" stroke-miterlimit="10"/></g><g transform="translate(-214,-166) scale(1,1)"><path fill="none" stroke="#000000" d="M 304 319 L 501.3603515625 319" stroke-miterlimit="10"/></g><g transform="translate(-214,-166) scale(1,1)"><g><path fill="none" stroke="none"/><text fill="#000000" stroke="none" font-family="Arial" font-size="13px" font-style="normal" font-weight="bold" text-decoration="none" x="362.58203125" y="275.5">TestController</text></g></g><g transform="translate(-214,-166) scale(1,1)"><g><path fill="none" stroke="none"/><text fill="#000000" stroke="none" font-family="Arial" font-size="13px" font-style="normal" font-weight="normal" text-decoration="none" x="309" y="298.5">-context: WebApplicationContext</text></g></g><g transform="translate(-214,-166) scale(1,1)"><g><path fill="none" stroke="none"/><text fill="#000000" stroke="none" font-family="Arial" font-size="13px" font-style="normal" font-weight="normal" text-decoration="none" x="309" y="313.5">-mockMvc: MockMvc</text></g></g><g transform="translate(-214,-166) scale(1,1)"><g><path fill="none" stroke="none"/><text fill="#000000" stroke="none" font-family="Arial" font-size="13px" font-style="normal" font-weight="normal" text-decoration="none" x="309" y="336.5">«constructor»+TestController()</text></g></g><g transform="translate(-214,-166) scale(1,1)"><g><path fill="none" stroke="none"/><text fill="#000000" stroke="none" font-family="Arial" font-size="13px" font-style="normal" font-weight="normal" text-decoration="none" x="309" y="351.5">~setUp(): void</text></g></g><g transform="translate(-214,-166) scale(1,1)"><g><path fill="none" stroke="none"/><text fill="#000000" stroke="none" font-family="Arial" font-size="13px" font-style="normal" font-weight="normal" text-decoration="none" x="309" y="366.5">~tearDown(): void</text></g></g><g transform="translate(-214,-166) scale(1,1)"><g><path fill="none" stroke="none"/><text fill="#000000" stroke="none" font-family="Arial" font-size="13px" font-style="normal" font-weight="normal" text-decoration="none" x="309" y="381.5">~testController(): void</text></g></g><g transform="translate(-214,-166) scale(1,1)"><rect fill="#C0C0C0" stroke="none" x="535" y="263" width="163.2607421875" height="160" opacity="0.2"/></g><g transform="translate(-214,-166) scale(1,1)"><rect fill="#ffffff" stroke="none" x="528" y="256" width="163.2607421875" height="160"/></g><g transform="translate(-214,-166) scale(1,1)"><path fill="none" stroke="#000000" d="M 528 256 L 691.2607421875 256 L 691.2607421875 416 L 528 416 L 528 256 Z Z" stroke-miterlimit="10"/></g><g transform="translate(-214,-166) scale(1,1)"><path fill="none" stroke="#000000" d="M 528 281 L 691.2607421875 281" stroke-miterlimit="10"/></g><g transform="translate(-214,-166) scale(1,1)"><path fill="none" stroke="#000000" d="M 528 334 L 691.2607421875 334" stroke-miterlimit="10"/></g><g transform="translate(-214,-166) scale(1,1)"><g><path fill="none" stroke="none"/><text fill="#000000" stroke="none" font-family="Arial" font-size="13px" font-style="normal" font-weight="bold" text-decoration="none" x="580.005859375" y="275.5">TestModel</text></g></g><g transform="translate(-214,-166) scale(1,1)"><g><path fill="none" stroke="none"/><text fill="#000000" stroke="none" font-family="Arial" font-size="13px" font-style="normal" font-weight="normal" text-decoration="none" x="533" y="298.5">-f: Vector = null</text></g></g><g transform="translate(-214,-166) scale(1,1)"><g><path fill="none" stroke="none"/><text fill="#000000" stroke="none" font-family="Arial" font-size="13px" font-style="normal" font-weight="normal" text-decoration="none" x="533" y="313.5">-c: City = null</text></g></g><g transform="translate(-214,-166) scale(1,1)"><g><path fill="none" stroke="none"/><text fill="#000000" stroke="none" font-family="Arial" font-size="13px" font-style="normal" font-weight="normal" text-decoration="none" x="533" y="328.5">-s: ServiceImpl = null</text></g></g><g transform="translate(-214,-166) scale(1,1)"><g><path fill="none" stroke="none"/><text fill="#000000" stroke="none" font-family="Arial" font-size="13px" font-style="normal" font-weight="normal" text-decoration="none" x="533" y="351.5">«constructor»+TestModel()</text></g></g><g transform="translate(-214,-166) scale(1,1)"><g><path fill="none" stroke="none"/><text fill="#000000" stroke="none" font-family="Arial" font-size="13px" font-style="normal" font-weight="normal" text-decoration="none" x="533" y="366.5">~setUp(): void</text></g></g><g transform="translate(-214,-166) scale(1,1)"><g><path fill="none" stroke="none"/><text fill="#000000" stroke="none" font-family="Arial" font-size="13px" font-style="normal" font-weight="normal" text-decoration="none" x="533" y="381.5">~tearDown(): void</text></g></g><g transform="translate(-214,-166) scale(1,1)"><g><path fill="none" stroke="none"/><text fill="#000000" stroke="none" font-family="Arial" font-size="13px" font-style="normal" font-weight="normal" text-decoration="none" x="533" y="396.5">~testCity(): void</text></g></g><g transform="translate(-214,-166) scale(1,1)"><g><path fill="none" stroke="none"/><text fill="#000000" stroke="none" font-family="Arial" font-size="13px" font-style="normal" font-weight="normal" text-decoration="none" x="533" y="411.5">~testForecast(): void</text></g></g><g transform="translate(-214,-166) scale(1,1)"><rect fill="#C0C0C0" stroke="none" x="727" y="263" width="171.20166015625" height="130" opacity="0.2"/></g><g transform="translate(-214,-166) scale(1,1)"><rect fill="#ffffff" stroke="none" x="720" y="256" width="171.20166015625" height="130"/></g><g transform="translate(-214,-166) scale(1,1)"><path fill="none" stroke="#000000" d="M 720 256 L 891.20166015625 256 L 891.20166015625 386 L 720 386 L 720 256 Z Z" stroke-miterlimit="10"/></g><g transform="translate(-214,-166) scale(1,1)"><path fill="none" stroke="#000000" d="M 720 281 L 891.20166015625 281" stroke-miterlimit="10"/></g><g transform="translate(-214,-166) scale(1,1)"><path fill="none" stroke="#000000" d="M 720 319 L 891.20166015625 319" stroke-miterlimit="10"/></g><g transform="translate(-214,-166) scale(1,1)"><g><path fill="none" stroke="none"/><text fill="#000000" stroke="none" font-family="Arial" font-size="13px" font-style="normal" font-weight="bold" text-decoration="none" x="772.005859375" y="275.5">TestService</text></g></g><g transform="translate(-214,-166) scale(1,1)"><g><path fill="none" stroke="none"/><text fill="#000000" stroke="none" font-family="Arial" font-size="13px" font-style="normal" font-weight="normal" text-decoration="none" x="725" y="298.5">~s: ServiceImpl = null</text></g></g><g transform="translate(-214,-166) scale(1,1)"><g><path fill="none" stroke="none"/><text fill="#000000" stroke="none" font-family="Arial" font-size="13px" font-style="normal" font-weight="normal" text-decoration="none" x="725" y="313.5">~city: City = null</text></g></g><g transform="translate(-214,-166) scale(1,1)"><g><path fill="none" stroke="none"/><text fill="#000000" stroke="none" font-family="Arial" font-size="13px" font-style="normal" font-weight="normal" text-decoration="none" x="725" y="336.5">«constructor»+TestService()</text></g></g><g transform="translate(-214,-166) scale(1,1)"><g><path fill="none" stroke="none"/><text fill="#000000" stroke="none" font-family="Arial" font-size="13px" font-style="normal" font-weight="normal" text-decoration="none" x="725" y="351.5">~setUp(): void</text></g></g><g transform="translate(-214,-166) scale(1,1)"><g><path fill="none" stroke="none"/><text fill="#000000" stroke="none" font-family="Arial" font-size="13px" font-style="normal" font-weight="normal" text-decoration="none" x="725" y="366.5">~tearDown(): void</text></g></g><g transform="translate(-214,-166) scale(1,1)"><g><path fill="none" stroke="none"/><text fill="#000000" stroke="none" font-family="Arial" font-size="13px" font-style="normal" font-weight="normal" text-decoration="none" x="725" y="381.5">~testService(): void</text></g></g><g transform="translate(-214,-166) scale(1,1)"><rect fill="#C0C0C0" stroke="none" x="519" y="455" width="179.8662109375" height="115" opacity="0.2"/></g><g transform="translate(-214,-166) scale(1,1)"><rect fill="#ffffff" stroke="none" x="512" y="448" width="179.8662109375" height="115"/></g><g transform="translate(-214,-166) scale(1,1)"><path fill="none" stroke="#000000" d="M 512 448 L 691.8662109375 448 L 691.8662109375 563 L 512 563 L 512 448 Z Z" stroke-miterlimit="10"/></g><g transform="translate(-214,-166) scale(1,1)"><path fill="none" stroke="#000000" d="M 512 473 L 691.8662109375 473" stroke-miterlimit="10"/></g><g transform="translate(-214,-166) scale(1,1)"><path fill="none" stroke="#000000" d="M 512 496 L 691.8662109375 496" stroke-miterlimit="10"/></g><g transform="translate(-214,-166) scale(1,1)"><g><path fill="none" stroke="none"/><text fill="#000000" stroke="none" font-family="Arial" font-size="13px" font-style="normal" font-weight="bold" text-decoration="none" x="564.005859375" y="467.5">TestStatistics</text></g></g><g transform="translate(-214,-166) scale(1,1)"><g><path fill="none" stroke="none"/><text fill="#000000" stroke="none" font-family="Arial" font-size="13px" font-style="normal" font-weight="normal" text-decoration="none" x="517" y="490.5">-f: Filters = null</text></g></g><g transform="translate(-214,-166) scale(1,1)"><g><path fill="none" stroke="none"/><text fill="#000000" stroke="none" font-family="Arial" font-size="13px" font-style="normal" font-weight="normal" text-decoration="none" x="517" y="513.5">«constructor»+TestStatistics()</text></g></g><g transform="translate(-214,-166) scale(1,1)"><g><path fill="none" stroke="none"/><text fill="#000000" stroke="none" font-family="Arial" font-size="13px" font-style="normal" font-weight="normal" text-decoration="none" x="517" y="528.5">~setUp(): void</text></g></g><g transform="translate(-214,-166) scale(1,1)"><g><path fill="none" stroke="none"/><text fill="#000000" stroke="none" font-family="Arial" font-size="13px" font-style="normal" font-weight="normal" text-decoration="none" x="517" y="543.5">~tearDown(): void</text></g></g><g transform="translate(-214,-166) scale(1,1)"><g><path fill="none" stroke="none"/><text fill="#000000" stroke="none" font-family="Arial" font-size="13px" font-style="normal" font-weight="normal" text-decoration="none" x="517" y="558.5">~testFilters(): void</text></g></g><g transform="translate(-214,-166) scale(1,1)"><rect fill="#C0C0C0" stroke="none" x="311" y="455" width="170.4716796875" height="130" opacity="0.2"/></g><g transform="translate(-214,-166) scale(1,1)"><rect fill="#ffffff" stroke="none" x="304" y="448" width="170.4716796875" height="130"/></g><g transform="translate(-214,-166) scale(1,1)"><path fill="none" stroke="#000000" d="M 304 448 L 474.4716796875 448 L 474.4716796875 578 L 304 578 L 304 448 Z Z" stroke-miterlimit="10"/></g><g transform="translate(-214,-166) scale(1,1)"><path fill="none" stroke="#000000" d="M 304 473 L 474.4716796875 473" stroke-miterlimit="10"/></g><g transform="translate(-214,-166) scale(1,1)"><path fill="none" stroke="#000000" d="M 304 511 L 474.4716796875 511" stroke-miterlimit="10"/></g><g transform="translate(-214,-166) scale(1,1)"><g><path fill="none" stroke="none"/><text fill="#000000" stroke="none" font-family="Arial" font-size="13px" font-style="normal" font-weight="bold" text-decoration="none" x="356.005859375" y="467.5">TestThrows</text></g></g><g transform="translate(-214,-166) scale(1,1)"><g><path fill="none" stroke="none"/><text fill="#000000" stroke="none" font-family="Arial" font-size="13px" font-style="normal" font-weight="normal" text-decoration="none" x="309" y="490.5">-f: Filters = null</text></g></g><g transform="translate(-214,-166) scale(1,1)"><g><path fill="none" stroke="none"/><text fill="#000000" stroke="none" font-family="Arial" font-size="13px" font-style="normal" font-weight="normal" text-decoration="none" x="309" y="505.5">-c: ServiceImpl = null</text></g></g><g transform="translate(-214,-166) scale(1,1)"><g><path fill="none" stroke="none"/><text fill="#000000" stroke="none" font-family="Arial" font-size="13px" font-style="normal" font-weight="normal" text-decoration="none" x="309" y="528.5">«constructor»+TestThrows()</text></g></g><g transform="translate(-214,-166) scale(1,1)"><g><path fill="none" stroke="none"/><text fill="#000000" stroke="none" font-family="Arial" font-size="13px" font-style="normal" font-weight="normal" text-decoration="none" x="309" y="543.5">~setUp(): void</text></g></g><g transform="translate(-214,-166) scale(1,1)"><g><path fill="none" stroke="none"/><text fill="#000000" stroke="none" font-family="Arial" font-size="13px" font-style="normal" font-weight="normal" text-decoration="none" x="309" y="558.5">~tearDown(): void</text></g></g><g transform="translate(-214,-166) scale(1,1)"><g><path fill="none" stroke="none"/><text fill="#000000" stroke="none" font-family="Arial" font-size="13px" font-style="normal" font-weight="normal" text-decoration="none" x="309" y="573.5">~testFilters(): void</text></g></g></g></svg>