<svg version="1.1" xmlns="http://www.w3.org/2000/svg" xmlns:xlink="http://www.w3.org/1999/xlink" width="523" height="579"><defs/><g><text fill="#eeeeee" stroke="none" font-family="Arial" font-size="24px" font-style="normal" font-weight="normal" text-decoration="none" x="0" y="0">UNREGISTERED</text><text fill="#eeeeee" stroke="none" font-family="Arial" font-size="24px" font-style="normal" font-weight="normal" text-decoration="none" x="0" y="30">UNREGISTERED</text><text fill="#eeeeee" stroke="none" font-family="Arial" font-size="24px" font-style="normal" font-weight="normal" text-decoration="none" x="0" y="60">UNREGISTERED</text><text fill="#eeeeee" stroke="none" font-family="Arial" font-size="24px" font-style="normal" font-weight="normal" text-decoration="none" x="0" y="90">UNREGISTERED</text><text fill="#eeeeee" stroke="none" font-family="Arial" font-size="24px" font-style="normal" font-weight="normal" text-decoration="none" x="0" y="120">UNREGISTERED</text><text fill="#eeeeee" stroke="none" font-family="Arial" font-size="24px" font-style="normal" font-weight="normal" text-decoration="none" x="0" y="150">UNREGISTERED</text><text fill="#eeeeee" stroke="none" font-family="Arial" font-size="24px" font-style="normal" font-weight="normal" text-decoration="none" x="0" y="180">UNREGISTERED</text><text fill="#eeeeee" stroke="none" font-family="Arial" font-size="24px" font-style="normal" font-weight="normal" text-decoration="none" x="0" y="210">UNREGISTERED</text><text fill="#eeeeee" stroke="none" font-family="Arial" font-size="24px" font-style="normal" font-weight="normal" text-decoration="none" x="0" y="240">UNREGISTERED</text><text fill="#eeeeee" stroke="none" font-family="Arial" font-size="24px" font-style="normal" font-weight="normal" text-decoration="none" x="0" y="270">UNREGISTERED</text><text fill="#eeeeee" stroke="none" font-family="Arial" font-size="24px" font-style="normal" font-weight="normal" text-decoration="none" x="0" y="300">UNREGISTERED</text><text fill="#eeeeee" stroke="none" font-family="Arial" font-size="24px" font-style="normal" font-weight="normal" text-decoration="none" x="0" y="330">UNREGISTERED</text><text fill="#eeeeee" stroke="none" font-family="Arial" font-size="24px" font-style="normal" font-weight="normal" text-decoration="none" x="0" y="360">UNREGISTERED</text><text fill="#eeeeee" stroke="none" font-family="Arial" font-size="24px" font-style="normal" font-weight="normal" text-decoration="none" x="0" y="390">UNREGISTERED</text><text fill="#eeeeee" stroke="none" font-family="Arial" font-size="24px" font-style="normal" font-weight="normal" text-decoration="none" x="0" y="420">UNREGISTERED</text><text fill="#eeeeee" stroke="none" font-family="Arial" font-size="24px" font-style="normal" font-weight="normal" text-decoration="none" x="0" y="450">UNREGISTERED</text><text fill="#eeeeee" stroke="none" font-family="Arial" font-size="24px" font-style="normal" font-weight="normal" text-decoration="none" x="0" y="480">UNREGISTERED</text><text fill="#eeeeee" stroke="none" font-family="Arial" font-size="24px" font-style="normal" font-weight="normal" text-decoration="none" x="0" y="510">UNREGISTERED</text><text fill="#eeeeee" stroke="none" font-family="Arial" font-size="24px" font-style="normal" font-weight="normal" text-decoration="none" x="0" y="540">UNREGISTERED</text><text fill="#eeeeee" stroke="none" font-family="Arial" font-size="24px" font-style="normal" font-weight="normal" text-decoration="none" x="0" y="570">UNREGISTERED</text><text fill="#eeeeee" stroke="none" font-family="Arial" font-size="24px" font-style="normal" font-weight="normal" text-decoration="none" x="200" y="0">UNREGISTERED</text><text fill="#eeeeee" stroke="none" font-family="Arial" font-size="24px" font-style="normal" font-weight="normal" text-decoration="none" x="200" y="30">UNREGISTERED</text><text fill="#eeeeee" stroke="none" font-family="Arial" font-size="24px" font-style="normal" font-weight="normal" text-decoration="none" x="200" y="60">UNREGISTERED</text><text fill="#eeeeee" stroke="none" font-family="Arial" font-size="24px" font-style="normal" font-weight="normal" text-decoration="none" x="200" y="90">UNREGISTERED</text><text fill="#eeeeee" stroke="none" font-family="Arial" font-size="24px" font-style="normal" font-weight="normal" text-decoration="none" x="200" y="120">UNREGISTERED</text><text fill="#eeeeee" stroke="none" font-family="Arial" font-size="24px" font-style="normal" font-weight="normal" text-decoration="none" x="200" y="150">UNREGISTERED</text><text fill="#eeeeee" stroke="none" font-family="Arial" font-size="24px" font-style="normal" font-weight="normal" text-decoration="none" x="200" y="180">UNREGISTERED</text><text fill="#eeeeee" stroke="none" font-family="Arial" font-size="24px" font-style="normal" font-weight="normal" text-decoration="none" x="200" y="210">UNREGISTERED</text><text fill="#eeeeee" stroke="none" font-family="Arial" font-size="24px" font-style="normal" font-weight="normal" text-decoration="none" x="200" y="240">UNREGISTERED</text><text fill="#eeeeee" stroke="none" font-family="Arial" font-size="24px" font-style="normal" font-weight="normal" text-decoration="none" x="200" y="270">UNREGISTERED</text><text fill="#eeeeee" stroke="none" font-family="Arial" font-size="24px" font-style="normal" font-weight="normal" text-decoration="none" x="200" y="300">UNREGISTERED</text><text fill="#eeeeee" stroke="none" font-family="Arial" font-size="24px" font-style="normal" font-weight="normal" text-decoration="none" x="200" y="330">UNREGISTERED</text><text fill="#eeeeee" stroke="none" font-family="Arial" font-size="24px" font-style="normal" font-weight="normal" text-decoration="none" x="200" y="360">UNREGISTERED</text><text fill="#eeeeee" stroke="none" font-family="Arial" font-size="24px" font-style="normal" font-weight="normal" text-decoration="none" x="200" y="390">UNREGISTERED</text><text fill="#eeeeee" stroke="none" font-family="Arial" font-size="24px" font-style="normal" font-weight="normal" text-decoration="none" x="200" y="420">UNREGISTERED</text><text fill="#eeeeee" stroke="none" font-family="Arial" font-size="24px" font-style="normal" font-weight="normal" text-decoration="none" x="200" y="450">UNREGISTERED</text><text fill="#eeeeee" stroke="none" font-family="Arial" font-size="24px" font-style="normal" font-weight="normal" text-decoration="none" x="200" y="480">UNREGISTERED</text><text fill="#eeeeee" stroke="none" font-family="Arial" font-size="24px" font-style="normal" font-weight="normal" text-decoration="none" x="200" y="510">UNREGISTERED</text><text fill="#eeeeee" stroke="none" font-family="Arial" font-size="24px" font-style="normal" font-weight="normal" text-decoration="none" x="200" y="540">UNREGISTERED</text><text fill="#eeeeee" stroke="none" font-family="Arial" font-size="24px" font-style="normal" font-weight="normal" text-decoration="none" x="200" y="570">UNREGISTERED</text><text fill="#eeeeee" stroke="none" font-family="Arial" font-size="24px" font-style="normal" font-weight="normal" text-decoration="none" x="400" y="0">UNREGISTERED</text><text fill="#eeeeee" stroke="none" font-family="Arial" font-size="24px" font-style="normal" font-weight="normal" text-decoration="none" x="400" y="30">UNREGISTERED</text><text fill="#eeeeee" stroke="none" font-family="Arial" font-size="24px" font-style="normal" font-weight="normal" text-decoration="none" x="400" y="60">UNREGISTERED</text><text fill="#eeeeee" stroke="none" font-family="Arial" font-size="24px" font-style="normal" font-weight="normal" text-decoration="none" x="400" y="90">UNREGISTERED</text><text fill="#eeeeee" stroke="none" font-family="Arial" font-size="24px" font-style="normal" font-weight="normal" text-decoration="none" x="400" y="120">UNREGISTERED</text><text fill="#eeeeee" stroke="none" font-family="Arial" font-size="24px" font-style="normal" font-weight="normal" text-decoration="none" x="400" y="150">UNREGISTERED</text><text fill="#eeeeee" stroke="none" font-family="Arial" font-size="24px" font-style="normal" font-weight="normal" text-decoration="none" x="400" y="180">UNREGISTERED</text><text fill="#eeeeee" stroke="none" font-family="Arial" font-size="24px" font-style="normal" font-weight="normal" text-decoration="none" x="400" y="210">UNREGISTERED</text><text fill="#eeeeee" stroke="none" font-family="Arial" font-size="24px" font-style="normal" font-weight="normal" text-decoration="none" x="400" y="240">UNREGISTERED</text><text fill="#eeeeee" stroke="none" font-family="Arial" font-size="24px" font-style="normal" font-weight="normal" text-decoration="none" x="400" y="270">UNREGISTERED</text><text fill="#eeeeee" stroke="none" font-family="Arial" font-size="24px" font-style="normal" font-weight="normal" text-decoration="none" x="400" y="300">UNREGISTERED</text><text fill="#eeeeee" stroke="none" font-family="Arial" font-size="24px" font-style="normal" font-weight="normal" text-decoration="none" x="400" y="330">UNREGISTERED</text><text fill="#eeeeee" stroke="none" font-family="Arial" font-size="24px" font-style="normal" font-weight="normal" text-decoration="none" x="400" y="360">UNREGISTERED</text><text fill="#eeeeee" stroke="none" font-family="Arial" font-size="24px" font-style="normal" font-weight="normal" text-decoration="none" x="400" y="390">UNREGISTERED</text><text fill="#eeeeee" stroke="none" font-family="Arial" font-size="24px" font-style="normal" font-weight="normal" text-decoration="none" x="400" y="420">UNREGISTERED</text><text fill="#eeeeee" stroke="none" font-family="Arial" font-size="24px" font-style="normal" font-weight="normal" text-decoration="none" x="400" y="450">UNREGISTERED</text><text fill="#eeeeee" stroke="none" font-family="Arial" font-size="24px" font-style="normal" font-weight="normal" text-decoration="none" x="400" y="480">UNREGISTERED</text><text fill="#eeeeee" stroke="none" font-family="Arial" font-size="24px" font-style="normal" font-weight="normal" text-decoration="none" x="400" y="510">UNREGISTERED</text><text fill="#eeeeee" stroke="none" font-family="Arial" font-size="24px" font-style="normal" font-weight="normal" text-decoration="none" x="400" y="540">UNREGISTERED</text><text fill="#eeeeee" stroke="none" font-family="Arial" font-size="24px" font-style="normal" font-weight="normal" text-decoration="none" x="400" y="570">UNREGISTERED</text><g transform="translate(-262,-174) scale(1,1)"><rect fill="#ffffff" stroke="none" x="272" y="184" width="503" height="559"/></g><g transform="translate(-262,-174) scale(1,1)"><path fill="none" stroke="#000000" d="M 272 184 L 775 184 L 775 743 L 272 743 L 272 184 Z Z" stroke-miterlimit="10"/></g><g transform="translate(-262,-174) scale(1,1)"><rect fill="#C0C0C0" stroke="none" x="338.331298828125" y="203" width="71.11181640625" height="24" opacity="0.2"/></g><g transform="translate(-262,-174) scale(1,1)"><rect fill="#ffffff" stroke="none" x="331.331298828125" y="196" width="71.11181640625" height="24"/></g><g transform="translate(-262,-174) scale(1,1)"><path fill="none" stroke="#000000" d="M 331.331298828125 196 L 402.443115234375 196 L 402.443115234375 220 L 331.331298828125 220 L 331.331298828125 196 Z Z" stroke-miterlimit="10"/></g><g transform="translate(-262,-174) scale(1,1)"><g><path fill="none" stroke="none"/><text fill="#000000" stroke="none" font-family="Arial" font-size="13px" font-style="normal" font-weight="bold" text-decoration="none" x="338.7099609375" y="215.5">Controller</text></g></g><g transform="translate(-262,-174) scale(1,1)"><rect fill="#C0C0C0" stroke="none" x="587.03076171875" y="466" width="156.33544921875" height="24" opacity="0.2"/></g><g transform="translate(-262,-174) scale(1,1)"><rect fill="#ffffff" stroke="none" x="580.03076171875" y="459" width="156.33544921875" height="24"/></g><g transform="translate(-262,-174) scale(1,1)"><path fill="none" stroke="#000000" d="M 580.03076171875 459 L 736.3662109375 459 L 736.3662109375 483 L 580.03076171875 483 L 580.03076171875 459 Z Z" stroke-miterlimit="10"/></g><g transform="translate(-262,-174) scale(1,1)"><g><path fill="none" stroke="none"/><text fill="#000000" stroke="none" font-family="Arial" font-size="13px" font-style="normal" font-weight="bold" text-decoration="none" x="589.548583984375" y="478.5">DayNotFoundException</text></g></g><g transform="translate(-262,-174) scale(1,1)"><rect fill="#C0C0C0" stroke="none" x="557.7744140625" y="501" width="214.84814453125" height="24" opacity="0.2"/></g><g transform="translate(-262,-174) scale(1,1)"><rect fill="#ffffff" stroke="none" x="550.7744140625" y="494" width="214.84814453125" height="24"/></g><g transform="translate(-262,-174) scale(1,1)"><path fill="none" stroke="#000000" d="M 550.7744140625 494 L 765.62255859375 494 L 765.62255859375 518 L 550.7744140625 518 L 550.7744140625 494 Z Z" stroke-miterlimit="10"/></g><g transform="translate(-262,-174) scale(1,1)"><g><path fill="none" stroke="none"/><text fill="#000000" stroke="none" font-family="Arial" font-size="13px" font-style="normal" font-weight="bold" text-decoration="none" x="563.9072265625" y="513.5">CityStatisticsNotFoundException</text></g></g><g transform="translate(-262,-174) scale(1,1)"><rect fill="#C0C0C0" stroke="none" x="593.178466796875" y="536" width="144.0400390625" height="24" opacity="0.2"/></g><g transform="translate(-262,-174) scale(1,1)"><rect fill="#ffffff" stroke="none" x="586.178466796875" y="529" width="144.0400390625" height="24"/></g><g transform="translate(-262,-174) scale(1,1)"><path fill="none" stroke="#000000" d="M 586.178466796875 529 L 730.218505859375 529 L 730.218505859375 553 L 586.178466796875 553 L 586.178466796875 529 Z Z" stroke-miterlimit="10"/></g><g transform="translate(-262,-174) scale(1,1)"><g><path fill="none" stroke="none"/><text fill="#000000" stroke="none" font-family="Arial" font-size="13px" font-style="normal" font-weight="bold" text-decoration="none" x="595.686767578125" y="548.5">IdNotFoundException</text></g></g><g transform="translate(-262,-174) scale(1,1)"><rect fill="#C0C0C0" stroke="none" x="567.892578125" y="594.5" width="194.61181640625" height="24" opacity="0.2"/></g><g transform="translate(-262,-174) scale(1,1)"><rect fill="#ffffff" stroke="none" x="560.892578125" y="587.5" width="194.61181640625" height="24"/></g><g transform="translate(-262,-174) scale(1,1)"><path fill="none" stroke="#000000" d="M 560.892578125 587.5 L 755.50439453125 587.5 L 755.50439453125 611.5 L 560.892578125 611.5 L 560.892578125 587.5 Z Z" stroke-miterlimit="10"/></g><g transform="translate(-262,-174) scale(1,1)"><g><path fill="none" stroke="none"/><text fill="#000000" stroke="none" font-family="Arial" font-size="13px" font-style="normal" font-weight="bold" text-decoration="none" x="572.568603515625" y="607">ItalianCityNotFoundException</text></g></g><g transform="translate(-262,-174) scale(1,1)"><rect fill="#C0C0C0" stroke="none" x="587.732177734375" y="629.5" width="154.9326171875" height="24" opacity="0.2"/></g><g transform="translate(-262,-174) scale(1,1)"><rect fill="#ffffff" stroke="none" x="580.732177734375" y="622.5" width="154.9326171875" height="24"/></g><g transform="translate(-262,-174) scale(1,1)"><path fill="none" stroke="#000000" d="M 580.732177734375 622.5 L 735.664794921875 622.5 L 735.664794921875 646.5 L 580.732177734375 646.5 L 580.732177734375 622.5 Z Z" stroke-miterlimit="10"/></g><g transform="translate(-262,-174) scale(1,1)"><g><path fill="none" stroke="none"/><text fill="#000000" stroke="none" font-family="Arial" font-size="13px" font-style="normal" font-weight="bold" text-decoration="none" x="590.272216796875" y="642">NegativeStartException</text></g></g><g transform="translate(-262,-174) scale(1,1)"><rect fill="#C0C0C0" stroke="none" x="570.17138671875" y="664.5" width="190.05419921875" height="24" opacity="0.2"/></g><g transform="translate(-262,-174) scale(1,1)"><rect fill="#ffffff" stroke="none" x="563.17138671875" y="657.5" width="190.05419921875" height="24"/></g><g transform="translate(-262,-174) scale(1,1)"><path fill="none" stroke="#000000" d="M 563.17138671875 657.5 L 753.2255859375 657.5 L 753.2255859375 681.5 L 563.17138671875 681.5 L 563.17138671875 657.5 Z Z" stroke-miterlimit="10"/></g><g transform="translate(-262,-174) scale(1,1)"><g><path fill="none" stroke="none"/><text fill="#000000" stroke="none" font-family="Arial" font-size="13px" font-style="normal" font-weight="bold" text-decoration="none" x="574.498291015625" y="677">WrongHoursPeriodException</text></g></g><g transform="translate(-262,-174) scale(1,1)"><rect fill="#C0C0C0" stroke="none" x="584.625" y="699.5" width="161.14697265625" height="24" opacity="0.2"/></g><g transform="translate(-262,-174) scale(1,1)"><rect fill="#ffffff" stroke="none" x="577.625" y="692.5" width="161.14697265625" height="24"/></g><g transform="translate(-262,-174) scale(1,1)"><path fill="none" stroke="#000000" d="M 577.625 692.5 L 738.77197265625 692.5 L 738.77197265625 716.5 L 577.625 716.5 L 577.625 692.5 Z Z" stroke-miterlimit="10"/></g><g transform="translate(-262,-174) scale(1,1)"><g><path fill="none" stroke="none"/><text fill="#000000" stroke="none" font-family="Arial" font-size="13px" font-style="normal" font-weight="bold" text-decoration="none" x="588.59326171875" y="712">WrongMultiplyException</text></g></g><g transform="translate(-262,-174) scale(1,1)"><rect fill="#C0C0C0" stroke="none" x="357.107666015625" y="238" width="33.55908203125" height="24" opacity="0.2"/></g><g transform="translate(-262,-174) scale(1,1)"><rect fill="#ffffff" stroke="none" x="350.107666015625" y="231" width="33.55908203125" height="24"/></g><g transform="translate(-262,-174) scale(1,1)"><path fill="none" stroke="#000000" d="M 350.107666015625 231 L 383.666748046875 231 L 383.666748046875 255 L 350.107666015625 255 L 350.107666015625 231 Z Z" stroke-miterlimit="10"/></g><g transform="translate(-262,-174) scale(1,1)"><g><path fill="none" stroke="none"/><text fill="#000000" stroke="none" font-family="Arial" font-size="13px" font-style="normal" font-weight="bold" text-decoration="none" x="355.693115234375" y="250.5">City</text></g></g><g transform="translate(-262,-174) scale(1,1)"><rect fill="#C0C0C0" stroke="none" x="342.292236328125" y="273" width="63.18994140625" height="24" opacity="0.2"/></g><g transform="translate(-262,-174) scale(1,1)"><rect fill="#ffffff" stroke="none" x="335.292236328125" y="266" width="63.18994140625" height="24"/></g><g transform="translate(-262,-174) scale(1,1)"><path fill="none" stroke="#000000" d="M 335.292236328125 266 L 398.482177734375 266 L 398.482177734375 290 L 335.292236328125 290 L 335.292236328125 266 Z Z" stroke-miterlimit="10"/></g><g transform="translate(-262,-174) scale(1,1)"><g><path fill="none" stroke="none"/><text fill="#000000" stroke="none" font-family="Arial" font-size="13px" font-style="normal" font-weight="bold" text-decoration="none" x="341.601318359375" y="285.5">Forecast</text></g></g><g transform="translate(-262,-174) scale(1,1)"><rect fill="#C0C0C0" stroke="none" x="291" y="308" width="165.7744140625" height="24" opacity="0.2"/></g><g transform="translate(-262,-174) scale(1,1)"><rect fill="#ffffff" stroke="none" x="284" y="301" width="165.7744140625" height="24"/></g><g transform="translate(-262,-174) scale(1,1)"><path fill="none" stroke="#000000" d="M 284 301 L 449.7744140625 301 L 449.7744140625 325 L 284 325 L 284 301 Z Z" stroke-miterlimit="10"/></g><g transform="translate(-262,-174) scale(1,1)"><g><path fill="none" stroke="none"/><text fill="#000000" stroke="none" font-family="Arial" font-size="13px" font-style="normal" font-weight="bold" text-decoration="none" x="295.352294921875" y="320.5">PressurestatsApplication</text></g></g><g transform="translate(-262,-174) scale(1,1)"><path fill="#C0C0C0" stroke="none" d="M 362.38720703125 354.5 C 362.38720703125 348.1487248 367.53593183125 343 373.88720703125 343 C 380.23848223125 343 385.38720703125 348.1487248 385.38720703125 354.5 C 385.38720703125 360.8512752 380.23848223125 366 373.88720703125 366 C 367.53593183125 366 362.38720703125 360.8512752 362.38720703125 354.5 Z" opacity="0.2"/></g><g transform="translate(-262,-174) scale(1,1)"><path fill="#ffffff" stroke="none" d="M 355.38720703125 347.5 C 355.38720703125 341.1487248 360.53593183125 336 366.88720703125 336 C 373.23848223125 336 378.38720703125 341.1487248 378.38720703125 347.5 C 378.38720703125 353.8512752 373.23848223125 359 366.88720703125 359 C 360.53593183125 359 355.38720703125 353.8512752 355.38720703125 347.5 Z"/></g><g transform="translate(-262,-174) scale(1,1)"><path fill="none" stroke="#000000" d="M 355.38720703125 347.5 C 355.38720703125 341.1487248 360.53593183125 336 366.88720703125 336 C 373.23848223125 336 378.38720703125 341.1487248 378.38720703125 347.5 C 378.38720703125 353.8512752 373.23848223125 359 366.88720703125 359 C 360.53593183125 359 355.38720703125 353.8512752 355.38720703125 347.5 Z" stroke-miterlimit="10"/></g><g transform="translate(-262,-174) scale(1,1)"><g><path fill="none" stroke="none"/><text fill="#000000" stroke="none" font-family="Arial" font-size="13px" font-style="normal" font-weight="bold" text-decoration="none" x="345.213134765625" y="378.5">Service</text></g></g><g transform="translate(-262,-174) scale(1,1)"><rect fill="#C0C0C0" stroke="none" x="624.205810546875" y="355" width="81.9853515625" height="24" opacity="0.2"/></g><g transform="translate(-262,-174) scale(1,1)"><rect fill="#ffffff" stroke="none" x="617.205810546875" y="348" width="81.9853515625" height="24"/></g><g transform="translate(-262,-174) scale(1,1)"><path fill="none" stroke="#000000" d="M 617.205810546875 348 L 699.191162109375 348 L 699.191162109375 372 L 617.205810546875 372 L 617.205810546875 348 Z Z" stroke-miterlimit="10"/></g><g transform="translate(-262,-174) scale(1,1)"><g><path fill="none" stroke="none"/><text fill="#000000" stroke="none" font-family="Arial" font-size="13px" font-style="normal" font-weight="bold" text-decoration="none" x="624.244873046875" y="367.5">ServiceImpl</text></g></g><g transform="translate(-262,-174) scale(1,1)"><rect fill="#C0C0C0" stroke="none" x="349.880859375" y="402" width="48.0126953125" height="24" opacity="0.2"/></g><g transform="translate(-262,-174) scale(1,1)"><rect fill="#ffffff" stroke="none" x="342.880859375" y="395" width="48.0126953125" height="24"/></g><g transform="translate(-262,-174) scale(1,1)"><path fill="none" stroke="#000000" d="M 342.880859375 395 L 390.8935546875 395 L 390.8935546875 419 L 342.880859375 419 L 342.880859375 395 Z Z" stroke-miterlimit="10"/></g><g transform="translate(-262,-174) scale(1,1)"><g><path fill="none" stroke="none"/><text fill="#000000" stroke="none" font-family="Arial" font-size="13px" font-style="normal" font-weight="bold" text-decoration="none" x="349.193115234375" y="414.5">Filters</text></g></g><g transform="translate(-262,-174) scale(1,1)"><rect fill="#C0C0C0" stroke="none" x="340.486328125" y="437" width="66.8017578125" height="24" opacity="0.2"/></g><g transform="translate(-262,-174) scale(1,1)"><rect fill="#ffffff" stroke="none" x="333.486328125" y="430" width="66.8017578125" height="24"/></g><g transform="translate(-262,-174) scale(1,1)"><path fill="none" stroke="#000000" d="M 333.486328125 430 L 400.2880859375 430 L 400.2880859375 454 L 333.486328125 454 L 333.486328125 430 Z Z" stroke-miterlimit="10"/></g><g transform="translate(-262,-174) scale(1,1)"><g><path fill="none" stroke="none"/><text fill="#000000" stroke="none" font-family="Arial" font-size="13px" font-style="normal" font-weight="bold" text-decoration="none" x="340.880859375" y="449.5">Statistics</text></g></g><g transform="translate(-262,-174) scale(1,1)"><rect fill="#C0C0C0" stroke="none" x="325.44873046875" y="472" width="96.876953125" height="24" opacity="0.2"/></g><g transform="translate(-262,-174) scale(1,1)"><rect fill="#ffffff" stroke="none" x="318.44873046875" y="465" width="96.876953125" height="24"/></g><g transform="translate(-262,-174) scale(1,1)"><path fill="none" stroke="#000000" d="M 318.44873046875 465 L 415.32568359375 465 L 415.32568359375 489 L 318.44873046875 489 L 318.44873046875 465 Z Z" stroke-miterlimit="10"/></g><g transform="translate(-262,-174) scale(1,1)"><g><path fill="none" stroke="none"/><text fill="#000000" stroke="none" font-family="Arial" font-size="13px" font-style="normal" font-weight="bold" text-decoration="none" x="326.7890625" y="484.5">TestController</text></g></g><g transform="translate(-262,-174) scale(1,1)"><rect fill="#C0C0C0" stroke="none" x="337.728271484375" y="507" width="72.31787109375" height="24" opacity="0.2"/></g><g transform="translate(-262,-174) scale(1,1)"><rect fill="#ffffff" stroke="none" x="330.728271484375" y="500" width="72.31787109375" height="24"/></g><g transform="translate(-262,-174) scale(1,1)"><path fill="none" stroke="#000000" d="M 330.728271484375 500 L 403.046142578125 500 L 403.046142578125 524 L 330.728271484375 524 L 330.728271484375 500 Z Z" stroke-miterlimit="10"/></g><g transform="translate(-262,-174) scale(1,1)"><g><path fill="none" stroke="none"/><text fill="#000000" stroke="none" font-family="Arial" font-size="13px" font-style="normal" font-weight="bold" text-decoration="none" x="337.2626953125" y="519.5">TestModel</text></g></g><g transform="translate(-262,-174) scale(1,1)"><rect fill="#C0C0C0" stroke="none" x="333.373779296875" y="542" width="81.02685546875" height="24" opacity="0.2"/></g><g transform="translate(-262,-174) scale(1,1)"><rect fill="#ffffff" stroke="none" x="326.373779296875" y="535" width="81.02685546875" height="24"/></g><g transform="translate(-262,-174) scale(1,1)"><path fill="none" stroke="#000000" d="M 326.373779296875 535 L 407.400634765625 535 L 407.400634765625 559 L 326.373779296875 559 L 326.373779296875 535 Z Z" stroke-miterlimit="10"/></g><g transform="translate(-262,-174) scale(1,1)"><g><path fill="none" stroke="none"/><text fill="#000000" stroke="none" font-family="Arial" font-size="13px" font-style="normal" font-weight="bold" text-decoration="none" x="333.292236328125" y="554.5">TestService</text></g></g><g transform="translate(-262,-174) scale(1,1)"><rect fill="#C0C0C0" stroke="none" x="327.603759765625" y="577" width="92.56689453125" height="24" opacity="0.2"/></g><g transform="translate(-262,-174) scale(1,1)"><rect fill="#ffffff" stroke="none" x="320.603759765625" y="570" width="92.56689453125" height="24"/></g><g transform="translate(-262,-174) scale(1,1)"><path fill="none" stroke="#000000" d="M 320.603759765625 570 L 413.170654296875 570 L 413.170654296875 594 L 320.603759765625 594 L 320.603759765625 570 Z Z" stroke-miterlimit="10"/></g><g transform="translate(-262,-174) scale(1,1)"><g><path fill="none" stroke="none"/><text fill="#000000" stroke="none" font-family="Arial" font-size="13px" font-style="normal" font-weight="bold" text-decoration="none" x="328.9599609375" y="589.5">TestStatistics</text></g></g><g transform="translate(-262,-174) scale(1,1)"><rect fill="#C0C0C0" stroke="none" x="333.392822265625" y="612" width="80.98876953125" height="24" opacity="0.2"/></g><g transform="translate(-262,-174) scale(1,1)"><rect fill="#ffffff" stroke="none" x="326.392822265625" y="605" width="80.98876953125" height="24"/></g><g transform="translate(-262,-174) scale(1,1)"><path fill="none" stroke="#000000" d="M 326.392822265625 605 L 407.381591796875 605 L 407.381591796875 629 L 326.392822265625 629 L 326.392822265625 605 Z Z" stroke-miterlimit="10"/></g><g transform="translate(-262,-174) scale(1,1)"><g><path fill="none" stroke="none"/><text fill="#000000" stroke="none" font-family="Arial" font-size="13px" font-style="normal" font-weight="bold" text-decoration="none" x="333.6572265625" y="624.5">TestThrows</text></g></g><g transform="translate(-262,-174) scale(1,1)"><rect fill="#C0C0C0" stroke="none" x="338.324951171875" y="647" width="71.12451171875" height="24" opacity="0.2"/></g><g transform="translate(-262,-174) scale(1,1)"><rect fill="#ffffff" stroke="none" x="331.324951171875" y="640" width="71.12451171875" height="24"/></g><g transform="translate(-262,-174) scale(1,1)"><path fill="none" stroke="#000000" d="M 331.324951171875 640 L 402.449462890625 640 L 402.449462890625 664 L 331.324951171875 664 L 331.324951171875 640 Z Z" stroke-miterlimit="10"/></g><g transform="translate(-262,-174) scale(1,1)"><g><path fill="none" stroke="none"/><text fill="#000000" stroke="none" font-family="Arial" font-size="13px" font-style="normal" font-weight="bold" text-decoration="none" x="338.341796875" y="659.5">Exception</text></g></g><g transform="translate(-262,-174) scale(1,1)"><path fill="none" stroke="#000000" d="M 579 472 Q 501 472 376 639" stroke-miterlimit="10"/></g><g transform="translate(-262,-174) scale(1,1)"><path fill="#FFFFFF" stroke="none" d="M 381.4395458406902 617.6830738368068 L 376 639 L 394.91968279457393 627.7729967064803"/></g><g transform="translate(-262,-174) scale(1,1)"><path fill="none" stroke="#000000" d="M 381.4395458406902 617.6830738368068 L 376 639 L 394.91968279457393 627.7729967064803 L 381.4395458406902 617.6830738368068" stroke-miterlimit="10"/></g><g transform="translate(-262,-174) scale(1,1)"><path fill="none" stroke="#000000" d="M 550 507 Q 501 507 378 639" stroke-miterlimit="10"/></g><g transform="translate(-262,-174) scale(1,1)"><path fill="#FFFFFF" stroke="none" d="M 385.6968778168078 618.3903403261206 L 378 639 L 398.01574461157617 629.869284384882"/></g><g transform="translate(-262,-174) scale(1,1)"><path fill="none" stroke="#000000" d="M 385.6968778168078 618.3903403261206 L 378 639 L 398.01574461157617 629.869284384882 L 385.6968778168078 618.3903403261206" stroke-miterlimit="10"/></g><g transform="translate(-262,-174) scale(1,1)"><path fill="none" stroke="#000000" d="M 585 541 Q 501 542 382 639" stroke-miterlimit="10"/></g><g transform="translate(-262,-174) scale(1,1)"><path fill="#FFFFFF" stroke="none" d="M 392.43522321305215 619.6323435466813 L 382 639 L 403.0738183109775 632.6838158833114"/></g><g transform="translate(-262,-174) scale(1,1)"><path fill="none" stroke="#000000" d="M 392.43522321305215 619.6323435466813 L 382 639 L 403.0738183109775 632.6838158833114 L 392.43522321305215 619.6323435466813" stroke-miterlimit="10"/></g><g transform="translate(-262,-174) scale(1,1)"><path fill="none" stroke="#000000" d="M 560 600 Q 501 600 400 639" stroke-miterlimit="10"/></g><g transform="translate(-262,-174) scale(1,1)"><path fill="#FFFFFF" stroke="none" d="M 415.92820575757054 623.8246165997529 L 400 639 L 421.9935588127333 639.5323257938923"/></g><g transform="translate(-262,-174) scale(1,1)"><path fill="none" stroke="#000000" d="M 415.92820575757054 623.8246165997529 L 400 639 L 421.9935588127333 639.5323257938923 L 415.92820575757054 623.8246165997529" stroke-miterlimit="10"/></g><g transform="translate(-262,-174) scale(1,1)"><path fill="none" stroke="#000000" d="M 580 634 Q 501 635 403 647" stroke-miterlimit="10"/></g><g transform="translate(-262,-174) scale(1,1)"><path fill="#FFFFFF" stroke="none" d="M 422.1514058742353 636.1730127440592 L 403 647 L 424.19792507142375 652.8862528544315"/></g><g transform="translate(-262,-174) scale(1,1)"><path fill="none" stroke="#000000" d="M 422.1514058742353 636.1730127440592 L 403 647 L 424.19792507142375 652.8862528544315 L 422.1514058742353 636.1730127440592" stroke-miterlimit="10"/></g><g transform="translate(-262,-174) scale(1,1)"><path fill="none" stroke="#000000" d="M 562 670 Q 501 670 403 657" stroke-miterlimit="10"/></g><g transform="translate(-262,-174) scale(1,1)"><path fill="#FFFFFF" stroke="none" d="M 424.25595733966975 651.3268811422516 L 403 657 L 422.0417323902836 668.0187307607014"/></g><g transform="translate(-262,-174) scale(1,1)"><path fill="none" stroke="#000000" d="M 424.25595733966975 651.3268811422516 L 403 657 L 422.0417323902836 668.0187307607014 L 424.25595733966975 651.3268811422516" stroke-miterlimit="10"/></g><g transform="translate(-262,-174) scale(1,1)"><path fill="none" stroke="#000000" d="M 577 705 Q 501 705 399 665" stroke-miterlimit="10"/></g><g transform="translate(-262,-174) scale(1,1)"><path fill="#FFFFFF" stroke="none" d="M 420.9960407048954 664.5826352810983 L 399 665 L 414.84867096465024 680.2584281187235"/></g><g transform="translate(-262,-174) scale(1,1)"><path fill="none" stroke="#000000" d="M 420.9960407048954 664.5826352810983 L 399 665 L 414.84867096465024 680.2584281187235 L 420.9960407048954 664.5826352810983" stroke-miterlimit="10"/></g><g transform="translate(-262,-174) scale(1,1)"><path fill="none" stroke="#000000" d="M 616 360 Q 501 361 378.38720703125 352.36778971354164" stroke-miterlimit="10"/></g></g></svg>