<?xml version="1.0" encoding="utf-8"?>
<!-- Generator: Adobe Illustrator 23.0.2, SVG Export Plug-In . SVG Version: 6.00 Build 0)  -->
<svg version="1.1" id="Layer_1" xmlns="http://www.w3.org/2000/svg" xmlns:xlink="http://www.w3.org/1999/xlink" x="0px" y="0px"
	 viewBox="0 0 836 724" style="enable-background:new 0 0 836 724;" xml:space="preserve">
<style type="text/css">
	.st0{fill:#FFFFFF;}
	.st1{fill:none;stroke:#000000;stroke-miterlimit:10;}
	.st2{font-family:'Arial-BoldMT';}
	.st3{font-size:13px;}
	.st4{font-family:'ArialMT';}
	.st5{opacity:0.2;fill:#C0C0C0;enable-background:new    ;}
</style>
<g>
	<g transform="translate(-126,-230) scale(1,1)">
		<rect x="172" y="300" class="st0" width="335.2" height="100"/>
	</g>
	<g transform="translate(-126,-230) scale(1,1)">
		<path class="st1" d="M172,300h335.2v100H172V300z"/>
	</g>
	<g transform="translate(-126,-230) scale(1,1)">
		<path class="st1" d="M172,325h335.2"/>
	</g>
	<g transform="translate(-126,-230) scale(1,1)">
		<path class="st1" d="M172,363h335.2"/>
	</g>
	<g transform="translate(-126,-230) scale(1,1)">
		<g>
			<path class="st1" d="M0,0"/>
			<text transform="matrix(1 0 0 1 270.9722 319.5)" class="st2 st3">DayNotFoundException</text>
		</g>
	</g>
	<g transform="translate(-126,-230) scale(1,1)">
		<g>
			<path d="M0,0"/>
			<text transform="matrix(1 0 0 1 177 342.5)" class="st4 st3">-serialVersionUID: long = 1L {readOnly}</text>
			<path class="st1" d="M177,342.5h227.3"/>
		</g>
	</g>
	<g transform="translate(-126,-230) scale(1,1)">
		<g>
			<path class="st1" d="M0,0"/>
			<text transform="matrix(1 0 0 1 177 357.5)" class="st4 st3">-message: String</text>
		</g>
	</g>
	<g transform="translate(-126,-230) scale(1,1)">
		<g>
			<path d="M0,0"/>
			<text transform="matrix(1 0 0 1 177 380.5)" class="st4 st3">«constructor»+DayNotFoundException(message: String)</text>
		</g>
	</g>
	<g transform="translate(-126,-230) scale(1,1)">
		<g>
			<path d="M0,0"/>
			<text transform="matrix(1 0 0 1 177 395.5)" class="st4 st3">+getMessage(): String</text>
		</g>
	</g>
	<g transform="translate(-126,-230) scale(1,1)">
		<rect x="545.2" y="307" class="st5" width="386.5" height="100"/>
	</g>
	<g transform="translate(-126,-230) scale(1,1)">
		<rect x="538.2" y="300" class="st0" width="386.5" height="100"/>
	</g>
	<g transform="translate(-126,-230) scale(1,1)">
		<path class="st1" d="M538.2,300h386.5v100H538.2V300z"/>
	</g>
	<g transform="translate(-126,-230) scale(1,1)">
		<path class="st1" d="M538.2,325h386.5"/>
	</g>
	<g transform="translate(-126,-230) scale(1,1)">
		<path class="st1" d="M538.2,363h386.5"/>
	</g>
	<g transform="translate(-126,-230) scale(1,1)">
		<g>
			<path class="st1" d="M0,0"/>
			<text transform="matrix(1 0 0 1 637.2163 319.5)" class="st2 st3">CityStatisticsNotFoundException</text>
		</g>
	</g>
	<g transform="translate(-126,-230) scale(1,1)">
		<g>
			<path d="M0,0"/>
			<text transform="matrix(1 0 0 1 543.2441 342.5)" class="st4 st3">-serialVersionUID: long = 1L {readOnly}</text>
			<path class="st1" d="M543.2,342.5h227.3"/>
		</g>
	</g>
	<g transform="translate(-126,-230) scale(1,1)">
		<g>
			<path class="st1" d="M0,0"/>
			<text transform="matrix(1 0 0 1 543.2441 357.5)" class="st4 st3">-message: String</text>
		</g>
	</g>
	<g transform="translate(-126,-230) scale(1,1)">
		<g>
			<path d="M0,0"/>
			<text transform="matrix(1 0 0 1 543.2441 380.5)" class="st4 st3">«constructor»+CityStatisticsNotFoundException(message: String)</text>
		</g>
	</g>
	<g transform="translate(-126,-230) scale(1,1)">
		<g>
			<path d="M0,0"/>
			<text transform="matrix(1 0 0 1 543.2441 395.5)" class="st4 st3">+getMessage(): String</text>
		</g>
	</g>
	<g transform="translate(-126,-230) scale(1,1)">
		<rect x="183" y="455" class="st5" width="323" height="100"/>
	</g>
	<g transform="translate(-126,-230) scale(1,1)">
		<rect x="176" y="448" class="st0" width="323" height="100"/>
	</g>
	<g transform="translate(-126,-230) scale(1,1)">
		<path class="st1" d="M176,448h323v100H176V448z"/>
	</g>
	<g transform="translate(-126,-230) scale(1,1)">
		<path class="st1" d="M176,473h323"/>
	</g>
	<g transform="translate(-126,-230) scale(1,1)">
		<path class="st1" d="M176,511h323"/>
	</g>
	<g transform="translate(-126,-230) scale(1,1)">
		<g>
			<path class="st1" d="M0,0"/>
			<text transform="matrix(1 0 0 1 274.9722 467.5)" class="st2 st3">IdNotFoundException</text>
		</g>
	</g>
	<g transform="translate(-126,-230) scale(1,1)">
		<g>
			<path d="M0,0"/>
			<text transform="matrix(1 0 0 1 181 490.5)" class="st4 st3">-serialVersionUID: long = 1L {readOnly}</text>
			<path class="st1" d="M181,490.5h227.3"/>
		</g>
	</g>
	<g transform="translate(-126,-230) scale(1,1)">
		<g>
			<path class="st1" d="M0,0"/>
			<text transform="matrix(1 0 0 1 181 505.5)" class="st4 st3">-message: String</text>
		</g>
	</g>
	<g transform="translate(-126,-230) scale(1,1)">
		<g>
			<path d="M0,0"/>
			<text transform="matrix(1 0 0 1 181 528.5)" class="st4 st3">«constructor»+IdNotFoundException(message: String)</text>
		</g>
	</g>
	<g transform="translate(-126,-230) scale(1,1)">
		<g>
			<path d="M0,0"/>
			<text transform="matrix(1 0 0 1 181 543.5)" class="st4 st3">+getMessage(): String</text>
		</g>
	</g>
	<g transform="translate(-126,-230) scale(1,1)">
		<rect x="559" y="455" class="st5" width="369.2" height="100"/>
	</g>
	<g transform="translate(-126,-230) scale(1,1)">
		<rect x="552" y="448" class="st0" width="369.2" height="100"/>
	</g>
	<g transform="translate(-126,-230) scale(1,1)">
		<path class="st1" d="M552,448h369.2v100H552V448z"/>
	</g>
	<g transform="translate(-126,-230) scale(1,1)">
		<path class="st1" d="M552,473h369.2"/>
	</g>
	<g transform="translate(-126,-230) scale(1,1)">
		<path class="st1" d="M552,511h369.2"/>
	</g>
	<g transform="translate(-126,-230) scale(1,1)">
		<g>
			<path class="st1" d="M0,0"/>
			<text transform="matrix(1 0 0 1 650.9722 467.5)" class="st2 st3">ItalianCityNotFoundException</text>
		</g>
	</g>
	<g transform="translate(-126,-230) scale(1,1)">
		<g>
			<path d="M0,0"/>
			<text transform="matrix(1 0 0 1 557 490.5)" class="st4 st3">-serialVersionUID: long = 1L {readOnly}</text>
			<path class="st1" d="M557,490.5h227.3"/>
		</g>
	</g>
	<g transform="translate(-126,-230) scale(1,1)">
		<g>
			<path class="st1" d="M0,0"/>
			<text transform="matrix(1 0 0 1 557 505.5)" class="st4 st3">~message: String</text>
		</g>
	</g>
	<g transform="translate(-126,-230) scale(1,1)">
		<g>
			<path d="M0,0"/>
			<text transform="matrix(1 0 0 1 557 528.5)" class="st4 st3">«constructor»+ItalianCityNotFoundException(message: String)</text>
		</g>
	</g>
	<g transform="translate(-126,-230) scale(1,1)">
		<g>
			<path d="M0,0"/>
			<text transform="matrix(1 0 0 1 557 543.5)" class="st4 st3">+getMessage(): String</text>
		</g>
	</g>
	<g transform="translate(-126,-230) scale(1,1)">
		<rect x="175" y="591" class="st5" width="333.8" height="100"/>
	</g>
	<g transform="translate(-126,-230) scale(1,1)">
		<rect x="168" y="584" class="st0" width="333.8" height="100"/>
	</g>
	<g transform="translate(-126,-230) scale(1,1)">
		<path class="st1" d="M168,584h333.8v100H168V584z"/>
	</g>
	<g transform="translate(-126,-230) scale(1,1)">
		<path class="st1" d="M168,609h333.8"/>
	</g>
	<g transform="translate(-126,-230) scale(1,1)">
		<path class="st1" d="M168,647h333.8"/>
	</g>
	<g transform="translate(-126,-230) scale(1,1)">
		<g>
			<path class="st1" d="M0,0"/>
			<text transform="matrix(1 0 0 1 266.9722 603.5)" class="st2 st3">NegativeStartException</text>
		</g>
	</g>
	<g transform="translate(-126,-230) scale(1,1)">
		<g>
			<path d="M0,0"/>
			<text transform="matrix(1 0 0 1 173 626.5)" class="st4 st3">-serialVersionUID: long = 1L {readOnly}</text>
			<path class="st1" d="M173,626.5h227.3"/>
		</g>
	</g>
	<g transform="translate(-126,-230) scale(1,1)">
		<g>
			<path class="st1" d="M0,0"/>
			<text transform="matrix(1 0 0 1 173 641.5)" class="st4 st3">~message: String</text>
		</g>
	</g>
	<g transform="translate(-126,-230) scale(1,1)">
		<g>
			<path d="M0,0"/>
			<text transform="matrix(1 0 0 1 173 664.5)" class="st4 st3">«constructor»+NegativeStartException(message: String)</text>
		</g>
	</g>
	<g transform="translate(-126,-230) scale(1,1)">
		<g>
			<path d="M0,0"/>
			<text transform="matrix(1 0 0 1 173 679.5)" class="st4 st3">+getMessage(): String</text>
		</g>
	</g>
	<g transform="translate(-126,-230) scale(1,1)">
		<rect x="559" y="591" class="st5" width="365.3" height="100"/>
	</g>
	<g transform="translate(-126,-230) scale(1,1)">
		<rect x="552" y="584" class="st0" width="365.3" height="100"/>
	</g>
	<g transform="translate(-126,-230) scale(1,1)">
		<path class="st1" d="M552,584h365.3v100H552V584z"/>
	</g>
	<g transform="translate(-126,-230) scale(1,1)">
		<path class="st1" d="M552,609h365.3"/>
	</g>
	<g transform="translate(-126,-230) scale(1,1)">
		<path class="st1" d="M552,647h365.3"/>
	</g>
	<g transform="translate(-126,-230) scale(1,1)">
		<g>
			<path class="st1" d="M0,0"/>
			<text transform="matrix(1 0 0 1 650.9722 603.5)" class="st2 st3">WrongHoursPeriodException</text>
		</g>
	</g>
	<g transform="translate(-126,-230) scale(1,1)">
		<g>
			<path d="M0,0"/>
			<text transform="matrix(1 0 0 1 557 626.5)" class="st4 st3">-serialVersionUID: long = 1L {readOnly}</text>
			<path class="st1" d="M557,626.5h227.3"/>
		</g>
	</g>
	<g transform="translate(-126,-230) scale(1,1)">
		<g>
			<path class="st1" d="M0,0"/>
			<text transform="matrix(1 0 0 1 557 641.5)" class="st4 st3">-message: String</text>
		</g>
	</g>
	<g transform="translate(-126,-230) scale(1,1)">
		<g>
			<path d="M0,0"/>
			<text transform="matrix(1 0 0 1 557 664.5)" class="st4 st3">«constructor»+WrongHoursPeriodException(message: String)</text>
		</g>
	</g>
	<g transform="translate(-126,-230) scale(1,1)">
		<g>
			<path d="M0,0"/>
			<text transform="matrix(1 0 0 1 557 679.5)" class="st4 st3">+getMessage(): String</text>
		</g>
	</g>
	<g transform="translate(-126,-230) scale(1,1)">
		<rect x="175" y="727" class="st5" width="337.2" height="100"/>
	</g>
	<g transform="translate(-126,-230) scale(1,1)">
		<rect x="168" y="720" class="st0" width="337.2" height="100"/>
	</g>
	<g transform="translate(-126,-230) scale(1,1)">
		<path class="st1" d="M168,720h337.2v100H168V720z"/>
	</g>
	<g transform="translate(-126,-230) scale(1,1)">
		<path class="st1" d="M168,745h337.2"/>
	</g>
	<g transform="translate(-126,-230) scale(1,1)">
		<path class="st1" d="M168,783h337.2"/>
	</g>
	<g transform="translate(-126,-230) scale(1,1)">
		<g>
			<path class="st1" d="M0,0"/>
			<text transform="matrix(1 0 0 1 266.9722 739.5)" class="st2 st3">WrongMultiplyException</text>
		</g>
	</g>
	<g transform="translate(-126,-230) scale(1,1)">
		<g>
			<path d="M0,0"/>
			<text transform="matrix(1 0 0 1 173 762.5)" class="st4 st3">-serialVersionUID: long = 1L {readOnly}</text>
			<path class="st1" d="M173,762.5h227.3"/>
		</g>
	</g>
	<g transform="translate(-126,-230) scale(1,1)">
		<g>
			<path class="st1" d="M0,0"/>
			<text transform="matrix(1 0 0 1 173 777.5)" class="st4 st3">~message: String</text>
		</g>
	</g>
	<g transform="translate(-126,-230) scale(1,1)">
		<g>
			<path d="M0,0"/>
			<text transform="matrix(1 0 0 1 173 800.5)" class="st4 st3">«constructor»+WrongMultiplyException(message: String)</text>
		</g>
	</g>
	<g transform="translate(-126,-230) scale(1,1)">
		<g>
			<path d="M0,0"/>
			<text transform="matrix(1 0 0 1 173 815.5)" class="st4 st3">+getMessage(): String</text>
		</g>
	</g>
</g>
</svg>
