<?xml version="1.0" encoding="utf-8"?>
<!-- Generator: Adobe Illustrator 23.0.2, SVG Export Plug-In . SVG Version: 6.00 Build 0)  -->
<svg version="1.1" id="Layer_1" xmlns="http://www.w3.org/2000/svg" xmlns:xlink="http://www.w3.org/1999/xlink" x="0px" y="0px"
	 viewBox="0 0 515 427" style="enable-background:new 0 0 515 427;" xml:space="preserve">
<style type="text/css">
	.st0{fill:none;stroke:#000000;stroke-miterlimit:10;}
	.st1{opacity:0.2;fill:#C0C0C0;enable-background:new    ;}
	.st2{fill:#FFFFFF;}
	.st3{font-family:'Arial-BoldMT';}
	.st4{font-size:13px;}
	.st5{font-family:'ArialMT';}
</style>
<g>
	<g transform="translate(-270,-238) scale(1,1)">
		<path class="st0" d="M280,248h495v407H280V248z"/>
	</g>
	<g transform="translate(-270,-238) scale(1,1)">
		<rect x="307" y="275" class="st1" width="212.9" height="370"/>
	</g>
	<g transform="translate(-270,-238) scale(1,1)">
		<rect x="300" y="268" class="st2" width="212.9" height="370"/>
	</g>
	<g transform="translate(-270,-238) scale(1,1)">
		<path class="st0" d="M300,268h212.9v370H300V268z"/>
	</g>
	<g transform="translate(-270,-238) scale(1,1)">
		<path class="st0" d="M300,293h212.9"/>
	</g>
	<g transform="translate(-270,-238) scale(1,1)">
		<path class="st0" d="M300,391h212.9"/>
	</g>
	<g transform="translate(-270,-238) scale(1,1)">
		<g>
			<path class="st0" d="M0,0"/>
			<text transform="matrix(1 0 0 1 395.2493 287.5)" class="st3 st4">City</text>
		</g>
	</g>
	<g transform="translate(-270,-238) scale(1,1)">
		<g>
			<path d="M0,0"/>
			<text transform="matrix(1 0 0 1 305 310.5)" class="st5 st4">-id: long</text>
		</g>
	</g>
	<g transform="translate(-270,-238) scale(1,1)">
		<g>
			<path d="M0,0"/>
			<text transform="matrix(1 0 0 1 305 325.5)" class="st5 st4">-name: String</text>
		</g>
	</g>
	<g transform="translate(-270,-238) scale(1,1)">
		<g>
			<path d="M0,0"/>
			<text transform="matrix(1 0 0 1 305 340.5)" class="st5 st4">-country: String</text>
		</g>
	</g>
	<g transform="translate(-270,-238) scale(1,1)">
		<g>
			<path d="M0,0"/>
			<text transform="matrix(1 0 0 1 305 355.5)" class="st5 st4">-lat: double</text>
		</g>
	</g>
	<g transform="translate(-270,-238) scale(1,1)">
		<g>
			<path d="M0,0"/>
			<text transform="matrix(1 0 0 1 305 370.5)" class="st5 st4">-lon: double</text>
		</g>
	</g>
	<g transform="translate(-270,-238) scale(1,1)">
		<g>
			<path d="M0,0"/>
			<text transform="matrix(1 0 0 1 305 385.5)" class="st5 st4">-weather: Vector</text>
		</g>
	</g>
	<g transform="translate(-270,-238) scale(1,1)">
		<g>
			<path d="M0,0"/>
			<text transform="matrix(1 0 0 1 305 408.5)" class="st5 st4">«constructor»+City()</text>
		</g>
	</g>
	<g transform="translate(-270,-238) scale(1,1)">
		<g>
			<path d="M0,0"/>
			<text transform="matrix(1 0 0 1 305 423.5)" class="st5 st4">«constructor»+City(name: String)</text>
		</g>
	</g>
	<g transform="translate(-270,-238) scale(1,1)">
		<g>
			<path d="M0,0"/>
			<text transform="matrix(1 0 0 1 305 438.5)" class="st5 st4">+getId(): long</text>
		</g>
	</g>
	<g transform="translate(-270,-238) scale(1,1)">
		<g>
			<path d="M0,0"/>
			<text transform="matrix(1 0 0 1 305 453.5)" class="st5 st4">+setId(id: long): void</text>
		</g>
	</g>
	<g transform="translate(-270,-238) scale(1,1)">
		<g>
			<path d="M0,0"/>
			<text transform="matrix(1 0 0 1 305 468.5)" class="st5 st4">+getName(): String</text>
		</g>
	</g>
	<g transform="translate(-270,-238) scale(1,1)">
		<g>
			<path d="M0,0"/>
			<text transform="matrix(1 0 0 1 305 483.5)" class="st5 st4">+setName(name: String): void</text>
		</g>
	</g>
	<g transform="translate(-270,-238) scale(1,1)">
		<g>
			<path d="M0,0"/>
			<text transform="matrix(1 0 0 1 305 498.5)" class="st5 st4">+getCountry(): String</text>
		</g>
	</g>
	<g transform="translate(-270,-238) scale(1,1)">
		<g>
			<path d="M0,0"/>
			<text transform="matrix(1 0 0 1 305 513.5)" class="st5 st4">+setCountry(country: String): void</text>
		</g>
	</g>
	<g transform="translate(-270,-238) scale(1,1)">
		<g>
			<path d="M0,0"/>
			<text transform="matrix(1 0 0 1 305 528.5)" class="st5 st4">+getLat(): double</text>
		</g>
	</g>
	<g transform="translate(-270,-238) scale(1,1)">
		<g>
			<path d="M0,0"/>
			<text transform="matrix(1 0 0 1 305 543.5)" class="st5 st4">+setLat(lat: double): void</text>
		</g>
	</g>
	<g transform="translate(-270,-238) scale(1,1)">
		<g>
			<path d="M0,0"/>
			<text transform="matrix(1 0 0 1 305 558.5)" class="st5 st4">+getLon(): double</text>
		</g>
	</g>
	<g transform="translate(-270,-238) scale(1,1)">
		<g>
			<path d="M0,0"/>
			<text transform="matrix(1 0 0 1 305 573.5)" class="st5 st4">+setLon(lon: double): void</text>
		</g>
	</g>
	<g transform="translate(-270,-238) scale(1,1)">
		<g>
			<path d="M0,0"/>
			<text transform="matrix(1 0 0 1 305 588.5)" class="st5 st4">+getWeather(): Vector</text>
		</g>
	</g>
	<g transform="translate(-270,-238) scale(1,1)">
		<g>
			<path d="M0,0"/>
			<text transform="matrix(1 0 0 1 305 603.5)" class="st5 st4">+setWeather(weather: Vector): void</text>
		</g>
	</g>
	<g transform="translate(-270,-238) scale(1,1)">
		<g>
			<path d="M0,0"/>
			<text transform="matrix(1 0 0 1 305 618.5)" class="st5 st4">+toString(): String</text>
		</g>
	</g>
	<g transform="translate(-270,-238) scale(1,1)">
		<g>
			<path d="M0,0"/>
			<text transform="matrix(1 0 0 1 305 633.5)" class="st5 st4">+equals(obj: Object): boolean</text>
		</g>
	</g>
	<g transform="translate(-270,-238) scale(1,1)">
		<rect x="550.9" y="327.5" class="st1" width="208.1" height="265"/>
	</g>
	<g transform="translate(-270,-238) scale(1,1)">
		<rect x="543.9" y="320.5" class="st2" width="208.1" height="265"/>
	</g>
	<g transform="translate(-270,-238) scale(1,1)">
		<path class="st0" d="M543.9,320.5h208.1v265H543.9V320.5z"/>
	</g>
	<g transform="translate(-270,-238) scale(1,1)">
		<path class="st0" d="M543.9,345.5h208.1"/>
	</g>
	<g transform="translate(-270,-238) scale(1,1)">
		<path class="st0" d="M543.9,413.5h208.1"/>
	</g>
	<g transform="translate(-270,-238) scale(1,1)">
		<g>
			<path class="st0" d="M0,0"/>
			<text transform="matrix(1 0 0 1 622.6321 340)" class="st3 st4">Forecast</text>
		</g>
	</g>
	<g transform="translate(-270,-238) scale(1,1)">
		<g>
			<path d="M0,0"/>
			<text transform="matrix(1 0 0 1 548.8867 363)" class="st5 st4">-pressure: long</text>
		</g>
	</g>
	<g transform="translate(-270,-238) scale(1,1)">
		<g>
			<path d="M0,0"/>
			<text transform="matrix(1 0 0 1 548.8867 378)" class="st5 st4">-visibility: long</text>
		</g>
	</g>
	<g transform="translate(-270,-238) scale(1,1)">
		<g>
			<path d="M0,0"/>
			<text transform="matrix(1 0 0 1 548.8867 393)" class="st5 st4">-dt: long</text>
		</g>
	</g>
	<g transform="translate(-270,-238) scale(1,1)">
		<g>
			<path d="M0,0"/>
			<text transform="matrix(1 0 0 1 548.8867 408)" class="st5 st4">-date: String</text>
		</g>
	</g>
	<g transform="translate(-270,-238) scale(1,1)">
		<g>
			<path d="M0,0"/>
			<text transform="matrix(1 0 0 1 548.8867 431)" class="st5 st4">«constructor»+Forecast()</text>
		</g>
	</g>
	<g transform="translate(-270,-238) scale(1,1)">
		<g>
			<path d="M0,0"/>
			<text transform="matrix(1 0 0 1 548.8867 446)" class="st5 st4">+getPressure(): long</text>
		</g>
	</g>
	<g transform="translate(-270,-238) scale(1,1)">
		<g>
			<path d="M0,0"/>
			<text transform="matrix(1 0 0 1 548.8867 461)" class="st5 st4">+setPressure(pressure: long): void</text>
		</g>
	</g>
	<g transform="translate(-270,-238) scale(1,1)">
		<g>
			<path d="M0,0"/>
			<text transform="matrix(1 0 0 1 548.8867 476)" class="st5 st4">+getVisibility(): long</text>
		</g>
	</g>
	<g transform="translate(-270,-238) scale(1,1)">
		<g>
			<path d="M0,0"/>
			<text transform="matrix(1 0 0 1 548.8867 491)" class="st5 st4">+setVisibility(visibility: long): void</text>
		</g>
	</g>
	<g transform="translate(-270,-238) scale(1,1)">
		<g>
			<path d="M0,0"/>
			<text transform="matrix(1 0 0 1 548.8867 506)" class="st5 st4">+getDt(): long</text>
		</g>
	</g>
	<g transform="translate(-270,-238) scale(1,1)">
		<g>
			<path d="M0,0"/>
			<text transform="matrix(1 0 0 1 548.8867 521)" class="st5 st4">+setDt(dt: long): void</text>
		</g>
	</g>
	<g transform="translate(-270,-238) scale(1,1)">
		<g>
			<path d="M0,0"/>
			<text transform="matrix(1 0 0 1 548.8867 536)" class="st5 st4">+getDate(): String</text>
		</g>
	</g>
	<g transform="translate(-270,-238) scale(1,1)">
		<g>
			<path d="M0,0"/>
			<text transform="matrix(1 0 0 1 548.8867 551)" class="st5 st4">+setDate(date: String): void</text>
		</g>
	</g>
	<g transform="translate(-270,-238) scale(1,1)">
		<g>
			<path d="M0,0"/>
			<text transform="matrix(1 0 0 1 548.8867 566)" class="st5 st4">+toString(): String</text>
		</g>
	</g>
	<g transform="translate(-270,-238) scale(1,1)">
		<g>
			<path d="M0,0"/>
			<text transform="matrix(1 0 0 1 548.8867 581)" class="st5 st4">+equals(obj: Object): boolean</text>
		</g>
	</g>
</g>
</svg>
