<?xml version="1.0" encoding="utf-8"?>
<!-- Generator: Adobe Illustrator 23.0.2, SVG Export Plug-In . SVG Version: 6.00 Build 0)  -->
<svg version="1.1" id="Layer_1" xmlns="http://www.w3.org/2000/svg" xmlns:xlink="http://www.w3.org/1999/xlink" x="0px" y="0px"
	 viewBox="0 0 1019 99" style="enable-background:new 0 0 1019 99;" xml:space="preserve">
<style type="text/css">
	.st0{fill:#FFFFFF;}
	.st1{fill:none;stroke:#000000;stroke-miterlimit:10;}
	.st2{opacity:0.2;fill:#C0C0C0;enable-background:new    ;}
	.st3{font-family:'Arial-BoldMT';}
	.st4{font-size:13px;}
</style>
<g>
	<g transform="translate(2,10) scale(1,1)">
		<rect x="8" y="0" class="st0" width="999" height="79"/>
	</g>
	<g transform="translate(2,10) scale(1,1)">
		<path class="st1" d="M8,0h999v79H8V0z"/>
	</g>
	<g transform="translate(2,10) scale(1,1)">
		<rect x="27" y="29.5" class="st2" width="19.6" height="15"/>
	</g>
	<g transform="translate(2,10) scale(1,1)">
		<rect x="27" y="43.5" class="st2" width="49" height="25"/>
	</g>
	<g transform="translate(2,10) scale(1,1)">
		<rect x="20" y="37.5" class="st0" width="49" height="24"/>
	</g>
	<g transform="translate(2,10) scale(1,1)">
		<path class="st1" d="M20,37.5h49v24H20V37.5z"/>
	</g>
	<g transform="translate(2,10) scale(1,1)">
		<rect x="20" y="22.5" class="st0" width="19.6" height="15"/>
	</g>
	<g transform="translate(2,10) scale(1,1)">
		<path class="st1" d="M20,22.5h19.6v15H20V22.5z"/>
	</g>
	<g transform="translate(2,10) scale(1,1)">
		<rect x="20" y="36.5" class="st0" width="49" height="25"/>
	</g>
	<g transform="translate(2,10) scale(1,1)">
		<path class="st1" d="M20,36.5h49v25H20V36.5z"/>
	</g>
	<g transform="translate(2,10) scale(1,1)">
		<g>
			<path class="st1" d="M0,0"/>
			<text transform="matrix(1 0 0 1 41.25 57)" class="st3 st4">it</text>
		</g>
	</g>
	<g transform="translate(2,10) scale(1,1)">
		<rect x="107" y="27" class="st2" width="71.1" height="44"/>
	</g>
	<g transform="translate(2,10) scale(1,1)">
		<rect x="100" y="20" class="st0" width="71.1" height="44"/>
	</g>
	<g transform="translate(2,10) scale(1,1)">
		<path class="st1" d="M100,20h71.1v44H100V20z"/>
	</g>
	<g transform="translate(2,10) scale(1,1)">
		<path class="st1" d="M100,45h71.1"/>
	</g>
	<g transform="translate(2,10) scale(1,1)">
		<path class="st1" d="M100,55h71.1"/>
	</g>
	<g transform="translate(2,10) scale(1,1)">
		<g>
			<path class="st1" d="M0,0"/>
			<text transform="matrix(1 0 0 1 107.0168 39.5)" class="st3 st4">Exception</text>
		</g>
	</g>
	<g transform="translate(2,10) scale(1,1)">
		<rect x="209.1" y="27" class="st2" width="107.2" height="44"/>
	</g>
	<g transform="translate(2,10) scale(1,1)">
		<rect x="202.1" y="20" class="st0" width="107.2" height="44"/>
	</g>
	<g transform="translate(2,10) scale(1,1)">
		<path class="st1" d="M202.1,20h107.2v44H202.1V20z"/>
	</g>
	<g transform="translate(2,10) scale(1,1)">
		<path class="st1" d="M202.1,45h107.2"/>
	</g>
	<g transform="translate(2,10) scale(1,1)">
		<path class="st1" d="M202.1,55h107.2"/>
	</g>
	<g transform="translate(2,10) scale(1,1)">
		<g>
			<path class="st1" d="M0,0"/>
			<text transform="matrix(1 0 0 1 210.2205 39.5)" class="st3 st4">ResponseEntity</text>
		</g>
	</g>
	<g transform="translate(2,10) scale(1,1)">
		<rect x="347.4" y="27" class="st2" width="48.7" height="44"/>
	</g>
	<g transform="translate(2,10) scale(1,1)">
		<rect x="340.4" y="20" class="st0" width="48.7" height="44"/>
	</g>
	<g transform="translate(2,10) scale(1,1)">
		<path class="st1" d="M340.4,20h48.7v44h-48.7V20z"/>
	</g>
	<g transform="translate(2,10) scale(1,1)">
		<path class="st1" d="M340.4,45h48.7"/>
	</g>
	<g transform="translate(2,10) scale(1,1)">
		<path class="st1" d="M340.4,55h48.7"/>
	</g>
	<g transform="translate(2,10) scale(1,1)">
		<g>
			<path class="st1" d="M0,0"/>
			<text transform="matrix(1 0 0 1 346.3113 39.5)" class="st3 st4">Vector</text>
		</g>
	</g>
	<g transform="translate(2,10) scale(1,1)">
		<rect x="427.1" y="27" class="st2" width="49.5" height="44"/>
	</g>
	<g transform="translate(2,10) scale(1,1)">
		<rect x="420.1" y="20" class="st0" width="49.5" height="44"/>
	</g>
	<g transform="translate(2,10) scale(1,1)">
		<path class="st1" d="M420.1,20h49.5v44h-49.5V20z"/>
	</g>
	<g transform="translate(2,10) scale(1,1)">
		<path class="st1" d="M420.1,45h49.5"/>
	</g>
	<g transform="translate(2,10) scale(1,1)">
		<path class="st1" d="M420.1,55h49.5"/>
	</g>
	<g transform="translate(2,10) scale(1,1)">
		<g>
			<path class="st1" d="M0,0"/>
			<text transform="matrix(1 0 0 1 426.0508 39.5)" class="st3 st4">Object</text>
		</g>
	</g>
	<g transform="translate(2,10) scale(1,1)">
		<rect x="507.6" y="27" class="st2" width="84.9" height="44"/>
	</g>
	<g transform="translate(2,10) scale(1,1)">
		<rect x="500.6" y="20" class="st0" width="84.9" height="44"/>
	</g>
	<g transform="translate(2,10) scale(1,1)">
		<path class="st1" d="M500.6,20h84.9v44h-84.9V20z"/>
	</g>
	<g transform="translate(2,10) scale(1,1)">
		<path class="st1" d="M500.6,45h84.9"/>
	</g>
	<g transform="translate(2,10) scale(1,1)">
		<path class="st1" d="M500.6,55h84.9"/>
	</g>
	<g transform="translate(2,10) scale(1,1)">
		<g>
			<path class="st1" d="M0,0"/>
			<text transform="matrix(1 0 0 1 506.8694 39.5)" class="st3 st4">JSONObject</text>
		</g>
	</g>
	<g transform="translate(2,10) scale(1,1)">
		<rect x="623.4" y="27" class="st2" width="78.4" height="44"/>
	</g>
	<g transform="translate(2,10) scale(1,1)">
		<rect x="616.4" y="20" class="st0" width="78.4" height="44"/>
	</g>
	<g transform="translate(2,10) scale(1,1)">
		<path class="st1" d="M616.4,20h78.4v44h-78.4V20z"/>
	</g>
	<g transform="translate(2,10) scale(1,1)">
		<path class="st1" d="M616.4,45h78.4"/>
	</g>
	<g transform="translate(2,10) scale(1,1)">
		<path class="st1" d="M616.4,55h78.4"/>
	</g>
	<g transform="translate(2,10) scale(1,1)">
		<g>
			<path class="st1" d="M0,0"/>
			<text transform="matrix(1 0 0 1 622.7366 39.5)" class="st3 st4">JSONArray</text>
		</g>
	</g>
	<g transform="translate(2,10) scale(1,1)">
		<rect x="732.8" y="27" class="st2" width="155.4" height="44"/>
	</g>
	<g transform="translate(2,10) scale(1,1)">
		<rect x="725.8" y="20" class="st0" width="155.4" height="44"/>
	</g>
	<g transform="translate(2,10) scale(1,1)">
		<path class="st1" d="M725.8,20h155.4v44H725.8V20z"/>
	</g>
	<g transform="translate(2,10) scale(1,1)">
		<path class="st1" d="M725.8,45h155.4"/>
	</g>
	<g transform="translate(2,10) scale(1,1)">
		<path class="st1" d="M725.8,55h155.4"/>
	</g>
	<g transform="translate(2,10) scale(1,1)">
		<g>
			<path class="st1" d="M0,0"/>
			<text transform="matrix(1 0 0 1 736.0234 39.5)" class="st3 st4">WebApplicationContext</text>
		</g>
	</g>
	<g transform="translate(2,10) scale(1,1)">
		<rect x="919.2" y="27" class="st2" width="67.5" height="44"/>
	</g>
	<g transform="translate(2,10) scale(1,1)">
		<rect x="912.2" y="20" class="st0" width="67.5" height="44"/>
	</g>
	<g transform="translate(2,10) scale(1,1)">
		<path class="st1" d="M912.2,20h67.5v44h-67.5V20z"/>
	</g>
	<g transform="translate(2,10) scale(1,1)">
		<path class="st1" d="M912.2,45h67.5"/>
	</g>
	<g transform="translate(2,10) scale(1,1)">
		<path class="st1" d="M912.2,55h67.5"/>
	</g>
	<g transform="translate(2,10) scale(1,1)">
		<g>
			<path class="st1" d="M0,0"/>
			<text transform="matrix(1 0 0 1 918.4712 39.5)" class="st3 st4">MockMvc</text>
		</g>
	</g>
</g>
</svg>
