<?xml version="1.0" encoding="utf-8"?>
<!-- Generator: Adobe Illustrator 23.0.2, SVG Export Plug-In . SVG Version: 6.00 Build 0)  -->
<svg version="1.1" id="Layer_1" xmlns="http://www.w3.org/2000/svg" xmlns:xlink="http://www.w3.org/1999/xlink" x="0px" y="0px"
	 viewBox="0 0 499 331" style="enable-background:new 0 0 499 331;" xml:space="preserve">
<style type="text/css">
	.st0{fill:none;stroke:#000000;stroke-miterlimit:10;}
	.st1{opacity:0.2;fill:#C0C0C0;enable-background:new    ;}
	.st2{fill:#FFFFFF;}
	.st3{font-family:'Arial-BoldMT';}
	.st4{font-size:13px;}
</style>
<g>
	<g transform="translate(-190,-150) scale(1,1)">
		<path class="st0" d="M200,160h479v311H200V160z"/>
	</g>
	<g transform="translate(-190,-150) scale(1,1)">
		<rect x="419.6" y="179" class="st1" width="19.6" height="15"/>
	</g>
	<g transform="translate(-190,-150) scale(1,1)">
		<rect x="419.6" y="193" class="st1" width="49" height="25"/>
	</g>
	<g transform="translate(-190,-150) scale(1,1)">
		<rect x="412.6" y="187" class="st2" width="49" height="24"/>
	</g>
	<g transform="translate(-190,-150) scale(1,1)">
		<path class="st0" d="M412.6,187h49v24h-49V187z"/>
	</g>
	<g transform="translate(-190,-150) scale(1,1)">
		<rect x="412.6" y="172" class="st2" width="19.6" height="15"/>
	</g>
	<g transform="translate(-190,-150) scale(1,1)">
		<path class="st0" d="M412.6,172h19.6v15h-19.6V172z"/>
	</g>
	<g transform="translate(-190,-150) scale(1,1)">
		<rect x="412.6" y="186" class="st2" width="49" height="25"/>
	</g>
	<g transform="translate(-190,-150) scale(1,1)">
		<path class="st0" d="M412.6,186h49v25h-49V186z"/>
	</g>
	<g transform="translate(-190,-150) scale(1,1)">
		<g>
			<path class="st0" d="M0,0"/>
			<text transform="matrix(1 0 0 1 433.8872 206.5)" class="st3 st4">it</text>
		</g>
	</g>
	<g transform="translate(-190,-150) scale(1,1)">
		<rect x="416.5" y="249" class="st1" width="22.1" height="15"/>
	</g>
	<g transform="translate(-190,-150) scale(1,1)">
		<rect x="416.5" y="263" class="st1" width="55.2" height="25"/>
	</g>
	<g transform="translate(-190,-150) scale(1,1)">
		<rect x="409.5" y="257" class="st2" width="55.2" height="24"/>
	</g>
	<g transform="translate(-190,-150) scale(1,1)">
		<path class="st0" d="M409.5,257h55.2v24h-55.2V257z"/>
	</g>
	<g transform="translate(-190,-150) scale(1,1)">
		<rect x="409.5" y="242" class="st2" width="22.1" height="15"/>
	</g>
	<g transform="translate(-190,-150) scale(1,1)">
		<path class="st0" d="M409.5,242h22.1v15h-22.1V242z"/>
	</g>
	<g transform="translate(-190,-150) scale(1,1)">
		<rect x="409.5" y="256" class="st2" width="55.2" height="25"/>
	</g>
	<g transform="translate(-190,-150) scale(1,1)">
		<path class="st0" d="M409.5,256h55.2v25h-55.2V256z"/>
	</g>
	<g transform="translate(-190,-150) scale(1,1)">
		<g>
			<path class="st0" d="M0,0"/>
			<text transform="matrix(1 0 0 1 416.1836 276.5)" class="st3 st4">univpm</text>
		</g>
	</g>
	<g transform="translate(-190,-150) scale(1,1)">
		<rect x="397" y="319" class="st1" width="37.7" height="15"/>
	</g>
	<g transform="translate(-190,-150) scale(1,1)">
		<rect x="397" y="333" class="st1" width="94.3" height="25"/>
	</g>
	<g transform="translate(-190,-150) scale(1,1)">
		<rect x="390" y="327" class="st2" width="94.3" height="24"/>
	</g>
	<g transform="translate(-190,-150) scale(1,1)">
		<path class="st0" d="M390,327h94.3v24H390V327z"/>
	</g>
	<g transform="translate(-190,-150) scale(1,1)">
		<rect x="390" y="312" class="st2" width="37.7" height="15"/>
	</g>
	<g transform="translate(-190,-150) scale(1,1)">
		<path class="st0" d="M390,312h37.7v15H390V312z"/>
	</g>
	<g transform="translate(-190,-150) scale(1,1)">
		<rect x="390" y="326" class="st2" width="94.3" height="25"/>
	</g>
	<g transform="translate(-190,-150) scale(1,1)">
		<path class="st0" d="M390,326h94.3v25H390V326z"/>
	</g>
	<g transform="translate(-190,-150) scale(1,1)">
		<g>
			<path class="st0" d="M0,0"/>
			<text transform="matrix(1 0 0 1 398.1213 346.5)" class="st3 st4">pressurestats</text>
		</g>
	</g>
	<g transform="translate(-190,-150) scale(1,1)">
		<rect x="219" y="389" class="st1" width="27.6" height="15"/>
	</g>
	<g transform="translate(-190,-150) scale(1,1)">
		<rect x="219" y="403" class="st1" width="69" height="25"/>
	</g>
	<g transform="translate(-190,-150) scale(1,1)">
		<rect x="212" y="397" class="st2" width="69" height="24"/>
	</g>
	<g transform="translate(-190,-150) scale(1,1)">
		<path class="st0" d="M212,397h69v24h-69V397z"/>
	</g>
	<g transform="translate(-190,-150) scale(1,1)">
		<rect x="212" y="382" class="st2" width="27.6" height="15"/>
	</g>
	<g transform="translate(-190,-150) scale(1,1)">
		<path class="st0" d="M212,382h27.6v15H212V382z"/>
	</g>
	<g transform="translate(-190,-150) scale(1,1)">
		<rect x="212" y="396" class="st2" width="69" height="25"/>
	</g>
	<g transform="translate(-190,-150) scale(1,1)">
		<path class="st0" d="M212,396h69v25h-69V396z"/>
	</g>
	<g transform="translate(-190,-150) scale(1,1)">
		<g>
			<path class="st0" d="M0,0"/>
			<text transform="matrix(1 0 0 1 219.7437 416.5)" class="st3 st4">controller</text>
		</g>
	</g>
	<g transform="translate(-190,-150) scale(1,1)">
		<rect x="319" y="389" class="st1" width="27.9" height="15"/>
	</g>
	<g transform="translate(-190,-150) scale(1,1)">
		<rect x="319" y="403" class="st1" width="69.7" height="25"/>
	</g>
	<g transform="translate(-190,-150) scale(1,1)">
		<rect x="312" y="397" class="st2" width="69.7" height="24"/>
	</g>
	<g transform="translate(-190,-150) scale(1,1)">
		<path class="st0" d="M312,397h69.7v24H312V397z"/>
	</g>
	<g transform="translate(-190,-150) scale(1,1)">
		<rect x="312" y="382" class="st2" width="27.9" height="15"/>
	</g>
	<g transform="translate(-190,-150) scale(1,1)">
		<path class="st0" d="M312,382h27.9v15H312V382z"/>
	</g>
	<g transform="translate(-190,-150) scale(1,1)">
		<rect x="312" y="396" class="st2" width="69.7" height="25"/>
	</g>
	<g transform="translate(-190,-150) scale(1,1)">
		<path class="st0" d="M312,396h69.7v25H312V396z"/>
	</g>
	<g transform="translate(-190,-150) scale(1,1)">
		<g>
			<path class="st0" d="M0,0"/>
			<text transform="matrix(1 0 0 1 318.9705 416.5)" class="st3 st4">exception</text>
		</g>
	</g>
	<g transform="translate(-190,-150) scale(1,1)">
		<rect x="419.6" y="389" class="st1" width="19.6" height="15"/>
	</g>
	<g transform="translate(-190,-150) scale(1,1)">
		<rect x="419.6" y="403" class="st1" width="49" height="25"/>
	</g>
	<g transform="translate(-190,-150) scale(1,1)">
		<rect x="412.6" y="397" class="st2" width="49" height="24"/>
	</g>
	<g transform="translate(-190,-150) scale(1,1)">
		<path class="st0" d="M412.6,397h49v24h-49V397z"/>
	</g>
	<g transform="translate(-190,-150) scale(1,1)">
		<rect x="412.6" y="382" class="st2" width="19.6" height="15"/>
	</g>
	<g transform="translate(-190,-150) scale(1,1)">
		<path class="st0" d="M412.6,382h19.6v15h-19.6V382z"/>
	</g>
	<g transform="translate(-190,-150) scale(1,1)">
		<rect x="412.6" y="396" class="st2" width="49" height="25"/>
	</g>
	<g transform="translate(-190,-150) scale(1,1)">
		<path class="st0" d="M412.6,396h49v25h-49V396z"/>
	</g>
	<g transform="translate(-190,-150) scale(1,1)">
		<g>
			<path class="st0" d="M0,0"/>
			<text transform="matrix(1 0 0 1 419.4336 416.5)" class="st3 st4">model</text>
		</g>
	</g>
	<g transform="translate(-190,-150) scale(1,1)">
		<rect x="499.6" y="389" class="st1" width="21.5" height="15"/>
	</g>
	<g transform="translate(-190,-150) scale(1,1)">
		<rect x="499.6" y="403" class="st1" width="53.8" height="25"/>
	</g>
	<g transform="translate(-190,-150) scale(1,1)">
		<rect x="492.6" y="397" class="st2" width="53.8" height="24"/>
	</g>
	<g transform="translate(-190,-150) scale(1,1)">
		<path class="st0" d="M492.6,397h53.8v24h-53.8V397z"/>
	</g>
	<g transform="translate(-190,-150) scale(1,1)">
		<rect x="492.6" y="382" class="st2" width="21.5" height="15"/>
	</g>
	<g transform="translate(-190,-150) scale(1,1)">
		<path class="st0" d="M492.6,382h21.5v15h-21.5V382z"/>
	</g>
	<g transform="translate(-190,-150) scale(1,1)">
		<rect x="492.6" y="396" class="st2" width="53.8" height="25"/>
	</g>
	<g transform="translate(-190,-150) scale(1,1)">
		<path class="st0" d="M492.6,396h53.8v25h-53.8V396z"/>
	</g>
	<g transform="translate(-190,-150) scale(1,1)">
		<g>
			<path class="st0" d="M0,0"/>
			<text transform="matrix(1 0 0 1 498.959 416.5)" class="st3 st4">service</text>
		</g>
	</g>
	<g transform="translate(-190,-150) scale(1,1)">
		<rect x="584.5" y="389" class="st1" width="26.1" height="15"/>
	</g>
	<g transform="translate(-190,-150) scale(1,1)">
		<rect x="584.5" y="403" class="st1" width="65.4" height="25"/>
	</g>
	<g transform="translate(-190,-150) scale(1,1)">
		<rect x="577.5" y="397" class="st2" width="65.4" height="24"/>
	</g>
	<g transform="translate(-190,-150) scale(1,1)">
		<path class="st0" d="M577.5,397h65.4v24h-65.4V397z"/>
	</g>
	<g transform="translate(-190,-150) scale(1,1)">
		<rect x="577.5" y="382" class="st2" width="26.1" height="15"/>
	</g>
	<g transform="translate(-190,-150) scale(1,1)">
		<path class="st0" d="M577.5,382h26.1v15h-26.1V382z"/>
	</g>
	<g transform="translate(-190,-150) scale(1,1)">
		<rect x="577.5" y="396" class="st2" width="65.4" height="25"/>
	</g>
	<g transform="translate(-190,-150) scale(1,1)">
		<path class="st0" d="M577.5,396h65.4v25h-65.4V396z"/>
	</g>
	<g transform="translate(-190,-150) scale(1,1)">
		<g>
			<path class="st0" d="M0,0"/>
			<text transform="matrix(1 0 0 1 585.2175 416.5)" class="st3 st4">statistics</text>
		</g>
	</g>
	<g transform="translate(-190,-150) scale(1,1)">
		<path class="st0" d="M438,241c0-9.3,0-19,0-29"/>
	</g>
	<g transform="translate(-190,-150) scale(1,1)">
		<path class="st2" d="M431,219c0-3.9,3.1-7,7-7s7,3.1,7,7s-3.1,7-7,7S431,222.9,431,219z"/>
	</g>
	<g transform="translate(-190,-150) scale(1,1)">
		<path class="st0" d="M431,219c0-3.9,3.1-7,7-7s7,3.1,7,7s-3.1,7-7,7S431,222.9,431,219z"/>
	</g>
	<g transform="translate(-190,-150) scale(1,1)">
		<path class="st0" d="M438,226v-14"/>
	</g>
	<g transform="translate(-190,-150) scale(1,1)">
		<path class="st0" d="M445,219h-14"/>
	</g>
	<g transform="translate(-190,-150) scale(1,1)">
		<path class="st0" d="M438,311c0-9.3,0-19,0-29"/>
	</g>
	<g transform="translate(-190,-150) scale(1,1)">
		<path class="st2" d="M431,289c0-3.9,3.1-7,7-7s7,3.1,7,7s-3.1,7-7,7S431,292.9,431,289z"/>
	</g>
	<g transform="translate(-190,-150) scale(1,1)">
		<path class="st0" d="M431,289c0-3.9,3.1-7,7-7s7,3.1,7,7s-3.1,7-7,7S431,292.9,431,289z"/>
	</g>
	<g transform="translate(-190,-150) scale(1,1)">
		<path class="st0" d="M438,296v-14"/>
	</g>
	<g transform="translate(-190,-150) scale(1,1)">
		<path class="st0" d="M445,289h-14"/>
	</g>
	<g transform="translate(-190,-150) scale(1,1)">
		<path class="st0" d="M247,381c0-9.3,47.3-23,142-41"/>
	</g>
	<g transform="translate(-190,-150) scale(1,1)">
		<path class="st2" d="M375.1,341.3c0-3.9,3.1-7,7-7s7,3.1,7,7s-3.1,7-7,7S375.1,345.2,375.1,341.3z"/>
	</g>
	<g transform="translate(-190,-150) scale(1,1)">
		<path class="st0" d="M375.1,341.3c0-3.9,3.1-7,7-7s7,3.1,7,7s-3.1,7-7,7S375.1,345.2,375.1,341.3z"/>
	</g>
	<g transform="translate(-190,-150) scale(1,1)">
		<path class="st0" d="M375.2,342.6L389,340"/>
	</g>
	<g transform="translate(-190,-150) scale(1,1)">
		<path class="st0" d="M383.4,348.2l-2.6-13.8"/>
	</g>
	<g transform="translate(-190,-150) scale(1,1)">
		<path class="st0" d="M347,381c0-9.3,14-19.7,42-31"/>
	</g>
	<g transform="translate(-190,-150) scale(1,1)">
		<path class="st2" d="M375.5,352.6c0-3.9,3.1-7,7-7s7,3.1,7,7s-3.1,7-7,7S375.5,356.5,375.5,352.6z"/>
	</g>
	<g transform="translate(-190,-150) scale(1,1)">
		<path class="st0" d="M375.5,352.6c0-3.9,3.1-7,7-7s7,3.1,7,7s-3.1,7-7,7S375.5,356.5,375.5,352.6z"/>
	</g>
	<g transform="translate(-190,-150) scale(1,1)">
		<path class="st0" d="M376,355.3l13-5.3"/>
	</g>
	<g transform="translate(-190,-150) scale(1,1)">
		<path class="st0" d="M385.1,359.1l-5.3-13"/>
	</g>
	<g transform="translate(-190,-150) scale(1,1)">
		<path class="st0" d="M438,381c0-9.3,0-19,0-29"/>
	</g>
	<g transform="translate(-190,-150) scale(1,1)">
		<path class="st2" d="M431,359c0-3.9,3.1-7,7-7s7,3.1,7,7s-3.1,7-7,7S431,362.9,431,359z"/>
	</g>
	<g transform="translate(-190,-150) scale(1,1)">
		<path class="st0" d="M431,359c0-3.9,3.1-7,7-7s7,3.1,7,7s-3.1,7-7,7S431,362.9,431,359z"/>
	</g>
	<g transform="translate(-190,-150) scale(1,1)">
		<path class="st0" d="M438,366v-14"/>
	</g>
	<g transform="translate(-190,-150) scale(1,1)">
		<path class="st0" d="M445,359h-14"/>
	</g>
	<g transform="translate(-190,-150) scale(1,1)">
		<path class="st0" d="M520,381c0-9.3-11.7-19-35-29"/>
	</g>
	<g transform="translate(-190,-150) scale(1,1)">
		<path class="st2" d="M484.4,354.8c0-3.9,3.1-7,7-7s7,3.1,7,7s-3.1,7-7,7S484.4,358.6,484.4,354.8z"/>
	</g>
	<g transform="translate(-190,-150) scale(1,1)">
		<path class="st0" d="M484.4,354.8c0-3.9,3.1-7,7-7s7,3.1,7,7s-3.1,7-7,7S484.4,358.6,484.4,354.8z"/>
	</g>
	<g transform="translate(-190,-150) scale(1,1)">
		<path class="st0" d="M497.9,357.5L485,352"/>
	</g>
	<g transform="translate(-190,-150) scale(1,1)">
		<path class="st0" d="M494.2,348.3l-5.5,12.9"/>
	</g>
	<g transform="translate(-190,-150) scale(1,1)">
		<path class="st0" d="M611,381c0-9.3-42-22.7-126-40"/>
	</g>
	<g transform="translate(-190,-150) scale(1,1)">
		<path class="st2" d="M484.9,342.4c0-3.9,3.1-7,7-7s7,3.1,7,7s-3.1,7-7,7S484.9,346.3,484.9,342.4z"/>
	</g>
	<g transform="translate(-190,-150) scale(1,1)">
		<path class="st0" d="M484.9,342.4c0-3.9,3.1-7,7-7s7,3.1,7,7s-3.1,7-7,7S484.9,346.3,484.9,342.4z"/>
	</g>
	<g transform="translate(-190,-150) scale(1,1)">
		<path class="st0" d="M498.7,343.8L485,341"/>
	</g>
	<g transform="translate(-190,-150) scale(1,1)">
		<path class="st0" d="M493.3,335.6l-2.8,13.7"/>
	</g>
</g>
</svg>
