<?xml version="1.0" encoding="utf-8"?>
<!-- Generator: Adobe Illustrator 23.0.2, SVG Export Plug-In . SVG Version: 6.00 Build 0)  -->
<svg version="1.1" id="Layer_1" xmlns="http://www.w3.org/2000/svg" xmlns:xlink="http://www.w3.org/1999/xlink" x="0px" y="0px"
	 viewBox="0 0 819 467" style="enable-background:new 0 0 819 467;" xml:space="preserve">
<style type="text/css">
	.st0{fill:#FFFFFF;}
	.st1{fill:none;stroke:#000000;stroke-miterlimit:10;}
	.st2{opacity:0.2;fill:#C0C0C0;enable-background:new    ;}
	.st3{font-family:'Arial-BoldMT';}
	.st4{font-size:13px;}
	.st5{font-family:'ArialMT';}
</style>
<g>
	<g transform="translate(-214,-166) scale(1,1)">
		<rect x="224" y="176" class="st0" width="799" height="447"/>
	</g>
	<g transform="translate(-214,-166) scale(1,1)">
		<path class="st1" d="M224,176h799v447H224V176z"/>
	</g>
	<g transform="translate(-214,-166) scale(1,1)">
		<rect x="319" y="191" class="st2" width="27.6" height="15"/>
	</g>
	<g transform="translate(-214,-166) scale(1,1)">
		<rect x="319" y="205" class="st2" width="69" height="25"/>
	</g>
	<g transform="translate(-214,-166) scale(1,1)">
		<rect x="312" y="199" class="st0" width="69" height="24"/>
	</g>
	<g transform="translate(-214,-166) scale(1,1)">
		<path class="st1" d="M312,199h69v24h-69V199z"/>
	</g>
	<g transform="translate(-214,-166) scale(1,1)">
		<rect x="312" y="184" class="st0" width="27.6" height="15"/>
	</g>
	<g transform="translate(-214,-166) scale(1,1)">
		<path class="st1" d="M312,184h27.6v15H312V184z"/>
	</g>
	<g transform="translate(-214,-166) scale(1,1)">
		<rect x="312" y="198" class="st0" width="69" height="25"/>
	</g>
	<g transform="translate(-214,-166) scale(1,1)">
		<path class="st1" d="M312,198h69v25h-69V198z"/>
	</g>
	<g transform="translate(-214,-166) scale(1,1)">
		<g>
			<path class="st1" d="M0,0"/>
			<text transform="matrix(1 0 0 1 319.7437 218.5)" class="st3 st4">controller</text>
		</g>
	</g>
	<g transform="translate(-214,-166) scale(1,1)">
		<rect x="415" y="191" class="st2" width="27.9" height="15"/>
	</g>
	<g transform="translate(-214,-166) scale(1,1)">
		<rect x="415" y="205" class="st2" width="69.7" height="25"/>
	</g>
	<g transform="translate(-214,-166) scale(1,1)">
		<rect x="408" y="199" class="st0" width="69.7" height="24"/>
	</g>
	<g transform="translate(-214,-166) scale(1,1)">
		<path class="st1" d="M408,199h69.7v24H408V199z"/>
	</g>
	<g transform="translate(-214,-166) scale(1,1)">
		<rect x="408" y="184" class="st0" width="27.9" height="15"/>
	</g>
	<g transform="translate(-214,-166) scale(1,1)">
		<path class="st1" d="M408,184h27.9v15H408V184z"/>
	</g>
	<g transform="translate(-214,-166) scale(1,1)">
		<rect x="408" y="198" class="st0" width="69.7" height="25"/>
	</g>
	<g transform="translate(-214,-166) scale(1,1)">
		<path class="st1" d="M408,198h69.7v25H408V198z"/>
	</g>
	<g transform="translate(-214,-166) scale(1,1)">
		<g>
			<path class="st1" d="M0,0"/>
			<text transform="matrix(1 0 0 1 414.9705 218.5)" class="st3 st4">exception</text>
		</g>
	</g>
	<g transform="translate(-214,-166) scale(1,1)">
		<rect x="515.6" y="191" class="st2" width="19.6" height="15"/>
	</g>
	<g transform="translate(-214,-166) scale(1,1)">
		<rect x="515.6" y="205" class="st2" width="49" height="25"/>
	</g>
	<g transform="translate(-214,-166) scale(1,1)">
		<rect x="508.6" y="199" class="st0" width="49" height="24"/>
	</g>
	<g transform="translate(-214,-166) scale(1,1)">
		<path class="st1" d="M508.6,199h49v24h-49V199z"/>
	</g>
	<g transform="translate(-214,-166) scale(1,1)">
		<rect x="508.6" y="184" class="st0" width="19.6" height="15"/>
	</g>
	<g transform="translate(-214,-166) scale(1,1)">
		<path class="st1" d="M508.6,184h19.6v15h-19.6V184z"/>
	</g>
	<g transform="translate(-214,-166) scale(1,1)">
		<rect x="508.6" y="198" class="st0" width="49" height="25"/>
	</g>
	<g transform="translate(-214,-166) scale(1,1)">
		<path class="st1" d="M508.6,198h49v25h-49V198z"/>
	</g>
	<g transform="translate(-214,-166) scale(1,1)">
		<g>
			<path class="st1" d="M0,0"/>
			<text transform="matrix(1 0 0 1 515.4336 218.5)" class="st3 st4">model</text>
		</g>
	</g>
	<g transform="translate(-214,-166) scale(1,1)">
		<rect x="727" y="455" class="st2" width="247.1" height="72"/>
	</g>
	<g transform="translate(-214,-166) scale(1,1)">
		<rect x="720" y="448" class="st0" width="247.1" height="72"/>
	</g>
	<g transform="translate(-214,-166) scale(1,1)">
		<path class="st1" d="M720,448h247.1v72H720V448z"/>
	</g>
	<g transform="translate(-214,-166) scale(1,1)">
		<path class="st1" d="M720,473h247.1"/>
	</g>
	<g transform="translate(-214,-166) scale(1,1)">
		<path class="st1" d="M720,483h247.1"/>
	</g>
	<g transform="translate(-214,-166) scale(1,1)">
		<g>
			<path class="st1" d="M0,0"/>
			<text transform="matrix(1 0 0 1 772.0059 467.5)" class="st3 st4">PressurestatsApplication</text>
		</g>
	</g>
	<g transform="translate(-214,-166) scale(1,1)">
		<g>
			<path d="M0,0"/>
			<text transform="matrix(1 0 0 1 725 500.5)" class="st5 st4">«constructor»+PressurestatsApplication()</text>
		</g>
	</g>
	<g transform="translate(-214,-166) scale(1,1)">
		<g>
			<path d="M0,0"/>
			<text transform="matrix(1 0 0 1 725 515.5)" class="st5 st4">+main(args: String[*]): void</text>
			<path class="st1" d="M725,515.5h154.3"/>
		</g>
	</g>
	<g transform="translate(-214,-166) scale(1,1)">
		<rect x="591" y="191" class="st2" width="21.5" height="15"/>
	</g>
	<g transform="translate(-214,-166) scale(1,1)">
		<rect x="591" y="205" class="st2" width="53.8" height="25"/>
	</g>
	<g transform="translate(-214,-166) scale(1,1)">
		<rect x="584" y="199" class="st0" width="53.8" height="24"/>
	</g>
	<g transform="translate(-214,-166) scale(1,1)">
		<path class="st1" d="M584,199h53.8v24H584V199z"/>
	</g>
	<g transform="translate(-214,-166) scale(1,1)">
		<rect x="584" y="184" class="st0" width="21.5" height="15"/>
	</g>
	<g transform="translate(-214,-166) scale(1,1)">
		<path class="st1" d="M584,184h21.5v15H584V184z"/>
	</g>
	<g transform="translate(-214,-166) scale(1,1)">
		<rect x="584" y="198" class="st0" width="53.8" height="25"/>
	</g>
	<g transform="translate(-214,-166) scale(1,1)">
		<path class="st1" d="M584,198h53.8v25H584V198z"/>
	</g>
	<g transform="translate(-214,-166) scale(1,1)">
		<g>
			<path class="st1" d="M0,0"/>
			<text transform="matrix(1 0 0 1 590.3218 218.5)" class="st3 st4">service</text>
		</g>
	</g>
	<g transform="translate(-214,-166) scale(1,1)">
		<rect x="679" y="191" class="st2" width="26.1" height="15"/>
	</g>
	<g transform="translate(-214,-166) scale(1,1)">
		<rect x="679" y="205" class="st2" width="65.4" height="25"/>
	</g>
	<g transform="translate(-214,-166) scale(1,1)">
		<rect x="672" y="199" class="st0" width="65.4" height="24"/>
	</g>
	<g transform="translate(-214,-166) scale(1,1)">
		<path class="st1" d="M672,199h65.4v24H672V199z"/>
	</g>
	<g transform="translate(-214,-166) scale(1,1)">
		<rect x="672" y="184" class="st0" width="26.1" height="15"/>
	</g>
	<g transform="translate(-214,-166) scale(1,1)">
		<path class="st1" d="M672,184h26.1v15H672V184z"/>
	</g>
	<g transform="translate(-214,-166) scale(1,1)">
		<rect x="672" y="198" class="st0" width="65.4" height="25"/>
	</g>
	<g transform="translate(-214,-166) scale(1,1)">
		<path class="st1" d="M672,198h65.4v25H672V198z"/>
	</g>
	<g transform="translate(-214,-166) scale(1,1)">
		<g>
			<path class="st1" d="M0,0"/>
			<text transform="matrix(1 0 0 1 679.7595 218.5)" class="st3 st4">statistics</text>
		</g>
	</g>
	<g transform="translate(-214,-166) scale(1,1)">
		<rect x="311" y="263" class="st2" width="197.4" height="130"/>
	</g>
	<g transform="translate(-214,-166) scale(1,1)">
		<rect x="304" y="256" class="st0" width="197.4" height="130"/>
	</g>
	<g transform="translate(-214,-166) scale(1,1)">
		<path class="st1" d="M304,256h197.4v130H304V256z"/>
	</g>
	<g transform="translate(-214,-166) scale(1,1)">
		<path class="st1" d="M304,281h197.4"/>
	</g>
	<g transform="translate(-214,-166) scale(1,1)">
		<path class="st1" d="M304,319h197.4"/>
	</g>
	<g transform="translate(-214,-166) scale(1,1)">
		<g>
			<path class="st1" d="M0,0"/>
			<text transform="matrix(1 0 0 1 362.582 275.5)" class="st3 st4">TestController</text>
		</g>
	</g>
	<g transform="translate(-214,-166) scale(1,1)">
		<g>
			<path d="M0,0"/>
			<text transform="matrix(1 0 0 1 309 298.5)" class="st5 st4">-context: WebApplicationContext</text>
		</g>
	</g>
	<g transform="translate(-214,-166) scale(1,1)">
		<g>
			<path d="M0,0"/>
			<text transform="matrix(1 0 0 1 309 313.5)" class="st5 st4">-mockMvc: MockMvc</text>
		</g>
	</g>
	<g transform="translate(-214,-166) scale(1,1)">
		<g>
			<path d="M0,0"/>
			<text transform="matrix(1 0 0 1 309 336.5)" class="st5 st4">«constructor»+TestController()</text>
		</g>
	</g>
	<g transform="translate(-214,-166) scale(1,1)">
		<g>
			<path d="M0,0"/>
			<text transform="matrix(1 0 0 1 309 351.5)" class="st5 st4">~setUp(): void</text>
		</g>
	</g>
	<g transform="translate(-214,-166) scale(1,1)">
		<g>
			<path d="M0,0"/>
			<text transform="matrix(1 0 0 1 309 366.5)" class="st5 st4">~tearDown(): void</text>
		</g>
	</g>
	<g transform="translate(-214,-166) scale(1,1)">
		<g>
			<path d="M0,0"/>
			<text transform="matrix(1 0 0 1 309 381.5)" class="st5 st4">~testController(): void</text>
		</g>
	</g>
	<g transform="translate(-214,-166) scale(1,1)">
		<rect x="535" y="263" class="st2" width="163.3" height="160"/>
	</g>
	<g transform="translate(-214,-166) scale(1,1)">
		<rect x="528" y="256" class="st0" width="163.3" height="160"/>
	</g>
	<g transform="translate(-214,-166) scale(1,1)">
		<path class="st1" d="M528,256h163.3v160H528V256z"/>
	</g>
	<g transform="translate(-214,-166) scale(1,1)">
		<path class="st1" d="M528,281h163.3"/>
	</g>
	<g transform="translate(-214,-166) scale(1,1)">
		<path class="st1" d="M528,334h163.3"/>
	</g>
	<g transform="translate(-214,-166) scale(1,1)">
		<g>
			<path class="st1" d="M0,0"/>
			<text transform="matrix(1 0 0 1 580.0059 275.5)" class="st3 st4">TestModel</text>
		</g>
	</g>
	<g transform="translate(-214,-166) scale(1,1)">
		<g>
			<path d="M0,0"/>
			<text transform="matrix(1 0 0 1 533 298.5)" class="st5 st4">-f: Vector = null</text>
		</g>
	</g>
	<g transform="translate(-214,-166) scale(1,1)">
		<g>
			<path d="M0,0"/>
			<text transform="matrix(1 0 0 1 533 313.5)" class="st5 st4">-c: City = null</text>
		</g>
	</g>
	<g transform="translate(-214,-166) scale(1,1)">
		<g>
			<path d="M0,0"/>
			<text transform="matrix(1 0 0 1 533 328.5)" class="st5 st4">-s: ServiceImpl = null</text>
		</g>
	</g>
	<g transform="translate(-214,-166) scale(1,1)">
		<g>
			<path d="M0,0"/>
			<text transform="matrix(1 0 0 1 533 351.5)" class="st5 st4">«constructor»+TestModel()</text>
		</g>
	</g>
	<g transform="translate(-214,-166) scale(1,1)">
		<g>
			<path d="M0,0"/>
			<text transform="matrix(1 0 0 1 533 366.5)" class="st5 st4">~setUp(): void</text>
		</g>
	</g>
	<g transform="translate(-214,-166) scale(1,1)">
		<g>
			<path d="M0,0"/>
			<text transform="matrix(1 0 0 1 533 381.5)" class="st5 st4">~tearDown(): void</text>
		</g>
	</g>
	<g transform="translate(-214,-166) scale(1,1)">
		<g>
			<path d="M0,0"/>
			<text transform="matrix(1 0 0 1 533 396.5)" class="st5 st4">~testCity(): void</text>
		</g>
	</g>
	<g transform="translate(-214,-166) scale(1,1)">
		<g>
			<path d="M0,0"/>
			<text transform="matrix(1 0 0 1 533 411.5)" class="st5 st4">~testForecast(): void</text>
		</g>
	</g>
	<g transform="translate(-214,-166) scale(1,1)">
		<rect x="727" y="263" class="st2" width="171.2" height="130"/>
	</g>
	<g transform="translate(-214,-166) scale(1,1)">
		<rect x="720" y="256" class="st0" width="171.2" height="130"/>
	</g>
	<g transform="translate(-214,-166) scale(1,1)">
		<path class="st1" d="M720,256h171.2v130H720V256z"/>
	</g>
	<g transform="translate(-214,-166) scale(1,1)">
		<path class="st1" d="M720,281h171.2"/>
	</g>
	<g transform="translate(-214,-166) scale(1,1)">
		<path class="st1" d="M720,319h171.2"/>
	</g>
	<g transform="translate(-214,-166) scale(1,1)">
		<g>
			<path class="st1" d="M0,0"/>
			<text transform="matrix(1 0 0 1 772.0059 275.5)" class="st3 st4">TestService</text>
		</g>
	</g>
	<g transform="translate(-214,-166) scale(1,1)">
		<g>
			<path d="M0,0"/>
			<text transform="matrix(1 0 0 1 725 298.5)" class="st5 st4">~s: ServiceImpl = null</text>
		</g>
	</g>
	<g transform="translate(-214,-166) scale(1,1)">
		<g>
			<path d="M0,0"/>
			<text transform="matrix(1 0 0 1 725 313.5)" class="st5 st4">~city: City = null</text>
		</g>
	</g>
	<g transform="translate(-214,-166) scale(1,1)">
		<g>
			<path d="M0,0"/>
			<text transform="matrix(1 0 0 1 725 336.5)" class="st5 st4">«constructor»+TestService()</text>
		</g>
	</g>
	<g transform="translate(-214,-166) scale(1,1)">
		<g>
			<path d="M0,0"/>
			<text transform="matrix(1 0 0 1 725 351.5)" class="st5 st4">~setUp(): void</text>
		</g>
	</g>
	<g transform="translate(-214,-166) scale(1,1)">
		<g>
			<path d="M0,0"/>
			<text transform="matrix(1 0 0 1 725 366.5)" class="st5 st4">~tearDown(): void</text>
		</g>
	</g>
	<g transform="translate(-214,-166) scale(1,1)">
		<g>
			<path d="M0,0"/>
			<text transform="matrix(1 0 0 1 725 381.5)" class="st5 st4">~testService(): void</text>
		</g>
	</g>
	<g transform="translate(-214,-166) scale(1,1)">
		<rect x="519" y="455" class="st2" width="179.9" height="115"/>
	</g>
	<g transform="translate(-214,-166) scale(1,1)">
		<rect x="512" y="448" class="st0" width="179.9" height="115"/>
	</g>
	<g transform="translate(-214,-166) scale(1,1)">
		<path class="st1" d="M512,448h179.9v115H512V448z"/>
	</g>
	<g transform="translate(-214,-166) scale(1,1)">
		<path class="st1" d="M512,473h179.9"/>
	</g>
	<g transform="translate(-214,-166) scale(1,1)">
		<path class="st1" d="M512,496h179.9"/>
	</g>
	<g transform="translate(-214,-166) scale(1,1)">
		<g>
			<path class="st1" d="M0,0"/>
			<text transform="matrix(1 0 0 1 564.0059 467.5)" class="st3 st4">TestStatistics</text>
		</g>
	</g>
	<g transform="translate(-214,-166) scale(1,1)">
		<g>
			<path d="M0,0"/>
			<text transform="matrix(1 0 0 1 517 490.5)" class="st5 st4">-f: Filters = null</text>
		</g>
	</g>
	<g transform="translate(-214,-166) scale(1,1)">
		<g>
			<path d="M0,0"/>
			<text transform="matrix(1 0 0 1 517 513.5)" class="st5 st4">«constructor»+TestStatistics()</text>
		</g>
	</g>
	<g transform="translate(-214,-166) scale(1,1)">
		<g>
			<path d="M0,0"/>
			<text transform="matrix(1 0 0 1 517 528.5)" class="st5 st4">~setUp(): void</text>
		</g>
	</g>
	<g transform="translate(-214,-166) scale(1,1)">
		<g>
			<path d="M0,0"/>
			<text transform="matrix(1 0 0 1 517 543.5)" class="st5 st4">~tearDown(): void</text>
		</g>
	</g>
	<g transform="translate(-214,-166) scale(1,1)">
		<g>
			<path d="M0,0"/>
			<text transform="matrix(1 0 0 1 517 558.5)" class="st5 st4">~testFilters(): void</text>
		</g>
	</g>
	<g transform="translate(-214,-166) scale(1,1)">
		<rect x="311" y="455" class="st2" width="170.5" height="130"/>
	</g>
	<g transform="translate(-214,-166) scale(1,1)">
		<rect x="304" y="448" class="st0" width="170.5" height="130"/>
	</g>
	<g transform="translate(-214,-166) scale(1,1)">
		<path class="st1" d="M304,448h170.5v130H304V448z"/>
	</g>
	<g transform="translate(-214,-166) scale(1,1)">
		<path class="st1" d="M304,473h170.5"/>
	</g>
	<g transform="translate(-214,-166) scale(1,1)">
		<path class="st1" d="M304,511h170.5"/>
	</g>
	<g transform="translate(-214,-166) scale(1,1)">
		<g>
			<path class="st1" d="M0,0"/>
			<text transform="matrix(1 0 0 1 356.0059 467.5)" class="st3 st4">TestThrows</text>
		</g>
	</g>
	<g transform="translate(-214,-166) scale(1,1)">
		<g>
			<path d="M0,0"/>
			<text transform="matrix(1 0 0 1 309 490.5)" class="st5 st4">-f: Filters = null</text>
		</g>
	</g>
	<g transform="translate(-214,-166) scale(1,1)">
		<g>
			<path d="M0,0"/>
			<text transform="matrix(1 0 0 1 309 505.5)" class="st5 st4">-c: ServiceImpl = null</text>
		</g>
	</g>
	<g transform="translate(-214,-166) scale(1,1)">
		<g>
			<path d="M0,0"/>
			<text transform="matrix(1 0 0 1 309 528.5)" class="st5 st4">«constructor»+TestThrows()</text>
		</g>
	</g>
	<g transform="translate(-214,-166) scale(1,1)">
		<g>
			<path d="M0,0"/>
			<text transform="matrix(1 0 0 1 309 543.5)" class="st5 st4">~setUp(): void</text>
		</g>
	</g>
	<g transform="translate(-214,-166) scale(1,1)">
		<g>
			<path d="M0,0"/>
			<text transform="matrix(1 0 0 1 309 558.5)" class="st5 st4">~tearDown(): void</text>
		</g>
	</g>
	<g transform="translate(-214,-166) scale(1,1)">
		<g>
			<path d="M0,0"/>
			<text transform="matrix(1 0 0 1 309 573.5)" class="st5 st4">~testFilters(): void</text>
		</g>
	</g>
</g>
</svg>
