<?xml version="1.0" encoding="utf-8"?>
<!-- Generator: Adobe Illustrator 23.0.2, SVG Export Plug-In . SVG Version: 6.00 Build 0)  -->
<svg version="1.1" id="Layer_1" xmlns="http://www.w3.org/2000/svg" xmlns:xlink="http://www.w3.org/1999/xlink" x="0px" y="0px"
	 viewBox="0 0 851 507" style="enable-background:new 0 0 851 507;" xml:space="preserve">
<style type="text/css">
	.st0{display:none;}
	.st1{display:inline;fill:none;stroke:#000000;stroke-miterlimit:10;}
	.st2{fill:#FFFFFF;}
	.st3{fill:none;stroke:#000000;stroke-miterlimit:10;}
	.st4{font-family:'Arial-BoldMT';}
	.st5{font-size:13px;}
	.st6{opacity:0.2;fill:#C0C0C0;enable-background:new    ;}
	.st7{font-family:'ArialMT';}
</style>
<g>
	<g transform="translate(-86,-222) scale(1,1)" class="st0">
		<path class="st1" d="M124,279.5h69v24h-69V279.5z"/>
	</g>
	<g transform="translate(-86,-222) scale(1,1)">
		<rect x="124" y="264.5" class="st2" width="27.6" height="15"/>
	</g>
	<g transform="translate(-86,-222) scale(1,1)">
		<path class="st3" d="M124,264.5h27.6v15H124V264.5z"/>
	</g>
	<g transform="translate(-86,-222) scale(1,1)">
		<rect x="124" y="278.5" class="st2" width="69" height="25"/>
	</g>
	<g transform="translate(-86,-222) scale(1,1)">
		<path class="st3" d="M124,278.5h69v25h-69V278.5z"/>
	</g>
	<g transform="translate(-86,-222) scale(1,1)">
		<g>
			<path class="st3" d="M0,0"/>
			<text transform="matrix(1 0 0 1 131.7437 299)" class="st4 st5">controller</text>
		</g>
	</g>
	<g transform="translate(-86,-222) scale(1,1)">
		<rect x="231" y="271.5" class="st6" width="27.9" height="15"/>
	</g>
	<g transform="translate(-86,-222) scale(1,1)">
		<rect x="231" y="285.5" class="st6" width="69.7" height="25"/>
	</g>
	<g transform="translate(-86,-222) scale(1,1)">
		<rect x="224" y="279.5" class="st2" width="69.7" height="24"/>
	</g>
	<g transform="translate(-86,-222) scale(1,1)">
		<path class="st3" d="M224,279.5h69.7v24H224V279.5z"/>
	</g>
	<g transform="translate(-86,-222) scale(1,1)">
		<rect x="224" y="264.5" class="st2" width="27.9" height="15"/>
	</g>
	<g transform="translate(-86,-222) scale(1,1)">
		<path class="st3" d="M224,264.5h27.9v15H224V264.5z"/>
	</g>
	<g transform="translate(-86,-222) scale(1,1)">
		<rect x="224" y="278.5" class="st2" width="69.7" height="25"/>
	</g>
	<g transform="translate(-86,-222) scale(1,1)">
		<path class="st3" d="M224,278.5h69.7v25H224V278.5z"/>
	</g>
	<g transform="translate(-86,-222) scale(1,1)">
		<g>
			<path class="st3" d="M0,0"/>
			<text transform="matrix(1 0 0 1 230.9705 299)" class="st4 st5">exception</text>
		</g>
	</g>
	<g transform="translate(-86,-222) scale(1,1)">
		<rect x="331.6" y="271.5" class="st6" width="19.6" height="15"/>
	</g>
	<g transform="translate(-86,-222) scale(1,1)">
		<rect x="331.6" y="285.5" class="st6" width="49" height="25"/>
	</g>
	<g transform="translate(-86,-222) scale(1,1)">
		<rect x="324.6" y="279.5" class="st2" width="49" height="24"/>
	</g>
	<g transform="translate(-86,-222) scale(1,1)">
		<path class="st3" d="M324.6,279.5h49v24h-49V279.5z"/>
	</g>
	<g transform="translate(-86,-222) scale(1,1)">
		<rect x="324.6" y="264.5" class="st2" width="19.6" height="15"/>
	</g>
	<g transform="translate(-86,-222) scale(1,1)">
		<path class="st3" d="M324.6,264.5h19.6v15h-19.6V264.5z"/>
	</g>
	<g transform="translate(-86,-222) scale(1,1)">
		<rect x="324.6" y="278.5" class="st2" width="49" height="25"/>
	</g>
	<g transform="translate(-86,-222) scale(1,1)">
		<path class="st3" d="M324.6,278.5h49v25h-49V278.5z"/>
	</g>
	<g transform="translate(-86,-222) scale(1,1)">
		<g>
			<path class="st3" d="M0,0"/>
			<text transform="matrix(1 0 0 1 331.4336 299)" class="st4 st5">model</text>
		</g>
	</g>
	<g transform="translate(-86,-222) scale(1,1)">
		<rect x="655" y="255" class="st6" width="247.1" height="72"/>
	</g>
	<g transform="translate(-86,-222) scale(1,1)">
		<rect x="648" y="248" class="st2" width="247.1" height="72"/>
	</g>
	<g transform="translate(-86,-222) scale(1,1)">
		<path class="st3" d="M648,248h247.1v72H648V248z"/>
	</g>
	<g transform="translate(-86,-222) scale(1,1)">
		<path class="st3" d="M648,273h247.1"/>
	</g>
	<g transform="translate(-86,-222) scale(1,1)">
		<path class="st3" d="M648,283h247.1"/>
	</g>
	<g transform="translate(-86,-222) scale(1,1)">
		<g>
			<path class="st3" d="M0,0"/>
			<text transform="matrix(1 0 0 1 700.0059 267.5)" class="st4 st5">PressurestatsApplication</text>
		</g>
	</g>
	<g transform="translate(-86,-222) scale(1,1)">
		<g>
			<path d="M0,0"/>
			<text transform="matrix(1 0 0 1 653 300.5)" class="st7 st5">«constructor»+PressurestatsApplication()</text>
		</g>
	</g>
	<g transform="translate(-86,-222) scale(1,1)">
		<g>
			<path d="M0,0"/>
			<text transform="matrix(1 0 0 1 653 315.5)" class="st7 st5">+main(args: String[*]): void</text>
			<path class="st3" d="M653,315.5h154.3"/>
		</g>
	</g>
	<g transform="translate(-86,-222) scale(1,1)">
		<rect x="407" y="271.5" class="st6" width="21.5" height="15"/>
	</g>
	<g transform="translate(-86,-222) scale(1,1)">
		<rect x="407" y="285.5" class="st6" width="53.8" height="25"/>
	</g>
	<g transform="translate(-86,-222) scale(1,1)">
		<rect x="400" y="279.5" class="st2" width="53.8" height="24"/>
	</g>
	<g transform="translate(-86,-222) scale(1,1)">
		<path class="st3" d="M400,279.5h53.8v24H400V279.5z"/>
	</g>
	<g transform="translate(-86,-222) scale(1,1)">
		<rect x="400" y="264.5" class="st2" width="21.5" height="15"/>
	</g>
	<g transform="translate(-86,-222) scale(1,1)">
		<path class="st3" d="M400,264.5h21.5v15H400V264.5z"/>
	</g>
	<g transform="translate(-86,-222) scale(1,1)">
		<rect x="400" y="278.5" class="st2" width="53.8" height="25"/>
	</g>
	<g transform="translate(-86,-222) scale(1,1)">
		<path class="st3" d="M400,278.5h53.8v25H400V278.5z"/>
	</g>
	<g transform="translate(-86,-222) scale(1,1)">
		<g>
			<path class="st3" d="M0,0"/>
			<text transform="matrix(1 0 0 1 406.3218 299)" class="st4 st5">service</text>
		</g>
	</g>
	<g transform="translate(-86,-222) scale(1,1)">
		<rect x="495" y="271.5" class="st6" width="26.1" height="15"/>
	</g>
	<g transform="translate(-86,-222) scale(1,1)">
		<rect x="495" y="285.5" class="st6" width="65.4" height="25"/>
	</g>
	<g transform="translate(-86,-222) scale(1,1)">
		<rect x="488" y="279.5" class="st2" width="65.4" height="24"/>
	</g>
	<g transform="translate(-86,-222) scale(1,1)">
		<path class="st3" d="M488,279.5h65.4v24H488V279.5z"/>
	</g>
	<g transform="translate(-86,-222) scale(1,1)">
		<rect x="488" y="264.5" class="st2" width="26.1" height="15"/>
	</g>
	<g transform="translate(-86,-222) scale(1,1)">
		<path class="st3" d="M488,264.5h26.1v15H488V264.5z"/>
	</g>
	<g transform="translate(-86,-222) scale(1,1)">
		<rect x="488" y="278.5" class="st2" width="65.4" height="25"/>
	</g>
	<g transform="translate(-86,-222) scale(1,1)">
		<path class="st3" d="M488,278.5h65.4v25H488V278.5z"/>
	</g>
	<g transform="translate(-86,-222) scale(1,1)">
		<g>
			<path class="st3" d="M0,0"/>
			<text transform="matrix(1 0 0 1 495.7595 299)" class="st4 st5">statistics</text>
		</g>
	</g>
	<g transform="translate(-86,-222) scale(1,1)">
		<rect x="207" y="375" class="st6" width="184.2" height="130"/>
	</g>
	<g transform="translate(-86,-222) scale(1,1)">
		<rect x="200" y="368" class="st2" width="184.2" height="130"/>
	</g>
	<g transform="translate(-86,-222) scale(1,1)">
		<path class="st3" d="M200,368h184.2v130H200V368z"/>
	</g>
	<g transform="translate(-86,-222) scale(1,1)">
		<path class="st3" d="M200,393h184.2"/>
	</g>
	<g transform="translate(-86,-222) scale(1,1)">
		<path class="st3" d="M200,431h184.2"/>
	</g>
	<g transform="translate(-86,-222) scale(1,1)">
		<g>
			<path class="st3" d="M0,0"/>
			<text transform="matrix(1 0 0 1 252.0059 387.5)" class="st4 st5">TestController</text>
		</g>
	</g>
	<g transform="translate(-86,-222) scale(1,1)">
		<g>
			<path d="M0,0"/>
			<text transform="matrix(1 0 0 1 205 410.5)" class="st7 st5">-context</text>
		</g>
	</g>
	<g transform="translate(-86,-222) scale(1,1)">
		<g>
			<path d="M0,0"/>
			<text transform="matrix(1 0 0 1 205 425.5)" class="st7 st5">-mockMvc</text>
		</g>
	</g>
	<g transform="translate(-86,-222) scale(1,1)">
		<g>
			<path d="M0,0"/>
			<text transform="matrix(1 0 0 1 205 448.5)" class="st7 st5">«constructor»+TestController()</text>
		</g>
	</g>
	<g transform="translate(-86,-222) scale(1,1)">
		<g>
			<path d="M0,0"/>
			<text transform="matrix(1 0 0 1 205 463.5)" class="st7 st5">~setUp(): void</text>
		</g>
	</g>
	<g transform="translate(-86,-222) scale(1,1)">
		<g>
			<path d="M0,0"/>
			<text transform="matrix(1 0 0 1 205 478.5)" class="st7 st5">~tearDown(): void</text>
		</g>
	</g>
	<g transform="translate(-86,-222) scale(1,1)">
		<g>
			<path d="M0,0"/>
			<text transform="matrix(1 0 0 1 205 493.5)" class="st7 st5">~testController(): void</text>
		</g>
	</g>
	<g transform="translate(-86,-222) scale(1,1)">
		<rect x="447" y="535" class="st6" width="163.3" height="160"/>
	</g>
	<g transform="translate(-86,-222) scale(1,1)">
		<rect x="440" y="528" class="st2" width="163.3" height="160"/>
	</g>
	<g transform="translate(-86,-222) scale(1,1)">
		<path class="st3" d="M440,528h163.3v160H440V528z"/>
	</g>
	<g transform="translate(-86,-222) scale(1,1)">
		<path class="st3" d="M440,553h163.3"/>
	</g>
	<g transform="translate(-86,-222) scale(1,1)">
		<path class="st3" d="M440,606h163.3"/>
	</g>
	<g transform="translate(-86,-222) scale(1,1)">
		<g>
			<path class="st3" d="M0,0"/>
			<text transform="matrix(1 0 0 1 492.0059 547.5)" class="st4 st5">TestModel</text>
		</g>
	</g>
	<g transform="translate(-86,-222) scale(1,1)">
		<g>
			<path d="M0,0"/>
			<text transform="matrix(1 0 0 1 445 570.5)" class="st7 st5">-f = null</text>
		</g>
	</g>
	<g transform="translate(-86,-222) scale(1,1)">
		<g>
			<path d="M0,0"/>
			<text transform="matrix(1 0 0 1 445 585.5)" class="st7 st5">-c = null</text>
		</g>
	</g>
	<g transform="translate(-86,-222) scale(1,1)">
		<g>
			<path d="M0,0"/>
			<text transform="matrix(1 0 0 1 445 600.5)" class="st7 st5">-s = null</text>
		</g>
	</g>
	<g transform="translate(-86,-222) scale(1,1)">
		<g>
			<path d="M0,0"/>
			<text transform="matrix(1 0 0 1 445 623.5)" class="st7 st5">«constructor»+TestModel()</text>
		</g>
	</g>
	<g transform="translate(-86,-222) scale(1,1)">
		<g>
			<path d="M0,0"/>
			<text transform="matrix(1 0 0 1 445 638.5)" class="st7 st5">~setUp(): void</text>
		</g>
	</g>
	<g transform="translate(-86,-222) scale(1,1)">
		<g>
			<path d="M0,0"/>
			<text transform="matrix(1 0 0 1 445 653.5)" class="st7 st5">~tearDown(): void</text>
		</g>
	</g>
	<g transform="translate(-86,-222) scale(1,1)">
		<g>
			<path d="M0,0"/>
			<text transform="matrix(1 0 0 1 445 668.5)" class="st7 st5">~testCity(): void</text>
		</g>
	</g>
	<g transform="translate(-86,-222) scale(1,1)">
		<g>
			<path d="M0,0"/>
			<text transform="matrix(1 0 0 1 445 683.5)" class="st7 st5">~testForecast(): void</text>
		</g>
	</g>
	<g transform="translate(-86,-222) scale(1,1)">
		<rect x="207" y="535" class="st6" width="171.2" height="130"/>
	</g>
	<g transform="translate(-86,-222) scale(1,1)">
		<rect x="200" y="528" class="st2" width="171.2" height="130"/>
	</g>
	<g transform="translate(-86,-222) scale(1,1)">
		<path class="st3" d="M200,528h171.2v130H200V528z"/>
	</g>
	<g transform="translate(-86,-222) scale(1,1)">
		<path class="st3" d="M200,553h171.2"/>
	</g>
	<g transform="translate(-86,-222) scale(1,1)">
		<path class="st3" d="M200,591h171.2"/>
	</g>
	<g transform="translate(-86,-222) scale(1,1)">
		<g>
			<path class="st3" d="M0,0"/>
			<text transform="matrix(1 0 0 1 252.0059 547.5)" class="st4 st5">TestService</text>
		</g>
	</g>
	<g transform="translate(-86,-222) scale(1,1)">
		<g>
			<path d="M0,0"/>
			<text transform="matrix(1 0 0 1 205 570.5)" class="st7 st5">~s = null</text>
		</g>
	</g>
	<g transform="translate(-86,-222) scale(1,1)">
		<g>
			<path d="M0,0"/>
			<text transform="matrix(1 0 0 1 205 585.5)" class="st7 st5">~city = null</text>
		</g>
	</g>
	<g transform="translate(-86,-222) scale(1,1)">
		<g>
			<path d="M0,0"/>
			<text transform="matrix(1 0 0 1 205 608.5)" class="st7 st5">«constructor»+TestService()</text>
		</g>
	</g>
	<g transform="translate(-86,-222) scale(1,1)">
		<g>
			<path d="M0,0"/>
			<text transform="matrix(1 0 0 1 205 623.5)" class="st7 st5">~setUp(): void</text>
		</g>
	</g>
	<g transform="translate(-86,-222) scale(1,1)">
		<g>
			<path d="M0,0"/>
			<text transform="matrix(1 0 0 1 205 638.5)" class="st7 st5">~tearDown(): void</text>
		</g>
	</g>
	<g transform="translate(-86,-222) scale(1,1)">
		<g>
			<path d="M0,0"/>
			<text transform="matrix(1 0 0 1 205 653.5)" class="st7 st5">~testService(): void</text>
		</g>
	</g>
	<g transform="translate(-86,-222) scale(1,1)">
		<rect x="663" y="383" class="st6" width="179.9" height="115"/>
	</g>
	<g transform="translate(-86,-222) scale(1,1)">
		<rect x="656" y="376" class="st2" width="179.9" height="115"/>
	</g>
	<g transform="translate(-86,-222) scale(1,1)">
		<path class="st3" d="M656,376h179.9v115H656V376z"/>
	</g>
	<g transform="translate(-86,-222) scale(1,1)">
		<path class="st3" d="M656,401h179.9"/>
	</g>
	<g transform="translate(-86,-222) scale(1,1)">
		<path class="st3" d="M656,424h179.9"/>
	</g>
	<g transform="translate(-86,-222) scale(1,1)">
		<g>
			<path class="st3" d="M0,0"/>
			<text transform="matrix(1 0 0 1 708.0059 395.5)" class="st4 st5">TestStatistics</text>
		</g>
	</g>
	<g transform="translate(-86,-222) scale(1,1)">
		<g>
			<path d="M0,0"/>
			<text transform="matrix(1 0 0 1 661 418.5)" class="st7 st5">-f = null</text>
		</g>
	</g>
	<g transform="translate(-86,-222) scale(1,1)">
		<g>
			<path d="M0,0"/>
			<text transform="matrix(1 0 0 1 661 441.5)" class="st7 st5">«constructor»+TestStatistics()</text>
		</g>
	</g>
	<g transform="translate(-86,-222) scale(1,1)">
		<g>
			<path d="M0,0"/>
			<text transform="matrix(1 0 0 1 661 456.5)" class="st7 st5">~setUp(): void</text>
		</g>
	</g>
	<g transform="translate(-86,-222) scale(1,1)">
		<g>
			<path d="M0,0"/>
			<text transform="matrix(1 0 0 1 661 471.5)" class="st7 st5">~tearDown(): void</text>
		</g>
	</g>
	<g transform="translate(-86,-222) scale(1,1)">
		<g>
			<path d="M0,0"/>
			<text transform="matrix(1 0 0 1 661 486.5)" class="st7 st5">~testFilters(): void</text>
		</g>
	</g>
	<g transform="translate(-86,-222) scale(1,1)">
		<rect x="447" y="375" class="st6" width="170.5" height="130"/>
	</g>
	<g transform="translate(-86,-222) scale(1,1)">
		<rect x="440" y="368" class="st2" width="170.5" height="130"/>
	</g>
	<g transform="translate(-86,-222) scale(1,1)">
		<path class="st3" d="M440,368h170.5v130H440V368z"/>
	</g>
	<g transform="translate(-86,-222) scale(1,1)">
		<path class="st3" d="M440,393h170.5"/>
	</g>
	<g transform="translate(-86,-222) scale(1,1)">
		<path class="st3" d="M440,431h170.5"/>
	</g>
	<g transform="translate(-86,-222) scale(1,1)">
		<g>
			<path class="st3" d="M0,0"/>
			<text transform="matrix(1 0 0 1 492.0059 387.5)" class="st4 st5">TestThrows</text>
		</g>
	</g>
	<g transform="translate(-86,-222) scale(1,1)">
		<g>
			<path d="M0,0"/>
			<text transform="matrix(1 0 0 1 445 410.5)" class="st7 st5">-f = null</text>
		</g>
	</g>
	<g transform="translate(-86,-222) scale(1,1)">
		<g>
			<path d="M0,0"/>
			<text transform="matrix(1 0 0 1 445 425.5)" class="st7 st5">-c = null</text>
		</g>
	</g>
	<g transform="translate(-86,-222) scale(1,1)">
		<g>
			<path d="M0,0"/>
			<text transform="matrix(1 0 0 1 445 448.5)" class="st7 st5">«constructor»+TestThrows()</text>
		</g>
	</g>
	<g transform="translate(-86,-222) scale(1,1)">
		<g>
			<path d="M0,0"/>
			<text transform="matrix(1 0 0 1 445 463.5)" class="st7 st5">~setUp(): void</text>
		</g>
	</g>
	<g transform="translate(-86,-222) scale(1,1)">
		<g>
			<path d="M0,0"/>
			<text transform="matrix(1 0 0 1 445 478.5)" class="st7 st5">~tearDown(): void</text>
		</g>
	</g>
	<g transform="translate(-86,-222) scale(1,1)">
		<g>
			<path d="M0,0"/>
			<text transform="matrix(1 0 0 1 445 493.5)" class="st7 st5">~testFilters(): void</text>
		</g>
	</g>
</g>
</svg>
