<?xml version="1.0" encoding="utf-8"?>
<!-- Generator: Adobe Illustrator 23.0.2, SVG Export Plug-In . SVG Version: 6.00 Build 0)  -->
<svg version="1.1" id="Layer_1" xmlns="http://www.w3.org/2000/svg" xmlns:xlink="http://www.w3.org/1999/xlink" x="0px" y="0px"
	 viewBox="0 0 523 579" style="enable-background:new 0 0 523 579;" xml:space="preserve">
<style type="text/css">
	.st0{fill:#FFFFFF;}
	.st1{opacity:0.2;fill:#C0C0C0;enable-background:new    ;}
	.st2{fill:none;stroke:#000000;stroke-miterlimit:10;}
	.st3{font-family:'Arial-BoldMT';}
	.st4{font-size:13px;}
</style>
<rect x="9" y="11.9" class="st0" width="507" height="550"/>
<g>
	<g transform="translate(-262,-174) scale(1,1)">
		<rect x="338.3" y="203" class="st1" width="71.1" height="24"/>
	</g>
	<g transform="translate(-262,-174) scale(1,1)">
		<rect x="331.3" y="196" class="st0" width="71.1" height="24"/>
	</g>
	<g transform="translate(-262,-174) scale(1,1)">
		<path class="st2" d="M331.3,196h71.1v24h-71.1V196z"/>
	</g>
	<g transform="translate(-262,-174) scale(1,1)">
		<g>
			<path class="st2" d="M0,0"/>
			<text transform="matrix(1 0 0 1 338.71 215.5)" class="st3 st4">Controller</text>
		</g>
	</g>
	<g transform="translate(-262,-174) scale(1,1)">
		<rect x="587" y="466" class="st1" width="156.3" height="24"/>
	</g>
	<g transform="translate(-262,-174) scale(1,1)">
		<rect x="580" y="459" class="st0" width="156.3" height="24"/>
	</g>
	<g transform="translate(-262,-174) scale(1,1)">
		<path class="st2" d="M580,459h156.3v24H580V459z"/>
	</g>
	<g transform="translate(-262,-174) scale(1,1)">
		<g>
			<path class="st2" d="M0,0"/>
			<text transform="matrix(1 0 0 1 589.5486 478.5)" class="st3 st4">DayNotFoundException</text>
		</g>
	</g>
	<g transform="translate(-262,-174) scale(1,1)">
		<rect x="557.8" y="501" class="st1" width="214.8" height="24"/>
	</g>
	<g transform="translate(-262,-174) scale(1,1)">
		<rect x="550.8" y="494" class="st0" width="214.8" height="24"/>
	</g>
	<g transform="translate(-262,-174) scale(1,1)">
		<path class="st2" d="M550.8,494h214.8v24H550.8V494z"/>
	</g>
	<g transform="translate(-262,-174) scale(1,1)">
		<g>
			<path class="st2" d="M0,0"/>
			<text transform="matrix(1 0 0 1 563.9072 513.5)" class="st3 st4">CityStatisticsNotFoundException</text>
		</g>
	</g>
	<g transform="translate(-262,-174) scale(1,1)">
		<rect x="593.2" y="536" class="st1" width="144" height="24"/>
	</g>
	<g transform="translate(-262,-174) scale(1,1)">
		<rect x="586.2" y="529" class="st0" width="144" height="24"/>
	</g>
	<g transform="translate(-262,-174) scale(1,1)">
		<path class="st2" d="M586.2,529h144v24h-144V529z"/>
	</g>
	<g transform="translate(-262,-174) scale(1,1)">
		<g>
			<path class="st2" d="M0,0"/>
			<text transform="matrix(1 0 0 1 595.6868 548.5)" class="st3 st4">IdNotFoundException</text>
		</g>
	</g>
	<g transform="translate(-262,-174) scale(1,1)">
		<rect x="567.9" y="594.5" class="st1" width="194.6" height="24"/>
	</g>
	<g transform="translate(-262,-174) scale(1,1)">
		<rect x="560.9" y="587.5" class="st0" width="194.6" height="24"/>
	</g>
	<g transform="translate(-262,-174) scale(1,1)">
		<path class="st2" d="M560.9,587.5h194.6v24H560.9V587.5z"/>
	</g>
	<g transform="translate(-262,-174) scale(1,1)">
		<g>
			<path class="st2" d="M0,0"/>
			<text transform="matrix(1 0 0 1 572.5686 607)" class="st3 st4">ItalianCityNotFoundException</text>
		</g>
	</g>
	<g transform="translate(-262,-174) scale(1,1)">
		<rect x="587.7" y="629.5" class="st1" width="154.9" height="24"/>
	</g>
	<g transform="translate(-262,-174) scale(1,1)">
		<rect x="580.7" y="622.5" class="st0" width="154.9" height="24"/>
	</g>
	<g transform="translate(-262,-174) scale(1,1)">
		<path class="st2" d="M580.7,622.5h154.9v24H580.7V622.5z"/>
	</g>
	<g transform="translate(-262,-174) scale(1,1)">
		<g>
			<path class="st2" d="M0,0"/>
			<text transform="matrix(1 0 0 1 590.2722 642)" class="st3 st4">NegativeStartException</text>
		</g>
	</g>
	<g transform="translate(-262,-174) scale(1,1)">
		<rect x="570.2" y="664.5" class="st1" width="190.1" height="24"/>
	</g>
	<g transform="translate(-262,-174) scale(1,1)">
		<rect x="563.2" y="657.5" class="st0" width="190.1" height="24"/>
	</g>
	<g transform="translate(-262,-174) scale(1,1)">
		<path class="st2" d="M563.2,657.5h190.1v24H563.2V657.5z"/>
	</g>
	<g transform="translate(-262,-174) scale(1,1)">
		<g>
			<path class="st2" d="M0,0"/>
			<text transform="matrix(1 0 0 1 574.4983 677)" class="st3 st4">WrongHoursPeriodException</text>
		</g>
	</g>
	<g transform="translate(-262,-174) scale(1,1)">
		<rect x="584.6" y="699.5" class="st1" width="161.1" height="24"/>
	</g>
	<g transform="translate(-262,-174) scale(1,1)">
		<rect x="577.6" y="692.5" class="st0" width="161.1" height="24"/>
	</g>
	<g transform="translate(-262,-174) scale(1,1)">
		<path class="st2" d="M577.6,692.5h161.1v24H577.6V692.5z"/>
	</g>
	<g transform="translate(-262,-174) scale(1,1)">
		<g>
			<path class="st2" d="M0,0"/>
			<text transform="matrix(1 0 0 1 588.5933 712)" class="st3 st4">WrongMultiplyException</text>
		</g>
	</g>
	<g transform="translate(-262,-174) scale(1,1)">
		<rect x="357.1" y="238" class="st1" width="33.6" height="24"/>
	</g>
	<g transform="translate(-262,-174) scale(1,1)">
		<rect x="350.1" y="231" class="st0" width="33.6" height="24"/>
	</g>
	<g transform="translate(-262,-174) scale(1,1)">
		<path class="st2" d="M350.1,231h33.6v24h-33.6V231z"/>
	</g>
	<g transform="translate(-262,-174) scale(1,1)">
		<g>
			<path class="st2" d="M0,0"/>
			<text transform="matrix(1 0 0 1 355.6931 250.5)" class="st3 st4">City</text>
		</g>
	</g>
	<g transform="translate(-262,-174) scale(1,1)">
		<rect x="342.3" y="273" class="st1" width="63.2" height="24"/>
	</g>
	<g transform="translate(-262,-174) scale(1,1)">
		<rect x="335.3" y="266" class="st0" width="63.2" height="24"/>
	</g>
	<g transform="translate(-262,-174) scale(1,1)">
		<path class="st2" d="M335.3,266h63.2v24h-63.2V266z"/>
	</g>
	<g transform="translate(-262,-174) scale(1,1)">
		<g>
			<path class="st2" d="M0,0"/>
			<text transform="matrix(1 0 0 1 341.6013 285.5)" class="st3 st4">Forecast</text>
		</g>
	</g>
	<g transform="translate(-262,-174) scale(1,1)">
		<rect x="291" y="308" class="st1" width="165.8" height="24"/>
	</g>
	<g transform="translate(-262,-174) scale(1,1)">
		<rect x="284" y="301" class="st0" width="165.8" height="24"/>
	</g>
	<g transform="translate(-262,-174) scale(1,1)">
		<path class="st2" d="M284,301h165.8v24H284V301z"/>
	</g>
	<g transform="translate(-262,-174) scale(1,1)">
		<g>
			<path class="st2" d="M0,0"/>
			<text transform="matrix(1 0 0 1 295.3523 320.5)" class="st3 st4">PressurestatsApplication</text>
		</g>
	</g>
	<g transform="translate(-262,-174) scale(1,1)">
		<path class="st1" d="M362.4,354.5c0-6.4,5.1-11.5,11.5-11.5s11.5,5.1,11.5,11.5s-5.1,11.5-11.5,11.5S362.4,360.9,362.4,354.5z"/>
	</g>
	<g transform="translate(-262,-174) scale(1,1)">
		<path class="st0" d="M355.4,347.5c0-6.4,5.1-11.5,11.5-11.5s11.5,5.1,11.5,11.5s-5.1,11.5-11.5,11.5S355.4,353.9,355.4,347.5z"/>
	</g>
	<g transform="translate(-262,-174) scale(1,1)">
		<path class="st2" d="M355.4,347.5c0-6.4,5.1-11.5,11.5-11.5s11.5,5.1,11.5,11.5s-5.1,11.5-11.5,11.5S355.4,353.9,355.4,347.5z"/>
	</g>
	<g transform="translate(-262,-174) scale(1,1)">
		<g>
			<path class="st2" d="M0,0"/>
			<text transform="matrix(1 0 0 1 345.2131 378.5)" class="st3 st4">Service</text>
		</g>
	</g>
	<g transform="translate(-262,-174) scale(1,1)">
		<rect x="624.2" y="355" class="st1" width="82" height="24"/>
	</g>
	<g transform="translate(-262,-174) scale(1,1)">
		<rect x="617.2" y="348" class="st0" width="82" height="24"/>
	</g>
	<g transform="translate(-262,-174) scale(1,1)">
		<path class="st2" d="M617.2,348h82v24h-82V348z"/>
	</g>
	<g transform="translate(-262,-174) scale(1,1)">
		<g>
			<path class="st2" d="M0,0"/>
			<text transform="matrix(1 0 0 1 624.2449 367.5)" class="st3 st4">ServiceImpl</text>
		</g>
	</g>
	<g transform="translate(-262,-174) scale(1,1)">
		<rect x="349.9" y="402" class="st1" width="48" height="24"/>
	</g>
	<g transform="translate(-262,-174) scale(1,1)">
		<rect x="342.9" y="395" class="st0" width="48" height="24"/>
	</g>
	<g transform="translate(-262,-174) scale(1,1)">
		<path class="st2" d="M342.9,395h48v24h-48V395z"/>
	</g>
	<g transform="translate(-262,-174) scale(1,1)">
		<g>
			<path class="st2" d="M0,0"/>
			<text transform="matrix(1 0 0 1 349.1931 414.5)" class="st3 st4">Filters</text>
		</g>
	</g>
	<g transform="translate(-262,-174) scale(1,1)">
		<rect x="340.5" y="437" class="st1" width="66.8" height="24"/>
	</g>
	<g transform="translate(-262,-174) scale(1,1)">
		<rect x="333.5" y="430" class="st0" width="66.8" height="24"/>
	</g>
	<g transform="translate(-262,-174) scale(1,1)">
		<path class="st2" d="M333.5,430h66.8v24h-66.8V430z"/>
	</g>
	<g transform="translate(-262,-174) scale(1,1)">
		<g>
			<path class="st2" d="M0,0"/>
			<text transform="matrix(1 0 0 1 340.8809 449.5)" class="st3 st4">Statistics</text>
		</g>
	</g>
	<g transform="translate(-262,-174) scale(1,1)">
		<rect x="325.4" y="472" class="st1" width="96.9" height="24"/>
	</g>
	<g transform="translate(-262,-174) scale(1,1)">
		<rect x="318.4" y="465" class="st0" width="96.9" height="24"/>
	</g>
	<g transform="translate(-262,-174) scale(1,1)">
		<path class="st2" d="M318.4,465h96.9v24h-96.9V465z"/>
	</g>
	<g transform="translate(-262,-174) scale(1,1)">
		<g>
			<path class="st2" d="M0,0"/>
			<text transform="matrix(1 0 0 1 326.7891 484.5)" class="st3 st4">TestController</text>
		</g>
	</g>
	<g transform="translate(-262,-174) scale(1,1)">
		<rect x="337.7" y="507" class="st1" width="72.3" height="24"/>
	</g>
	<g transform="translate(-262,-174) scale(1,1)">
		<rect x="330.7" y="500" class="st0" width="72.3" height="24"/>
	</g>
	<g transform="translate(-262,-174) scale(1,1)">
		<path class="st2" d="M330.7,500H403v24h-72.3V500z"/>
	</g>
	<g transform="translate(-262,-174) scale(1,1)">
		<g>
			<path class="st2" d="M0,0"/>
			<text transform="matrix(1 0 0 1 337.2627 519.5)" class="st3 st4">TestModel</text>
		</g>
	</g>
	<g transform="translate(-262,-174) scale(1,1)">
		<rect x="333.4" y="542" class="st1" width="81" height="24"/>
	</g>
	<g transform="translate(-262,-174) scale(1,1)">
		<rect x="326.4" y="535" class="st0" width="81" height="24"/>
	</g>
	<g transform="translate(-262,-174) scale(1,1)">
		<path class="st2" d="M326.4,535h81v24h-81V535z"/>
	</g>
	<g transform="translate(-262,-174) scale(1,1)">
		<g>
			<path class="st2" d="M0,0"/>
			<text transform="matrix(1 0 0 1 333.2922 554.5)" class="st3 st4">TestService</text>
		</g>
	</g>
	<g transform="translate(-262,-174) scale(1,1)">
		<rect x="327.6" y="577" class="st1" width="92.6" height="24"/>
	</g>
	<g transform="translate(-262,-174) scale(1,1)">
		<rect x="320.6" y="570" class="st0" width="92.6" height="24"/>
	</g>
	<g transform="translate(-262,-174) scale(1,1)">
		<path class="st2" d="M320.6,570h92.6v24h-92.6V570z"/>
	</g>
	<g transform="translate(-262,-174) scale(1,1)">
		<g>
			<path class="st2" d="M0,0"/>
			<text transform="matrix(1 0 0 1 328.96 589.5)" class="st3 st4">TestStatistics</text>
		</g>
	</g>
	<g transform="translate(-262,-174) scale(1,1)">
		<rect x="333.4" y="612" class="st1" width="81" height="24"/>
	</g>
	<g transform="translate(-262,-174) scale(1,1)">
		<rect x="326.4" y="605" class="st0" width="81" height="24"/>
	</g>
	<g transform="translate(-262,-174) scale(1,1)">
		<path class="st2" d="M326.4,605h81v24h-81V605z"/>
	</g>
	<g transform="translate(-262,-174) scale(1,1)">
		<g>
			<path class="st2" d="M0,0"/>
			<text transform="matrix(1 0 0 1 333.6572 624.5)" class="st3 st4">TestThrows</text>
		</g>
	</g>
	<g transform="translate(-262,-174) scale(1,1)">
		<rect x="338.3" y="647" class="st1" width="71.1" height="24"/>
	</g>
	<g transform="translate(-262,-174) scale(1,1)">
		<rect x="331.3" y="640" class="st0" width="71.1" height="24"/>
	</g>
	<g transform="translate(-262,-174) scale(1,1)">
		<path class="st2" d="M331.3,640h71.1v24h-71.1V640z"/>
	</g>
	<g transform="translate(-262,-174) scale(1,1)">
		<g>
			<path class="st2" d="M0,0"/>
			<text transform="matrix(1 0 0 1 338.3418 659.5)" class="st3 st4">Exception</text>
		</g>
	</g>
	<g transform="translate(-262,-174) scale(1,1)">
		<path class="st2" d="M579,472c-52,0-119.7,55.7-203,167"/>
	</g>
	<g transform="translate(-262,-174) scale(1,1)">
		<path class="st0" d="M381.4,617.7L376,639l18.9-11.2"/>
	</g>
	<g transform="translate(-262,-174) scale(1,1)">
		<path class="st2" d="M381.4,617.7L376,639l18.9-11.2L381.4,617.7"/>
	</g>
	<g transform="translate(-262,-174) scale(1,1)">
		<path class="st2" d="M550,507c-32.7,0-90,44-172,132"/>
	</g>
	<g transform="translate(-262,-174) scale(1,1)">
		<path class="st0" d="M385.7,618.4L378,639l20-9.1"/>
	</g>
	<g transform="translate(-262,-174) scale(1,1)">
		<path class="st2" d="M385.7,618.4L378,639l20-9.1L385.7,618.4"/>
	</g>
	<g transform="translate(-262,-174) scale(1,1)">
		<path class="st2" d="M585,541c-56,0.7-123.7,33.3-203,98"/>
	</g>
	<g transform="translate(-262,-174) scale(1,1)">
		<path class="st0" d="M392.4,619.6L382,639l21.1-6.3"/>
	</g>
	<g transform="translate(-262,-174) scale(1,1)">
		<path class="st2" d="M392.4,619.6L382,639l21.1-6.3L392.4,619.6"/>
	</g>
	<g transform="translate(-262,-174) scale(1,1)">
		<path class="st2" d="M560,600c-39.3,0-92.7,13-160,39"/>
	</g>
	<g transform="translate(-262,-174) scale(1,1)">
		<path class="st0" d="M415.9,623.8L400,639l22,0.5"/>
	</g>
	<g transform="translate(-262,-174) scale(1,1)">
		<path class="st2" d="M415.9,623.8L400,639l22,0.5L415.9,623.8"/>
	</g>
	<g transform="translate(-262,-174) scale(1,1)">
		<path class="st2" d="M580,634c-52.7,0.7-111.7,5-177,13"/>
	</g>
	<g transform="translate(-262,-174) scale(1,1)">
		<path class="st0" d="M422.2,636.2L403,647l21.2,5.9"/>
	</g>
	<g transform="translate(-262,-174) scale(1,1)">
		<path class="st2" d="M422.2,636.2L403,647l21.2,5.9L422.2,636.2"/>
	</g>
	<g transform="translate(-262,-174) scale(1,1)">
		<path class="st2" d="M562,670c-40.7,0-93.7-4.3-159-13"/>
	</g>
	<g transform="translate(-262,-174) scale(1,1)">
		<path class="st0" d="M424.3,651.3L403,657l19,11"/>
	</g>
	<g transform="translate(-262,-174) scale(1,1)">
		<path class="st2" d="M424.3,651.3L403,657l19,11L424.3,651.3"/>
	</g>
	<g transform="translate(-262,-174) scale(1,1)">
		<path class="st2" d="M577,705c-50.7,0-110-13.3-178-40"/>
	</g>
	<g transform="translate(-262,-174) scale(1,1)">
		<path class="st0" d="M421,664.6l-22,0.4l15.8,15.3"/>
	</g>
	<g transform="translate(-262,-174) scale(1,1)">
		<path class="st2" d="M421,664.6l-22,0.4l15.8,15.3L421,664.6"/>
	</g>
	<g transform="translate(-262,-174) scale(1,1)">
		<path class="st2" d="M616,360c-76.7,0.7-155.9-1.9-237.6-7.6"/>
	</g>
</g>
</svg>
