<?xml version="1.0" encoding="utf-8"?>
<!-- Generator: Adobe Illustrator 23.0.2, SVG Export Plug-In . SVG Version: 6.00 Build 0)  -->
<svg version="1.1" id="Layer_1" xmlns="http://www.w3.org/2000/svg" xmlns:xlink="http://www.w3.org/1999/xlink" x="0px" y="0px"
	 viewBox="0 0 643 803" style="enable-background:new 0 0 643 803;" xml:space="preserve">
<style type="text/css">
	.st0{fill:#FFFFFF;}
	.st1{fill:none;stroke:#000000;stroke-miterlimit:10;}
	.st2{opacity:0.2;fill:#C0C0C0;enable-background:new    ;}
	.st3{font-family:'Arial-BoldMT';}
	.st4{font-size:13px;}
</style>
<g>
	<g transform="translate(-342,-46) scale(1,1)">
		<rect x="352" y="56" class="st0" width="623" height="783"/>
	</g>
	<g transform="translate(-342,-46) scale(1,1)">
		<path class="st1" d="M352,56h623v783H352V56z"/>
	</g>
	<g transform="translate(-342,-46) scale(1,1)">
		<rect x="498.3" y="99" class="st2" width="71.1" height="24"/>
	</g>
	<g transform="translate(-342,-46) scale(1,1)">
		<rect x="491.3" y="92" class="st0" width="71.1" height="24"/>
	</g>
	<g transform="translate(-342,-46) scale(1,1)">
		<path class="st1" d="M491.3,92h71.1v24h-71.1V92z"/>
	</g>
	<g transform="translate(-342,-46) scale(1,1)">
		<g>
			<path class="st1" d="M0,0"/>
			<text transform="matrix(1 0 0 1 498.71 111.5)" class="st3 st4">Controller</text>
		</g>
	</g>
	<g transform="translate(-342,-46) scale(1,1)">
		<rect x="747" y="362" class="st2" width="156.3" height="24"/>
	</g>
	<g transform="translate(-342,-46) scale(1,1)">
		<rect x="740" y="355" class="st0" width="156.3" height="24"/>
	</g>
	<g transform="translate(-342,-46) scale(1,1)">
		<path class="st1" d="M740,355h156.3v24H740V355z"/>
	</g>
	<g transform="translate(-342,-46) scale(1,1)">
		<g>
			<path class="st1" d="M0,0"/>
			<text transform="matrix(1 0 0 1 749.5486 374.5)" class="st3 st4">DayNotFoundException</text>
		</g>
	</g>
	<g transform="translate(-342,-46) scale(1,1)">
		<rect x="717.8" y="397" class="st2" width="214.8" height="24"/>
	</g>
	<g transform="translate(-342,-46) scale(1,1)">
		<rect x="710.8" y="390" class="st0" width="214.8" height="24"/>
	</g>
	<g transform="translate(-342,-46) scale(1,1)">
		<path class="st1" d="M710.8,390h214.8v24H710.8V390z"/>
	</g>
	<g transform="translate(-342,-46) scale(1,1)">
		<g>
			<path class="st1" d="M0,0"/>
			<text transform="matrix(1 0 0 1 723.9072 409.5)" class="st3 st4">CityStatisticsNotFoundException</text>
		</g>
	</g>
	<g transform="translate(-342,-46) scale(1,1)">
		<rect x="753.2" y="432" class="st2" width="144" height="24"/>
	</g>
	<g transform="translate(-342,-46) scale(1,1)">
		<rect x="746.2" y="425" class="st0" width="144" height="24"/>
	</g>
	<g transform="translate(-342,-46) scale(1,1)">
		<path class="st1" d="M746.2,425h144v24h-144V425z"/>
	</g>
	<g transform="translate(-342,-46) scale(1,1)">
		<g>
			<path class="st1" d="M0,0"/>
			<text transform="matrix(1 0 0 1 755.6868 444.5)" class="st3 st4">IdNotFoundException</text>
		</g>
	</g>
	<g transform="translate(-342,-46) scale(1,1)">
		<rect x="727.9" y="543" class="st2" width="194.6" height="24"/>
	</g>
	<g transform="translate(-342,-46) scale(1,1)">
		<rect x="720.9" y="536" class="st0" width="194.6" height="24"/>
	</g>
	<g transform="translate(-342,-46) scale(1,1)">
		<path class="st1" d="M720.9,536h194.6v24H720.9V536z"/>
	</g>
	<g transform="translate(-342,-46) scale(1,1)">
		<g>
			<path class="st1" d="M0,0"/>
			<text transform="matrix(1 0 0 1 732.5686 555.5)" class="st3 st4">ItalianCityNotFoundException</text>
		</g>
	</g>
	<g transform="translate(-342,-46) scale(1,1)">
		<rect x="747.7" y="578" class="st2" width="154.9" height="24"/>
	</g>
	<g transform="translate(-342,-46) scale(1,1)">
		<rect x="740.7" y="571" class="st0" width="154.9" height="24"/>
	</g>
	<g transform="translate(-342,-46) scale(1,1)">
		<path class="st1" d="M740.7,571h154.9v24H740.7V571z"/>
	</g>
	<g transform="translate(-342,-46) scale(1,1)">
		<g>
			<path class="st1" d="M0,0"/>
			<text transform="matrix(1 0 0 1 750.2722 590.5)" class="st3 st4">NegativeStartException</text>
		</g>
	</g>
	<g transform="translate(-342,-46) scale(1,1)">
		<rect x="730.2" y="613" class="st2" width="190.1" height="24"/>
	</g>
	<g transform="translate(-342,-46) scale(1,1)">
		<rect x="723.2" y="606" class="st0" width="190.1" height="24"/>
	</g>
	<g transform="translate(-342,-46) scale(1,1)">
		<path class="st1" d="M723.2,606h190.1v24H723.2V606z"/>
	</g>
	<g transform="translate(-342,-46) scale(1,1)">
		<g>
			<path class="st1" d="M0,0"/>
			<text transform="matrix(1 0 0 1 734.4983 625.5)" class="st3 st4">WrongHoursPeriodException</text>
		</g>
	</g>
	<g transform="translate(-342,-46) scale(1,1)">
		<rect x="744.6" y="648" class="st2" width="161.1" height="24"/>
	</g>
	<g transform="translate(-342,-46) scale(1,1)">
		<rect x="737.6" y="641" class="st0" width="161.1" height="24"/>
	</g>
	<g transform="translate(-342,-46) scale(1,1)">
		<path class="st1" d="M737.6,641h161.1v24H737.6V641z"/>
	</g>
	<g transform="translate(-342,-46) scale(1,1)">
		<g>
			<path class="st1" d="M0,0"/>
			<text transform="matrix(1 0 0 1 748.5933 660.5)" class="st3 st4">WrongMultiplyException</text>
		</g>
	</g>
	<g transform="translate(-342,-46) scale(1,1)">
		<rect x="517.1" y="134" class="st2" width="33.6" height="24"/>
	</g>
	<g transform="translate(-342,-46) scale(1,1)">
		<rect x="510.1" y="127" class="st0" width="33.6" height="24"/>
	</g>
	<g transform="translate(-342,-46) scale(1,1)">
		<path class="st1" d="M510.1,127h33.6v24h-33.6V127z"/>
	</g>
	<g transform="translate(-342,-46) scale(1,1)">
		<g>
			<path class="st1" d="M0,0"/>
			<text transform="matrix(1 0 0 1 515.6931 146.5)" class="st3 st4">City</text>
		</g>
	</g>
	<g transform="translate(-342,-46) scale(1,1)">
		<rect x="502.3" y="169" class="st2" width="63.2" height="24"/>
	</g>
	<g transform="translate(-342,-46) scale(1,1)">
		<rect x="495.3" y="162" class="st0" width="63.2" height="24"/>
	</g>
	<g transform="translate(-342,-46) scale(1,1)">
		<path class="st1" d="M495.3,162h63.2v24h-63.2V162z"/>
	</g>
	<g transform="translate(-342,-46) scale(1,1)">
		<g>
			<path class="st1" d="M0,0"/>
			<text transform="matrix(1 0 0 1 501.6013 181.5)" class="st3 st4">Forecast</text>
		</g>
	</g>
	<g transform="translate(-342,-46) scale(1,1)">
		<rect x="451" y="204" class="st2" width="165.8" height="24"/>
	</g>
	<g transform="translate(-342,-46) scale(1,1)">
		<rect x="444" y="197" class="st0" width="165.8" height="24"/>
	</g>
	<g transform="translate(-342,-46) scale(1,1)">
		<path class="st1" d="M444,197h165.8v24H444V197z"/>
	</g>
	<g transform="translate(-342,-46) scale(1,1)">
		<g>
			<path class="st1" d="M0,0"/>
			<text transform="matrix(1 0 0 1 455.3523 216.5)" class="st3 st4">PressurestatsApplication</text>
		</g>
	</g>
	<g transform="translate(-342,-46) scale(1,1)">
		<path class="st2" d="M522.4,250.5c0-6.4,5.1-11.5,11.5-11.5s11.5,5.1,11.5,11.5c0,6.4-5.1,11.5-11.5,11.5S522.4,256.9,522.4,250.5
			z"/>
	</g>
	<g transform="translate(-342,-46) scale(1,1)">
		<path class="st0" d="M515.4,243.5c0-6.4,5.1-11.5,11.5-11.5s11.5,5.1,11.5,11.5s-5.1,11.5-11.5,11.5S515.4,249.9,515.4,243.5z"/>
	</g>
	<g transform="translate(-342,-46) scale(1,1)">
		<path class="st1" d="M515.4,243.5c0-6.4,5.1-11.5,11.5-11.5s11.5,5.1,11.5,11.5s-5.1,11.5-11.5,11.5S515.4,249.9,515.4,243.5z"/>
	</g>
	<g transform="translate(-342,-46) scale(1,1)">
		<g>
			<path class="st1" d="M0,0"/>
			<text transform="matrix(1 0 0 1 505.2131 274.5)" class="st3 st4">Service</text>
		</g>
	</g>
	<g transform="translate(-342,-46) scale(1,1)">
		<rect x="784.2" y="251" class="st2" width="82" height="24"/>
	</g>
	<g transform="translate(-342,-46) scale(1,1)">
		<rect x="777.2" y="244" class="st0" width="82" height="24"/>
	</g>
	<g transform="translate(-342,-46) scale(1,1)">
		<path class="st1" d="M777.2,244h82v24h-82V244z"/>
	</g>
	<g transform="translate(-342,-46) scale(1,1)">
		<g>
			<path class="st1" d="M0,0"/>
			<text transform="matrix(1 0 0 1 784.2449 263.5)" class="st3 st4">ServiceImpl</text>
		</g>
	</g>
	<g transform="translate(-342,-46) scale(1,1)">
		<rect x="509.9" y="298" class="st2" width="48" height="24"/>
	</g>
	<g transform="translate(-342,-46) scale(1,1)">
		<rect x="502.9" y="291" class="st0" width="48" height="24"/>
	</g>
	<g transform="translate(-342,-46) scale(1,1)">
		<path class="st1" d="M502.9,291h48v24h-48V291z"/>
	</g>
	<g transform="translate(-342,-46) scale(1,1)">
		<g>
			<path class="st1" d="M0,0"/>
			<text transform="matrix(1 0 0 1 509.1931 310.5)" class="st3 st4">Filters</text>
		</g>
	</g>
	<g transform="translate(-342,-46) scale(1,1)">
		<rect x="500.5" y="333" class="st2" width="66.8" height="24"/>
	</g>
	<g transform="translate(-342,-46) scale(1,1)">
		<rect x="493.5" y="326" class="st0" width="66.8" height="24"/>
	</g>
	<g transform="translate(-342,-46) scale(1,1)">
		<path class="st1" d="M493.5,326h66.8v24h-66.8V326z"/>
	</g>
	<g transform="translate(-342,-46) scale(1,1)">
		<g>
			<path class="st1" d="M0,0"/>
			<text transform="matrix(1 0 0 1 500.8809 345.5)" class="st3 st4">Statistics</text>
		</g>
	</g>
	<g transform="translate(-342,-46) scale(1,1)">
		<rect x="485.4" y="368" class="st2" width="96.9" height="24"/>
	</g>
	<g transform="translate(-342,-46) scale(1,1)">
		<rect x="478.4" y="361" class="st0" width="96.9" height="24"/>
	</g>
	<g transform="translate(-342,-46) scale(1,1)">
		<path class="st1" d="M478.4,361h96.9v24h-96.9V361z"/>
	</g>
	<g transform="translate(-342,-46) scale(1,1)">
		<g>
			<path class="st1" d="M0,0"/>
			<text transform="matrix(1 0 0 1 486.7891 380.5)" class="st3 st4">TestController</text>
		</g>
	</g>
	<g transform="translate(-342,-46) scale(1,1)">
		<rect x="497.7" y="403" class="st2" width="72.3" height="24"/>
	</g>
	<g transform="translate(-342,-46) scale(1,1)">
		<rect x="490.7" y="396" class="st0" width="72.3" height="24"/>
	</g>
	<g transform="translate(-342,-46) scale(1,1)">
		<path class="st1" d="M490.7,396H563v24h-72.3V396z"/>
	</g>
	<g transform="translate(-342,-46) scale(1,1)">
		<g>
			<path class="st1" d="M0,0"/>
			<text transform="matrix(1 0 0 1 497.2627 415.5)" class="st3 st4">TestModel</text>
		</g>
	</g>
	<g transform="translate(-342,-46) scale(1,1)">
		<rect x="493.4" y="438" class="st2" width="81" height="24"/>
	</g>
	<g transform="translate(-342,-46) scale(1,1)">
		<rect x="486.4" y="431" class="st0" width="81" height="24"/>
	</g>
	<g transform="translate(-342,-46) scale(1,1)">
		<path class="st1" d="M486.4,431h81v24h-81V431z"/>
	</g>
	<g transform="translate(-342,-46) scale(1,1)">
		<g>
			<path class="st1" d="M0,0"/>
			<text transform="matrix(1 0 0 1 493.2922 450.5)" class="st3 st4">TestService</text>
		</g>
	</g>
	<g transform="translate(-342,-46) scale(1,1)">
		<rect x="487.6" y="473" class="st2" width="92.6" height="24"/>
	</g>
	<g transform="translate(-342,-46) scale(1,1)">
		<rect x="480.6" y="466" class="st0" width="92.6" height="24"/>
	</g>
	<g transform="translate(-342,-46) scale(1,1)">
		<path class="st1" d="M480.6,466h92.6v24h-92.6V466z"/>
	</g>
	<g transform="translate(-342,-46) scale(1,1)">
		<g>
			<path class="st1" d="M0,0"/>
			<text transform="matrix(1 0 0 1 488.96 485.5)" class="st3 st4">TestStatistics</text>
		</g>
	</g>
	<g transform="translate(-342,-46) scale(1,1)">
		<rect x="493.4" y="508" class="st2" width="81" height="24"/>
	</g>
	<g transform="translate(-342,-46) scale(1,1)">
		<rect x="486.4" y="501" class="st0" width="81" height="24"/>
	</g>
	<g transform="translate(-342,-46) scale(1,1)">
		<path class="st1" d="M486.4,501h81v24h-81V501z"/>
	</g>
	<g transform="translate(-342,-46) scale(1,1)">
		<g>
			<path class="st1" d="M0,0"/>
			<text transform="matrix(1 0 0 1 493.6572 520.5)" class="st3 st4">TestThrows</text>
		</g>
	</g>
	<g transform="translate(-342,-46) scale(1,1)">
		<rect x="498.3" y="543" class="st2" width="71.1" height="24"/>
	</g>
	<g transform="translate(-342,-46) scale(1,1)">
		<rect x="491.3" y="536" class="st0" width="71.1" height="24"/>
	</g>
	<g transform="translate(-342,-46) scale(1,1)">
		<path class="st1" d="M491.3,536h71.1v24h-71.1V536z"/>
	</g>
	<g transform="translate(-342,-46) scale(1,1)">
		<g>
			<path class="st1" d="M0,0"/>
			<text transform="matrix(1 0 0 1 498.3418 555.5)" class="st3 st4">Exception</text>
		</g>
	</g>
	<g transform="translate(-342,-46) scale(1,1)">
		<rect x="480.3" y="578" class="st2" width="107.2" height="24"/>
	</g>
	<g transform="translate(-342,-46) scale(1,1)">
		<rect x="473.3" y="571" class="st0" width="107.2" height="24"/>
	</g>
	<g transform="translate(-342,-46) scale(1,1)">
		<path class="st1" d="M473.3,571h107.2v24H473.3V571z"/>
	</g>
	<g transform="translate(-342,-46) scale(1,1)">
		<g>
			<path class="st1" d="M0,0"/>
			<text transform="matrix(1 0 0 1 481.3618 590.5)" class="st3 st4">ResponseEntity</text>
		</g>
	</g>
	<g transform="translate(-342,-46) scale(1,1)">
		<rect x="509.5" y="613" class="st2" width="48.7" height="24"/>
	</g>
	<g transform="translate(-342,-46) scale(1,1)">
		<rect x="502.5" y="606" class="st0" width="48.7" height="24"/>
	</g>
	<g transform="translate(-342,-46) scale(1,1)">
		<path class="st1" d="M502.5,606h48.7v24h-48.7V606z"/>
	</g>
	<g transform="translate(-342,-46) scale(1,1)">
		<g>
			<path class="st1" d="M0,0"/>
			<text transform="matrix(1 0 0 1 508.46 625.5)" class="st3 st4">Vector</text>
		</g>
	</g>
	<g transform="translate(-342,-46) scale(1,1)">
		<rect x="509.2" y="648" class="st2" width="49.5" height="24"/>
	</g>
	<g transform="translate(-342,-46) scale(1,1)">
		<rect x="502.2" y="641" class="st0" width="49.5" height="24"/>
	</g>
	<g transform="translate(-342,-46) scale(1,1)">
		<path class="st1" d="M502.2,641h49.5v24h-49.5V641z"/>
	</g>
	<g transform="translate(-342,-46) scale(1,1)">
		<g>
			<path class="st1" d="M0,0"/>
			<text transform="matrix(1 0 0 1 508.1013 660.5)" class="st3 st4">Object</text>
		</g>
	</g>
	<g transform="translate(-342,-46) scale(1,1)">
		<rect x="491.5" y="683" class="st2" width="84.9" height="24"/>
	</g>
	<g transform="translate(-342,-46) scale(1,1)">
		<rect x="484.5" y="676" class="st0" width="84.9" height="24"/>
	</g>
	<g transform="translate(-342,-46) scale(1,1)">
		<path class="st1" d="M484.5,676h84.9v24h-84.9V676z"/>
	</g>
	<g transform="translate(-342,-46) scale(1,1)">
		<g>
			<path class="st1" d="M0,0"/>
			<text transform="matrix(1 0 0 1 490.7659 695.5)" class="st3 st4">JSONObject</text>
		</g>
	</g>
	<g transform="translate(-342,-46) scale(1,1)">
		<rect x="494.7" y="718" class="st2" width="78.4" height="24"/>
	</g>
	<g transform="translate(-342,-46) scale(1,1)">
		<rect x="487.7" y="711" class="st0" width="78.4" height="24"/>
	</g>
	<g transform="translate(-342,-46) scale(1,1)">
		<path class="st1" d="M487.7,711h78.4v24h-78.4V711z"/>
	</g>
	<g transform="translate(-342,-46) scale(1,1)">
		<g>
			<path class="st1" d="M0,0"/>
			<text transform="matrix(1 0 0 1 494.0222 730.5)" class="st3 st4">JSONArray</text>
		</g>
	</g>
	<g transform="translate(-342,-46) scale(1,1)">
		<rect x="456.2" y="753" class="st2" width="155.4" height="24"/>
	</g>
	<g transform="translate(-342,-46) scale(1,1)">
		<rect x="449.2" y="746" class="st0" width="155.4" height="24"/>
	</g>
	<g transform="translate(-342,-46) scale(1,1)">
		<path class="st1" d="M449.2,746h155.4v24H449.2V746z"/>
	</g>
	<g transform="translate(-342,-46) scale(1,1)">
		<g>
			<path class="st1" d="M0,0"/>
			<text transform="matrix(1 0 0 1 459.4402 765.5)" class="st3 st4">WebApplicationContext</text>
		</g>
	</g>
	<g transform="translate(-342,-46) scale(1,1)">
		<rect x="500.1" y="788" class="st2" width="67.5" height="24"/>
	</g>
	<g transform="translate(-342,-46) scale(1,1)">
		<rect x="493.1" y="781" class="st0" width="67.5" height="24"/>
	</g>
	<g transform="translate(-342,-46) scale(1,1)">
		<path class="st1" d="M493.1,781h67.5v24h-67.5V781z"/>
	</g>
	<g transform="translate(-342,-46) scale(1,1)">
		<g>
			<path class="st1" d="M0,0"/>
			<text transform="matrix(1 0 0 1 499.4431 800.5)" class="st3 st4">MockMvc</text>
		</g>
	</g>
	<g transform="translate(-342,-46) scale(1,1)">
		<path class="st1" d="M739,368c-52,0-119.7,55.7-203,167"/>
	</g>
	<g transform="translate(-342,-46) scale(1,1)">
		<path class="st0" d="M541.4,513.7L536,535l18.9-11.2"/>
	</g>
	<g transform="translate(-342,-46) scale(1,1)">
		<path class="st1" d="M541.4,513.7L536,535l18.9-11.2L541.4,513.7"/>
	</g>
	<g transform="translate(-342,-46) scale(1,1)">
		<path class="st1" d="M710,403c-32.7,0-90,44-172,132"/>
	</g>
	<g transform="translate(-342,-46) scale(1,1)">
		<path class="st0" d="M545.7,514.4L538,535l20-9.1"/>
	</g>
	<g transform="translate(-342,-46) scale(1,1)">
		<path class="st1" d="M545.7,514.4L538,535l20-9.1L545.7,514.4"/>
	</g>
	<g transform="translate(-342,-46) scale(1,1)">
		<path class="st1" d="M745,437c-56,0.7-123.7,33.3-203,98"/>
	</g>
	<g transform="translate(-342,-46) scale(1,1)">
		<path class="st0" d="M552.4,515.6L542,535l21.1-6.3"/>
	</g>
	<g transform="translate(-342,-46) scale(1,1)">
		<path class="st1" d="M552.4,515.6L542,535l21.1-6.3L552.4,515.6"/>
	</g>
	<g transform="translate(-342,-46) scale(1,1)">
		<path class="st1" d="M720,549c-39.3,0-91.7-0.3-157-1"/>
	</g>
	<g transform="translate(-342,-46) scale(1,1)">
		<path class="st0" d="M583.4,539.8L563,548l20.2,8.6"/>
	</g>
	<g transform="translate(-342,-46) scale(1,1)">
		<path class="st1" d="M583.4,539.8L563,548l20.2,8.6L583.4,539.8"/>
	</g>
	<g transform="translate(-342,-46) scale(1,1)">
		<path class="st1" d="M740,583c-52.7,0.7-111.7-7.7-177-25"/>
	</g>
	<g transform="translate(-342,-46) scale(1,1)">
		<path class="st0" d="M584.8,555.1L563,558l17.5,13.3"/>
	</g>
	<g transform="translate(-342,-46) scale(1,1)">
		<path class="st1" d="M584.8,555.1L563,558l17.5,13.3L584.8,555.1"/>
	</g>
	<g transform="translate(-342,-46) scale(1,1)">
		<path class="st1" d="M722,619c-40.7,0-97.7-19.3-171-58"/>
	</g>
	<g transform="translate(-342,-46) scale(1,1)">
		<path class="st0" d="M572.9,563l-21.9-2l14.1,16.9"/>
	</g>
	<g transform="translate(-342,-46) scale(1,1)">
		<path class="st1" d="M572.9,563l-21.9-2l14.1,16.9L572.9,563"/>
	</g>
	<g transform="translate(-342,-46) scale(1,1)">
		<path class="st1" d="M737,654c-50.7,0-115.3-31-194-93"/>
	</g>
	<g transform="translate(-342,-46) scale(1,1)">
		<path class="st0" d="M564.2,567l-21.2-6l10.8,19.2"/>
	</g>
	<g transform="translate(-342,-46) scale(1,1)">
		<path class="st1" d="M564.2,567l-21.2-6l10.8,19.2L564.2,567"/>
	</g>
	<g transform="translate(-342,-46) scale(1,1)">
		<path class="st1" d="M776,256c-76.7,0.7-155.9-1.9-237.6-7.6"/>
	</g>
</g>
</svg>
