<?xml version="1.0" encoding="utf-8"?>
<!-- Generator: Adobe Illustrator 23.0.2, SVG Export Plug-In . SVG Version: 6.00 Build 0)  -->
<svg version="1.1" id="Layer_1" xmlns="http://www.w3.org/2000/svg" xmlns:xlink="http://www.w3.org/1999/xlink" x="0px" y="0px"
	 viewBox="0 0 932 532" style="enable-background:new 0 0 932 532;" xml:space="preserve">
<style type="text/css">
	.st0{fill:#FFFFFF;}
	.st1{fill:none;stroke:#000000;stroke-miterlimit:10;}
	.st2{font-family:'Arial-BoldMT';}
	.st3{font-size:13px;}
	.st4{opacity:0.2;fill:#C0C0C0;enable-background:new    ;}
	.st5{fill:none;stroke:#000000;stroke-miterlimit:10;stroke-dasharray:3;}
	.st6{font-family:'ArialMT';}
</style>
<g>
	<g transform="translate(-126,-102) scale(1,1)">
		<rect x="136" y="112" class="st0" width="912" height="512"/>
	</g>
	<g transform="translate(-126,-102) scale(1,1)">
		<path class="st1" d="M136,112h912v512H136V112z"/>
	</g>
	<g transform="translate(-126,-102) scale(1,1)">
		<path class="st0" d="M203.9,505.7c0-4.8,3.9-8.7,8.7-8.7s8.7,3.9,8.7,8.7c0,4.8-3.9,8.7-8.7,8.7S203.9,510.5,203.9,505.7z"/>
	</g>
	<g transform="translate(-126,-102) scale(1,1)">
		<path class="st1" d="M203.9,505.7c0-4.8,3.9-8.7,8.7-8.7s8.7,3.9,8.7,8.7c0,4.8-3.9,8.7-8.7,8.7S203.9,510.5,203.9,505.7z"/>
	</g>
	<g transform="translate(-126,-102) scale(1,1)">
		<path class="st1" d="M212.5,514.4v17.3"/>
	</g>
	<g transform="translate(-126,-102) scale(1,1)">
		<path class="st1" d="M203.3,520.8h18.4"/>
	</g>
	<g transform="translate(-126,-102) scale(1,1)">
		<path class="st1" d="M212.5,531.6L199.8,549"/>
	</g>
	<g transform="translate(-126,-102) scale(1,1)">
		<path class="st1" d="M212.5,531.6l12.8,17.4"/>
	</g>
	<g transform="translate(-126,-102) scale(1,1)">
		<g>
			<path class="st1" d="M0,0"/>
			<text transform="matrix(1 0 0 1 168.8354 569.5)" class="st2 st3">Amministratore</text>
		</g>
	</g>
	<g transform="translate(-126,-102) scale(1,1)">
		<path class="st0" d="M200,137.7c0-4.8,3.9-8.7,8.7-8.7s8.7,3.9,8.7,8.7c0,4.8-3.9,8.7-8.7,8.7S200,142.5,200,137.7z"/>
	</g>
	<g transform="translate(-126,-102) scale(1,1)">
		<path class="st1" d="M200,137.7c0-4.8,3.9-8.7,8.7-8.7s8.7,3.9,8.7,8.7c0,4.8-3.9,8.7-8.7,8.7S200,142.5,200,137.7z"/>
	</g>
	<g transform="translate(-126,-102) scale(1,1)">
		<path class="st1" d="M208.7,146.4v17.3"/>
	</g>
	<g transform="translate(-126,-102) scale(1,1)">
		<path class="st1" d="M199.5,152.8h18.4"/>
	</g>
	<g transform="translate(-126,-102) scale(1,1)">
		<path class="st1" d="M208.7,163.6L196,181"/>
	</g>
	<g transform="translate(-126,-102) scale(1,1)">
		<path class="st1" d="M208.7,163.6l12.8,17.4"/>
	</g>
	<g transform="translate(-126,-102) scale(1,1)">
		<g>
			<path class="st1" d="M0,0"/>
			<text transform="matrix(1 0 0 1 189.5728 201.5)" class="st2 st3">Utente</text>
		</g>
	</g>
	<g transform="translate(-126,-102) scale(1,1)">
		<path class="st4" d="M335,160c0-9.4,28-17,62.5-17s62.5,7.6,62.5,17s-28,17-62.5,17S335,169.4,335,160z"/>
	</g>
	<g transform="translate(-126,-102) scale(1,1)">
		<path class="st0" d="M328,153c0-9.4,28-17,62.5-17s62.5,7.6,62.5,17s-28,17-62.5,17S328,162.4,328,153z"/>
	</g>
	<g transform="translate(-126,-102) scale(1,1)">
		<path class="st1" d="M328,153c0-9.4,28-17,62.5-17s62.5,7.6,62.5,17s-28,17-62.5,17S328,162.4,328,153z"/>
	</g>
	<g transform="translate(-126,-102) scale(1,1)">
		<g>
			<path class="st1" d="M0,0"/>
			<text transform="matrix(1 0 0 1 353.655 160)" class="st2 st3">Inserire Città</text>
		</g>
	</g>
	<g transform="translate(-126,-102) scale(1,1)">
		<path class="st1" d="M234,165l93-7"/>
	</g>
	<g transform="translate(-126,-102) scale(1,1)">
		<path class="st4" d="M271,336c0-9.4,30.9-17,69-17s69,7.6,69,17s-30.9,17-69,17S271,345.4,271,336z"/>
	</g>
	<g transform="translate(-126,-102) scale(1,1)">
		<path class="st0" d="M264,329c0-9.4,30.9-17,69-17s69,7.6,69,17s-30.9,17-69,17S264,338.4,264,329z"/>
	</g>
	<g transform="translate(-126,-102) scale(1,1)">
		<path class="st1" d="M264,329c0-9.4,30.9-17,69-17s69,7.6,69,17s-30.9,17-69,17S264,338.4,264,329z"/>
	</g>
	<g transform="translate(-126,-102) scale(1,1)">
		<g>
			<path class="st1" d="M0,0"/>
			<text transform="matrix(1 0 0 1 292.1814 336)" class="st2 st3">Inserire Giorni</text>
		</g>
	</g>
	<g transform="translate(-126,-102) scale(1,1)">
		<path class="st5" d="M384,171l-45,140"/>
	</g>
	<g transform="translate(-126,-102) scale(1,1)">
		<path class="st1" d="M338.1,300l0.9,11l7.1-8.4"/>
	</g>
	<g transform="translate(-126,-102) scale(1,1)">
		<g>
			<path class="st1" d="M0,0"/>
			<text transform="matrix(1 0 0 1 361.5 255.5)" class="st6 st3">«include»</text>
		</g>
	</g>
	<g transform="translate(-126,-102) scale(1,1)">
		<path class="st4" d="M583,424c0-9.4,34.7-17,77.5-17s77.5,7.6,77.5,17s-34.7,17-77.5,17S583,433.4,583,424z"/>
	</g>
	<g transform="translate(-126,-102) scale(1,1)">
		<path class="st0" d="M576,417c0-9.4,34.7-17,77.5-17s77.5,7.6,77.5,17s-34.7,17-77.5,17S576,426.4,576,417z"/>
	</g>
	<g transform="translate(-126,-102) scale(1,1)">
		<path class="st1" d="M576,417c0-9.4,34.7-17,77.5-17s77.5,7.6,77.5,17s-34.7,17-77.5,17S576,426.4,576,417z"/>
	</g>
	<g transform="translate(-126,-102) scale(1,1)">
		<g>
			<path class="st1" d="M0,0"/>
			<text transform="matrix(1 0 0 1 606.2893 424)" class="st2 st3">Visualizzare dati</text>
		</g>
	</g>
	<g transform="translate(-126,-102) scale(1,1)">
		<path class="st5" d="M398,347l190,52"/>
	</g>
	<g transform="translate(-126,-102) scale(1,1)">
		<path class="st1" d="M577.1,400.4L588,399l-8.7-6.7"/>
	</g>
	<g transform="translate(-126,-102) scale(1,1)">
		<g>
			<path class="st1" d="M0,0"/>
			<text transform="matrix(1 0 0 1 472.5 350.5)" class="st6 st3">«include»</text>
		</g>
	</g>
	<g transform="translate(-126,-102) scale(1,1)">
		<path class="st4" d="M567,168c0-9.4,48.1-17,107.5-17S782,158.6,782,168s-48.1,17-107.5,17S567,177.4,567,168z"/>
	</g>
	<g transform="translate(-126,-102) scale(1,1)">
		<path class="st0" d="M560,161c0-9.4,48.1-17,107.5-17S775,151.6,775,161s-48.1,17-107.5,17S560,170.4,560,161z"/>
	</g>
	<g transform="translate(-126,-102) scale(1,1)">
		<path class="st1" d="M560,161c0-9.4,48.1-17,107.5-17S775,151.6,775,161s-48.1,17-107.5,17S560,170.4,560,161z"/>
	</g>
	<g transform="translate(-126,-102) scale(1,1)">
		<g>
			<path class="st1" d="M0,0"/>
			<text transform="matrix(1 0 0 1 602.1064 168)" class="st2 st3">Inserire Giorno singolo</text>
		</g>
	</g>
	<g transform="translate(-126,-102) scale(1,1)">
		<path class="st5" d="M454,155l105,3"/>
	</g>
	<g transform="translate(-126,-102) scale(1,1)">
		<path class="st1" d="M548.7,161.9L559,158l-10-4.5"/>
	</g>
	<g transform="translate(-126,-102) scale(1,1)">
		<g>
			<path class="st1" d="M0,0"/>
			<text transform="matrix(1 0 0 1 479.5 132.5)" class="st6 st3">«include»</text>
		</g>
	</g>
	<g transform="translate(-126,-102) scale(1,1)">
		<path class="st5" d="M666,179l-12,220"/>
	</g>
	<g transform="translate(-126,-102) scale(1,1)">
		<path class="st1" d="M650.4,388.6L654,399l4.8-9.9"/>
	</g>
	<g transform="translate(-126,-102) scale(1,1)">
		<g>
			<path class="st1" d="M0,0"/>
			<text transform="matrix(1 0 0 1 661.5 296.5)" class="st6 st3">«include»</text>
		</g>
	</g>
	<g transform="translate(-126,-102) scale(1,1)">
		<path class="st4" d="M391,584c0-9.4,34.5-17,77-17s77,7.6,77,17s-34.5,17-77,17S391,593.4,391,584z"/>
	</g>
	<g transform="translate(-126,-102) scale(1,1)">
		<path class="st0" d="M384,577c0-9.4,34.5-17,77-17s77,7.6,77,17s-34.5,17-77,17S384,586.4,384,577z"/>
	</g>
	<g transform="translate(-126,-102) scale(1,1)">
		<path class="st1" d="M384,577c0-9.4,34.5-17,77-17s77,7.6,77,17s-34.5,17-77,17S384,586.4,384,577z"/>
	</g>
	<g transform="translate(-126,-102) scale(1,1)">
		<g>
			<path class="st1" d="M0,0"/>
			<text transform="matrix(1 0 0 1 414.3892 584)" class="st2 st3">Accedere ai dati</text>
		</g>
	</g>
	<g transform="translate(-126,-102) scale(1,1)">
		<path class="st1" d="M266,544l117,20"/>
	</g>
	<g transform="translate(-126,-102) scale(1,1)">
		<path class="st4" d="M687,592c0-9.4,43.4-17,97-17s97,7.6,97,17s-43.4,17-97,17S687,601.4,687,592z"/>
	</g>
	<g transform="translate(-126,-102) scale(1,1)">
		<path class="st0" d="M680,585c0-9.4,43.4-17,97-17s97,7.6,97,17s-43.4,17-97,17S680,594.4,680,585z"/>
	</g>
	<g transform="translate(-126,-102) scale(1,1)">
		<path class="st1" d="M680,585c0-9.4,43.4-17,97-17s97,7.6,97,17s-43.4,17-97,17S680,594.4,680,585z"/>
	</g>
	<g transform="translate(-126,-102) scale(1,1)">
		<g>
			<path class="st1" d="M0,0"/>
			<text transform="matrix(1 0 0 1 717.751 592)" class="st2 st3">Calcolare Statistiche</text>
		</g>
	</g>
	<g transform="translate(-126,-102) scale(1,1)">
		<path class="st5" d="M539,579l140,4"/>
	</g>
	<g transform="translate(-126,-102) scale(1,1)">
		<path class="st1" d="M668.7,586.9L679,583l-10-4.5"/>
	</g>
	<g transform="translate(-126,-102) scale(1,1)">
		<g>
			<path class="st1" d="M0,0"/>
			<text transform="matrix(1 0 0 1 581.5 557.5)" class="st6 st3">«include»</text>
		</g>
	</g>
	<g transform="translate(-126,-102) scale(1,1)">
		<path class="st5" d="M764,567l-98-132"/>
	</g>
	<g transform="translate(-126,-102) scale(1,1)">
		<path class="st1" d="M675.4,440.7L666,435l2.7,10.7"/>
	</g>
	<g transform="translate(-126,-102) scale(1,1)">
		<g>
			<path class="st1" d="M0,0"/>
			<text transform="matrix(1 0 0 1 662.5 524.5)" class="st6 st3">«include»</text>
		</g>
	</g>
	<g transform="translate(-126,-102) scale(1,1)">
		<path class="st4" d="M831,296c0-9.4,43.2-17,96.5-17s96.5,7.6,96.5,17s-43.2,17-96.5,17S831,305.4,831,296z"/>
	</g>
	<g transform="translate(-126,-102) scale(1,1)">
		<path class="st0" d="M824,289c0-9.4,43.2-17,96.5-17s96.5,7.6,96.5,17s-43.2,17-96.5,17S824,298.4,824,289z"/>
	</g>
	<g transform="translate(-126,-102) scale(1,1)">
		<path class="st1" d="M824,289c0-9.4,43.2-17,96.5-17s96.5,7.6,96.5,17s-43.2,17-96.5,17S824,298.4,824,289z"/>
	</g>
	<g transform="translate(-126,-102) scale(1,1)">
		<g>
			<path class="st1" d="M0,0"/>
			<text transform="matrix(1 0 0 1 861.616 296)" class="st2 st3">Inserire fascia oraria</text>
		</g>
	</g>
	<g transform="translate(-126,-102) scale(1,1)">
		<path class="st5" d="M884,271l-181-92"/>
	</g>
	<g transform="translate(-126,-102) scale(1,1)">
		<path class="st1" d="M714,179.9l-11-0.9l7.2,8.4"/>
	</g>
	<g transform="translate(-126,-102) scale(1,1)">
		<g>
			<path class="st1" d="M0,0"/>
			<text transform="matrix(1 0 0 1 752.5 257.5)" class="st6 st3">«extend»</text>
		</g>
	</g>
	<g transform="translate(-126,-102) scale(1,1)">
		<path class="st5" d="M882,307l-191,92"/>
	</g>
	<g transform="translate(-126,-102) scale(1,1)">
		<path class="st1" d="M698.3,390.8L691,399l11-0.6"/>
	</g>
	<g transform="translate(-126,-102) scale(1,1)">
		<g>
			<path class="st1" d="M0,0"/>
			<text transform="matrix(1 0 0 1 771.5 386.5)" class="st6 st3">«include»</text>
		</g>
	</g>
</g>
</svg>
